<?xml version="1.0" encoding="us-ascii" standalone="no"?><svg xmlns="http://www.w3.org/2000/svg" xmlns:xlink="http://www.w3.org/1999/xlink" contentStyleType="text/css" height="949px" preserveAspectRatio="none" style="width:1217px;height:949px;background:#FFFFFF;" version="1.1" viewBox="0 0 1217 949" width="1217px" zoomAndPan="magnify"><defs/><g><rect fill="#FFFFFF" height="14" style="stroke:#181818;stroke-width:1.0;" width="10" x="322" y="652.8906"/><rect fill="#FFFFFF" height="14" style="stroke:#181818;stroke-width:1.0;" width="10" x="322" y="818.5859"/><rect fill="#FFFFFF" height="812.2891" style="stroke:#181818;stroke-width:1.0;" width="10" x="672" y="112.4297"/><rect fill="#FFFFFF" height="25" style="stroke:#181818;stroke-width:1.0;" width="10" x="677" y="173.6953"/><rect fill="#FFFFFF" height="25" style="stroke:#181818;stroke-width:1.0;" width="10" x="677" y="242.8281"/><rect fill="#FFFFFF" height="25" style="stroke:#181818;stroke-width:1.0;" width="10" x="677" y="336.0938"/><rect fill="#FFFFFF" height="25" style="stroke:#181818;stroke-width:1.0;" width="10" x="677" y="405.2266"/><rect fill="#FFFFFF" height="25" style="stroke:#181818;stroke-width:1.0;" width="10" x="677" y="474.3594"/><rect fill="#FFFFFF" height="25" style="stroke:#181818;stroke-width:1.0;" width="10" x="677" y="567.625"/><rect fill="#FFFFFF" height="14" style="stroke:#181818;stroke-width:1.0;" width="10" x="973" y="696.0234"/><rect fill="#FFFFFF" height="14" style="stroke:#181818;stroke-width:1.0;" width="10" x="973" y="861.7188"/><rect fill="#FFFFFF" height="16.1641" style="stroke:#181818;stroke-width:1.0;" width="10" x="1101" y="773.2891"/><rect fill="none" height="784.2891" style="stroke:#000000;stroke-width:1.5;" width="999.5" x="212" y="127.4297"/><rect fill="none" height="614.8906" style="stroke:#000000;stroke-width:1.5;" width="979.5" x="222" y="289.8281"/><rect fill="none" height="376.3594" style="stroke:#000000;stroke-width:1.5;" width="959.5" x="232" y="521.3594"/><rect fill="none" height="276.0938" style="stroke:#000000;stroke-width:1.5;" width="939.5" x="242" y="614.625"/><rect fill="none" height="158.6953" style="stroke:#000000;stroke-width:1.5;" width="919.5" x="252" y="725.0234"/><line style="stroke:#181818;stroke-width:0.5;stroke-dasharray:5.0,5.0;" x1="64" x2="64" y1="81.2969" y2="942.7188"/><line style="stroke:#181818;stroke-width:0.5;stroke-dasharray:5.0,5.0;" x1="192" x2="192" y1="81.2969" y2="942.7188"/><line style="stroke:#181818;stroke-width:0.5;stroke-dasharray:5.0,5.0;" x1="327" x2="327" y1="81.2969" y2="942.7188"/><line style="stroke:#181818;stroke-width:0.5;stroke-dasharray:5.0,5.0;" x1="676.5" x2="676.5" y1="81.2969" y2="942.7188"/><line style="stroke:#181818;stroke-width:0.5;stroke-dasharray:5.0,5.0;" x1="977.5" x2="977.5" y1="81.2969" y2="942.7188"/><line style="stroke:#181818;stroke-width:0.5;stroke-dasharray:5.0,5.0;" x1="1105.5" x2="1105.5" y1="772.8047" y2="942.7188"/><text fill="#000000" font-family="sans-serif" font-size="14" lengthAdjust="spacing" text-decoration="underline" textLength="112" x="5" y="77.9951">uMod:Utilisateur</text><ellipse cx="64" cy="13.5" fill="#FFFFFF" rx="8" ry="8" style="stroke:#181818;stroke-width:0.5;"/><path d="M64,21.5 L64,48.5 M51,29.5 L77,29.5 M64,48.5 L51,63.5 M64,48.5 L77,63.5 " fill="none" style="stroke:#181818;stroke-width:0.5;"/><rect fill="#FFFFFF" height="30.2969" rx="2.5" ry="2.5" style="stroke:#181818;stroke-width:0.5;" width="119" x="133" y="50"/><text fill="#000000" font-family="sans-serif" font-size="14" lengthAdjust="spacing" text-decoration="underline" textLength="105" x="140" y="69.9951">mMod:Membre</text><rect fill="#FFFFFF" height="30.2969" rx="2.5" ry="2.5" style="stroke:#181818;stroke-width:0.5;" width="130" x="262" y="50"/><text fill="#000000" font-family="sans-serif" font-size="14" lengthAdjust="spacing" text-decoration="underline" textLength="116" x="269" y="69.9951">uMem:Utilisateur</text><rect fill="#FFFFFF" height="30.2969" rx="2.5" ry="2.5" style="stroke:#181818;stroke-width:0.5;" width="93" x="630.5" y="50"/><text fill="#000000" font-family="sans-serif" font-size="14" lengthAdjust="spacing" text-decoration="underline" textLength="79" x="637.5" y="69.9951">m:MiniSocs</text><rect fill="#FFFFFF" height="30.2969" rx="2.5" ry="2.5" style="stroke:#181818;stroke-width:0.5;" width="125" x="915.5" y="50"/><text fill="#000000" font-family="sans-serif" font-size="14" lengthAdjust="spacing" text-decoration="underline" textLength="111" x="922.5" y="69.9951">rs:R&#233;seauSocial</text><rect fill="#FFFFFF" height="14" style="stroke:#181818;stroke-width:1.0;" width="10" x="322" y="652.8906"/><rect fill="#FFFFFF" height="14" style="stroke:#181818;stroke-width:1.0;" width="10" x="322" y="818.5859"/><rect fill="#FFFFFF" height="812.2891" style="stroke:#181818;stroke-width:1.0;" width="10" x="672" y="112.4297"/><rect fill="#FFFFFF" height="25" style="stroke:#181818;stroke-width:1.0;" width="10" x="677" y="173.6953"/><rect fill="#FFFFFF" height="25" style="stroke:#181818;stroke-width:1.0;" width="10" x="677" y="242.8281"/><rect fill="#FFFFFF" height="25" style="stroke:#181818;stroke-width:1.0;" width="10" x="677" y="336.0938"/><rect fill="#FFFFFF" height="25" style="stroke:#181818;stroke-width:1.0;" width="10" x="677" y="405.2266"/><rect fill="#FFFFFF" height="25" style="stroke:#181818;stroke-width:1.0;" width="10" x="677" y="474.3594"/><rect fill="#FFFFFF" height="25" style="stroke:#181818;stroke-width:1.0;" width="10" x="677" y="567.625"/><rect fill="#FFFFFF" height="14" style="stroke:#181818;stroke-width:1.0;" width="10" x="973" y="696.0234"/><rect fill="#FFFFFF" height="14" style="stroke:#181818;stroke-width:1.0;" width="10" x="973" y="861.7188"/><rect fill="#FFFFFF" height="16.1641" style="stroke:#181818;stroke-width:1.0;" width="10" x="1101" y="773.2891"/><polygon fill="#181818" points="660,108.4297,670,112.4297,660,116.4297,664,112.4297" style="stroke:#181818;stroke-width:1.0;"/><line style="stroke:#181818;stroke-width:1.0;" x1="64" x2="666" y1="112.4297" y2="112.4297"/><text fill="#000000" font-family="sans-serif" font-size="13" lengthAdjust="spacing" textLength="394" x="71" y="107.3638">ajouterMembre(pseudoMembre, pseudoReseau, nomReseau)</text><path d="M212,127.4297 L282,127.4297 L282,134.5625 L272,144.5625 L212,144.5625 L212,127.4297 " fill="#EEEEEE" style="stroke:#000000;stroke-width:1.5;"/><rect fill="none" height="784.2891" style="stroke:#000000;stroke-width:1.5;" width="999.5" x="212" y="127.4297"/><text fill="#000000" font-family="sans-serif" font-size="13" font-weight="bold" lengthAdjust="spacing" textLength="25" x="227" y="140.4966">opt</text><text fill="#000000" font-family="sans-serif" font-size="11" font-weight="bold" lengthAdjust="spacing" textLength="514" x="297" y="139.6401">[uMod.pseudo, pseudoMembre, pseudoReseau, nomReseau non null ^ non vide]</text><line style="stroke:#181818;stroke-width:1.0;" x1="682" x2="729" y1="160.6953" y2="160.6953"/><line style="stroke:#181818;stroke-width:1.0;" x1="729" x2="729" y1="160.6953" y2="173.6953"/><line style="stroke:#181818;stroke-width:1.0;" x1="688" x2="729" y1="173.6953" y2="173.6953"/><polygon fill="#181818" points="698,169.6953,688,173.6953,698,177.6953,694,173.6953" style="stroke:#181818;stroke-width:1.0;"/><text fill="#000000" font-family="sans-serif" font-size="13" lengthAdjust="spacing" textLength="257" x="694" y="155.6294">userMod=utilisateurs.get(uMod.pseudo)</text><line style="stroke:#181818;stroke-width:1.0;stroke-dasharray:2.0,2.0;" x1="687" x2="729" y1="197.6953" y2="197.6953"/><line style="stroke:#181818;stroke-width:1.0;stroke-dasharray:2.0,2.0;" x1="729" x2="729" y1="197.6953" y2="210.6953"/><line style="stroke:#181818;stroke-width:1.0;stroke-dasharray:2.0,2.0;" x1="682" x2="729" y1="210.6953" y2="210.6953"/><polygon fill="#181818" points="692,206.6953,682,210.6953,692,214.6953,688,210.6953" style="stroke:#181818;stroke-width:1.0;"/><line style="stroke:#181818;stroke-width:1.0;" x1="682" x2="729" y1="229.8281" y2="229.8281"/><line style="stroke:#181818;stroke-width:1.0;" x1="729" x2="729" y1="229.8281" y2="242.8281"/><line style="stroke:#181818;stroke-width:1.0;" x1="688" x2="729" y1="242.8281" y2="242.8281"/><polygon fill="#181818" points="698,238.8281,688,242.8281,698,246.8281,694,242.8281" style="stroke:#181818;stroke-width:1.0;"/><text fill="#000000" font-family="sans-serif" font-size="13" lengthAdjust="spacing" textLength="276" x="694" y="224.7622">userMem=utilisateurs.get(pseudoMembre)</text><line style="stroke:#181818;stroke-width:1.0;stroke-dasharray:2.0,2.0;" x1="687" x2="729" y1="266.8281" y2="266.8281"/><line style="stroke:#181818;stroke-width:1.0;stroke-dasharray:2.0,2.0;" x1="729" x2="729" y1="266.8281" y2="279.8281"/><line style="stroke:#181818;stroke-width:1.0;stroke-dasharray:2.0,2.0;" x1="682" x2="729" y1="279.8281" y2="279.8281"/><polygon fill="#181818" points="692,275.8281,682,279.8281,692,283.8281,688,279.8281" style="stroke:#181818;stroke-width:1.0;"/><path d="M222,289.8281 L292,289.8281 L292,296.9609 L282,306.9609 L222,306.9609 L222,289.8281 " fill="#EEEEEE" style="stroke:#000000;stroke-width:1.5;"/><rect fill="none" height="614.8906" style="stroke:#000000;stroke-width:1.5;" width="979.5" x="222" y="289.8281"/><text fill="#000000" font-family="sans-serif" font-size="13" font-weight="bold" lengthAdjust="spacing" textLength="25" x="237" y="302.895">opt</text><text fill="#000000" font-family="sans-serif" font-size="11" font-weight="bold" lengthAdjust="spacing" textLength="252" x="307" y="302.0386">[(userMod != null) ^ (userMem != null)]</text><line style="stroke:#181818;stroke-width:1.0;" x1="682" x2="729" y1="323.0938" y2="323.0938"/><line style="stroke:#181818;stroke-width:1.0;" x1="729" x2="729" y1="323.0938" y2="336.0938"/><line style="stroke:#181818;stroke-width:1.0;" x1="688" x2="729" y1="336.0938" y2="336.0938"/><polygon fill="#181818" points="698,332.0938,688,336.0938,698,340.0938,694,336.0938" style="stroke:#181818;stroke-width:1.0;"/><text fill="#000000" font-family="sans-serif" font-size="13" lengthAdjust="spacing" textLength="201" x="694" y="318.0278">ec1=userMod.getEtatCompte()</text><line style="stroke:#181818;stroke-width:1.0;stroke-dasharray:2.0,2.0;" x1="687" x2="729" y1="360.0938" y2="360.0938"/><line style="stroke:#181818;stroke-width:1.0;stroke-dasharray:2.0,2.0;" x1="729" x2="729" y1="360.0938" y2="373.0938"/><line style="stroke:#181818;stroke-width:1.0;stroke-dasharray:2.0,2.0;" x1="682" x2="729" y1="373.0938" y2="373.0938"/><polygon fill="#181818" points="692,369.0938,682,373.0938,692,377.0938,688,373.0938" style="stroke:#181818;stroke-width:1.0;"/><line style="stroke:#181818;stroke-width:1.0;" x1="682" x2="729" y1="392.2266" y2="392.2266"/><line style="stroke:#181818;stroke-width:1.0;" x1="729" x2="729" y1="392.2266" y2="405.2266"/><line style="stroke:#181818;stroke-width:1.0;" x1="688" x2="729" y1="405.2266" y2="405.2266"/><polygon fill="#181818" points="698,401.2266,688,405.2266,698,409.2266,694,405.2266" style="stroke:#181818;stroke-width:1.0;"/><text fill="#000000" font-family="sans-serif" font-size="13" lengthAdjust="spacing" textLength="206" x="694" y="387.1606">ec2=userMem.getEtatCompte()</text><line style="stroke:#181818;stroke-width:1.0;stroke-dasharray:2.0,2.0;" x1="687" x2="729" y1="429.2266" y2="429.2266"/><line style="stroke:#181818;stroke-width:1.0;stroke-dasharray:2.0,2.0;" x1="729" x2="729" y1="429.2266" y2="442.2266"/><line style="stroke:#181818;stroke-width:1.0;stroke-dasharray:2.0,2.0;" x1="682" x2="729" y1="442.2266" y2="442.2266"/><polygon fill="#181818" points="692,438.2266,682,442.2266,692,446.2266,688,442.2266" style="stroke:#181818;stroke-width:1.0;"/><line style="stroke:#181818;stroke-width:1.0;" x1="682" x2="729" y1="461.3594" y2="461.3594"/><line style="stroke:#181818;stroke-width:1.0;" x1="729" x2="729" y1="461.3594" y2="474.3594"/><line style="stroke:#181818;stroke-width:1.0;" x1="688" x2="729" y1="474.3594" y2="474.3594"/><polygon fill="#181818" points="698,470.3594,688,474.3594,698,478.3594,694,474.3594" style="stroke:#181818;stroke-width:1.0;"/><text fill="#000000" font-family="sans-serif" font-size="13" lengthAdjust="spacing" textLength="178" x="694" y="456.2935">r=reseaux.get(nomReseau)</text><line style="stroke:#181818;stroke-width:1.0;stroke-dasharray:2.0,2.0;" x1="687" x2="729" y1="498.3594" y2="498.3594"/><line style="stroke:#181818;stroke-width:1.0;stroke-dasharray:2.0,2.0;" x1="729" x2="729" y1="498.3594" y2="511.3594"/><line style="stroke:#181818;stroke-width:1.0;stroke-dasharray:2.0,2.0;" x1="682" x2="729" y1="511.3594" y2="511.3594"/><polygon fill="#181818" points="692,507.3594,682,511.3594,692,515.3594,688,511.3594" style="stroke:#181818;stroke-width:1.0;"/><path d="M232,521.3594 L302,521.3594 L302,528.4922 L292,538.4922 L232,538.4922 L232,521.3594 " fill="#EEEEEE" style="stroke:#000000;stroke-width:1.5;"/><rect fill="none" height="376.3594" style="stroke:#000000;stroke-width:1.5;" width="959.5" x="232" y="521.3594"/><text fill="#000000" font-family="sans-serif" font-size="13" font-weight="bold" lengthAdjust="spacing" textLength="25" x="247" y="534.4263">opt</text><text fill="#000000" font-family="sans-serif" font-size="11" font-weight="bold" lengthAdjust="spacing" textLength="297" x="317" y="533.5698">[(ec1 == ACTIF) ^ (ec2 == ACTIF) ^ (r != null)]</text><line style="stroke:#181818;stroke-width:1.0;" x1="682" x2="729" y1="554.625" y2="554.625"/><line style="stroke:#181818;stroke-width:1.0;" x1="729" x2="729" y1="554.625" y2="567.625"/><line style="stroke:#181818;stroke-width:1.0;" x1="688" x2="729" y1="567.625" y2="567.625"/><polygon fill="#181818" points="698,563.625,688,567.625,698,571.625,694,567.625" style="stroke:#181818;stroke-width:1.0;"/><text fill="#000000" font-family="sans-serif" font-size="13" lengthAdjust="spacing" textLength="145" x="694" y="549.5591">er = r.getEtatReseau()</text><line style="stroke:#181818;stroke-width:1.0;stroke-dasharray:2.0,2.0;" x1="687" x2="729" y1="591.625" y2="591.625"/><line style="stroke:#181818;stroke-width:1.0;stroke-dasharray:2.0,2.0;" x1="729" x2="729" y1="591.625" y2="604.625"/><line style="stroke:#181818;stroke-width:1.0;stroke-dasharray:2.0,2.0;" x1="682" x2="729" y1="604.625" y2="604.625"/><polygon fill="#181818" points="692,600.625,682,604.625,692,608.625,688,604.625" style="stroke:#181818;stroke-width:1.0;"/><path d="M242,614.625 L312,614.625 L312,621.7578 L302,631.7578 L242,631.7578 L242,614.625 " fill="#EEEEEE" style="stroke:#000000;stroke-width:1.5;"/><rect fill="none" height="276.0938" style="stroke:#000000;stroke-width:1.5;" width="939.5" x="242" y="614.625"/><text fill="#000000" font-family="sans-serif" font-size="13" font-weight="bold" lengthAdjust="spacing" textLength="25" x="257" y="627.6919">opt</text><text fill="#000000" font-family="sans-serif" font-size="11" font-weight="bold" lengthAdjust="spacing" textLength="100" x="327" y="626.8354">[er == OUVERT]</text><polygon fill="#181818" points="343,648.8906,333,652.8906,343,656.8906,339,652.8906" style="stroke:#181818;stroke-width:1.0;"/><line style="stroke:#181818;stroke-width:1.0;" x1="337" x2="671" y1="652.8906" y2="652.8906"/><text fill="#000000" font-family="sans-serif" font-size="13" lengthAdjust="spacing" textLength="321" x="349" y="647.8247">mod=membres.get(nomReseau).estModerateur()</text><polygon fill="#181818" points="660,662.8906,670,666.8906,660,670.8906,664,666.8906" style="stroke:#181818;stroke-width:1.0;"/><line style="stroke:#181818;stroke-width:1.0;stroke-dasharray:2.0,2.0;" x1="327" x2="666" y1="666.8906" y2="666.8906"/><polygon fill="#181818" points="961,692.0234,971,696.0234,961,700.0234,965,696.0234" style="stroke:#181818;stroke-width:1.0;"/><line style="stroke:#181818;stroke-width:1.0;" x1="682" x2="967" y1="696.0234" y2="696.0234"/><text fill="#000000" font-family="sans-serif" font-size="13" lengthAdjust="spacing" textLength="272" x="689" y="690.9575">nom_dispo=membres.get(pseudoReseau)</text><polygon fill="#181818" points="693,706.0234,683,710.0234,693,714.0234,689,710.0234" style="stroke:#181818;stroke-width:1.0;"/><line style="stroke:#181818;stroke-width:1.0;stroke-dasharray:2.0,2.0;" x1="687" x2="977" y1="710.0234" y2="710.0234"/><path d="M252,725.0234 L322,725.0234 L322,732.1563 L312,742.1563 L252,742.1563 L252,725.0234 " fill="#EEEEEE" style="stroke:#000000;stroke-width:1.5;"/><rect fill="none" height="158.6953" style="stroke:#000000;stroke-width:1.5;" width="919.5" x="252" y="725.0234"/><text fill="#000000" font-family="sans-serif" font-size="13" font-weight="bold" lengthAdjust="spacing" textLength="25" x="267" y="738.0903">opt</text><text fill="#000000" font-family="sans-serif" font-size="11" font-weight="bold" lengthAdjust="spacing" textLength="244" x="337" y="737.2339">[(mod == true) ^ (nom_dispo == null)]</text><polygon fill="#181818" points="1038.5,759.2891,1048.5,763.2891,1038.5,767.2891,1042.5,763.2891" style="stroke:#181818;stroke-width:1.0;"/><line style="stroke:#181818;stroke-width:1.0;" x1="682" x2="1044.5" y1="763.2891" y2="763.2891"/><text fill="#000000" font-family="sans-serif" font-size="13" lengthAdjust="spacing" textLength="246" x="689" y="758.2231">new Membre(uMem,rs,pseudoReseau)</text><rect fill="#FFFFFF" height="30.2969" rx="2.5" ry="2.5" style="stroke:#181818;stroke-width:0.5;" width="111" x="1050.5" y="742.1563"/><text fill="#000000" font-family="sans-serif" font-size="14" lengthAdjust="spacing" text-decoration="underline" textLength="97" x="1057.5" y="762.1514">mem:Membre</text><polygon fill="#181818" points="693,785.4531,683,789.4531,693,793.4531,689,789.4531" style="stroke:#181818;stroke-width:1.0;"/><line style="stroke:#181818;stroke-width:1.0;stroke-dasharray:2.0,2.0;" x1="687" x2="1105" y1="789.4531" y2="789.4531"/><polygon fill="#181818" points="343,814.5859,333,818.5859,343,822.5859,339,818.5859" style="stroke:#181818;stroke-width:1.0;"/><line style="stroke:#181818;stroke-width:1.0;" x1="337" x2="671" y1="818.5859" y2="818.5859"/><text fill="#000000" font-family="sans-serif" font-size="13" lengthAdjust="spacing" textLength="142" x="349" y="813.52">ajouterMembre(mem)</text><polygon fill="#181818" points="660,828.5859,670,832.5859,660,836.5859,664,832.5859" style="stroke:#181818;stroke-width:1.0;"/><line style="stroke:#181818;stroke-width:1.0;stroke-dasharray:2.0,2.0;" x1="327" x2="666" y1="832.5859" y2="832.5859"/><polygon fill="#181818" points="961,857.7188,971,861.7188,961,865.7188,965,861.7188" style="stroke:#181818;stroke-width:1.0;"/><line style="stroke:#181818;stroke-width:1.0;" x1="682" x2="967" y1="861.7188" y2="861.7188"/><text fill="#000000" font-family="sans-serif" font-size="13" lengthAdjust="spacing" textLength="142" x="689" y="856.6528">ajouterMembre(mem)</text><polygon fill="#181818" points="693,871.7188,683,875.7188,693,879.7188,689,875.7188" style="stroke:#181818;stroke-width:1.0;"/><line style="stroke:#181818;stroke-width:1.0;stroke-dasharray:2.0,2.0;" x1="687" x2="977" y1="875.7188" y2="875.7188"/><polygon fill="#181818" points="75,920.7188,65,924.7188,75,928.7188,71,924.7188" style="stroke:#181818;stroke-width:1.0;"/><line style="stroke:#181818;stroke-width:1.0;stroke-dasharray:2.0,2.0;" x1="69" x2="676" y1="924.7188" y2="924.7188"/><!--SRC=[ZLFRZjem57pFLvpk2q6R8hMFIAcqPRTIfQAks4lVYhpEMV1kOgU-K3wdhtn7Vgp7Te04icgH4B6PcJCpiKVNWgqqgog40i4qkryE9KT8RqicxSFystYK9AEPaizYvJIpGadWQwOj0j7gjI3yA5aB8ZyhPP_KDZ6lGjQCDC5WLBiblE2Y9iNFZB-kj7AocAbIQVYn5XO7A5VSAZqCJaRNpOwNh7LJe076BJfj06rOriTv1jAYsRqqVm2tmjYmmpRq0oKxnlKXcPy85ykbcwjY-c15AGppiilb1J03VZlfA7jevQ5ph9uqjgZg7EG8CAY7rPdUT2wak5FSxENW5ABDTD7i3397CC7A5gWDzN9tU7riWnnAgg92OzWAJHPMN3Uxq9hnRxjRKqRTyGdLu6F2-qyq-V8Ifi1UbBEeOyQqDkWA5HSPnDK2lPaCfAhYupXHjGrrJI9YZ_m7ZvuaI5UMy3CyRkXG9LN7YpDaH1MvEtPf9YkqQMVMED5edPRdHApEYLrV1wPtdxQpu5qUB8t9KzhA7FPwCv1_o5kIbxwnpCvKLLjC1oqX_vYtUly3rxaE7Ms3xKxLNSza0V8ShcRtNxy4mpIalw7VyAuX1xtt4QNJdhP7vF3zuV5cSH-f_lX6DXtvl0eLcXDt4pIM-a0TAZz9HjSrq0c-B8IfLK-aUqRwAMcSzsArmv3fmFUxCLl2DTB8SAFexlKlADswc7tlN-9lQC-t3vLfamrEFudTlncaDXplRHXzK1Pdt_ZlNm00]--></g></svg>