<?xml version="1.0" encoding="us-ascii" standalone="no"?><svg xmlns="http://www.w3.org/2000/svg" xmlns:xlink="http://www.w3.org/1999/xlink" contentStyleType="text/css" height="371px" preserveAspectRatio="none" style="width:868px;height:371px;background:#FFFFFF;" version="1.1" viewBox="0 0 868 371" width="868px" zoomAndPan="magnify"><defs/><g><g id="EnCr&#233;ation"><rect fill="#F1F1F1" height="50.2656" rx="12.5" ry="12.5" style="stroke:#181818;stroke-width:0.5;" width="155" x="61.5" y="31.5659"/><line style="stroke:#181818;stroke-width:0.5;" x1="61.5" x2="216.5" y1="57.8628" y2="57.8628"/><text fill="#000000" font-family="sans-serif" font-size="14" lengthAdjust="spacing" textLength="76" x="101" y="49.561">EnCr&#233;ation</text><text fill="#000000" font-family="sans-serif" font-size="12" lengthAdjust="spacing" textLength="135" x="66.5" y="74.0015">entry : constructeur()</text></g><g id="EnDestruction"><rect fill="#F1F1F1" height="50.2656" rx="12.5" ry="12.5" style="stroke:#181818;stroke-width:0.5;" width="148" x="449" y="315.5659"/><line style="stroke:#181818;stroke-width:0.5;" x1="449" x2="597" y1="341.8628" y2="341.8628"/><text fill="#000000" font-family="sans-serif" font-size="14" lengthAdjust="spacing" textLength="99" x="473.5" y="333.561">EnDestruction</text><text fill="#000000" font-family="sans-serif" font-size="12" lengthAdjust="spacing" textLength="128" x="454" y="358.0015">entry : destructeur()</text></g><ellipse cx="16" cy="56.5659" fill="#222222" rx="10" ry="10" style="stroke:#222222;stroke-width:1.0;"/><g id="Accept&#233;EtNonCach&#233;"><rect fill="#F1F1F1" height="50" rx="12.5" ry="12.5" style="stroke:#181818;stroke-width:0.5;" width="163" x="57.5" y="188.5659"/><line style="stroke:#181818;stroke-width:0.5;" x1="57.5" x2="220.5" y1="214.8628" y2="214.8628"/><text fill="#000000" font-family="sans-serif" font-size="14" lengthAdjust="spacing" textLength="143" x="67.5" y="206.561">Accept&#233;EtNonCach&#233;</text></g><g id="EnAttente"><rect fill="#F1F1F1" height="50" rx="12.5" ry="12.5" style="stroke:#181818;stroke-width:0.5;" width="89" x="498.5" y="31.5659"/><line style="stroke:#181818;stroke-width:0.5;" x1="498.5" x2="587.5" y1="57.8628" y2="57.8628"/><text fill="#000000" font-family="sans-serif" font-size="14" lengthAdjust="spacing" textLength="69" x="508.5" y="49.561">EnAttente</text></g><g id="Accept&#233;EtCach&#233;"><rect fill="#F1F1F1" height="50" rx="12.5" ry="12.5" style="stroke:#181818;stroke-width:0.5;" width="135" x="388.5" y="188.5659"/><line style="stroke:#181818;stroke-width:0.5;" x1="388.5" x2="523.5" y1="214.8628" y2="214.8628"/><text fill="#000000" font-family="sans-serif" font-size="14" lengthAdjust="spacing" textLength="115" x="398.5" y="206.561">Accept&#233;EtCach&#233;</text></g><ellipse cx="403" cy="340.5659" fill="none" rx="11" ry="11" style="stroke:#222222;stroke-width:1.0;"/><ellipse cx="403" cy="340.5659" fill="#222222" rx="6" ry="6" style="stroke:#222222;stroke-width:1.0;"/><!--link *start* to EnCr?ation--><g id="link_*start*_EnCr&#233;ation"><path d="M26.09,56.5659 C37.85,56.5659 43.61,56.5659 55.37,56.5659 " fill="none" id="*start*-to-EnCr&#233;ation" style="stroke:#181818;stroke-width:1.0;"/><polygon fill="#181818" points="61.37,56.5659,52.37,52.5659,56.37,56.5659,52.37,60.5659,61.37,56.5659" style="stroke:#181818;stroke-width:1.0;"/></g><!--link EnCr?ation to Accept?EtNonCach?--><g id="link_EnCr&#233;ation_Accept&#233;EtNonCach&#233;"><path d="M131.33,81.7759 C128.77,90.9959 126.26,101.6659 125,111.5659 C122.36,132.2859 122.36,137.8459 125,158.5659 C126.26,168.4659 127.1648,173.3546 129.7248,182.5746 " fill="none" id="EnCr&#233;ation-to-Accept&#233;EtNonCach&#233;" style="stroke:#181818;stroke-width:1.0;"/><polygon fill="#181818" points="131.33,188.3559,132.7764,178.6138,129.9923,183.5382,125.068,180.7541,131.33,188.3559" style="stroke:#181818;stroke-width:1.0;"/><text fill="#000000" font-family="sans-serif" font-size="13" lengthAdjust="spacing" textLength="28" x="268" y="124.6328">post</text><text fill="#000000" font-family="sans-serif" font-size="13" lengthAdjust="spacing" textLength="295" x="134.5" y="139.7656">[typeMembre==MOD &#8744; typeMembre==ADM]</text><text fill="#000000" font-family="sans-serif" font-size="13" lengthAdjust="spacing" textLength="312" x="126" y="154.8984">/mod&#233;rer(mem.getTypeMembre(), etatMessage)</text></g><!--link EnCr?ation to EnAttente--><g id="link_EnCr&#233;ation_EnAttente"><path d="M216.9,56.5659 C300.59,56.5659 424.68,56.5659 492.49,56.5659 " fill="none" id="EnCr&#233;ation-to-EnAttente" style="stroke:#181818;stroke-width:1.0;"/><polygon fill="#181818" points="498.49,56.5659,489.49,52.5659,493.49,56.5659,489.49,60.5659,498.49,56.5659" style="stroke:#181818;stroke-width:1.0;"/><text fill="#000000" font-family="sans-serif" font-size="13" lengthAdjust="spacing" textLength="102" x="306.5" y="19.6328">mise en attente</text><text fill="#000000" font-family="sans-serif" font-size="13" lengthAdjust="spacing" textLength="143" x="286" y="34.7656">[typeMembre==MEM]</text><text fill="#000000" font-family="sans-serif" font-size="13" lengthAdjust="spacing" textLength="172" x="271.5" y="49.8984">/envoyerVersListeAttente()</text></g><!--link Accept?EtNonCach? to Accept?EtCach?--><g id="link_Accept&#233;EtNonCach&#233;_Accept&#233;EtCach&#233;"><path d="M210.03,238.5659 C224.72,242.7259 240.22,246.3859 255,248.5659 C298.53,254.9859 310.6,255.8059 354,248.5659 C367.02,246.3959 374.8865,244.5978 387.7365,240.4778 " fill="none" id="Accept&#233;EtNonCach&#233;-to-Accept&#233;EtCach&#233;" style="stroke:#181818;stroke-width:1.0;"/><polygon fill="#181818" points="393.45,238.6459,383.6585,237.5847,388.6887,240.1725,386.101,245.2027,393.45,238.6459" style="stroke:#181818;stroke-width:1.0;"/><text fill="#000000" font-family="sans-serif" font-size="13" lengthAdjust="spacing" textLength="97" x="256" y="229.6328">membre cache</text><text fill="#000000" font-family="sans-serif" font-size="13" lengthAdjust="spacing" textLength="57" x="276" y="244.7656">/cacher()</text></g><!--reverse link Accept?EtNonCach? to Accept?EtCach?--><g id="link_Accept&#233;EtNonCach&#233;_Accept&#233;EtCach&#233;"><path d="M226.64,213.5659 C278.64,213.5659 339.22,213.5659 388.28,213.5659 " fill="none" id="Accept&#233;EtNonCach&#233;-backto-Accept&#233;EtCach&#233;" style="stroke:#181818;stroke-width:1.0;"/><polygon fill="#181818" points="220.64,213.5659,229.64,217.5659,225.64,213.5659,229.64,209.5659,220.64,213.5659" style="stroke:#181818;stroke-width:1.0;"/><text fill="#000000" font-family="sans-serif" font-size="13" lengthAdjust="spacing" textLength="131" x="239" y="191.6328">membre rend visible</text><text fill="#000000" font-family="sans-serif" font-size="13" lengthAdjust="spacing" textLength="75" x="267" y="206.7656">/setVisible()</text></g><!--link EnAttente to Accept?EtNonCach?--><g id="link_EnAttente_Accept&#233;EtNonCach&#233;"><path d="M511.52,81.8359 C500.76,90.7159 488.93,101.1559 479,111.5659 C460.84,130.6059 465.48,144.8959 443,158.5659 C406.53,180.7459 303.7634,195.5643 226.7834,204.1043 " fill="none" id="EnAttente-to-Accept&#233;EtNonCach&#233;" style="stroke:#181818;stroke-width:1.0;"/><polygon fill="#181818" points="220.82,204.7659,230.2062,207.7492,225.7895,204.2146,229.3241,199.798,220.82,204.7659" style="stroke:#181818;stroke-width:1.0;"/><text fill="#000000" font-family="sans-serif" font-size="13" lengthAdjust="spacing" textLength="97" x="480" y="139.6328">post/mod&#233;rer()</text></g><!--link EnAttente to EnDestruction--><g id="link_EnAttente_EnDestruction"><path d="M565.45,81.8259 C572.11,90.5559 578.55,100.8959 582,111.5659 C605.79,185.1459 613.17,214.7959 582,285.5659 C576.96,297.0059 572.6642,303.0894 563.3842,311.3394 " fill="none" id="EnAttente-to-EnDestruction" style="stroke:#181818;stroke-width:1.0;"/><polygon fill="#181818" points="558.9,315.3259,568.2839,312.3357,562.6368,312.0038,562.9686,306.3567,558.9,315.3259" style="stroke:#181818;stroke-width:1.0;"/><text fill="#000000" font-family="sans-serif" font-size="13" lengthAdjust="spacing" textLength="101" x="603" y="218.1328">refus/mod&#233;rer()</text></g><!--link EnAttente to EnDestruction--><g id="link_EnAttente_EnDestruction"><path d="M587.53,77.3359 C650.44,108.2059 753.41,171.3159 713,238.5659 C687.89,280.3559 644.6636,303.7768 602.7636,318.6668 " fill="none" id="EnAttente-to-EnDestruction-1" style="stroke:#181818;stroke-width:1.0;"/><polygon fill="#181818" points="597.11,320.6759,606.9298,321.4313,601.8213,319.0016,604.251,313.8931,597.11,320.6759" style="stroke:#181818;stroke-width:1.0;"/><text fill="#000000" font-family="sans-serif" font-size="13" lengthAdjust="spacing" textLength="137" x="723" y="218.1328">supression du r&#233;seau</text></g><!--link Accept?EtNonCach? to EnDestruction--><g id="link_Accept&#233;EtNonCach&#233;_EnDestruction"><path d="M182.51,238.6859 C211.63,253.9759 251.21,273.1459 288,285.5659 C349.52,306.3459 367.79,300.6959 431,315.5659 C436.78,316.9259 436.9369,316.9298 442.9369,318.4198 " fill="none" id="Accept&#233;EtNonCach&#233;-to-EnDestruction" style="stroke:#181818;stroke-width:1.0;"/><polygon fill="#181818" points="448.76,319.8659,440.9894,313.8147,443.9074,318.6609,439.0613,321.5789,448.76,319.8659" style="stroke:#181818;stroke-width:1.0;"/><text fill="#000000" font-family="sans-serif" font-size="13" lengthAdjust="spacing" textLength="137" x="289" y="281.6328">supression du r&#233;seau</text></g><!--link Accept?EtCach? to EnDestruction--><g id="link_Accept&#233;EtCach&#233;_EnDestruction"><path d="M441.96,238.7259 C435.61,253.0159 431.1,271.1059 439,285.5659 C445.65,297.7359 451.361,304.2279 462.931,312.0079 " fill="none" id="Accept&#233;EtCach&#233;-to-EnDestruction" style="stroke:#181818;stroke-width:1.0;"/><polygon fill="#181818" points="467.91,315.3559,462.6735,307.0145,463.7608,312.5659,458.2094,313.6532,467.91,315.3559" style="stroke:#181818;stroke-width:1.0;"/><text fill="#000000" font-family="sans-serif" font-size="13" lengthAdjust="spacing" textLength="137" x="440" y="281.6328">supression du r&#233;seau</text></g><!--reverse link *end* to EnDestruction--><g id="link_*end*_EnDestruction"><path d="M420.25,340.5659 C431.72,340.5659 437.19,340.5659 448.66,340.5659 " fill="none" id="*end*-backto-EnDestruction" style="stroke:#181818;stroke-width:1.0;"/><polygon fill="#181818" points="414.25,340.5659,423.25,344.5659,419.25,340.5659,423.25,336.5659,414.25,340.5659" style="stroke:#181818;stroke-width:1.0;"/></g><!--SRC=[dLBDJi904BxtAUP6QqJk9fWGoesg1-K279PsA9kmspex9U4Dz2qyskVec_WaJlafFq6ZdZOp-_tiDxEjKAkKb3482O9HyK9RXEeTgf8LE_0VbyhoSpGCMfxNwcTshjE25ElCGhnGn0X2pnVwfS0QKRrjQCZ0fApJDT2rF2TTX87jKrLkoRU0bcajPom8fY9cBCWF6cY8s-ufEC5Zh3U-caARTBhWzjsnl7TirPQxNXnZpbKvuFlCzYLcLOfQdZcUs36lSupGp0YxtUWXXC_N3pZkzS9eEh4TaoLLIKY-GNEJ8Zyr43-ubiYA8tHEfHYSsX_UrsEM82ZEHZkKKA2sdVD733Q6Q5VP6cc4v8RQCUxe4lnIdCRdSDa4DHjXYAKMhyxcf1ETlSWIv_pjl7OoX3Q1bNPwjgpL7F9eM_Xrydt8dyT-cEOvvtprXFF2_HxkYfna3NMH521RSAYAomFx1_lFr5FKVhpoRxy0]--></g></svg>