<?xml version="1.0" encoding="us-ascii" standalone="no"?><svg xmlns="http://www.w3.org/2000/svg" xmlns:xlink="http://www.w3.org/1999/xlink" contentStyleType="text/css" height="889px" preserveAspectRatio="none" style="width:946px;height:889px;background:#FFFFFF;" version="1.1" viewBox="0 0 946 889" width="946px" zoomAndPan="magnify"><defs/><g><rect fill="#FFFFFF" height="751.8594" style="stroke:#181818;stroke-width:1.0;" width="10" x="287.5" y="112.4297"/><rect fill="#FFFFFF" height="25" style="stroke:#181818;stroke-width:1.0;" width="10" x="292.5" y="173.6953"/><rect fill="#FFFFFF" height="25" style="stroke:#181818;stroke-width:1.0;" width="10" x="292.5" y="266.9609"/><rect fill="#FFFFFF" height="25" style="stroke:#181818;stroke-width:1.0;" width="10" x="292.5" y="336.0938"/><rect fill="#FFFFFF" height="14" style="stroke:#181818;stroke-width:1.0;" width="10" x="546.5" y="421.3594"/><rect fill="#FFFFFF" height="14" style="stroke:#181818;stroke-width:1.0;" width="10" x="546.5" y="794.2891"/><rect fill="#FFFFFF" height="333.6641" style="stroke:#181818;stroke-width:1.0;" width="10" x="743.5" y="488.625"/><rect fill="#FFFFFF" height="25" style="stroke:#181818;stroke-width:1.0;" width="10" x="748.5" y="525.7578"/><rect fill="#FFFFFF" height="25" style="stroke:#181818;stroke-width:1.0;" width="10" x="748.5" y="594.8906"/><rect fill="#FFFFFF" height="25" style="stroke:#181818;stroke-width:1.0;" width="10" x="748.5" y="664.0234"/><rect fill="#FFFFFF" height="25" style="stroke:#181818;stroke-width:1.0;" width="10" x="748.5" y="733.1563"/><rect fill="none" height="723.8594" style="stroke:#000000;stroke-width:1.5;" width="734.5" x="206" y="127.4297"/><rect fill="none" height="623.5938" style="stroke:#000000;stroke-width:1.5;" width="714.5" x="216" y="220.6953"/><rect fill="none" height="454.1953" style="stroke:#000000;stroke-width:1.5;" width="694.5" x="226" y="383.0938"/><rect fill="none" height="379.9297" style="stroke:#000000;stroke-width:1.5;" width="674.5" x="236" y="450.3594"/><line style="stroke:#181818;stroke-width:0.5;stroke-dasharray:5.0,5.0;" x1="56" x2="56" y1="81.2969" y2="882.2891"/><line style="stroke:#181818;stroke-width:0.5;stroke-dasharray:5.0,5.0;" x1="292" x2="292" y1="81.2969" y2="882.2891"/><line style="stroke:#181818;stroke-width:0.5;stroke-dasharray:5.0,5.0;" x1="551" x2="551" y1="81.2969" y2="882.2891"/><line style="stroke:#181818;stroke-width:0.5;stroke-dasharray:5.0,5.0;" x1="748.5" x2="748.5" y1="81.2969" y2="882.2891"/><text fill="#000000" font-family="sans-serif" font-size="14" lengthAdjust="spacing" text-decoration="underline" textLength="97" x="5" y="77.9951">mem:Membre</text><ellipse cx="56.5" cy="13.5" fill="#FFFFFF" rx="8" ry="8" style="stroke:#181818;stroke-width:0.5;"/><path d="M56.5,21.5 L56.5,48.5 M43.5,29.5 L69.5,29.5 M56.5,48.5 L43.5,63.5 M56.5,48.5 L69.5,63.5 " fill="none" style="stroke:#181818;stroke-width:0.5;"/><rect fill="#FFFFFF" height="30.2969" rx="2.5" ry="2.5" style="stroke:#181818;stroke-width:0.5;" width="93" x="246" y="50"/><text fill="#000000" font-family="sans-serif" font-size="14" lengthAdjust="spacing" text-decoration="underline" textLength="79" x="253" y="69.9951">m:MiniSocs</text><rect fill="#FFFFFF" height="30.2969" rx="2.5" ry="2.5" style="stroke:#181818;stroke-width:0.5;" width="125" x="489" y="50"/><text fill="#000000" font-family="sans-serif" font-size="14" lengthAdjust="spacing" text-decoration="underline" textLength="111" x="496" y="69.9951">rs:R&#233;seauSocial</text><rect fill="#FFFFFF" height="30.2969" rx="2.5" ry="2.5" style="stroke:#181818;stroke-width:0.5;" width="112" x="692.5" y="50"/><text fill="#000000" font-family="sans-serif" font-size="14" lengthAdjust="spacing" text-decoration="underline" textLength="98" x="699.5" y="69.9951">msg:Message</text><rect fill="#FFFFFF" height="751.8594" style="stroke:#181818;stroke-width:1.0;" width="10" x="287.5" y="112.4297"/><rect fill="#FFFFFF" height="25" style="stroke:#181818;stroke-width:1.0;" width="10" x="292.5" y="173.6953"/><rect fill="#FFFFFF" height="25" style="stroke:#181818;stroke-width:1.0;" width="10" x="292.5" y="266.9609"/><rect fill="#FFFFFF" height="25" style="stroke:#181818;stroke-width:1.0;" width="10" x="292.5" y="336.0938"/><rect fill="#FFFFFF" height="14" style="stroke:#181818;stroke-width:1.0;" width="10" x="546.5" y="421.3594"/><rect fill="#FFFFFF" height="14" style="stroke:#181818;stroke-width:1.0;" width="10" x="546.5" y="794.2891"/><rect fill="#FFFFFF" height="333.6641" style="stroke:#181818;stroke-width:1.0;" width="10" x="743.5" y="488.625"/><rect fill="#FFFFFF" height="25" style="stroke:#181818;stroke-width:1.0;" width="10" x="748.5" y="525.7578"/><rect fill="#FFFFFF" height="25" style="stroke:#181818;stroke-width:1.0;" width="10" x="748.5" y="594.8906"/><rect fill="#FFFFFF" height="25" style="stroke:#181818;stroke-width:1.0;" width="10" x="748.5" y="664.0234"/><rect fill="#FFFFFF" height="25" style="stroke:#181818;stroke-width:1.0;" width="10" x="748.5" y="733.1563"/><polygon fill="#181818" points="275.5,108.4297,285.5,112.4297,275.5,116.4297,279.5,112.4297" style="stroke:#181818;stroke-width:1.0;"/><line style="stroke:#181818;stroke-width:1.0;" x1="56.5" x2="281.5" y1="112.4297" y2="112.4297"/><text fill="#000000" font-family="sans-serif" font-size="13" lengthAdjust="spacing" textLength="212" x="63.5" y="107.3638">posterMessage(contenu, r&#233;seau)</text><path d="M206,127.4297 L276,127.4297 L276,134.5625 L266,144.5625 L206,144.5625 L206,127.4297 " fill="#EEEEEE" style="stroke:#000000;stroke-width:1.5;"/><rect fill="none" height="723.8594" style="stroke:#000000;stroke-width:1.5;" width="734.5" x="206" y="127.4297"/><text fill="#000000" font-family="sans-serif" font-size="13" font-weight="bold" lengthAdjust="spacing" textLength="25" x="221" y="140.4966">opt</text><text fill="#000000" font-family="sans-serif" font-size="11" font-weight="bold" lengthAdjust="spacing" textLength="219" x="291" y="139.6401">[mem.pseudo non null &#8743; non vide]</text><line style="stroke:#181818;stroke-width:1.0;" x1="297.5" x2="344.5" y1="160.6953" y2="160.6953"/><line style="stroke:#181818;stroke-width:1.0;" x1="344.5" x2="344.5" y1="160.6953" y2="173.6953"/><line style="stroke:#181818;stroke-width:1.0;" x1="303.5" x2="344.5" y1="173.6953" y2="173.6953"/><polygon fill="#181818" points="313.5,169.6953,303.5,173.6953,313.5,177.6953,309.5,173.6953" style="stroke:#181818;stroke-width:1.0;"/><text fill="#000000" font-family="sans-serif" font-size="13" lengthAdjust="spacing" textLength="235" x="309.5" y="155.6294">u=chercherUtilisateur(mem.pseudo)</text><line style="stroke:#181818;stroke-width:1.0;stroke-dasharray:2.0,2.0;" x1="302.5" x2="344.5" y1="197.6953" y2="197.6953"/><line style="stroke:#181818;stroke-width:1.0;stroke-dasharray:2.0,2.0;" x1="344.5" x2="344.5" y1="197.6953" y2="210.6953"/><line style="stroke:#181818;stroke-width:1.0;stroke-dasharray:2.0,2.0;" x1="297.5" x2="344.5" y1="210.6953" y2="210.6953"/><polygon fill="#181818" points="307.5,206.6953,297.5,210.6953,307.5,214.6953,303.5,210.6953" style="stroke:#181818;stroke-width:1.0;"/><path d="M216,220.6953 L286,220.6953 L286,227.8281 L276,237.8281 L216,237.8281 L216,220.6953 " fill="#EEEEEE" style="stroke:#000000;stroke-width:1.5;"/><rect fill="none" height="623.5938" style="stroke:#000000;stroke-width:1.5;" width="714.5" x="216" y="220.6953"/><text fill="#000000" font-family="sans-serif" font-size="13" font-weight="bold" lengthAdjust="spacing" textLength="25" x="231" y="233.7622">opt</text><text fill="#000000" font-family="sans-serif" font-size="11" font-weight="bold" lengthAdjust="spacing" textLength="333" x="301" y="232.9058">[(contenu, r&#233;seau non null &#8743; non vide) &#8743; (u != null)]</text><line style="stroke:#181818;stroke-width:1.0;" x1="297.5" x2="344.5" y1="253.9609" y2="253.9609"/><line style="stroke:#181818;stroke-width:1.0;" x1="344.5" x2="344.5" y1="253.9609" y2="266.9609"/><line style="stroke:#181818;stroke-width:1.0;" x1="303.5" x2="344.5" y1="266.9609" y2="266.9609"/><polygon fill="#181818" points="313.5,262.9609,303.5,266.9609,313.5,270.9609,309.5,266.9609" style="stroke:#181818;stroke-width:1.0;"/><text fill="#000000" font-family="sans-serif" font-size="13" lengthAdjust="spacing" textLength="235" x="309.5" y="248.895">ec=checkEtatCompte(mem.pseudo)</text><line style="stroke:#181818;stroke-width:1.0;stroke-dasharray:2.0,2.0;" x1="302.5" x2="344.5" y1="290.9609" y2="290.9609"/><line style="stroke:#181818;stroke-width:1.0;stroke-dasharray:2.0,2.0;" x1="344.5" x2="344.5" y1="290.9609" y2="303.9609"/><line style="stroke:#181818;stroke-width:1.0;stroke-dasharray:2.0,2.0;" x1="297.5" x2="344.5" y1="303.9609" y2="303.9609"/><polygon fill="#181818" points="307.5,299.9609,297.5,303.9609,307.5,307.9609,303.5,303.9609" style="stroke:#181818;stroke-width:1.0;"/><line style="stroke:#181818;stroke-width:1.0;" x1="297.5" x2="344.5" y1="323.0938" y2="323.0938"/><line style="stroke:#181818;stroke-width:1.0;" x1="344.5" x2="344.5" y1="323.0938" y2="336.0938"/><line style="stroke:#181818;stroke-width:1.0;" x1="303.5" x2="344.5" y1="336.0938" y2="336.0938"/><polygon fill="#181818" points="313.5,332.0938,303.5,336.0938,313.5,340.0938,309.5,336.0938" style="stroke:#181818;stroke-width:1.0;"/><text fill="#000000" font-family="sans-serif" font-size="13" lengthAdjust="spacing" textLength="173" x="309.5" y="318.0278">r=chercherReseau(r&#233;seau)</text><line style="stroke:#181818;stroke-width:1.0;stroke-dasharray:2.0,2.0;" x1="302.5" x2="344.5" y1="360.0938" y2="360.0938"/><line style="stroke:#181818;stroke-width:1.0;stroke-dasharray:2.0,2.0;" x1="344.5" x2="344.5" y1="360.0938" y2="373.0938"/><line style="stroke:#181818;stroke-width:1.0;stroke-dasharray:2.0,2.0;" x1="297.5" x2="344.5" y1="373.0938" y2="373.0938"/><polygon fill="#181818" points="307.5,369.0938,297.5,373.0938,307.5,377.0938,303.5,373.0938" style="stroke:#181818;stroke-width:1.0;"/><path d="M226,383.0938 L296,383.0938 L296,390.2266 L286,400.2266 L226,400.2266 L226,383.0938 " fill="#EEEEEE" style="stroke:#000000;stroke-width:1.5;"/><rect fill="none" height="454.1953" style="stroke:#000000;stroke-width:1.5;" width="694.5" x="226" y="383.0938"/><text fill="#000000" font-family="sans-serif" font-size="13" font-weight="bold" lengthAdjust="spacing" textLength="25" x="241" y="396.1606">opt</text><text fill="#000000" font-family="sans-serif" font-size="11" font-weight="bold" lengthAdjust="spacing" textLength="176" x="311" y="395.3042">[(r != null) &#8743; (ec == ACTIF)]</text><polygon fill="#181818" points="534.5,417.3594,544.5,421.3594,534.5,425.3594,538.5,421.3594" style="stroke:#181818;stroke-width:1.0;"/><line style="stroke:#181818;stroke-width:1.0;" x1="297.5" x2="540.5" y1="421.3594" y2="421.3594"/><text fill="#000000" font-family="sans-serif" font-size="13" lengthAdjust="spacing" textLength="86" x="304.5" y="416.2935">p=faitpartie()</text><polygon fill="#181818" points="308.5,431.3594,298.5,435.3594,308.5,439.3594,304.5,435.3594" style="stroke:#181818;stroke-width:1.0;"/><line style="stroke:#181818;stroke-width:1.0;stroke-dasharray:2.0,2.0;" x1="302.5" x2="550.5" y1="435.3594" y2="435.3594"/><path d="M236,450.3594 L306,450.3594 L306,457.4922 L296,467.4922 L236,467.4922 L236,450.3594 " fill="#EEEEEE" style="stroke:#000000;stroke-width:1.5;"/><rect fill="none" height="379.9297" style="stroke:#000000;stroke-width:1.5;" width="674.5" x="236" y="450.3594"/><text fill="#000000" font-family="sans-serif" font-size="13" font-weight="bold" lengthAdjust="spacing" textLength="25" x="251" y="463.4263">opt</text><text fill="#000000" font-family="sans-serif" font-size="11" font-weight="bold" lengthAdjust="spacing" textLength="73" x="321" y="462.5698">[p == True]</text><polygon fill="#181818" points="731.5,484.625,741.5,488.625,731.5,492.625,735.5,488.625" style="stroke:#181818;stroke-width:1.0;"/><line style="stroke:#181818;stroke-width:1.0;" x1="297.5" x2="737.5" y1="488.625" y2="488.625"/><text fill="#000000" font-family="sans-serif" font-size="13" lengthAdjust="spacing" textLength="226" x="304.5" y="483.5591">id=cr&#233;erMessage(contenu, r&#233;seau)</text><line style="stroke:#181818;stroke-width:1.0;" x1="753.5" x2="800.5" y1="512.7578" y2="512.7578"/><line style="stroke:#181818;stroke-width:1.0;" x1="800.5" x2="800.5" y1="512.7578" y2="525.7578"/><line style="stroke:#181818;stroke-width:1.0;" x1="759.5" x2="800.5" y1="525.7578" y2="525.7578"/><polygon fill="#181818" points="769.5,521.7578,759.5,525.7578,769.5,529.7578,765.5,525.7578" style="stroke:#181818;stroke-width:1.0;"/><text fill="#000000" font-family="sans-serif" font-size="13" lengthAdjust="spacing" textLength="133" x="765.5" y="507.6919">setContent(contenu)</text><line style="stroke:#181818;stroke-width:1.0;stroke-dasharray:2.0,2.0;" x1="758.5" x2="800.5" y1="549.7578" y2="549.7578"/><line style="stroke:#181818;stroke-width:1.0;stroke-dasharray:2.0,2.0;" x1="800.5" x2="800.5" y1="549.7578" y2="562.7578"/><line style="stroke:#181818;stroke-width:1.0;stroke-dasharray:2.0,2.0;" x1="753.5" x2="800.5" y1="562.7578" y2="562.7578"/><polygon fill="#181818" points="763.5,558.7578,753.5,562.7578,763.5,566.7578,759.5,562.7578" style="stroke:#181818;stroke-width:1.0;"/><line style="stroke:#181818;stroke-width:1.0;" x1="753.5" x2="800.5" y1="581.8906" y2="581.8906"/><line style="stroke:#181818;stroke-width:1.0;" x1="800.5" x2="800.5" y1="581.8906" y2="594.8906"/><line style="stroke:#181818;stroke-width:1.0;" x1="759.5" x2="800.5" y1="594.8906" y2="594.8906"/><polygon fill="#181818" points="769.5,590.8906,759.5,594.8906,769.5,598.8906,765.5,594.8906" style="stroke:#181818;stroke-width:1.0;"/><text fill="#000000" font-family="sans-serif" font-size="13" lengthAdjust="spacing" textLength="52" x="765.5" y="576.8247">setId(id)</text><line style="stroke:#181818;stroke-width:1.0;stroke-dasharray:2.0,2.0;" x1="758.5" x2="800.5" y1="618.8906" y2="618.8906"/><line style="stroke:#181818;stroke-width:1.0;stroke-dasharray:2.0,2.0;" x1="800.5" x2="800.5" y1="618.8906" y2="631.8906"/><line style="stroke:#181818;stroke-width:1.0;stroke-dasharray:2.0,2.0;" x1="753.5" x2="800.5" y1="631.8906" y2="631.8906"/><polygon fill="#181818" points="763.5,627.8906,753.5,631.8906,763.5,635.8906,759.5,631.8906" style="stroke:#181818;stroke-width:1.0;"/><line style="stroke:#181818;stroke-width:1.0;" x1="753.5" x2="800.5" y1="651.0234" y2="651.0234"/><line style="stroke:#181818;stroke-width:1.0;" x1="800.5" x2="800.5" y1="651.0234" y2="664.0234"/><line style="stroke:#181818;stroke-width:1.0;" x1="759.5" x2="800.5" y1="664.0234" y2="664.0234"/><polygon fill="#181818" points="769.5,660.0234,759.5,664.0234,769.5,668.0234,765.5,664.0234" style="stroke:#181818;stroke-width:1.0;"/><text fill="#000000" font-family="sans-serif" font-size="13" lengthAdjust="spacing" textLength="112" x="765.5" y="645.9575">initEtatMessage()</text><line style="stroke:#181818;stroke-width:1.0;stroke-dasharray:2.0,2.0;" x1="758.5" x2="800.5" y1="688.0234" y2="688.0234"/><line style="stroke:#181818;stroke-width:1.0;stroke-dasharray:2.0,2.0;" x1="800.5" x2="800.5" y1="688.0234" y2="701.0234"/><line style="stroke:#181818;stroke-width:1.0;stroke-dasharray:2.0,2.0;" x1="753.5" x2="800.5" y1="701.0234" y2="701.0234"/><polygon fill="#181818" points="763.5,697.0234,753.5,701.0234,763.5,705.0234,759.5,701.0234" style="stroke:#181818;stroke-width:1.0;"/><line style="stroke:#181818;stroke-width:1.0;" x1="753.5" x2="800.5" y1="720.1563" y2="720.1563"/><line style="stroke:#181818;stroke-width:1.0;" x1="800.5" x2="800.5" y1="720.1563" y2="733.1563"/><line style="stroke:#181818;stroke-width:1.0;" x1="759.5" x2="800.5" y1="733.1563" y2="733.1563"/><polygon fill="#181818" points="769.5,729.1563,759.5,733.1563,769.5,737.1563,765.5,733.1563" style="stroke:#181818;stroke-width:1.0;"/><text fill="#000000" font-family="sans-serif" font-size="13" lengthAdjust="spacing" textLength="74" x="765.5" y="715.0903">nonCach&#233;()</text><line style="stroke:#181818;stroke-width:1.0;stroke-dasharray:2.0,2.0;" x1="758.5" x2="800.5" y1="757.1563" y2="757.1563"/><line style="stroke:#181818;stroke-width:1.0;stroke-dasharray:2.0,2.0;" x1="800.5" x2="800.5" y1="757.1563" y2="770.1563"/><line style="stroke:#181818;stroke-width:1.0;stroke-dasharray:2.0,2.0;" x1="753.5" x2="800.5" y1="770.1563" y2="770.1563"/><polygon fill="#181818" points="763.5,766.1563,753.5,770.1563,763.5,774.1563,759.5,770.1563" style="stroke:#181818;stroke-width:1.0;"/><polygon fill="#181818" points="567.5,790.2891,557.5,794.2891,567.5,798.2891,563.5,794.2891" style="stroke:#181818;stroke-width:1.0;"/><line style="stroke:#181818;stroke-width:1.0;" x1="561.5" x2="742.5" y1="794.2891" y2="794.2891"/><text fill="#000000" font-family="sans-serif" font-size="13" lengthAdjust="spacing" textLength="168" x="573.5" y="789.2231">envoyerVersListeAttente()</text><polygon fill="#181818" points="731.5,804.2891,741.5,808.2891,731.5,812.2891,735.5,808.2891" style="stroke:#181818;stroke-width:1.0;"/><line style="stroke:#181818;stroke-width:1.0;stroke-dasharray:2.0,2.0;" x1="551.5" x2="737.5" y1="808.2891" y2="808.2891"/><polygon fill="#181818" points="308.5,818.2891,298.5,822.2891,308.5,826.2891,304.5,822.2891" style="stroke:#181818;stroke-width:1.0;"/><line style="stroke:#181818;stroke-width:1.0;stroke-dasharray:2.0,2.0;" x1="302.5" x2="747.5" y1="822.2891" y2="822.2891"/><polygon fill="#181818" points="67.5,860.2891,57.5,864.2891,67.5,868.2891,63.5,864.2891" style="stroke:#181818;stroke-width:1.0;"/><line style="stroke:#181818;stroke-width:1.0;stroke-dasharray:2.0,2.0;" x1="61.5" x2="291.5" y1="864.2891" y2="864.2891"/><!--SRC=[VLDRRjim4FpNARRviOouEO015N2T1WWG0q4UxQV1K6k9iKIgND98Rz1ZzA_GENIJdgHBMhRbsga0WY0rExCpAuskbIYig6k4786wzhj7BH7I-qfezxou6u-IP3GtUgKARuLJHeCiXNK8NDQKYl6Zf5HSl3B6lPYtXDPADu8vWN3BTizu9LN3Z9-5N1VMU9tFJMKiV2kLmpCbC-cCFGzEHjTTAolHTvCZWP0ElIL05u_DGOyWpRlsjVi5-AR8nHknuGqgSR0RJ8gW21VBPOtrT87rYyNbyW840Lya0yg8cIwKLez6qWxpByBIzA5h2OLdb19LZxDqGaK5on69Ogz71PjytCz2R512XQ6H2AD9F4dRjJ422gCRUfvm4FAAFN7dyF4Jr71v2LDe33cqlLOgZNQe_GJijirnOXeNl5urX3ute3bSxQiA_lpy7GyRdd8o9FIPBD66zUnKfKY4AQG7Yd5YqNch8_E9u7c1SJob7ZvayUNuI15ba9JhBqwukQaRX-VaXXLst-C31jLqRtVOcztBRUKvy2o3sVpfzgPlWB-kROZPIYWNqyRqYAG99K_MxpAYObkXyYoCwd_91-omX93T1P3RWG_UJg6tUQhoTm7ydReGrqxzNI1FO2vasRKda9rtr1lp0-rNj7J7FnFEN6XnGDblgFEZrL-7voy0]--></g></svg>