<?xml version="1.0" encoding="us-ascii" standalone="no"?><svg xmlns="http://www.w3.org/2000/svg" xmlns:xlink="http://www.w3.org/1999/xlink" contentStyleType="text/css" height="868px" preserveAspectRatio="none" style="width:1000px;height:868px;background:#FFFFFF;" version="1.1" viewBox="0 0 1000 868" width="1000px" zoomAndPan="magnify"><defs/><g><rect fill="#FFFFFF" height="14" style="stroke:#181818;stroke-width:1.0;" width="10" x="153.5" y="663.1875"/><rect fill="#FFFFFF" height="731.1563" style="stroke:#181818;stroke-width:1.0;" width="10" x="431" y="112.4297"/><rect fill="#FFFFFF" height="25" style="stroke:#181818;stroke-width:1.0;" width="10" x="436" y="173.6953"/><rect fill="#FFFFFF" height="25" style="stroke:#181818;stroke-width:1.0;" width="10" x="436" y="266.9609"/><rect fill="#FFFFFF" height="25" style="stroke:#181818;stroke-width:1.0;" width="10" x="436" y="336.0938"/><rect fill="#FFFFFF" height="25" style="stroke:#181818;stroke-width:1.0;" width="10" x="436" y="429.3594"/><rect fill="#FFFFFF" height="25" style="stroke:#181818;stroke-width:1.0;" width="10" x="436" y="522.625"/><rect fill="#FFFFFF" height="14" style="stroke:#181818;stroke-width:1.0;" width="10" x="745" y="706.3203"/><rect fill="#FFFFFF" height="16.1641" style="stroke:#181818;stroke-width:1.0;" width="10" x="873.5" y="617.8906"/><rect fill="#FFFFFF" height="14" style="stroke:#181818;stroke-width:1.0;" width="10" x="873.5" y="773.5859"/><rect fill="none" height="703.1563" style="stroke:#000000;stroke-width:1.5;" width="941.5" x="53" y="127.4297"/><rect fill="none" height="602.8906" style="stroke:#000000;stroke-width:1.5;" width="921.5" x="63" y="220.6953"/><rect fill="none" height="433.4922" style="stroke:#000000;stroke-width:1.5;" width="901.5" x="73" y="383.0938"/><rect fill="none" height="333.2266" style="stroke:#000000;stroke-width:1.5;" width="881.5" x="83" y="476.3594"/><rect fill="none" height="232.9609" style="stroke:#000000;stroke-width:1.5;" width="861.5" x="93" y="569.625"/><rect fill="none" height="60.2656" style="stroke:#000000;stroke-width:1.5;" width="565" x="379.5" y="735.3203"/><line style="stroke:#181818;stroke-width:0.5;stroke-dasharray:5.0,5.0;" x1="49" x2="49" y1="81.2969" y2="861.5859"/><line style="stroke:#181818;stroke-width:0.5;stroke-dasharray:5.0,5.0;" x1="158" x2="158" y1="81.2969" y2="861.5859"/><line style="stroke:#181818;stroke-width:0.5;stroke-dasharray:5.0,5.0;" x1="435.5" x2="435.5" y1="81.2969" y2="861.5859"/><line style="stroke:#181818;stroke-width:0.5;stroke-dasharray:5.0,5.0;" x1="749.5" x2="749.5" y1="81.2969" y2="861.5859"/><line style="stroke:#181818;stroke-width:0.5;stroke-dasharray:5.0,5.0;" x1="878.5" x2="878.5" y1="617.4063" y2="861.5859"/><text fill="#000000" font-family="sans-serif" font-size="14" lengthAdjust="spacing" text-decoration="underline" textLength="82" x="5" y="77.9951">u:Utilisateur</text><ellipse cx="49" cy="13.5" fill="#FFFFFF" rx="8" ry="8" style="stroke:#181818;stroke-width:0.5;"/><path d="M49,21.5 L49,48.5 M36,29.5 L62,29.5 M49,48.5 L36,63.5 M49,48.5 L62,63.5 " fill="none" style="stroke:#181818;stroke-width:0.5;"/><rect fill="#FFFFFF" height="30.2969" rx="2.5" ry="2.5" style="stroke:#181818;stroke-width:0.5;" width="111" x="103" y="50"/><text fill="#000000" font-family="sans-serif" font-size="14" lengthAdjust="spacing" text-decoration="underline" textLength="97" x="110" y="69.9951">mem:Membre</text><rect fill="#FFFFFF" height="30.2969" rx="2.5" ry="2.5" style="stroke:#181818;stroke-width:0.5;" width="93" x="389.5" y="50"/><text fill="#000000" font-family="sans-serif" font-size="14" lengthAdjust="spacing" text-decoration="underline" textLength="79" x="396.5" y="69.9951">m:MiniSocs</text><rect fill="#FFFFFF" height="30.2969" rx="2.5" ry="2.5" style="stroke:#181818;stroke-width:0.5;" width="125" x="687.5" y="50"/><text fill="#000000" font-family="sans-serif" font-size="14" lengthAdjust="spacing" text-decoration="underline" textLength="111" x="694.5" y="69.9951">rs:R&#233;seauSocial</text><rect fill="#FFFFFF" height="14" style="stroke:#181818;stroke-width:1.0;" width="10" x="153.5" y="663.1875"/><rect fill="#FFFFFF" height="731.1563" style="stroke:#181818;stroke-width:1.0;" width="10" x="431" y="112.4297"/><rect fill="#FFFFFF" height="25" style="stroke:#181818;stroke-width:1.0;" width="10" x="436" y="173.6953"/><rect fill="#FFFFFF" height="25" style="stroke:#181818;stroke-width:1.0;" width="10" x="436" y="266.9609"/><rect fill="#FFFFFF" height="25" style="stroke:#181818;stroke-width:1.0;" width="10" x="436" y="336.0938"/><rect fill="#FFFFFF" height="25" style="stroke:#181818;stroke-width:1.0;" width="10" x="436" y="429.3594"/><rect fill="#FFFFFF" height="25" style="stroke:#181818;stroke-width:1.0;" width="10" x="436" y="522.625"/><rect fill="#FFFFFF" height="14" style="stroke:#181818;stroke-width:1.0;" width="10" x="745" y="706.3203"/><rect fill="#FFFFFF" height="16.1641" style="stroke:#181818;stroke-width:1.0;" width="10" x="873.5" y="617.8906"/><rect fill="#FFFFFF" height="14" style="stroke:#181818;stroke-width:1.0;" width="10" x="873.5" y="773.5859"/><polygon fill="#181818" points="419,108.4297,429,112.4297,419,116.4297,423,112.4297" style="stroke:#181818;stroke-width:1.0;"/><line style="stroke:#181818;stroke-width:1.0;" x1="49" x2="425" y1="112.4297" y2="112.4297"/><text fill="#000000" font-family="sans-serif" font-size="13" lengthAdjust="spacing" textLength="363" x="56" y="107.3638">posterMessage(u.pseudo, nomReseau, contenu, instant)</text><path d="M53,127.4297 L123,127.4297 L123,134.5625 L113,144.5625 L53,144.5625 L53,127.4297 " fill="#EEEEEE" style="stroke:#000000;stroke-width:1.5;"/><rect fill="none" height="703.1563" style="stroke:#000000;stroke-width:1.5;" width="941.5" x="53" y="127.4297"/><text fill="#000000" font-family="sans-serif" font-size="13" font-weight="bold" lengthAdjust="spacing" textLength="25" x="68" y="140.4966">opt</text><text fill="#000000" font-family="sans-serif" font-size="11" font-weight="bold" lengthAdjust="spacing" textLength="392" x="138" y="139.6401">[contenu, u.pseudo, nomReseau, instant non null &#8743; non vide]</text><line style="stroke:#181818;stroke-width:1.0;" x1="441" x2="488" y1="160.6953" y2="160.6953"/><line style="stroke:#181818;stroke-width:1.0;" x1="488" x2="488" y1="160.6953" y2="173.6953"/><line style="stroke:#181818;stroke-width:1.0;" x1="447" x2="488" y1="173.6953" y2="173.6953"/><polygon fill="#181818" points="457,169.6953,447,173.6953,457,177.6953,453,173.6953" style="stroke:#181818;stroke-width:1.0;"/><text fill="#000000" font-family="sans-serif" font-size="13" lengthAdjust="spacing" textLength="203" x="453" y="155.6294">user=utilisateurs.get(u.pseudo)</text><line style="stroke:#181818;stroke-width:1.0;stroke-dasharray:2.0,2.0;" x1="446" x2="488" y1="197.6953" y2="197.6953"/><line style="stroke:#181818;stroke-width:1.0;stroke-dasharray:2.0,2.0;" x1="488" x2="488" y1="197.6953" y2="210.6953"/><line style="stroke:#181818;stroke-width:1.0;stroke-dasharray:2.0,2.0;" x1="441" x2="488" y1="210.6953" y2="210.6953"/><polygon fill="#181818" points="451,206.6953,441,210.6953,451,214.6953,447,210.6953" style="stroke:#181818;stroke-width:1.0;"/><path d="M63,220.6953 L133,220.6953 L133,227.8281 L123,237.8281 L63,237.8281 L63,220.6953 " fill="#EEEEEE" style="stroke:#000000;stroke-width:1.5;"/><rect fill="none" height="602.8906" style="stroke:#000000;stroke-width:1.5;" width="921.5" x="63" y="220.6953"/><text fill="#000000" font-family="sans-serif" font-size="13" font-weight="bold" lengthAdjust="spacing" textLength="25" x="78" y="233.7622">opt</text><text fill="#000000" font-family="sans-serif" font-size="11" font-weight="bold" lengthAdjust="spacing" textLength="84" x="148" y="232.9058">[user != null]</text><line style="stroke:#181818;stroke-width:1.0;" x1="441" x2="488" y1="253.9609" y2="253.9609"/><line style="stroke:#181818;stroke-width:1.0;" x1="488" x2="488" y1="253.9609" y2="266.9609"/><line style="stroke:#181818;stroke-width:1.0;" x1="447" x2="488" y1="266.9609" y2="266.9609"/><polygon fill="#181818" points="457,262.9609,447,266.9609,457,270.9609,453,266.9609" style="stroke:#181818;stroke-width:1.0;"/><text fill="#000000" font-family="sans-serif" font-size="13" lengthAdjust="spacing" textLength="166" x="453" y="248.895">ec=user.getEtatCompte()</text><line style="stroke:#181818;stroke-width:1.0;stroke-dasharray:2.0,2.0;" x1="446" x2="488" y1="290.9609" y2="290.9609"/><line style="stroke:#181818;stroke-width:1.0;stroke-dasharray:2.0,2.0;" x1="488" x2="488" y1="290.9609" y2="303.9609"/><line style="stroke:#181818;stroke-width:1.0;stroke-dasharray:2.0,2.0;" x1="441" x2="488" y1="303.9609" y2="303.9609"/><polygon fill="#181818" points="451,299.9609,441,303.9609,451,307.9609,447,303.9609" style="stroke:#181818;stroke-width:1.0;"/><line style="stroke:#181818;stroke-width:1.0;" x1="441" x2="488" y1="323.0938" y2="323.0938"/><line style="stroke:#181818;stroke-width:1.0;" x1="488" x2="488" y1="323.0938" y2="336.0938"/><line style="stroke:#181818;stroke-width:1.0;" x1="447" x2="488" y1="336.0938" y2="336.0938"/><polygon fill="#181818" points="457,332.0938,447,336.0938,457,340.0938,453,336.0938" style="stroke:#181818;stroke-width:1.0;"/><text fill="#000000" font-family="sans-serif" font-size="13" lengthAdjust="spacing" textLength="178" x="453" y="318.0278">r=reseaux.get(nomReseau)</text><line style="stroke:#181818;stroke-width:1.0;stroke-dasharray:2.0,2.0;" x1="446" x2="488" y1="360.0938" y2="360.0938"/><line style="stroke:#181818;stroke-width:1.0;stroke-dasharray:2.0,2.0;" x1="488" x2="488" y1="360.0938" y2="373.0938"/><line style="stroke:#181818;stroke-width:1.0;stroke-dasharray:2.0,2.0;" x1="441" x2="488" y1="373.0938" y2="373.0938"/><polygon fill="#181818" points="451,369.0938,441,373.0938,451,377.0938,447,373.0938" style="stroke:#181818;stroke-width:1.0;"/><path d="M73,383.0938 L143,383.0938 L143,390.2266 L133,400.2266 L73,400.2266 L73,383.0938 " fill="#EEEEEE" style="stroke:#000000;stroke-width:1.5;"/><rect fill="none" height="433.4922" style="stroke:#000000;stroke-width:1.5;" width="901.5" x="73" y="383.0938"/><text fill="#000000" font-family="sans-serif" font-size="13" font-weight="bold" lengthAdjust="spacing" textLength="25" x="88" y="396.1606">opt</text><text fill="#000000" font-family="sans-serif" font-size="11" font-weight="bold" lengthAdjust="spacing" textLength="176" x="158" y="395.3042">[(r != null) &#8743; (ec == ACTIF)]</text><line style="stroke:#181818;stroke-width:1.0;" x1="441" x2="488" y1="416.3594" y2="416.3594"/><line style="stroke:#181818;stroke-width:1.0;" x1="488" x2="488" y1="416.3594" y2="429.3594"/><line style="stroke:#181818;stroke-width:1.0;" x1="447" x2="488" y1="429.3594" y2="429.3594"/><polygon fill="#181818" points="457,425.3594,447,429.3594,457,433.3594,453,429.3594" style="stroke:#181818;stroke-width:1.0;"/><text fill="#000000" font-family="sans-serif" font-size="13" lengthAdjust="spacing" textLength="137" x="453" y="411.2935">er=r.getEtatReseau()</text><line style="stroke:#181818;stroke-width:1.0;stroke-dasharray:2.0,2.0;" x1="446" x2="488" y1="453.3594" y2="453.3594"/><line style="stroke:#181818;stroke-width:1.0;stroke-dasharray:2.0,2.0;" x1="488" x2="488" y1="453.3594" y2="466.3594"/><line style="stroke:#181818;stroke-width:1.0;stroke-dasharray:2.0,2.0;" x1="441" x2="488" y1="466.3594" y2="466.3594"/><polygon fill="#181818" points="451,462.3594,441,466.3594,451,470.3594,447,466.3594" style="stroke:#181818;stroke-width:1.0;"/><path d="M83,476.3594 L153,476.3594 L153,483.4922 L143,493.4922 L83,493.4922 L83,476.3594 " fill="#EEEEEE" style="stroke:#000000;stroke-width:1.5;"/><rect fill="none" height="333.2266" style="stroke:#000000;stroke-width:1.5;" width="881.5" x="83" y="476.3594"/><text fill="#000000" font-family="sans-serif" font-size="13" font-weight="bold" lengthAdjust="spacing" textLength="25" x="98" y="489.4263">opt</text><text fill="#000000" font-family="sans-serif" font-size="11" font-weight="bold" lengthAdjust="spacing" textLength="100" x="168" y="488.5698">[er == OUVERT]</text><line style="stroke:#181818;stroke-width:1.0;" x1="441" x2="488" y1="509.625" y2="509.625"/><line style="stroke:#181818;stroke-width:1.0;" x1="488" x2="488" y1="509.625" y2="522.625"/><line style="stroke:#181818;stroke-width:1.0;" x1="447" x2="488" y1="522.625" y2="522.625"/><polygon fill="#181818" points="457,518.625,447,522.625,457,526.625,453,522.625" style="stroke:#181818;stroke-width:1.0;"/><text fill="#000000" font-family="sans-serif" font-size="13" lengthAdjust="spacing" textLength="290" x="453" y="504.5591">member=user.getMembres.get(nomReseau)</text><line style="stroke:#181818;stroke-width:1.0;stroke-dasharray:2.0,2.0;" x1="446" x2="488" y1="546.625" y2="546.625"/><line style="stroke:#181818;stroke-width:1.0;stroke-dasharray:2.0,2.0;" x1="488" x2="488" y1="546.625" y2="559.625"/><line style="stroke:#181818;stroke-width:1.0;stroke-dasharray:2.0,2.0;" x1="441" x2="488" y1="559.625" y2="559.625"/><polygon fill="#181818" points="451,555.625,441,559.625,451,563.625,447,559.625" style="stroke:#181818;stroke-width:1.0;"/><path d="M93,569.625 L163,569.625 L163,576.7578 L153,586.7578 L93,586.7578 L93,569.625 " fill="#EEEEEE" style="stroke:#000000;stroke-width:1.5;"/><rect fill="none" height="232.9609" style="stroke:#000000;stroke-width:1.5;" width="861.5" x="93" y="569.625"/><text fill="#000000" font-family="sans-serif" font-size="13" font-weight="bold" lengthAdjust="spacing" textLength="25" x="108" y="582.6919">opt</text><text fill="#000000" font-family="sans-serif" font-size="11" font-weight="bold" lengthAdjust="spacing" textLength="107" x="178" y="581.8354">[member != null]</text><polygon fill="#181818" points="810.5,603.8906,820.5,607.8906,810.5,611.8906,814.5,607.8906" style="stroke:#181818;stroke-width:1.0;"/><line style="stroke:#181818;stroke-width:1.0;" x1="441" x2="816.5" y1="607.8906" y2="607.8906"/><text fill="#000000" font-family="sans-serif" font-size="13" lengthAdjust="spacing" textLength="267" x="448" y="602.8247">new Message(contenu, u.pseudo, instant)</text><rect fill="#FFFFFF" height="30.2969" rx="2.5" ry="2.5" style="stroke:#181818;stroke-width:0.5;" width="112" x="822.5" y="586.7578"/><text fill="#000000" font-family="sans-serif" font-size="14" lengthAdjust="spacing" text-decoration="underline" textLength="98" x="829.5" y="606.7529">msg:Message</text><polygon fill="#181818" points="452,630.0547,442,634.0547,452,638.0547,448,634.0547" style="stroke:#181818;stroke-width:1.0;"/><line style="stroke:#181818;stroke-width:1.0;stroke-dasharray:2.0,2.0;" x1="446" x2="877.5" y1="634.0547" y2="634.0547"/><polygon fill="#181818" points="174.5,659.1875,164.5,663.1875,174.5,667.1875,170.5,663.1875" style="stroke:#181818;stroke-width:1.0;"/><line style="stroke:#181818;stroke-width:1.0;" x1="168.5" x2="430" y1="663.1875" y2="663.1875"/><text fill="#000000" font-family="sans-serif" font-size="13" lengthAdjust="spacing" textLength="199" x="180.5" y="658.1216">member.ajouterMessage(msg)</text><polygon fill="#181818" points="419,673.1875,429,677.1875,419,681.1875,423,677.1875" style="stroke:#181818;stroke-width:1.0;"/><line style="stroke:#181818;stroke-width:1.0;stroke-dasharray:2.0,2.0;" x1="158.5" x2="425" y1="677.1875" y2="677.1875"/><polygon fill="#181818" points="733,702.3203,743,706.3203,733,710.3203,737,706.3203" style="stroke:#181818;stroke-width:1.0;"/><line style="stroke:#181818;stroke-width:1.0;" x1="441" x2="739" y1="706.3203" y2="706.3203"/><text fill="#000000" font-family="sans-serif" font-size="13" lengthAdjust="spacing" textLength="149" x="448" y="701.2544">r.ajouterMessage(msg)</text><polygon fill="#181818" points="452,716.3203,442,720.3203,452,724.3203,448,720.3203" style="stroke:#181818;stroke-width:1.0;"/><line style="stroke:#181818;stroke-width:1.0;stroke-dasharray:2.0,2.0;" x1="446" x2="749" y1="720.3203" y2="720.3203"/><path d="M379.5,735.3203 L449.5,735.3203 L449.5,742.4531 L439.5,752.4531 L379.5,752.4531 L379.5,735.3203 " fill="#EEEEEE" style="stroke:#000000;stroke-width:1.5;"/><rect fill="none" height="60.2656" style="stroke:#000000;stroke-width:1.5;" width="565" x="379.5" y="735.3203"/><text fill="#000000" font-family="sans-serif" font-size="13" font-weight="bold" lengthAdjust="spacing" textLength="25" x="394.5" y="748.3872">opt</text><text fill="#000000" font-family="sans-serif" font-size="11" font-weight="bold" lengthAdjust="spacing" textLength="224" x="464.5" y="747.5308">[member.estModerateur() == True]</text><polygon fill="#181818" points="861.5,769.5859,871.5,773.5859,861.5,777.5859,865.5,773.5859" style="stroke:#181818;stroke-width:1.0;"/><line style="stroke:#181818;stroke-width:1.0;" x1="441" x2="867.5" y1="773.5859" y2="773.5859"/><text fill="#000000" font-family="sans-serif" font-size="13" lengthAdjust="spacing" textLength="155" x="448" y="768.52">msg.moderer(ACCEPTE)</text><polygon fill="#181818" points="452,783.5859,442,787.5859,452,791.5859,448,787.5859" style="stroke:#181818;stroke-width:1.0;"/><line style="stroke:#181818;stroke-width:1.0;stroke-dasharray:2.0,2.0;" x1="446" x2="877.5" y1="787.5859" y2="787.5859"/><polygon fill="#181818" points="60,839.5859,50,843.5859,60,847.5859,56,843.5859" style="stroke:#181818;stroke-width:1.0;"/><line style="stroke:#181818;stroke-width:1.0;stroke-dasharray:2.0,2.0;" x1="54" x2="435" y1="843.5859" y2="843.5859"/><!--SRC=[VLDRZjem5FtFAcxdXw2XMK2aL9fcg5Ifg8Y1zXCPvqxmJ6AdlZPb2Lr6_ohMmKwwajfE28IYYPI7xNFFEVUHqQDWfMPrZL0WqF7mmwBa2F6yOjAiPb_6eoWQvKe-Yz9gPeIImBTC6mGNrco5mu-YhN31pqgPZTf7z2famnmd4BPiSuSNN3IEyIFZhwLMLXQvgfI6xrjXy4R80pTAtmP7eyVZWLUiSrCW0UC6hIP04vRDMOyWBew7b-DlmBqW4tROphsWOkTqVPBCAyBTUctJbH6L8EOvr-ixO0Gskk3qe1hhT8RrHcE7S1l_OTAPaE99SJfXhX6QqiNnGCYiGmbMTJXDBicdlXTiXnmgz1f4h4IQX1NNnqCe0VdMNUOySONWYSl9mliFKCFzFQJGA3AePor5R9E6q1Pg0bBL2_GM9i2LD2ZTXv2XLED8DUQyUpEcWxej2T9M5VpzzISiTcucelh2W2NKcJsNbf8IJMza76aqLiiWwQ7mBWk40mxacJ_paLF3JAxgnc3Snrv2TQQ3nNsGwHqFTE9UPHnynwxGMGOF-VBpf_5GsD6TL5kYUC3a_Bh0hwjlqyLo4EZcOkFpxbotCqDlU6e3-kovHbUjC4vKfbtxJlD4PQT5PQicyIUSMdoZRtrV1_N2WTM4lIXxCIcEUuXt_rbRuBUGvqmI93DJ1UhGz7ZiwxJK5g-Sku-azZ3KyKEUJ-VBQK-6ieZ2u_hkpltr3m00]--></g></svg>