<?xml version="1.0" encoding="us-ascii" standalone="no"?><svg xmlns="http://www.w3.org/2000/svg" xmlns:xlink="http://www.w3.org/1999/xlink" contentStyleType="text/css" height="612px" preserveAspectRatio="none" style="width:818px;height:612px;background:#FFFFFF;" version="1.1" viewBox="0 0 818 612" width="818px" zoomAndPan="magnify"><defs/><g><!--cluster MiniSocs--><g id="cluster_MiniSocs"><rect fill="none" height="599" rx="2.5" ry="2.5" style="stroke:#181818;stroke-width:1.0;" width="534" x="278" y="7"/><text fill="#000000" font-family="sans-serif" font-size="14" font-weight="bold" lengthAdjust="spacing" textLength="69" x="510.5" y="21.9951">MiniSocs</text></g><g id="elem_bloquer un compte utilisateur"><ellipse cx="411.9616" cy="67.9923" fill="#FFFFFF" rx="117.9616" ry="25.9923" style="stroke:#000000;stroke-width:0.5;"/><text fill="#000000" font-family="sans-serif" font-size="14" lengthAdjust="spacing" textLength="203" x="310.4616" y="70.839">bloquer un compte utilisateur</text></g><!--entity Moderateur--><g id="elem_Moderateur"><ellipse cx="412" cy="137.5" fill="#F1F1F1" rx="8" ry="8" style="stroke:#181818;stroke-width:0.5;"/><path d="M412,145.5 L412,172.5 M399,153.5 L425,153.5 M412,172.5 L399,187.5 M412,172.5 L425,187.5 " fill="none" style="stroke:#181818;stroke-width:0.5;"/><text fill="#000000" font-family="sans-serif" font-size="14" lengthAdjust="spacing" textLength="80" x="372" y="201.9951">Moderateur</text></g><g id="elem_ajouter un utilisateur"><ellipse cx="693.1728" cy="310.8346" fill="#FFFFFF" rx="89.6728" ry="20.3346" style="stroke:#000000;stroke-width:0.5;"/><text fill="#000000" font-family="sans-serif" font-size="14" lengthAdjust="spacing" textLength="141" x="622.6728" y="313.6812">ajouter un utilisateur</text></g><g id="elem_promouvoir un utilisateur"><ellipse cx="693.1608" cy="232.0322" fill="#FFFFFF" rx="103.1608" ry="23.0322" style="stroke:#000000;stroke-width:0.5;"/><text fill="#000000" font-family="sans-serif" font-size="14" lengthAdjust="spacing" textLength="171" x="607.6608" y="234.8788">promouvoir un utilisateur</text></g><g id="elem_lister les utilisateur"><ellipse cx="692.995" cy="155.199" fill="#FFFFFF" rx="83.995" ry="19.199" style="stroke:#000000;stroke-width:0.5;"/><text fill="#000000" font-family="sans-serif" font-size="14" lengthAdjust="spacing" textLength="128" x="628.7335" y="158.1356">lister les utilisateur</text></g><g id="elem_fermer son reseau social"><ellipse cx="693.2042" cy="77.9408" fill="#FFFFFF" rx="102.7042" ry="22.9408" style="stroke:#000000;stroke-width:0.5;"/><text fill="#000000" font-family="sans-serif" font-size="14" lengthAdjust="spacing" textLength="170" x="608.2042" y="80.7875">fermer son reseau social</text></g><g id="elem_d&#233;sactiver son compte"><ellipse cx="411.7599" cy="261.852" fill="#FFFFFF" rx="97.2599" ry="21.852" style="stroke:#000000;stroke-width:0.5;"/><text fill="#000000" font-family="sans-serif" font-size="14" lengthAdjust="spacing" textLength="158" x="332.7599" y="264.6987">d&#233;sactiver son compte</text></g><g id="elem_r&#233;activer son compte"><ellipse cx="411.8872" cy="339.7774" fill="#FFFFFF" rx="91.8872" ry="20.7774" style="stroke:#000000;stroke-width:0.5;"/><text fill="#000000" font-family="sans-serif" font-size="14" lengthAdjust="spacing" textLength="146" x="338.8872" y="342.6241">r&#233;activer son compte</text></g><g id="elem_poster un message"><ellipse cx="412.0368" cy="415.8074" fill="#FFFFFF" rx="87.0368" ry="19.8074" style="stroke:#000000;stroke-width:0.5;"/><text fill="#000000" font-family="sans-serif" font-size="14" lengthAdjust="spacing" textLength="135" x="344.5368" y="418.654">poster un message</text></g><g id="elem_cacher son message"><ellipse cx="411.9431" cy="492.1886" fill="#FFFFFF" rx="91.4431" ry="20.6886" style="stroke:#000000;stroke-width:0.5;"/><text fill="#000000" font-family="sans-serif" font-size="14" lengthAdjust="spacing" textLength="145" x="339.4431" y="495.0353">cacher son message</text></g><g id="elem_initialiser son compte"><ellipse cx="411.8872" cy="568.7774" fill="#FFFFFF" rx="91.8872" ry="20.7774" style="stroke:#000000;stroke-width:0.5;"/><text fill="#000000" font-family="sans-serif" font-size="14" lengthAdjust="spacing" textLength="146" x="338.8872" y="571.6241">initialiser son compte</text></g><!--entity Administrateur--><g id="elem_Administrateur"><ellipse cx="184" cy="91.5" fill="#F1F1F1" rx="8" ry="8" style="stroke:#181818;stroke-width:0.5;"/><path d="M184,99.5 L184,126.5 M171,107.5 L197,107.5 M184,126.5 L171,141.5 M184,126.5 L197,141.5 " fill="none" style="stroke:#181818;stroke-width:0.5;"/><text fill="#000000" font-family="sans-serif" font-size="14" lengthAdjust="spacing" textLength="100" x="134" y="155.9951">Administrateur</text></g><!--entity Utilisateur--><g id="elem_Utilisateur"><ellipse cx="40" cy="239.5" fill="#F1F1F1" rx="8" ry="8" style="stroke:#181818;stroke-width:0.5;"/><path d="M40,247.5 L40,274.5 M27,255.5 L53,255.5 M40,274.5 L27,289.5 M40,274.5 L53,289.5 " fill="none" style="stroke:#181818;stroke-width:0.5;"/><text fill="#000000" font-family="sans-serif" font-size="14" lengthAdjust="spacing" textLength="68" x="6" y="303.9951">Utilisateur</text></g><!--entity Membre--><g id="elem_Membre"><ellipse cx="40" cy="350.5" fill="#F1F1F1" rx="8" ry="8" style="stroke:#181818;stroke-width:0.5;"/><path d="M40,358.5 L40,385.5 M27,366.5 L53,366.5 M40,385.5 L27,400.5 M40,385.5 L53,400.5 " fill="none" style="stroke:#181818;stroke-width:0.5;"/><text fill="#000000" font-family="sans-serif" font-size="14" lengthAdjust="spacing" textLength="57" x="11.5" y="414.9951">Membre</text></g><!--reverse link Membre to Administrateur--><g id="link_Membre_Administrateur"><path d="M72.8067,326.3044 C76.2767,320.3444 70.73,329.8 74,324 C106.08,267 141.64,200.01 163.16,159.03 " fill="none" id="Membre-backto-Administrateur" style="stroke:#000000;stroke-width:1.0;"/><polygon fill="none" points="63.75,341.86,77.9919,329.3233,67.6215,323.2855,63.75,341.86" style="stroke:#000000;stroke-width:1.0;"/></g><!--link Administrateur to bloquer un compte utilisateur--><g id="link_Administrateur_bloquer un compte utilisateur"><path d="M234.04,109.5 C262.21,102.89 298.29,94.43 330.51,86.88 " fill="none" id="Administrateur-bloquer un compte utilisateur" style="stroke:#000000;stroke-width:1.0;"/></g><!--link Moderateur to ajouter un utilisateur--><g id="link_Moderateur_ajouter un utilisateur"><path d="M452.24,182.46 C475.6,192.39 505.39,206.33 530,222 C559.28,240.65 560.05,254.45 590,272 C605.21,280.91 622.83,288.5 639.11,294.54 " fill="none" id="Moderateur-ajouter un utilisateur" style="stroke:#000000;stroke-width:1.0;"/></g><!--link Moderateur to promouvoir un utilisateur--><g id="link_Moderateur_promouvoir un utilisateur"><path d="M452.09,176.11 C495.8,186.29 567.51,203 621.16,215.5 " fill="none" id="Moderateur-promouvoir un utilisateur" style="stroke:#000000;stroke-width:1.0;"/></g><!--link Moderateur to lister les utilisateur--><g id="link_Moderateur_lister les utilisateur"><path d="M452.09,165.32 C492.88,163.56 558.04,160.76 610.16,158.52 " fill="none" id="Moderateur-lister les utilisateur" style="stroke:#000000;stroke-width:1.0;"/></g><!--link Moderateur to fermer son reseau social--><g id="link_Moderateur_fermer son reseau social"><path d="M452.09,154.53 C499.18,139.51 578.74,114.13 633.24,96.74 " fill="none" id="Moderateur-fermer son reseau social" style="stroke:#000000;stroke-width:1.0;"/></g><!--link Membre to d?sactiver son compte--><g id="link_Membre_d&#233;sactiver son compte"><path d="M68.56,365.76 C86.8,356.72 111.43,345.21 134,337 C203.3,311.8 285.05,290.67 341.7,277.33 " fill="none" id="Membre-d&#233;sactiver son compte" style="stroke:#000000;stroke-width:1.0;"/></g><!--link Membre to r?activer son compte--><g id="link_Membre_r&#233;activer son compte"><path d="M68.65,376.23 C87.13,373.76 112,370.53 134,368 C198.59,360.57 271.77,353.22 326.68,347.91 " fill="none" id="Membre-r&#233;activer son compte" style="stroke:#000000;stroke-width:1.0;"/></g><!--link Membre to poster un message--><g id="link_Membre_poster un message"><path d="M68.51,382.68 C123.44,388.02 248.55,400.19 331.38,408.25 " fill="none" id="Membre-poster un message" style="stroke:#000000;stroke-width:1.0;"/></g><!--link Membre to cacher son message--><g id="link_Membre_cacher son message"><path d="M68.74,389.23 C111.71,403.43 197.01,431.28 270,453 C297.02,461.04 327.12,469.44 352.54,476.38 " fill="none" id="Membre-cacher son message" style="stroke:#000000;stroke-width:1.0;"/></g><!--link Membre to initialiser son compte--><g id="link_Membre_initialiser son compte"><path d="M68.89,402.3 C87.05,416.49 111.48,434.97 134,450 C192.33,488.93 205.43,502.64 270,530 C293.74,540.06 320.82,548.27 344.86,554.52 " fill="none" id="Membre-initialiser son compte" style="stroke:#000000;stroke-width:1.0;"/></g><!--SRC=[ZP11Rjmm34NNrIc8R9miSW5Z422J0EsY0nGeWguPYMChaKINb58KRUxJESTSh7J7G9j96iGhWtpw_Fztrn47mPm90e57XT2r6bDKh94Bd7vAMEhDvkDPvrntnMKRXoQ7dHzHAe4zdyRujL7dz3wM2KqEcfA94VnmQ_JtWt0huOeJ2tmPOoMtPWaaXyaw6U8kHVZRau6lB4UlLoluq38MkBY0zvo2UtGkqRP2PP0uZ1L25FApFRDxlT_vX8lRG0heApLHw3k7ipfSXXnBr6gCBPRXpPBV9k_SXlAj4An-dfyVqoySU5vWmAAG2FIxrlslR2ND_h0CDZlPcDndzdfYFRd-gNmFTl7qDh4rAz2iRiwJrTt-kZjp_OQjndzulEDM3_phu2ISkJrmV0DhgrapMS3NmIr9Db0jjv0IDllr4TEC_kcn1_jcCkntQct7XmK_X7lEoNxt5cnYNL9dKiNX1SIZ7nUL_p9MVpMxKO_EFRhV]--></g></svg>