<?xml version="1.0" encoding="us-ascii" standalone="no"?><svg xmlns="http://www.w3.org/2000/svg" xmlns:xlink="http://www.w3.org/1999/xlink" contentStyleType="text/css" height="813px" preserveAspectRatio="none" style="width:681px;height:813px;background:#FFFFFF;" version="1.1" viewBox="0 0 681 813" width="681px" zoomAndPan="magnify"><defs/><g><!--cluster MiniSocs--><g id="cluster_MiniSocs"><rect fill="none" height="800" rx="2.5" ry="2.5" style="stroke:#181818;stroke-width:1.0;" width="268" x="407" y="7"/><text fill="#000000" font-family="sans-serif" font-size="14" font-weight="bold" lengthAdjust="spacing" textLength="69" x="506.5" y="21.9951">MiniSocs</text></g><g id="elem_bloquer un compte utilisateur"><ellipse cx="540.9616" cy="67.9923" fill="#FFFFFF" rx="117.9616" ry="25.9923" style="stroke:#000000;stroke-width:0.5;"/><text fill="#000000" font-family="sans-serif" font-size="14" lengthAdjust="spacing" textLength="203" x="439.4616" y="70.839">bloquer un compte utilisateur</text></g><g id="elem_ajouter un utilisateur"><ellipse cx="541.1728" cy="149.8346" fill="#FFFFFF" rx="89.6728" ry="20.3346" style="stroke:#000000;stroke-width:0.5;"/><text fill="#000000" font-family="sans-serif" font-size="14" lengthAdjust="spacing" textLength="141" x="470.6728" y="152.6812">ajouter un utilisateur</text></g><g id="elem_promouvoir un utilisateur"><ellipse cx="541.1608" cy="229.0322" fill="#FFFFFF" rx="103.1608" ry="23.0322" style="stroke:#000000;stroke-width:0.5;"/><text fill="#000000" font-family="sans-serif" font-size="14" lengthAdjust="spacing" textLength="171" x="455.6608" y="231.8788">promouvoir un utilisateur</text></g><g id="elem_lister les utilisateur"><ellipse cx="540.995" cy="306.199" fill="#FFFFFF" rx="83.995" ry="19.199" style="stroke:#000000;stroke-width:0.5;"/><text fill="#000000" font-family="sans-serif" font-size="14" lengthAdjust="spacing" textLength="128" x="476.7335" y="309.1356">lister les utilisateur</text></g><g id="elem_fermer son reseau social"><ellipse cx="541.2042" cy="382.9408" fill="#FFFFFF" rx="102.7042" ry="22.9408" style="stroke:#000000;stroke-width:0.5;"/><text fill="#000000" font-family="sans-serif" font-size="14" lengthAdjust="spacing" textLength="170" x="456.2042" y="385.7875">fermer son reseau social</text></g><g id="elem_d&#233;sactiver son compte"><ellipse cx="540.7599" cy="462.852" fill="#FFFFFF" rx="97.2599" ry="21.852" style="stroke:#000000;stroke-width:0.5;"/><text fill="#000000" font-family="sans-serif" font-size="14" lengthAdjust="spacing" textLength="158" x="461.7599" y="465.6987">d&#233;sactiver son compte</text></g><g id="elem_r&#233;activer son compte"><ellipse cx="540.8872" cy="540.7774" fill="#FFFFFF" rx="91.8872" ry="20.7774" style="stroke:#000000;stroke-width:0.5;"/><text fill="#000000" font-family="sans-serif" font-size="14" lengthAdjust="spacing" textLength="146" x="467.8872" y="543.6241">r&#233;activer son compte</text></g><g id="elem_poster un message"><ellipse cx="541.0368" cy="616.8074" fill="#FFFFFF" rx="87.0368" ry="19.8074" style="stroke:#000000;stroke-width:0.5;"/><text fill="#000000" font-family="sans-serif" font-size="14" lengthAdjust="spacing" textLength="135" x="473.5368" y="619.654">poster un message</text></g><g id="elem_cacher son message"><ellipse cx="540.9431" cy="693.1886" fill="#FFFFFF" rx="91.4431" ry="20.6886" style="stroke:#000000;stroke-width:0.5;"/><text fill="#000000" font-family="sans-serif" font-size="14" lengthAdjust="spacing" textLength="145" x="468.4431" y="696.0353">cacher son message</text></g><g id="elem_initialiser son compte"><ellipse cx="540.8872" cy="769.7774" fill="#FFFFFF" rx="91.8872" ry="20.7774" style="stroke:#000000;stroke-width:0.5;"/><text fill="#000000" font-family="sans-serif" font-size="14" lengthAdjust="spacing" textLength="146" x="467.8872" y="772.6241">initialiser son compte</text></g><!--entity Administrateur--><g id="elem_Administrateur"><ellipse cx="313" cy="39.5" fill="#F1F1F1" rx="8" ry="8" style="stroke:#181818;stroke-width:0.5;"/><path d="M313,47.5 L313,74.5 M300,55.5 L326,55.5 M313,74.5 L300,89.5 M313,74.5 L326,89.5 " fill="none" style="stroke:#181818;stroke-width:0.5;"/><text fill="#000000" font-family="sans-serif" font-size="14" lengthAdjust="spacing" textLength="100" x="263" y="103.9951">Administrateur</text></g><!--entity Moderateur--><g id="elem_Moderateur"><ellipse cx="163" cy="240.5" fill="#F1F1F1" rx="8" ry="8" style="stroke:#181818;stroke-width:0.5;"/><path d="M163,248.5 L163,275.5 M150,256.5 L176,256.5 M163,275.5 L150,290.5 M163,275.5 L176,290.5 " fill="none" style="stroke:#181818;stroke-width:0.5;"/><text fill="#000000" font-family="sans-serif" font-size="14" lengthAdjust="spacing" textLength="80" x="123" y="304.9951">Moderateur</text></g><!--entity Membre--><g id="elem_Membre"><ellipse cx="34.5" cy="548.5" fill="#F1F1F1" rx="8" ry="8" style="stroke:#181818;stroke-width:0.5;"/><path d="M34.5,556.5 L34.5,583.5 M21.5,564.5 L47.5,564.5 M34.5,583.5 L21.5,598.5 M34.5,583.5 L47.5,598.5 " fill="none" style="stroke:#181818;stroke-width:0.5;"/><text fill="#000000" font-family="sans-serif" font-size="14" lengthAdjust="spacing" textLength="57" x="6" y="612.9951">Membre</text></g><!--reverse link Moderateur to Administrateur--><g id="link_Moderateur_Administrateur"><path d="M202.5192,217.3135 C222.3192,190.2535 238.93,167.62 263,135 C269.69,125.93 276.92,116.17 283.72,107.01 " fill="none" id="Moderateur-backto-Administrateur" style="stroke:#000000;stroke-width:1.0;"/><polygon fill="none" points="191.89,231.84,207.3614,220.8565,197.677,213.7704,191.89,231.84" style="stroke:#000000;stroke-width:1.0;"/></g><!--reverse link Membre to Moderateur--><g id="link_Membre_Moderateur"><path d="M57.9793,523.27 C82.2393,464.21 121.84,367.78 146.2,308.47 " fill="none" id="Membre-backto-Moderateur" style="stroke:#000000;stroke-width:1.0;"/><polygon fill="none" points="51.14,539.92,63.5293,525.5497,52.4293,520.9902,51.14,539.92" style="stroke:#000000;stroke-width:1.0;"/></g><!--link Administrateur to bloquer un compte utilisateur--><g id="link_Administrateur_bloquer un compte utilisateur"><path d="M363.04,68.78 C380.82,68.7 401.76,68.61 422.89,68.52 " fill="none" id="Administrateur-bloquer un compte utilisateur" style="stroke:#000000;stroke-width:1.0;"/></g><!--link Moderateur to ajouter un utilisateur--><g id="link_Moderateur_ajouter un utilisateur"><path d="M203.03,251.65 C221.06,243.53 242.89,234.21 263,227 C335.35,201.04 420.89,178.45 477.58,164.57 " fill="none" id="Moderateur-ajouter un utilisateur" style="stroke:#000000;stroke-width:1.0;"/></g><!--link Moderateur to promouvoir un utilisateur--><g id="link_Moderateur_promouvoir un utilisateur"><path d="M203.01,265.12 C221.23,262.88 243.22,260.23 263,258 C324.14,251.09 392.94,243.89 446.68,238.39 " fill="none" id="Moderateur-promouvoir un utilisateur" style="stroke:#000000;stroke-width:1.0;"/></g><!--link Moderateur to lister les utilisateur--><g id="link_Moderateur_lister les utilisateur"><path d="M203.17,273.75 C264.49,279.62 384.28,291.09 463.22,298.65 " fill="none" id="Moderateur-lister les utilisateur" style="stroke:#000000;stroke-width:1.0;"/></g><!--link Moderateur to fermer son reseau social--><g id="link_Moderateur_fermer son reseau social"><path d="M203.03,282.15 C249.62,296.6 329.9,321.37 399,342 C424.53,349.62 452.71,357.85 477.12,364.93 " fill="none" id="Moderateur-fermer son reseau social" style="stroke:#000000;stroke-width:1.0;"/></g><!--link Membre to d?sactiver son compte--><g id="link_Membre_d&#233;sactiver son compte"><path d="M63,565.43 C80,558.05 102.43,549.03 123,543 C236.54,509.73 371.62,486.73 456.61,474.2 " fill="none" id="Membre-d&#233;sactiver son compte" style="stroke:#000000;stroke-width:1.0;"/></g><!--link Membre to r?activer son compte--><g id="link_Membre_r&#233;activer son compte"><path d="M63.34,575.96 C136.57,570.59 336.9,555.9 453.22,547.36 " fill="none" id="Membre-r&#233;activer son compte" style="stroke:#000000;stroke-width:1.0;"/></g><!--link Membre to poster un message--><g id="link_Membre_poster un message"><path d="M63.34,580.15 C137.6,585.89 342.58,601.74 458.09,610.67 " fill="none" id="Membre-poster un message" style="stroke:#000000;stroke-width:1.0;"/></g><!--link Membre to cacher son message--><g id="link_Membre_cacher son message"><path d="M63.06,584.72 C80.28,588.89 102.92,594.33 123,599 C247.5,627.97 393.25,660.51 475.29,678.7 " fill="none" id="Membre-cacher son message" style="stroke:#000000;stroke-width:1.0;"/></g><!--link Membre to initialiser son compte--><g id="link_Membre_initialiser son compte"><path d="M63.07,593.53 C80.1,602.86 102.54,614.69 123,624 C242.75,678.48 274.11,689.63 399,731 C424.8,739.54 453.66,747.76 478.52,754.43 " fill="none" id="Membre-initialiser son compte" style="stroke:#000000;stroke-width:1.0;"/></g><!--SRC=[ZP51Rjj034NtSmeY6oMBN40m0iG9q2vge40GTCtCqD8qCw9ApgGesjodFeSlLgfIaTfkWsWbVBxv_2IRsuYTOCu4WS2ZGcXgYIagbiW3d7zCE9JxpOUBnhdcXeTjxAhCDT-Z509xFlRnIwN6wMCSHZGxg4fcHl3ThT4_Ti9r23USME1J7mkvDKiWcPLrCiHTY_3N0y4NbgFNgnMyhna7kBg2Tvo2UtOkqRP0OP3OzGL25F9JF8jxkz_vX4lQG0he2rLHQ1k7apjSXno7gCKOAopYXYtQWK3vGSYzwB3wSNbv_7Ycvj9V5gSfJhSSS5181FfDo_vdjarEG-3GcNQsiIPtxFNCbkdQmwOjMBFpXyIsVe5gD-4ysat-c1jouTgND3EFdxcMcNyT78KproUERs2jD7ac6_1rS4kI3LIRMqW9g_twY6b2Vw-m1VicCkntQXU8Jmi-3tVAoNxt5cnaNQREf8hTFn2FlbzS_ilO-el5ZNhKxjdz0W00]--></g></svg>