<?xml version="1.0" encoding="us-ascii" standalone="no"?><svg xmlns="http://www.w3.org/2000/svg" xmlns:xlink="http://www.w3.org/1999/xlink" contentStyleType="text/css" height="692px" preserveAspectRatio="none" style="width:887px;height:692px;background:#FFFFFF;" version="1.1" viewBox="0 0 887 692" width="887px" zoomAndPan="magnify"><defs/><g><rect fill="#FFFFFF" height="14" style="stroke:#181818;stroke-width:1.0;" width="10" x="79" y="531.9531"/><rect fill="#FFFFFF" height="554.7891" style="stroke:#181818;stroke-width:1.0;" width="10" x="371" y="112.4297"/><rect fill="#FFFFFF" height="25" style="stroke:#181818;stroke-width:1.0;" width="10" x="376" y="173.6953"/><rect fill="#FFFFFF" height="25" style="stroke:#181818;stroke-width:1.0;" width="10" x="376" y="266.9609"/><rect fill="#FFFFFF" height="25" style="stroke:#181818;stroke-width:1.0;" width="10" x="376" y="336.0938"/><rect fill="#FFFFFF" height="16.1641" style="stroke:#181818;stroke-width:1.0;" width="10" x="662.5" y="431.3594"/><rect fill="#FFFFFF" height="14" style="stroke:#181818;stroke-width:1.0;" width="10" x="662.5" y="575.0859"/><rect fill="#FFFFFF" height="16.1641" style="stroke:#181818;stroke-width:1.0;" width="10" x="790.5" y="486.6563"/><rect fill="#FFFFFF" height="14" style="stroke:#181818;stroke-width:1.0;" width="10" x="790.5" y="618.2188"/><rect fill="none" height="526.7891" style="stroke:#000000;stroke-width:1.5;" width="871" x="10" y="127.4297"/><rect fill="none" height="426.5234" style="stroke:#000000;stroke-width:1.5;" width="851" x="20" y="220.6953"/><rect fill="none" height="257.125" style="stroke:#000000;stroke-width:1.5;" width="831" x="30" y="383.0938"/><line style="stroke:#181818;stroke-width:0.5;stroke-dasharray:5.0,5.0;" x1="84" x2="84" y1="81.2969" y2="685.2188"/><line style="stroke:#181818;stroke-width:0.5;stroke-dasharray:5.0,5.0;" x1="375.5" x2="375.5" y1="81.2969" y2="685.2188"/><line style="stroke:#181818;stroke-width:0.5;stroke-dasharray:5.0,5.0;" x1="667" x2="667" y1="430.875" y2="685.2188"/><line style="stroke:#181818;stroke-width:0.5;stroke-dasharray:5.0,5.0;" x1="795" x2="795" y1="486.1719" y2="685.2188"/><text fill="#000000" font-family="sans-serif" font-size="14" lengthAdjust="spacing" text-decoration="underline" textLength="82" x="40" y="77.9951">u:Utilisateur</text><ellipse cx="84" cy="13.5" fill="#FFFFFF" rx="8" ry="8" style="stroke:#181818;stroke-width:0.5;"/><path d="M84,21.5 L84,48.5 M71,29.5 L97,29.5 M84,48.5 L71,63.5 M84,48.5 L97,63.5 " fill="none" style="stroke:#181818;stroke-width:0.5;"/><rect fill="#FFFFFF" height="30.2969" rx="2.5" ry="2.5" style="stroke:#181818;stroke-width:0.5;" width="93" x="329.5" y="50"/><text fill="#000000" font-family="sans-serif" font-size="14" lengthAdjust="spacing" text-decoration="underline" textLength="79" x="336.5" y="69.9951">m:MiniSocs</text><rect fill="#FFFFFF" height="14" style="stroke:#181818;stroke-width:1.0;" width="10" x="79" y="531.9531"/><rect fill="#FFFFFF" height="554.7891" style="stroke:#181818;stroke-width:1.0;" width="10" x="371" y="112.4297"/><rect fill="#FFFFFF" height="25" style="stroke:#181818;stroke-width:1.0;" width="10" x="376" y="173.6953"/><rect fill="#FFFFFF" height="25" style="stroke:#181818;stroke-width:1.0;" width="10" x="376" y="266.9609"/><rect fill="#FFFFFF" height="25" style="stroke:#181818;stroke-width:1.0;" width="10" x="376" y="336.0938"/><rect fill="#FFFFFF" height="16.1641" style="stroke:#181818;stroke-width:1.0;" width="10" x="662.5" y="431.3594"/><rect fill="#FFFFFF" height="14" style="stroke:#181818;stroke-width:1.0;" width="10" x="662.5" y="575.0859"/><rect fill="#FFFFFF" height="16.1641" style="stroke:#181818;stroke-width:1.0;" width="10" x="790.5" y="486.6563"/><rect fill="#FFFFFF" height="14" style="stroke:#181818;stroke-width:1.0;" width="10" x="790.5" y="618.2188"/><polygon fill="#181818" points="359,108.4297,369,112.4297,359,116.4297,363,112.4297" style="stroke:#181818;stroke-width:1.0;"/><line style="stroke:#181818;stroke-width:1.0;" x1="84" x2="365" y1="112.4297" y2="112.4297"/><text fill="#000000" font-family="sans-serif" font-size="13" lengthAdjust="spacing" textLength="268" x="91" y="107.3638">creerReseau(nomReseau, pseudoReseau)</text><path d="M10,127.4297 L80,127.4297 L80,134.5625 L70,144.5625 L10,144.5625 L10,127.4297 " fill="#EEEEEE" style="stroke:#000000;stroke-width:1.5;"/><rect fill="none" height="526.7891" style="stroke:#000000;stroke-width:1.5;" width="871" x="10" y="127.4297"/><text fill="#000000" font-family="sans-serif" font-size="13" font-weight="bold" lengthAdjust="spacing" textLength="25" x="25" y="140.4966">opt</text><text fill="#000000" font-family="sans-serif" font-size="11" font-weight="bold" lengthAdjust="spacing" textLength="381" x="95" y="139.6401">[u.pseudo, pseudoReseau, nomReseau non null ^ non vide]</text><line style="stroke:#181818;stroke-width:1.0;" x1="381" x2="428" y1="160.6953" y2="160.6953"/><line style="stroke:#181818;stroke-width:1.0;" x1="428" x2="428" y1="160.6953" y2="173.6953"/><line style="stroke:#181818;stroke-width:1.0;" x1="387" x2="428" y1="173.6953" y2="173.6953"/><polygon fill="#181818" points="397,169.6953,387,173.6953,397,177.6953,393,173.6953" style="stroke:#181818;stroke-width:1.0;"/><text fill="#000000" font-family="sans-serif" font-size="13" lengthAdjust="spacing" textLength="203" x="393" y="155.6294">user=utilisateurs.get(u.pseudo)</text><line style="stroke:#181818;stroke-width:1.0;stroke-dasharray:2.0,2.0;" x1="386" x2="428" y1="197.6953" y2="197.6953"/><line style="stroke:#181818;stroke-width:1.0;stroke-dasharray:2.0,2.0;" x1="428" x2="428" y1="197.6953" y2="210.6953"/><line style="stroke:#181818;stroke-width:1.0;stroke-dasharray:2.0,2.0;" x1="381" x2="428" y1="210.6953" y2="210.6953"/><polygon fill="#181818" points="391,206.6953,381,210.6953,391,214.6953,387,210.6953" style="stroke:#181818;stroke-width:1.0;"/><path d="M20,220.6953 L90,220.6953 L90,227.8281 L80,237.8281 L20,237.8281 L20,220.6953 " fill="#EEEEEE" style="stroke:#000000;stroke-width:1.5;"/><rect fill="none" height="426.5234" style="stroke:#000000;stroke-width:1.5;" width="851" x="20" y="220.6953"/><text fill="#000000" font-family="sans-serif" font-size="13" font-weight="bold" lengthAdjust="spacing" textLength="25" x="35" y="233.7622">opt</text><text fill="#000000" font-family="sans-serif" font-size="11" font-weight="bold" lengthAdjust="spacing" textLength="94" x="105" y="232.9058">[(user != null)]</text><line style="stroke:#181818;stroke-width:1.0;" x1="381" x2="428" y1="253.9609" y2="253.9609"/><line style="stroke:#181818;stroke-width:1.0;" x1="428" x2="428" y1="253.9609" y2="266.9609"/><line style="stroke:#181818;stroke-width:1.0;" x1="387" x2="428" y1="266.9609" y2="266.9609"/><polygon fill="#181818" points="397,262.9609,387,266.9609,397,270.9609,393,266.9609" style="stroke:#181818;stroke-width:1.0;"/><text fill="#000000" font-family="sans-serif" font-size="13" lengthAdjust="spacing" textLength="166" x="393" y="248.895">ec=user.getEtatCompte()</text><line style="stroke:#181818;stroke-width:1.0;stroke-dasharray:2.0,2.0;" x1="386" x2="428" y1="290.9609" y2="290.9609"/><line style="stroke:#181818;stroke-width:1.0;stroke-dasharray:2.0,2.0;" x1="428" x2="428" y1="290.9609" y2="303.9609"/><line style="stroke:#181818;stroke-width:1.0;stroke-dasharray:2.0,2.0;" x1="381" x2="428" y1="303.9609" y2="303.9609"/><polygon fill="#181818" points="391,299.9609,381,303.9609,391,307.9609,387,303.9609" style="stroke:#181818;stroke-width:1.0;"/><line style="stroke:#181818;stroke-width:1.0;" x1="381" x2="428" y1="323.0938" y2="323.0938"/><line style="stroke:#181818;stroke-width:1.0;" x1="428" x2="428" y1="323.0938" y2="336.0938"/><line style="stroke:#181818;stroke-width:1.0;" x1="387" x2="428" y1="336.0938" y2="336.0938"/><polygon fill="#181818" points="397,332.0938,387,336.0938,397,340.0938,393,336.0938" style="stroke:#181818;stroke-width:1.0;"/><text fill="#000000" font-family="sans-serif" font-size="13" lengthAdjust="spacing" textLength="178" x="393" y="318.0278">r=reseaux.get(nomReseau)</text><line style="stroke:#181818;stroke-width:1.0;stroke-dasharray:2.0,2.0;" x1="386" x2="428" y1="360.0938" y2="360.0938"/><line style="stroke:#181818;stroke-width:1.0;stroke-dasharray:2.0,2.0;" x1="428" x2="428" y1="360.0938" y2="373.0938"/><line style="stroke:#181818;stroke-width:1.0;stroke-dasharray:2.0,2.0;" x1="381" x2="428" y1="373.0938" y2="373.0938"/><polygon fill="#181818" points="391,369.0938,381,373.0938,391,377.0938,387,373.0938" style="stroke:#181818;stroke-width:1.0;"/><path d="M30,383.0938 L100,383.0938 L100,390.2266 L90,400.2266 L30,400.2266 L30,383.0938 " fill="#EEEEEE" style="stroke:#000000;stroke-width:1.5;"/><rect fill="none" height="257.125" style="stroke:#000000;stroke-width:1.5;" width="831" x="30" y="383.0938"/><text fill="#000000" font-family="sans-serif" font-size="13" font-weight="bold" lengthAdjust="spacing" textLength="25" x="45" y="396.1606">opt</text><text fill="#000000" font-family="sans-serif" font-size="11" font-weight="bold" lengthAdjust="spacing" textLength="180" x="115" y="395.3042">[(r == null) &#8743; (ec == ACTIF)]</text><polygon fill="#181818" points="593,417.3594,603,421.3594,593,425.3594,597,421.3594" style="stroke:#181818;stroke-width:1.0;"/><line style="stroke:#181818;stroke-width:1.0;" x1="381" x2="599" y1="421.3594" y2="421.3594"/><text fill="#000000" font-family="sans-serif" font-size="13" lengthAdjust="spacing" textLength="200" x="388" y="416.2935">new ReseauSocial(nomReseau)</text><rect fill="#FFFFFF" height="30.2969" rx="2.5" ry="2.5" style="stroke:#181818;stroke-width:0.5;" width="125" x="605" y="400.2266"/><text fill="#000000" font-family="sans-serif" font-size="14" lengthAdjust="spacing" text-decoration="underline" textLength="111" x="612" y="420.2217">rs:R&#233;seauSocial</text><polygon fill="#181818" points="392,443.5234,382,447.5234,392,451.5234,388,447.5234" style="stroke:#181818;stroke-width:1.0;"/><line style="stroke:#181818;stroke-width:1.0;stroke-dasharray:2.0,2.0;" x1="386" x2="666.5" y1="447.5234" y2="447.5234"/><polygon fill="#181818" points="728,472.6563,738,476.6563,728,480.6563,732,476.6563" style="stroke:#181818;stroke-width:1.0;"/><line style="stroke:#181818;stroke-width:1.0;" x1="381" x2="734" y1="476.6563" y2="476.6563"/><text fill="#000000" font-family="sans-serif" font-size="13" lengthAdjust="spacing" textLength="214" x="388" y="471.5903">new Membre(u,rs,pseudoReseau)</text><rect fill="#FFFFFF" height="30.2969" rx="2.5" ry="2.5" style="stroke:#181818;stroke-width:0.5;" width="111" x="740" y="455.5234"/><text fill="#000000" font-family="sans-serif" font-size="14" lengthAdjust="spacing" text-decoration="underline" textLength="97" x="747" y="475.5186">mem:Membre</text><polygon fill="#181818" points="392,498.8203,382,502.8203,392,506.8203,388,502.8203" style="stroke:#181818;stroke-width:1.0;"/><line style="stroke:#181818;stroke-width:1.0;stroke-dasharray:2.0,2.0;" x1="386" x2="794.5" y1="502.8203" y2="502.8203"/><polygon fill="#181818" points="100,527.9531,90,531.9531,100,535.9531,96,531.9531" style="stroke:#181818;stroke-width:1.0;"/><line style="stroke:#181818;stroke-width:1.0;" x1="94" x2="370" y1="531.9531" y2="531.9531"/><text fill="#000000" font-family="sans-serif" font-size="13" lengthAdjust="spacing" textLength="142" x="106" y="526.8872">ajouterMembre(mem)</text><polygon fill="#181818" points="359,541.9531,369,545.9531,359,549.9531,363,545.9531" style="stroke:#181818;stroke-width:1.0;"/><line style="stroke:#181818;stroke-width:1.0;stroke-dasharray:2.0,2.0;" x1="84" x2="365" y1="545.9531" y2="545.9531"/><polygon fill="#181818" points="650.5,571.0859,660.5,575.0859,650.5,579.0859,654.5,575.0859" style="stroke:#181818;stroke-width:1.0;"/><line style="stroke:#181818;stroke-width:1.0;" x1="381" x2="656.5" y1="575.0859" y2="575.0859"/><text fill="#000000" font-family="sans-serif" font-size="13" lengthAdjust="spacing" textLength="142" x="388" y="570.02">ajouterMembre(mem)</text><polygon fill="#181818" points="392,585.0859,382,589.0859,392,593.0859,388,589.0859" style="stroke:#181818;stroke-width:1.0;"/><line style="stroke:#181818;stroke-width:1.0;stroke-dasharray:2.0,2.0;" x1="386" x2="666.5" y1="589.0859" y2="589.0859"/><polygon fill="#181818" points="778.5,614.2188,788.5,618.2188,778.5,622.2188,782.5,618.2188" style="stroke:#181818;stroke-width:1.0;"/><line style="stroke:#181818;stroke-width:1.0;" x1="381" x2="784.5" y1="618.2188" y2="618.2188"/><text fill="#000000" font-family="sans-serif" font-size="13" lengthAdjust="spacing" textLength="104" x="388" y="613.1528">setModerateur()</text><polygon fill="#181818" points="392,628.2188,382,632.2188,392,636.2188,388,632.2188" style="stroke:#181818;stroke-width:1.0;"/><line style="stroke:#181818;stroke-width:1.0;stroke-dasharray:2.0,2.0;" x1="386" x2="794.5" y1="632.2188" y2="632.2188"/><polygon fill="#181818" points="95,663.2188,85,667.2188,95,671.2188,91,667.2188" style="stroke:#181818;stroke-width:1.0;"/><line style="stroke:#181818;stroke-width:1.0;stroke-dasharray:2.0,2.0;" x1="89" x2="375" y1="667.2188" y2="667.2188"/><!--SRC=[XL9TYjim47xtAQRxOeTrSu202zji2uK6bjqkVMlGohE9TYt9rKXfZj1ZzAta7Bv9JzAnvCGEfDHWh9_lRsQStognSK9hX1g1kiFtW4OY57UDCFvnzNcMPrc-jEPPRO8JNba3SYkSHs1QkrMCpxEjOlApjVx9xZDwLQOLh0c4IUsEyKggbXNV2_cwSJQOUcaRw-3hLdcyGBcHthhBu2o_xGwo4KEQ6Wc4z1WS0VguRKS_WgBk3Y_TBy2z8XzFn8u_q8YntBv8qJl2rNeT5ezUDOf4hxbUNu4W2Db4imVfnKePzM0b3GWD7EpXr3-nGmaDPz5893P8PTn9rnrYREhRFSrPSdWvvnm1thvZjUjhM30SqTqZeGY5iJgjIcW9GstJRfRPraEOfxFpkn9E95uPCA5fu5jSxdXYcPvO1K9NXR5mcc_G5qVTMURG1sUYMT5ZuKqLzMPdAYYh_hBdVl32BwrkFHOdzXJgAXUJxQFHAUYvauDgi84_Ftz3mKtbWvlbbqyVPnbtXwFsqt2qkEyEFPqdeaGppCHHSkG_8reQ_0799S4kk8wQ6dd6g9yS7YUCUYW0zQYN84Ke7PNdSvdM7191lDZWqGqSrZb77NF-1_QFS8bBw5UsHXU7E7QU7pJrwKsdVm40]--></g></svg>