<?xml version="1.0" encoding="us-ascii" standalone="no"?><svg xmlns="http://www.w3.org/2000/svg" xmlns:xlink="http://www.w3.org/1999/xlink" contentStyleType="text/css" height="671px" preserveAspectRatio="none" style="width:671px;height:671px;background:#FFFFFF;" version="1.1" viewBox="0 0 671 671" width="671px" zoomAndPan="magnify"><defs/><g><!--class MiniSocs--><g id="elem_MiniSocs"><rect codeLine="15" fill="#FFFFFF" height="50.5938" id="MiniSocs" rx="2.5" ry="2.5" style="stroke:#000000;stroke-width:0.5;" width="106" x="265" y="30"/><text fill="#000000" font-family="sans-serif" font-size="14" lengthAdjust="spacing" textLength="61" x="287.5" y="47.9951">MiniSocs</text><line style="stroke:#000000;stroke-width:0.5;" x1="266" x2="370" y1="56.2969" y2="56.2969"/><rect fill="none" height="6" style="stroke:#C82930;stroke-width:1.0;" width="6" x="273" y="66.9453"/><text fill="#000000" font-family="sans-serif" font-size="14" lengthAdjust="spacing" textLength="80" x="285" y="73.292">nom: String</text></g><!--class Utilisateur--><g id="elem_Utilisateur"><rect codeLine="18" fill="#FFFFFF" height="115.7813" id="Utilisateur" rx="2.5" ry="2.5" style="stroke:#000000;stroke-width:0.5;" width="199" x="95.5" y="276"/><text fill="#000000" font-family="sans-serif" font-size="14" lengthAdjust="spacing" textLength="68" x="161" y="293.9951">Utilisateur</text><line style="stroke:#000000;stroke-width:0.5;" x1="96.5" x2="293.5" y1="302.2969" y2="302.2969"/><rect fill="none" height="6" style="stroke:#C82930;stroke-width:1.0;" width="6" x="103.5" y="312.9453"/><text fill="#000000" font-family="sans-serif" font-size="14" lengthAdjust="spacing" textLength="140" x="115.5" y="319.292">pseudonyme: String</text><rect fill="none" height="6" style="stroke:#C82930;stroke-width:1.0;" width="6" x="103.5" y="329.2422"/><text fill="#000000" font-family="sans-serif" font-size="14" lengthAdjust="spacing" textLength="80" x="115.5" y="335.5889">nom: String</text><rect fill="none" height="6" style="stroke:#C82930;stroke-width:1.0;" width="6" x="103.5" y="345.5391"/><text fill="#000000" font-family="sans-serif" font-size="14" lengthAdjust="spacing" textLength="103" x="115.5" y="351.8857">pr&#233;nom: String</text><rect fill="none" height="6" style="stroke:#C82930;stroke-width:1.0;" width="6" x="103.5" y="361.8359"/><text fill="#000000" font-family="sans-serif" font-size="14" lengthAdjust="spacing" textLength="100" x="115.5" y="368.1826">courriel: String</text><rect fill="none" height="6" style="stroke:#C82930;stroke-width:1.0;" width="6" x="103.5" y="378.1328"/><text fill="#000000" font-family="sans-serif" font-size="14" lengthAdjust="spacing" textLength="173" x="115.5" y="384.4795">etatCompte: &#201;tatCompte</text></g><!--class ?tatCompte--><g id="elem_&#201;tatCompte"><rect codeLine="25" fill="#FFFFFF" height="97.1563" id="&#201;tatCompte" rx="2.5" ry="2.5" style="stroke:#000000;stroke-width:0.5;" width="90" x="7" y="7"/><text fill="#000000" font-family="sans-serif" font-size="12" font-style="italic" lengthAdjust="spacing" textLength="49" x="27.5" y="23.1387">&#171;enum&#187;</text><text fill="#000000" font-family="sans-serif" font-size="14" lengthAdjust="spacing" textLength="82" x="11" y="38.9639">&#201;tatCompte</text><line style="stroke:#000000;stroke-width:0.5;" x1="8" x2="96" y1="47.2656" y2="47.2656"/><text fill="#000000" font-family="sans-serif" font-size="14" lengthAdjust="spacing" textLength="39" x="13" y="64.2607">ACTIF</text><text fill="#000000" font-family="sans-serif" font-size="14" lengthAdjust="spacing" textLength="78" x="13" y="80.5576">D&#201;SACTIV&#201;</text><text fill="#000000" font-family="sans-serif" font-size="14" lengthAdjust="spacing" textLength="58" x="13" y="96.8545">BLOQU&#201;</text></g><!--class Membre--><g id="elem_Membre"><rect codeLine="30" fill="#FFFFFF" height="66.8906" id="Membre" rx="2.5" ry="2.5" style="stroke:#000000;stroke-width:0.5;" width="213" x="255.5" y="598"/><text fill="#000000" font-family="sans-serif" font-size="14" lengthAdjust="spacing" textLength="57" x="333.5" y="615.9951">Membre</text><line style="stroke:#000000;stroke-width:0.5;" x1="256.5" x2="467.5" y1="624.2969" y2="624.2969"/><rect fill="none" height="6" style="stroke:#C82930;stroke-width:1.0;" width="6" x="263.5" y="634.9453"/><text fill="#000000" font-family="sans-serif" font-size="14" lengthAdjust="spacing" textLength="155" x="275.5" y="641.292">pseudoReseau: String</text><rect fill="none" height="6" style="stroke:#C82930;stroke-width:1.0;" width="6" x="263.5" y="651.2422"/><text fill="#000000" font-family="sans-serif" font-size="14" lengthAdjust="spacing" textLength="187" x="275.5" y="657.5889">typeMembre: TypeMembre</text></g><!--class TypeMembre--><g id="elem_TypeMembre"><rect codeLine="34" fill="#FFFFFF" height="97.1563" id="TypeMembre" rx="2.5" ry="2.5" style="stroke:#000000;stroke-width:0.5;" width="97" x="132.5" y="7"/><text fill="#000000" font-family="sans-serif" font-size="12" font-style="italic" lengthAdjust="spacing" textLength="49" x="156.5" y="23.1387">&#171;enum&#187;</text><text fill="#000000" font-family="sans-serif" font-size="14" lengthAdjust="spacing" textLength="91" x="135.5" y="38.9639">TypeMembre</text><line style="stroke:#000000;stroke-width:0.5;" x1="133.5" x2="228.5" y1="47.2656" y2="47.2656"/><text fill="#000000" font-family="sans-serif" font-size="14" lengthAdjust="spacing" textLength="32" x="138.5" y="64.2607">ADM</text><text fill="#000000" font-family="sans-serif" font-size="14" lengthAdjust="spacing" textLength="34" x="138.5" y="80.5576">MOD</text><text fill="#000000" font-family="sans-serif" font-size="14" lengthAdjust="spacing" textLength="33" x="138.5" y="96.8545">MEM</text></g><!--class ReseauSocial--><g id="elem_ReseauSocial"><rect codeLine="39" fill="#FFFFFF" height="66.8906" id="ReseauSocial" rx="2.5" ry="2.5" style="stroke:#000000;stroke-width:0.5;" width="195" x="371.5" y="172"/><text fill="#000000" font-family="sans-serif" font-size="14" lengthAdjust="spacing" textLength="93" x="422.5" y="189.9951">ReseauSocial</text><line style="stroke:#000000;stroke-width:0.5;" x1="372.5" x2="565.5" y1="198.2969" y2="198.2969"/><rect fill="none" height="6" style="stroke:#C82930;stroke-width:1.0;" width="6" x="379.5" y="208.9453"/><text fill="#000000" font-family="sans-serif" font-size="14" lengthAdjust="spacing" textLength="80" x="391.5" y="215.292">nom: String</text><rect fill="none" height="6" style="stroke:#C82930;stroke-width:1.0;" width="6" x="379.5" y="225.2422"/><text fill="#000000" font-family="sans-serif" font-size="14" lengthAdjust="spacing" textLength="169" x="391.5" y="231.5889">etatReseau: EtatReseau</text></g><!--class EtatReseau--><g id="elem_EtatReseau"><rect codeLine="43" fill="#FFFFFF" height="80.8594" id="EtatReseau" rx="2.5" ry="2.5" style="stroke:#000000;stroke-width:0.5;" width="86" x="9" y="165"/><text fill="#000000" font-family="sans-serif" font-size="12" font-style="italic" lengthAdjust="spacing" textLength="49" x="27.5" y="181.1387">&#171;enum&#187;</text><text fill="#000000" font-family="sans-serif" font-size="14" lengthAdjust="spacing" textLength="80" x="12" y="196.9639">EtatReseau</text><line style="stroke:#000000;stroke-width:0.5;" x1="10" x2="94" y1="205.2656" y2="205.2656"/><text fill="#000000" font-family="sans-serif" font-size="14" lengthAdjust="spacing" textLength="48" x="15" y="222.2607">FERM&#201;</text><text fill="#000000" font-family="sans-serif" font-size="14" lengthAdjust="spacing" textLength="58" x="15" y="238.5576">OUVERT</text></g><!--class Message--><g id="elem_Message"><rect codeLine="47" fill="#FFFFFF" height="99.4844" id="Message" rx="2.5" ry="2.5" style="stroke:#000000;stroke-width:0.5;" width="147" x="517.5" y="422"/><text fill="#000000" font-family="sans-serif" font-size="14" lengthAdjust="spacing" textLength="63" x="559.5" y="439.9951">Message</text><line style="stroke:#000000;stroke-width:0.5;" x1="518.5" x2="663.5" y1="448.2969" y2="448.2969"/><rect fill="none" height="6" style="stroke:#C82930;stroke-width:1.0;" width="6" x="525.5" y="458.9453"/><text fill="#000000" font-family="sans-serif" font-size="14" lengthAdjust="spacing" textLength="101" x="537.5" y="465.292">idMessage: int</text><rect fill="none" height="6" style="stroke:#C82930;stroke-width:1.0;" width="6" x="525.5" y="475.2422"/><text fill="#000000" font-family="sans-serif" font-size="14" lengthAdjust="spacing" textLength="111" x="537.5" y="481.5889">contenu : String</text><rect fill="none" height="6" style="stroke:#C82930;stroke-width:1.0;" width="6" x="525.5" y="491.5391"/><text fill="#000000" font-family="sans-serif" font-size="14" lengthAdjust="spacing" textLength="121" x="537.5" y="497.8857">accept&#233;: boolean</text><rect fill="none" height="6" style="stroke:#C82930;stroke-width:1.0;" width="6" x="525.5" y="507.8359"/><text fill="#000000" font-family="sans-serif" font-size="14" lengthAdjust="spacing" textLength="107" x="537.5" y="514.1826">cach&#233;: boolean</text></g><!--link MiniSocs to Utilisateur--><g id="link_MiniSocs_Utilisateur"><path codeLine="55" d="M302.2028,92.0042 C282.8928,135.4142 249.5384,210.3978 222.8684,270.3578 " fill="none" id="MiniSocs-Utilisateur" style="stroke:#000000;stroke-width:1.0;"/><polygon fill="#000000" points="307.08,81.04,300.9867,84.8964,302.2028,92.0042,308.2961,88.1478,307.08,81.04" style="stroke:#000000;stroke-width:1.0;"/><polygon fill="#000000" points="220.43,275.84,227.7424,269.2424,222.462,271.2715,220.4329,265.9911,220.43,275.84" style="stroke:#000000;stroke-width:1.0;"/><text fill="#000000" font-family="sans-serif" font-size="13" lengthAdjust="spacing" textLength="7" x="216.1027" y="264.926">*</text></g><!--link MiniSocs to Membre--><g id="link_MiniSocs_Membre"><path codeLine="56" d="M320.8067,93.1249 C327.8267,184.7549 351.0516,487.6875 359.0216,591.6975 " fill="none" id="MiniSocs-Membre" style="stroke:#000000;stroke-width:1.0;"/><polygon fill="#000000" points="319.89,81.16,316.36,87.448,320.8067,93.1249,324.3366,86.8369,319.89,81.16" style="stroke:#000000;stroke-width:1.0;"/><polygon fill="#000000" points="359.48,597.68,362.7807,588.4007,359.098,592.6946,354.8041,589.0119,359.48,597.68" style="stroke:#000000;stroke-width:1.0;"/><text fill="#000000" font-family="sans-serif" font-size="13" lengthAdjust="spacing" textLength="7" x="351.3324" y="586.8934">*</text></g><!--link MiniSocs to ReseauSocial--><g id="link_MiniSocs_ReseauSocial"><path codeLine="57" d="M351.841,89.6687 C377.201,114.5187 403.5361,140.3291 431.4061,167.6591 " fill="none" id="MiniSocs-ReseauSocial" style="stroke:#000000;stroke-width:1.0;"/><polygon fill="#000000" points="343.27,81.27,344.756,88.3263,351.841,89.6687,350.3551,82.6123,343.27,81.27" style="stroke:#000000;stroke-width:1.0;"/><polygon fill="#000000" points="435.69,171.86,432.0647,162.7026,432.1201,168.3592,426.4635,168.4146,435.69,171.86" style="stroke:#000000;stroke-width:1.0;"/><text fill="#000000" font-family="sans-serif" font-size="13" lengthAdjust="spacing" textLength="7" x="421.443" y="160.8513">*</text></g><!--reverse link Utilisateur to Membre--><g id="link_Utilisateur_Membre"><path codeLine="58" d="M216.2973,409.4249 C231.8273,458.9349 253.4,513.73 292,568 C299.65,578.75 309.46,588.96 319.31,597.89 " fill="none" id="Utilisateur-backto-Membre" style="stroke:#000000;stroke-width:1.0;"/><polygon fill="none" points="210.91,392.25,210.5724,411.2207,222.0223,407.6291,210.91,392.25" style="stroke:#000000;stroke-width:1.0;"/></g><!--link ReseauSocial to Membre--><g id="link_ReseauSocial_Membre"><path codeLine="59" d="M460.78,239.07 C440.86,317.99 390.19,518.78 370.25,597.82 " fill="none" id="ReseauSocial-Membre" style="stroke:#000000;stroke-width:1.0;"/><polygon fill="#000000" points="419.2234,466.7184,414.1607,474.7694,419.8599,476.2076,419.2234,466.7184" style="stroke:#000000;stroke-width:1.0;"/><text fill="#000000" font-family="sans-serif" font-size="13" lengthAdjust="spacing" textLength="61" x="427" y="476.0669">fait partie</text><text fill="#000000" font-family="sans-serif" font-size="13" lengthAdjust="spacing" textLength="23" x="434.0209" y="258.9889">1..*</text><text fill="#000000" font-family="sans-serif" font-size="13" lengthAdjust="spacing" textLength="23" x="374.0148" y="587.06">1..*</text></g><!--reverse link Message to Membre--><g id="link_Message_Membre"><path codeLine="60" d="M515.4817,524.5979 C479.3417,549.5379 441.26,575.81 409.18,597.95 " fill="none" id="Message-backto-Membre" style="stroke:#000000;stroke-width:1.0;"/><polygon fill="#000000" points="520.42,521.19,510.7407,523.0096,516.3048,524.0299,515.2845,529.594,520.42,521.19" style="stroke:#000000;stroke-width:1.0;"/><polygon fill="#000000" points="485.1153,556.7267,476.0015,559.4449,479.3398,564.2827,485.1153,556.7267" style="stroke:#000000;stroke-width:1.0;"/><text fill="#000000" font-family="sans-serif" font-size="13" lengthAdjust="spacing" textLength="48" x="490" y="564.0669">a post&#233;</text><text fill="#000000" font-family="sans-serif" font-size="13" lengthAdjust="spacing" textLength="7" x="502.5395" y="541.6309">*</text><text fill="#000000" font-family="sans-serif" font-size="13" lengthAdjust="spacing" textLength="8" x="409.6811" y="586.959">1</text></g><!--reverse link ReseauSocial to Message--><g id="link_ReseauSocial_Message"><path codeLine="61" d="M489.1149,250.0327 C510.2849,295.8327 543.92,368.62 568.5,421.8 " fill="none" id="ReseauSocial-backto-Message" style="stroke:#000000;stroke-width:1.0;"/><polygon fill="#000000" points="484.08,239.14,482.9666,246.2646,489.1149,250.0327,490.2283,242.908,484.08,239.14" style="stroke:#000000;stroke-width:1.0;"/><polygon fill="#000000" points="553.9024,329.5277,555.0292,338.9713,560.3648,336.5053,553.9024,329.5277" style="stroke:#000000;stroke-width:1.0;"/><text fill="#000000" font-family="sans-serif" font-size="13" lengthAdjust="spacing" textLength="71" x="565" y="338.5669">post&#233; dans</text><text fill="#000000" font-family="sans-serif" font-size="13" lengthAdjust="spacing" textLength="7" x="557.8438" y="410.7984">*</text></g><!--SRC=[RLFRZjem47tFLunueKKBKbyHGcA1bIfjHCjb-soSMJBQn4vjHnLg-m5y2j-H7-iO9zc4xaioFZupS-PaCboHE1cHvmW9Wio4jMZXqxTCA7U8dpyFesYurEgLJgKHZhG2cGhZ43YfIEbdYSCe9Kx5l71doD6bEh41acHaXf5z8rK8xX7Am-y8u578jvFHfKgMEjC6VgJaaF65CVfNW1upvdYgDWcQBlRNQmfA7w2wgZAlha4Sdz792OiEhM9IjDCoz1o3qlaKTiwGEd6HG3auoiWAXwMfMON5Cj7gd6DBla- -qGotliEaBeqXp7eWEk6McktXUjMbFR02PEbT26Op3ytdDoMBvVxh4xzNrMNduvVgukrutdm_SDJeZp4_6kn9tw95KVOqk7E1WJc5VHit4jwHEmMhc9_nPkMVwxZj6HgmiIIo3wnjXcvqhDkuQVYEz1i-hRVnRShDuMMztNU6j5QScYafgSzJ8ELguvNZEj3J8AJ4mbNNAHorpb2eG1KoxM9-cnRM-c5wAzJkpcWydiDWDEYkoWUtjQN_NtJTYhhhDlip7ZTfFKi7NoOJJkJREge_pXHcy2h80VzEZhXNRGjtcTt8FQQ0GbiUlrzxv8ctaY7NCmCF4g6iDwE48rfDwW44_yQMhrbiXfv6tYA5EIetZFu1]--></g></svg>