<?xml version="1.0" encoding="us-ascii" standalone="no"?><svg xmlns="http://www.w3.org/2000/svg" xmlns:xlink="http://www.w3.org/1999/xlink" contentStyleType="text/css" height="692px" preserveAspectRatio="none" style="width:992px;height:692px;background:#FFFFFF;" version="1.1" viewBox="0 0 992 692" width="992px" zoomAndPan="magnify"><defs/><g><rect fill="#FFFFFF" height="14" style="stroke:#181818;stroke-width:1.0;" width="10" x="79" y="531.9531"/><rect fill="#FFFFFF" height="554.7891" style="stroke:#181818;stroke-width:1.0;" width="10" x="476" y="112.4297"/><rect fill="#FFFFFF" height="25" style="stroke:#181818;stroke-width:1.0;" width="10" x="481" y="173.6953"/><rect fill="#FFFFFF" height="25" style="stroke:#181818;stroke-width:1.0;" width="10" x="481" y="266.9609"/><rect fill="#FFFFFF" height="25" style="stroke:#181818;stroke-width:1.0;" width="10" x="481" y="336.0938"/><rect fill="#FFFFFF" height="16.1641" style="stroke:#181818;stroke-width:1.0;" width="10" x="767.5" y="431.3594"/><rect fill="#FFFFFF" height="14" style="stroke:#181818;stroke-width:1.0;" width="10" x="767.5" y="575.0859"/><rect fill="#FFFFFF" height="16.1641" style="stroke:#181818;stroke-width:1.0;" width="10" x="895.5" y="486.6563"/><rect fill="#FFFFFF" height="14" style="stroke:#181818;stroke-width:1.0;" width="10" x="895.5" y="618.2188"/><rect fill="none" height="526.7891" style="stroke:#000000;stroke-width:1.5;" width="976" x="10" y="127.4297"/><rect fill="none" height="426.5234" style="stroke:#000000;stroke-width:1.5;" width="956" x="20" y="220.6953"/><rect fill="none" height="257.125" style="stroke:#000000;stroke-width:1.5;" width="936" x="30" y="383.0938"/><line style="stroke:#181818;stroke-width:0.5;stroke-dasharray:5.0,5.0;" x1="84" x2="84" y1="81.2969" y2="685.2188"/><line style="stroke:#181818;stroke-width:0.5;stroke-dasharray:5.0,5.0;" x1="480.5" x2="480.5" y1="81.2969" y2="685.2188"/><line style="stroke:#181818;stroke-width:0.5;stroke-dasharray:5.0,5.0;" x1="772" x2="772" y1="430.875" y2="685.2188"/><line style="stroke:#181818;stroke-width:0.5;stroke-dasharray:5.0,5.0;" x1="900" x2="900" y1="486.1719" y2="685.2188"/><text fill="#000000" font-family="sans-serif" font-size="14" lengthAdjust="spacing" text-decoration="underline" textLength="82" x="40" y="77.9951">u:Utilisateur</text><ellipse cx="84" cy="13.5" fill="#FFFFFF" rx="8" ry="8" style="stroke:#181818;stroke-width:0.5;"/><path d="M84,21.5 L84,48.5 M71,29.5 L97,29.5 M84,48.5 L71,63.5 M84,48.5 L97,63.5 " fill="none" style="stroke:#181818;stroke-width:0.5;"/><rect fill="#FFFFFF" height="30.2969" rx="2.5" ry="2.5" style="stroke:#181818;stroke-width:0.5;" width="93" x="434.5" y="50"/><text fill="#000000" font-family="sans-serif" font-size="14" lengthAdjust="spacing" text-decoration="underline" textLength="79" x="441.5" y="69.9951">m:MiniSocs</text><rect fill="#FFFFFF" height="14" style="stroke:#181818;stroke-width:1.0;" width="10" x="79" y="531.9531"/><rect fill="#FFFFFF" height="554.7891" style="stroke:#181818;stroke-width:1.0;" width="10" x="476" y="112.4297"/><rect fill="#FFFFFF" height="25" style="stroke:#181818;stroke-width:1.0;" width="10" x="481" y="173.6953"/><rect fill="#FFFFFF" height="25" style="stroke:#181818;stroke-width:1.0;" width="10" x="481" y="266.9609"/><rect fill="#FFFFFF" height="25" style="stroke:#181818;stroke-width:1.0;" width="10" x="481" y="336.0938"/><rect fill="#FFFFFF" height="16.1641" style="stroke:#181818;stroke-width:1.0;" width="10" x="767.5" y="431.3594"/><rect fill="#FFFFFF" height="14" style="stroke:#181818;stroke-width:1.0;" width="10" x="767.5" y="575.0859"/><rect fill="#FFFFFF" height="16.1641" style="stroke:#181818;stroke-width:1.0;" width="10" x="895.5" y="486.6563"/><rect fill="#FFFFFF" height="14" style="stroke:#181818;stroke-width:1.0;" width="10" x="895.5" y="618.2188"/><polygon fill="#181818" points="464,108.4297,474,112.4297,464,116.4297,468,112.4297" style="stroke:#181818;stroke-width:1.0;"/><line style="stroke:#181818;stroke-width:1.0;" x1="84" x2="470" y1="112.4297" y2="112.4297"/><text fill="#000000" font-family="sans-serif" font-size="13" lengthAdjust="spacing" textLength="373" x="91" y="107.3638">creerReseauSocial(u.pseudo, nomReseau, pseudoReseau)</text><path d="M10,127.4297 L80,127.4297 L80,134.5625 L70,144.5625 L10,144.5625 L10,127.4297 " fill="#EEEEEE" style="stroke:#000000;stroke-width:1.5;"/><rect fill="none" height="526.7891" style="stroke:#000000;stroke-width:1.5;" width="976" x="10" y="127.4297"/><text fill="#000000" font-family="sans-serif" font-size="13" font-weight="bold" lengthAdjust="spacing" textLength="25" x="25" y="140.4966">opt</text><text fill="#000000" font-family="sans-serif" font-size="11" font-weight="bold" lengthAdjust="spacing" textLength="381" x="95" y="139.6401">[u.pseudo, pseudoReseau, nomReseau non null ^ non vide]</text><line style="stroke:#181818;stroke-width:1.0;" x1="486" x2="533" y1="160.6953" y2="160.6953"/><line style="stroke:#181818;stroke-width:1.0;" x1="533" x2="533" y1="160.6953" y2="173.6953"/><line style="stroke:#181818;stroke-width:1.0;" x1="492" x2="533" y1="173.6953" y2="173.6953"/><polygon fill="#181818" points="502,169.6953,492,173.6953,502,177.6953,498,173.6953" style="stroke:#181818;stroke-width:1.0;"/><text fill="#000000" font-family="sans-serif" font-size="13" lengthAdjust="spacing" textLength="203" x="498" y="155.6294">user=utilisateurs.get(u.pseudo)</text><line style="stroke:#181818;stroke-width:1.0;stroke-dasharray:2.0,2.0;" x1="491" x2="533" y1="197.6953" y2="197.6953"/><line style="stroke:#181818;stroke-width:1.0;stroke-dasharray:2.0,2.0;" x1="533" x2="533" y1="197.6953" y2="210.6953"/><line style="stroke:#181818;stroke-width:1.0;stroke-dasharray:2.0,2.0;" x1="486" x2="533" y1="210.6953" y2="210.6953"/><polygon fill="#181818" points="496,206.6953,486,210.6953,496,214.6953,492,210.6953" style="stroke:#181818;stroke-width:1.0;"/><path d="M20,220.6953 L90,220.6953 L90,227.8281 L80,237.8281 L20,237.8281 L20,220.6953 " fill="#EEEEEE" style="stroke:#000000;stroke-width:1.5;"/><rect fill="none" height="426.5234" style="stroke:#000000;stroke-width:1.5;" width="956" x="20" y="220.6953"/><text fill="#000000" font-family="sans-serif" font-size="13" font-weight="bold" lengthAdjust="spacing" textLength="25" x="35" y="233.7622">opt</text><text fill="#000000" font-family="sans-serif" font-size="11" font-weight="bold" lengthAdjust="spacing" textLength="94" x="105" y="232.9058">[(user != null)]</text><line style="stroke:#181818;stroke-width:1.0;" x1="486" x2="533" y1="253.9609" y2="253.9609"/><line style="stroke:#181818;stroke-width:1.0;" x1="533" x2="533" y1="253.9609" y2="266.9609"/><line style="stroke:#181818;stroke-width:1.0;" x1="492" x2="533" y1="266.9609" y2="266.9609"/><polygon fill="#181818" points="502,262.9609,492,266.9609,502,270.9609,498,266.9609" style="stroke:#181818;stroke-width:1.0;"/><text fill="#000000" font-family="sans-serif" font-size="13" lengthAdjust="spacing" textLength="166" x="498" y="248.895">ec=user.getEtatCompte()</text><line style="stroke:#181818;stroke-width:1.0;stroke-dasharray:2.0,2.0;" x1="491" x2="533" y1="290.9609" y2="290.9609"/><line style="stroke:#181818;stroke-width:1.0;stroke-dasharray:2.0,2.0;" x1="533" x2="533" y1="290.9609" y2="303.9609"/><line style="stroke:#181818;stroke-width:1.0;stroke-dasharray:2.0,2.0;" x1="486" x2="533" y1="303.9609" y2="303.9609"/><polygon fill="#181818" points="496,299.9609,486,303.9609,496,307.9609,492,303.9609" style="stroke:#181818;stroke-width:1.0;"/><line style="stroke:#181818;stroke-width:1.0;" x1="486" x2="533" y1="323.0938" y2="323.0938"/><line style="stroke:#181818;stroke-width:1.0;" x1="533" x2="533" y1="323.0938" y2="336.0938"/><line style="stroke:#181818;stroke-width:1.0;" x1="492" x2="533" y1="336.0938" y2="336.0938"/><polygon fill="#181818" points="502,332.0938,492,336.0938,502,340.0938,498,336.0938" style="stroke:#181818;stroke-width:1.0;"/><text fill="#000000" font-family="sans-serif" font-size="13" lengthAdjust="spacing" textLength="178" x="498" y="318.0278">r=reseaux.get(nomReseau)</text><line style="stroke:#181818;stroke-width:1.0;stroke-dasharray:2.0,2.0;" x1="491" x2="533" y1="360.0938" y2="360.0938"/><line style="stroke:#181818;stroke-width:1.0;stroke-dasharray:2.0,2.0;" x1="533" x2="533" y1="360.0938" y2="373.0938"/><line style="stroke:#181818;stroke-width:1.0;stroke-dasharray:2.0,2.0;" x1="486" x2="533" y1="373.0938" y2="373.0938"/><polygon fill="#181818" points="496,369.0938,486,373.0938,496,377.0938,492,373.0938" style="stroke:#181818;stroke-width:1.0;"/><path d="M30,383.0938 L100,383.0938 L100,390.2266 L90,400.2266 L30,400.2266 L30,383.0938 " fill="#EEEEEE" style="stroke:#000000;stroke-width:1.5;"/><rect fill="none" height="257.125" style="stroke:#000000;stroke-width:1.5;" width="936" x="30" y="383.0938"/><text fill="#000000" font-family="sans-serif" font-size="13" font-weight="bold" lengthAdjust="spacing" textLength="25" x="45" y="396.1606">opt</text><text fill="#000000" font-family="sans-serif" font-size="11" font-weight="bold" lengthAdjust="spacing" textLength="180" x="115" y="395.3042">[(r == null) &#8743; (ec == ACTIF)]</text><polygon fill="#181818" points="698,417.3594,708,421.3594,698,425.3594,702,421.3594" style="stroke:#181818;stroke-width:1.0;"/><line style="stroke:#181818;stroke-width:1.0;" x1="486" x2="704" y1="421.3594" y2="421.3594"/><text fill="#000000" font-family="sans-serif" font-size="13" lengthAdjust="spacing" textLength="200" x="493" y="416.2935">new ReseauSocial(nomReseau)</text><rect fill="#FFFFFF" height="30.2969" rx="2.5" ry="2.5" style="stroke:#181818;stroke-width:0.5;" width="125" x="710" y="400.2266"/><text fill="#000000" font-family="sans-serif" font-size="14" lengthAdjust="spacing" text-decoration="underline" textLength="111" x="717" y="420.2217">rs:R&#233;seauSocial</text><polygon fill="#181818" points="497,443.5234,487,447.5234,497,451.5234,493,447.5234" style="stroke:#181818;stroke-width:1.0;"/><line style="stroke:#181818;stroke-width:1.0;stroke-dasharray:2.0,2.0;" x1="491" x2="771.5" y1="447.5234" y2="447.5234"/><polygon fill="#181818" points="833,472.6563,843,476.6563,833,480.6563,837,476.6563" style="stroke:#181818;stroke-width:1.0;"/><line style="stroke:#181818;stroke-width:1.0;" x1="486" x2="839" y1="476.6563" y2="476.6563"/><text fill="#000000" font-family="sans-serif" font-size="13" lengthAdjust="spacing" textLength="214" x="493" y="471.5903">new Membre(u,rs,pseudoReseau)</text><rect fill="#FFFFFF" height="30.2969" rx="2.5" ry="2.5" style="stroke:#181818;stroke-width:0.5;" width="111" x="845" y="455.5234"/><text fill="#000000" font-family="sans-serif" font-size="14" lengthAdjust="spacing" text-decoration="underline" textLength="97" x="852" y="475.5186">mem:Membre</text><polygon fill="#181818" points="497,498.8203,487,502.8203,497,506.8203,493,502.8203" style="stroke:#181818;stroke-width:1.0;"/><line style="stroke:#181818;stroke-width:1.0;stroke-dasharray:2.0,2.0;" x1="491" x2="899.5" y1="502.8203" y2="502.8203"/><polygon fill="#181818" points="100,527.9531,90,531.9531,100,535.9531,96,531.9531" style="stroke:#181818;stroke-width:1.0;"/><line style="stroke:#181818;stroke-width:1.0;" x1="94" x2="475" y1="531.9531" y2="531.9531"/><text fill="#000000" font-family="sans-serif" font-size="13" lengthAdjust="spacing" textLength="142" x="106" y="526.8872">ajouterMembre(mem)</text><polygon fill="#181818" points="464,541.9531,474,545.9531,464,549.9531,468,545.9531" style="stroke:#181818;stroke-width:1.0;"/><line style="stroke:#181818;stroke-width:1.0;stroke-dasharray:2.0,2.0;" x1="84" x2="470" y1="545.9531" y2="545.9531"/><polygon fill="#181818" points="755.5,571.0859,765.5,575.0859,755.5,579.0859,759.5,575.0859" style="stroke:#181818;stroke-width:1.0;"/><line style="stroke:#181818;stroke-width:1.0;" x1="486" x2="761.5" y1="575.0859" y2="575.0859"/><text fill="#000000" font-family="sans-serif" font-size="13" lengthAdjust="spacing" textLength="142" x="493" y="570.02">ajouterMembre(mem)</text><polygon fill="#181818" points="497,585.0859,487,589.0859,497,593.0859,493,589.0859" style="stroke:#181818;stroke-width:1.0;"/><line style="stroke:#181818;stroke-width:1.0;stroke-dasharray:2.0,2.0;" x1="491" x2="771.5" y1="589.0859" y2="589.0859"/><polygon fill="#181818" points="883.5,614.2188,893.5,618.2188,883.5,622.2188,887.5,618.2188" style="stroke:#181818;stroke-width:1.0;"/><line style="stroke:#181818;stroke-width:1.0;" x1="486" x2="889.5" y1="618.2188" y2="618.2188"/><text fill="#000000" font-family="sans-serif" font-size="13" lengthAdjust="spacing" textLength="104" x="493" y="613.1528">setModerateur()</text><polygon fill="#181818" points="497,628.2188,487,632.2188,497,636.2188,493,632.2188" style="stroke:#181818;stroke-width:1.0;"/><line style="stroke:#181818;stroke-width:1.0;stroke-dasharray:2.0,2.0;" x1="491" x2="899.5" y1="632.2188" y2="632.2188"/><polygon fill="#181818" points="95,663.2188,85,667.2188,95,671.2188,91,667.2188" style="stroke:#181818;stroke-width:1.0;"/><line style="stroke:#181818;stroke-width:1.0;stroke-dasharray:2.0,2.0;" x1="89" x2="480" y1="667.2188" y2="667.2188"/><!--SRC=[XL9TRjim37xtARY-n46z72101hHf1mnOWA9TiRS5gimcQYt98wKiHzWnzZRa7Bx9JZ9QTcC7wr03XYNg-nFfoPLH6rBM8fG8t1o-HtGQ8R-fb0ltgy_JIPPDbjuzcaqa5OnteBUA0eBGwgqH_2JR6Y4_UXyU_3xZP-Dg9Ph0sAdT2DveKulYfTBF6_BHbKjVUOAlMnFm5Sg53fvU1sUJg-QWAzMdAP51wO2H632aRJtuCUHbStXgVW7k3OTKKJlvGAM6wxQNLAqZdAtNSNuVJ6LOjPhhzHaeXfYDD5kGdQ-CCtTUSu-m8C7kZlrJEzHGIHQBp6g3NAITfkQGOdFRxd7EGiBhcUI8yFw3g9sVmrpWY7IBZ2gAbL5L7cSrOonz0SxRxgI0hjJjffcl0momyTc892i7BbOLV4lBdKmmioFho4YBE3I2PniCH_jfHXWYkMIMjrXujqXwqnCLr8lsiELU1nMMtjO1yoDx3AK5fMJxP7GCUkf4iEXjuC_Ftv1BawLmiVpowUCqasv9r7OwnFFRvZ2qhPyHSUSeVqgoTFW3Jhhxh-kWQL5cZlQ1y6NYQFiBe1tqEaWU2-BYT2xZEyUEe9vy34WzHtHEKIyvtu3z9rp7PGmhNoAb8GwTbmTTUNoxwby0]--></g></svg>