<?xml version="1.0" encoding="us-ascii" standalone="no"?><svg xmlns="http://www.w3.org/2000/svg" xmlns:xlink="http://www.w3.org/1999/xlink" contentStyleType="text/css" height="735px" preserveAspectRatio="none" style="width:1108px;height:735px;background:#FFFFFF;" version="1.1" viewBox="0 0 1108 735" width="1108px" zoomAndPan="magnify"><defs/><g><rect fill="#FFFFFF" height="14" style="stroke:#181818;stroke-width:1.0;" width="10" x="79" y="531.9531"/><rect fill="#FFFFFF" height="597.9219" style="stroke:#181818;stroke-width:1.0;" width="10" x="510" y="112.4297"/><rect fill="#FFFFFF" height="25" style="stroke:#181818;stroke-width:1.0;" width="10" x="515" y="173.6953"/><rect fill="#FFFFFF" height="25" style="stroke:#181818;stroke-width:1.0;" width="10" x="515" y="266.9609"/><rect fill="#FFFFFF" height="25" style="stroke:#181818;stroke-width:1.0;" width="10" x="515" y="336.0938"/><rect fill="#FFFFFF" height="16.1641" style="stroke:#181818;stroke-width:1.0;" width="10" x="884" y="431.3594"/><rect fill="#FFFFFF" height="14" style="stroke:#181818;stroke-width:1.0;" width="10" x="884" y="575.0859"/><rect fill="#FFFFFF" height="14" style="stroke:#181818;stroke-width:1.0;" width="10" x="884" y="661.3516"/><rect fill="#FFFFFF" height="16.1641" style="stroke:#181818;stroke-width:1.0;" width="10" x="1012" y="486.6563"/><rect fill="#FFFFFF" height="14" style="stroke:#181818;stroke-width:1.0;" width="10" x="1012" y="618.2188"/><rect fill="none" height="569.9219" style="stroke:#000000;stroke-width:1.5;" width="1092.5" x="10" y="127.4297"/><rect fill="none" height="469.6563" style="stroke:#000000;stroke-width:1.5;" width="1072.5" x="20" y="220.6953"/><rect fill="none" height="300.2578" style="stroke:#000000;stroke-width:1.5;" width="1052.5" x="30" y="383.0938"/><line style="stroke:#181818;stroke-width:0.5;stroke-dasharray:5.0,5.0;" x1="84" x2="84" y1="81.2969" y2="728.3516"/><line style="stroke:#181818;stroke-width:0.5;stroke-dasharray:5.0,5.0;" x1="514.5" x2="514.5" y1="81.2969" y2="728.3516"/><line style="stroke:#181818;stroke-width:0.5;stroke-dasharray:5.0,5.0;" x1="888.5" x2="888.5" y1="430.875" y2="728.3516"/><line style="stroke:#181818;stroke-width:0.5;stroke-dasharray:5.0,5.0;" x1="1016.5" x2="1016.5" y1="486.1719" y2="728.3516"/><text fill="#000000" font-family="sans-serif" font-size="14" lengthAdjust="spacing" text-decoration="underline" textLength="82" x="40" y="77.9951">u:Utilisateur</text><ellipse cx="84" cy="13.5" fill="#FFFFFF" rx="8" ry="8" style="stroke:#181818;stroke-width:0.5;"/><path d="M84,21.5 L84,48.5 M71,29.5 L97,29.5 M84,48.5 L71,63.5 M84,48.5 L97,63.5 " fill="none" style="stroke:#181818;stroke-width:0.5;"/><rect fill="#FFFFFF" height="30.2969" rx="2.5" ry="2.5" style="stroke:#181818;stroke-width:0.5;" width="93" x="468.5" y="50"/><text fill="#000000" font-family="sans-serif" font-size="14" lengthAdjust="spacing" text-decoration="underline" textLength="79" x="475.5" y="69.9951">m:MiniSocs</text><rect fill="#FFFFFF" height="14" style="stroke:#181818;stroke-width:1.0;" width="10" x="79" y="531.9531"/><rect fill="#FFFFFF" height="597.9219" style="stroke:#181818;stroke-width:1.0;" width="10" x="510" y="112.4297"/><rect fill="#FFFFFF" height="25" style="stroke:#181818;stroke-width:1.0;" width="10" x="515" y="173.6953"/><rect fill="#FFFFFF" height="25" style="stroke:#181818;stroke-width:1.0;" width="10" x="515" y="266.9609"/><rect fill="#FFFFFF" height="25" style="stroke:#181818;stroke-width:1.0;" width="10" x="515" y="336.0938"/><rect fill="#FFFFFF" height="16.1641" style="stroke:#181818;stroke-width:1.0;" width="10" x="884" y="431.3594"/><rect fill="#FFFFFF" height="14" style="stroke:#181818;stroke-width:1.0;" width="10" x="884" y="575.0859"/><rect fill="#FFFFFF" height="14" style="stroke:#181818;stroke-width:1.0;" width="10" x="884" y="661.3516"/><rect fill="#FFFFFF" height="16.1641" style="stroke:#181818;stroke-width:1.0;" width="10" x="1012" y="486.6563"/><rect fill="#FFFFFF" height="14" style="stroke:#181818;stroke-width:1.0;" width="10" x="1012" y="618.2188"/><polygon fill="#181818" points="498,108.4297,508,112.4297,498,116.4297,502,112.4297" style="stroke:#181818;stroke-width:1.0;"/><line style="stroke:#181818;stroke-width:1.0;" x1="84" x2="504" y1="112.4297" y2="112.4297"/><text fill="#000000" font-family="sans-serif" font-size="13" lengthAdjust="spacing" textLength="407" x="91" y="107.3638">creerReseauSocial(u.pseudo, nomReseau, pseudoReseau, etat)</text><path d="M10,127.4297 L80,127.4297 L80,134.5625 L70,144.5625 L10,144.5625 L10,127.4297 " fill="#EEEEEE" style="stroke:#000000;stroke-width:1.5;"/><rect fill="none" height="569.9219" style="stroke:#000000;stroke-width:1.5;" width="1092.5" x="10" y="127.4297"/><text fill="#000000" font-family="sans-serif" font-size="13" font-weight="bold" lengthAdjust="spacing" textLength="25" x="25" y="140.4966">opt</text><text fill="#000000" font-family="sans-serif" font-size="11" font-weight="bold" lengthAdjust="spacing" textLength="381" x="95" y="139.6401">[u.pseudo, pseudoReseau, nomReseau non null ^ non vide]</text><line style="stroke:#181818;stroke-width:1.0;" x1="520" x2="567" y1="160.6953" y2="160.6953"/><line style="stroke:#181818;stroke-width:1.0;" x1="567" x2="567" y1="160.6953" y2="173.6953"/><line style="stroke:#181818;stroke-width:1.0;" x1="526" x2="567" y1="173.6953" y2="173.6953"/><polygon fill="#181818" points="536,169.6953,526,173.6953,536,177.6953,532,173.6953" style="stroke:#181818;stroke-width:1.0;"/><text fill="#000000" font-family="sans-serif" font-size="13" lengthAdjust="spacing" textLength="203" x="532" y="155.6294">user=utilisateurs.get(u.pseudo)</text><line style="stroke:#181818;stroke-width:1.0;stroke-dasharray:2.0,2.0;" x1="525" x2="567" y1="197.6953" y2="197.6953"/><line style="stroke:#181818;stroke-width:1.0;stroke-dasharray:2.0,2.0;" x1="567" x2="567" y1="197.6953" y2="210.6953"/><line style="stroke:#181818;stroke-width:1.0;stroke-dasharray:2.0,2.0;" x1="520" x2="567" y1="210.6953" y2="210.6953"/><polygon fill="#181818" points="530,206.6953,520,210.6953,530,214.6953,526,210.6953" style="stroke:#181818;stroke-width:1.0;"/><path d="M20,220.6953 L90,220.6953 L90,227.8281 L80,237.8281 L20,237.8281 L20,220.6953 " fill="#EEEEEE" style="stroke:#000000;stroke-width:1.5;"/><rect fill="none" height="469.6563" style="stroke:#000000;stroke-width:1.5;" width="1072.5" x="20" y="220.6953"/><text fill="#000000" font-family="sans-serif" font-size="13" font-weight="bold" lengthAdjust="spacing" textLength="25" x="35" y="233.7622">opt</text><text fill="#000000" font-family="sans-serif" font-size="11" font-weight="bold" lengthAdjust="spacing" textLength="94" x="105" y="232.9058">[(user != null)]</text><line style="stroke:#181818;stroke-width:1.0;" x1="520" x2="567" y1="253.9609" y2="253.9609"/><line style="stroke:#181818;stroke-width:1.0;" x1="567" x2="567" y1="253.9609" y2="266.9609"/><line style="stroke:#181818;stroke-width:1.0;" x1="526" x2="567" y1="266.9609" y2="266.9609"/><polygon fill="#181818" points="536,262.9609,526,266.9609,536,270.9609,532,266.9609" style="stroke:#181818;stroke-width:1.0;"/><text fill="#000000" font-family="sans-serif" font-size="13" lengthAdjust="spacing" textLength="166" x="532" y="248.895">ec=user.getEtatCompte()</text><line style="stroke:#181818;stroke-width:1.0;stroke-dasharray:2.0,2.0;" x1="525" x2="567" y1="290.9609" y2="290.9609"/><line style="stroke:#181818;stroke-width:1.0;stroke-dasharray:2.0,2.0;" x1="567" x2="567" y1="290.9609" y2="303.9609"/><line style="stroke:#181818;stroke-width:1.0;stroke-dasharray:2.0,2.0;" x1="520" x2="567" y1="303.9609" y2="303.9609"/><polygon fill="#181818" points="530,299.9609,520,303.9609,530,307.9609,526,303.9609" style="stroke:#181818;stroke-width:1.0;"/><line style="stroke:#181818;stroke-width:1.0;" x1="520" x2="567" y1="323.0938" y2="323.0938"/><line style="stroke:#181818;stroke-width:1.0;" x1="567" x2="567" y1="323.0938" y2="336.0938"/><line style="stroke:#181818;stroke-width:1.0;" x1="526" x2="567" y1="336.0938" y2="336.0938"/><polygon fill="#181818" points="536,332.0938,526,336.0938,536,340.0938,532,336.0938" style="stroke:#181818;stroke-width:1.0;"/><text fill="#000000" font-family="sans-serif" font-size="13" lengthAdjust="spacing" textLength="178" x="532" y="318.0278">r=reseaux.get(nomReseau)</text><line style="stroke:#181818;stroke-width:1.0;stroke-dasharray:2.0,2.0;" x1="525" x2="567" y1="360.0938" y2="360.0938"/><line style="stroke:#181818;stroke-width:1.0;stroke-dasharray:2.0,2.0;" x1="567" x2="567" y1="360.0938" y2="373.0938"/><line style="stroke:#181818;stroke-width:1.0;stroke-dasharray:2.0,2.0;" x1="520" x2="567" y1="373.0938" y2="373.0938"/><polygon fill="#181818" points="530,369.0938,520,373.0938,530,377.0938,526,373.0938" style="stroke:#181818;stroke-width:1.0;"/><path d="M30,383.0938 L100,383.0938 L100,390.2266 L90,400.2266 L30,400.2266 L30,383.0938 " fill="#EEEEEE" style="stroke:#000000;stroke-width:1.5;"/><rect fill="none" height="300.2578" style="stroke:#000000;stroke-width:1.5;" width="1052.5" x="30" y="383.0938"/><text fill="#000000" font-family="sans-serif" font-size="13" font-weight="bold" lengthAdjust="spacing" textLength="25" x="45" y="396.1606">opt</text><text fill="#000000" font-family="sans-serif" font-size="11" font-weight="bold" lengthAdjust="spacing" textLength="180" x="115" y="395.3042">[(r == null) &#8743; (ec == ACTIF)]</text><polygon fill="#181818" points="814.5,417.3594,824.5,421.3594,814.5,425.3594,818.5,421.3594" style="stroke:#181818;stroke-width:1.0;"/><line style="stroke:#181818;stroke-width:1.0;" x1="520" x2="820.5" y1="421.3594" y2="421.3594"/><text fill="#000000" font-family="sans-serif" font-size="13" lengthAdjust="spacing" textLength="200" x="527" y="416.2935">new ReseauSocial(nomReseau)</text><rect fill="#FFFFFF" height="30.2969" rx="2.5" ry="2.5" style="stroke:#181818;stroke-width:0.5;" width="125" x="826.5" y="400.2266"/><text fill="#000000" font-family="sans-serif" font-size="14" lengthAdjust="spacing" text-decoration="underline" textLength="111" x="833.5" y="420.2217">rs:R&#233;seauSocial</text><polygon fill="#181818" points="531,443.5234,521,447.5234,531,451.5234,527,447.5234" style="stroke:#181818;stroke-width:1.0;"/><line style="stroke:#181818;stroke-width:1.0;stroke-dasharray:2.0,2.0;" x1="525" x2="888" y1="447.5234" y2="447.5234"/><polygon fill="#181818" points="949.5,472.6563,959.5,476.6563,949.5,480.6563,953.5,476.6563" style="stroke:#181818;stroke-width:1.0;"/><line style="stroke:#181818;stroke-width:1.0;" x1="520" x2="955.5" y1="476.6563" y2="476.6563"/><text fill="#000000" font-family="sans-serif" font-size="13" lengthAdjust="spacing" textLength="244" x="527" y="471.5903">new Membre(u,rs,pseudoReseau,etat)</text><rect fill="#FFFFFF" height="30.2969" rx="2.5" ry="2.5" style="stroke:#181818;stroke-width:0.5;" width="111" x="961.5" y="455.5234"/><text fill="#000000" font-family="sans-serif" font-size="14" lengthAdjust="spacing" text-decoration="underline" textLength="97" x="968.5" y="475.5186">mem:Membre</text><polygon fill="#181818" points="531,498.8203,521,502.8203,531,506.8203,527,502.8203" style="stroke:#181818;stroke-width:1.0;"/><line style="stroke:#181818;stroke-width:1.0;stroke-dasharray:2.0,2.0;" x1="525" x2="1016" y1="502.8203" y2="502.8203"/><polygon fill="#181818" points="100,527.9531,90,531.9531,100,535.9531,96,531.9531" style="stroke:#181818;stroke-width:1.0;"/><line style="stroke:#181818;stroke-width:1.0;" x1="94" x2="509" y1="531.9531" y2="531.9531"/><text fill="#000000" font-family="sans-serif" font-size="13" lengthAdjust="spacing" textLength="142" x="106" y="526.8872">ajouterMembre(mem)</text><polygon fill="#181818" points="498,541.9531,508,545.9531,498,549.9531,502,545.9531" style="stroke:#181818;stroke-width:1.0;"/><line style="stroke:#181818;stroke-width:1.0;stroke-dasharray:2.0,2.0;" x1="84" x2="504" y1="545.9531" y2="545.9531"/><polygon fill="#181818" points="872,571.0859,882,575.0859,872,579.0859,876,575.0859" style="stroke:#181818;stroke-width:1.0;"/><line style="stroke:#181818;stroke-width:1.0;" x1="520" x2="878" y1="575.0859" y2="575.0859"/><text fill="#000000" font-family="sans-serif" font-size="13" lengthAdjust="spacing" textLength="142" x="527" y="570.02">ajouterMembre(mem)</text><polygon fill="#181818" points="531,585.0859,521,589.0859,531,593.0859,527,589.0859" style="stroke:#181818;stroke-width:1.0;"/><line style="stroke:#181818;stroke-width:1.0;stroke-dasharray:2.0,2.0;" x1="525" x2="888" y1="589.0859" y2="589.0859"/><polygon fill="#181818" points="1000,614.2188,1010,618.2188,1000,622.2188,1004,618.2188" style="stroke:#181818;stroke-width:1.0;"/><line style="stroke:#181818;stroke-width:1.0;" x1="520" x2="1006" y1="618.2188" y2="618.2188"/><text fill="#000000" font-family="sans-serif" font-size="13" lengthAdjust="spacing" textLength="104" x="527" y="613.1528">setModerateur()</text><polygon fill="#181818" points="531,628.2188,521,632.2188,531,636.2188,527,632.2188" style="stroke:#181818;stroke-width:1.0;"/><line style="stroke:#181818;stroke-width:1.0;stroke-dasharray:2.0,2.0;" x1="525" x2="1016" y1="632.2188" y2="632.2188"/><polygon fill="#181818" points="872,657.3516,882,661.3516,872,665.3516,876,661.3516" style="stroke:#181818;stroke-width:1.0;"/><line style="stroke:#181818;stroke-width:1.0;" x1="520" x2="878" y1="661.3516" y2="661.3516"/><text fill="#000000" font-family="sans-serif" font-size="13" lengthAdjust="spacing" textLength="345" x="527" y="656.2856">getProducteur().subscribe(mem.getConsommateur())</text><polygon fill="#181818" points="531,671.3516,521,675.3516,531,679.3516,527,675.3516" style="stroke:#181818;stroke-width:1.0;"/><line style="stroke:#181818;stroke-width:1.0;stroke-dasharray:2.0,2.0;" x1="525" x2="888" y1="675.3516" y2="675.3516"/><polygon fill="#181818" points="95,706.3516,85,710.3516,95,714.3516,91,710.3516" style="stroke:#181818;stroke-width:1.0;"/><line style="stroke:#181818;stroke-width:1.0;stroke-dasharray:2.0,2.0;" x1="89" x2="514" y1="710.3516" y2="710.3516"/><!--SRC=[XLHBRjim4Dtp5DDiB2Eg3s301HAd1GhKW94qwAu6JKri9YAfSaZNH-WnkYjy3jsa9-c8aYKBJT65895wFxuHDBdJSkUbCGW50jMdRn6jGiZMfRJXSVLfEX5YidJsIU-Ybq4x2selVK1WMhNNZ9-8lMRoatDXwuw2NhIj96i2OQksPhnMkcB5MwbUTjv5MonTwJnysUk0hr1kL73-TR2OtDKdLSekJO44KWMCdW13MbQ37q5MrAVd-YVWKLD8E_B0DoZbSDpcaB9nXAlD9iuVWouroKPpixa2IH35XMO3ClELjlh1AUeG1ZZOGz-VFA22ahCO998xf3ojbAzFAJOrTL_cp3cycd6E26_ViThrDSmPZkZlaL16jjAopEAi8eo5oy4wqxx9eTqwhp38C1Mk2Z20nuYUoayMR2nB-9eU3pn7OIu2H4A_Y4CTDDjXw4DCXSSGlKrcMOE5DukaDnsfe5eqBnlkUmwtTAOAcFNiIwXV-9Jic8pwe6Cd3ulE1dx_-0KPLyqRDylF7pzC1NV6KPiPUPhVrwUXl6vIdbf7_bwIfSNlCEhuRzT1qo1F7itMutdkQBe3e1dqMaWMSq_vgFjsE9S7ZorBFhiOq7T45XkZpc7_0_j7mfPB65QkG9yccRskpwsllIkYQZ4pYbjINc-JLpCJ_XMGCwRJw4K4sgA_shq_]--></g></svg>