<?xml version="1.0" encoding="us-ascii" standalone="no"?><svg xmlns="http://www.w3.org/2000/svg" xmlns:xlink="http://www.w3.org/1999/xlink" contentStyleType="text/css" height="687px" preserveAspectRatio="none" style="width:797px;height:687px;background:#FFFFFF;" version="1.1" viewBox="0 0 797 687" width="797px" zoomAndPan="magnify"><defs/><g><!--class MiniSocs--><g id="elem_MiniSocs"><rect codeLine="15" fill="#FFFFFF" height="50.5938" id="MiniSocs" rx="2.5" ry="2.5" style="stroke:#000000;stroke-width:0.5;" width="106" x="323" y="30"/><text fill="#000000" font-family="sans-serif" font-size="14" lengthAdjust="spacing" textLength="61" x="345.5" y="47.9951">MiniSocs</text><line style="stroke:#000000;stroke-width:0.5;" x1="324" x2="428" y1="56.2969" y2="56.2969"/><rect fill="none" height="6" style="stroke:#C82930;stroke-width:1.0;" width="6" x="331" y="66.9453"/><text fill="#000000" font-family="sans-serif" font-size="14" lengthAdjust="spacing" textLength="80" x="343" y="73.292">nom: String</text></g><!--class Utilisateur--><g id="elem_Utilisateur"><rect codeLine="18" fill="#FFFFFF" height="115.7813" id="Utilisateur" rx="2.5" ry="2.5" style="stroke:#000000;stroke-width:0.5;" width="199" x="153.5" y="292"/><text fill="#000000" font-family="sans-serif" font-size="14" lengthAdjust="spacing" textLength="68" x="219" y="309.9951">Utilisateur</text><line style="stroke:#000000;stroke-width:0.5;" x1="154.5" x2="351.5" y1="318.2969" y2="318.2969"/><rect fill="none" height="6" style="stroke:#C82930;stroke-width:1.0;" width="6" x="161.5" y="328.9453"/><text fill="#000000" font-family="sans-serif" font-size="14" lengthAdjust="spacing" textLength="140" x="173.5" y="335.292">pseudonyme: String</text><rect fill="none" height="6" style="stroke:#C82930;stroke-width:1.0;" width="6" x="161.5" y="345.2422"/><text fill="#000000" font-family="sans-serif" font-size="14" lengthAdjust="spacing" textLength="80" x="173.5" y="351.5889">nom: String</text><rect fill="none" height="6" style="stroke:#C82930;stroke-width:1.0;" width="6" x="161.5" y="361.5391"/><text fill="#000000" font-family="sans-serif" font-size="14" lengthAdjust="spacing" textLength="103" x="173.5" y="367.8857">pr&#233;nom: String</text><rect fill="none" height="6" style="stroke:#C82930;stroke-width:1.0;" width="6" x="161.5" y="377.8359"/><text fill="#000000" font-family="sans-serif" font-size="14" lengthAdjust="spacing" textLength="100" x="173.5" y="384.1826">courriel: String</text><rect fill="none" height="6" style="stroke:#C82930;stroke-width:1.0;" width="6" x="161.5" y="394.1328"/><text fill="#000000" font-family="sans-serif" font-size="14" lengthAdjust="spacing" textLength="173" x="173.5" y="400.4795">etatCompte: &#201;tatCompte</text></g><!--class ?tatCompte--><g id="elem_&#201;tatCompte"><rect codeLine="25" fill="#FFFFFF" height="97.1563" id="&#201;tatCompte" rx="2.5" ry="2.5" style="stroke:#000000;stroke-width:0.5;" width="90" x="7" y="7"/><text fill="#000000" font-family="sans-serif" font-size="12" font-style="italic" lengthAdjust="spacing" textLength="49" x="27.5" y="23.1387">&#171;enum&#187;</text><text fill="#000000" font-family="sans-serif" font-size="14" lengthAdjust="spacing" textLength="82" x="11" y="38.9639">&#201;tatCompte</text><line style="stroke:#000000;stroke-width:0.5;" x1="8" x2="96" y1="47.2656" y2="47.2656"/><text fill="#000000" font-family="sans-serif" font-size="14" lengthAdjust="spacing" textLength="39" x="13" y="64.2607">ACTIF</text><text fill="#000000" font-family="sans-serif" font-size="14" lengthAdjust="spacing" textLength="78" x="13" y="80.5576">D&#201;SACTIV&#201;</text><text fill="#000000" font-family="sans-serif" font-size="14" lengthAdjust="spacing" textLength="58" x="13" y="96.8545">BLOQU&#201;</text></g><!--class Membre--><g id="elem_Membre"><rect codeLine="30" fill="#FFFFFF" height="66.8906" id="Membre" rx="2.5" ry="2.5" style="stroke:#000000;stroke-width:0.5;" width="213" x="313.5" y="614"/><text fill="#000000" font-family="sans-serif" font-size="14" lengthAdjust="spacing" textLength="57" x="391.5" y="631.9951">Membre</text><line style="stroke:#000000;stroke-width:0.5;" x1="314.5" x2="525.5" y1="640.2969" y2="640.2969"/><rect fill="none" height="6" style="stroke:#C82930;stroke-width:1.0;" width="6" x="321.5" y="650.9453"/><text fill="#000000" font-family="sans-serif" font-size="14" lengthAdjust="spacing" textLength="155" x="333.5" y="657.292">pseudoReseau: String</text><rect fill="none" height="6" style="stroke:#C82930;stroke-width:1.0;" width="6" x="321.5" y="667.2422"/><text fill="#000000" font-family="sans-serif" font-size="14" lengthAdjust="spacing" textLength="187" x="333.5" y="673.5889">typeMembre: TypeMembre</text></g><!--class TypeMembre--><g id="elem_TypeMembre"><rect codeLine="34" fill="#FFFFFF" height="97.1563" id="TypeMembre" rx="2.5" ry="2.5" style="stroke:#000000;stroke-width:0.5;" width="97" x="132.5" y="7"/><text fill="#000000" font-family="sans-serif" font-size="12" font-style="italic" lengthAdjust="spacing" textLength="49" x="156.5" y="23.1387">&#171;enum&#187;</text><text fill="#000000" font-family="sans-serif" font-size="14" lengthAdjust="spacing" textLength="91" x="135.5" y="38.9639">TypeMembre</text><line style="stroke:#000000;stroke-width:0.5;" x1="133.5" x2="228.5" y1="47.2656" y2="47.2656"/><text fill="#000000" font-family="sans-serif" font-size="14" lengthAdjust="spacing" textLength="32" x="138.5" y="64.2607">ADM</text><text fill="#000000" font-family="sans-serif" font-size="14" lengthAdjust="spacing" textLength="34" x="138.5" y="80.5576">MOD</text><text fill="#000000" font-family="sans-serif" font-size="14" lengthAdjust="spacing" textLength="33" x="138.5" y="96.8545">MEM</text></g><!--class ReseauSocial--><g id="elem_ReseauSocial"><rect codeLine="39" fill="#FFFFFF" height="66.8906" id="ReseauSocial" rx="2.5" ry="2.5" style="stroke:#000000;stroke-width:0.5;" width="195" x="429.5" y="180"/><text fill="#000000" font-family="sans-serif" font-size="14" lengthAdjust="spacing" textLength="93" x="480.5" y="197.9951">ReseauSocial</text><line style="stroke:#000000;stroke-width:0.5;" x1="430.5" x2="623.5" y1="206.2969" y2="206.2969"/><rect fill="none" height="6" style="stroke:#C82930;stroke-width:1.0;" width="6" x="437.5" y="216.9453"/><text fill="#000000" font-family="sans-serif" font-size="14" lengthAdjust="spacing" textLength="80" x="449.5" y="223.292">nom: String</text><rect fill="none" height="6" style="stroke:#C82930;stroke-width:1.0;" width="6" x="437.5" y="233.2422"/><text fill="#000000" font-family="sans-serif" font-size="14" lengthAdjust="spacing" textLength="169" x="449.5" y="239.5889">etatReseau: EtatReseau</text></g><!--class EtatReseau--><g id="elem_EtatReseau"><rect codeLine="43" fill="#FFFFFF" height="80.8594" id="EtatReseau" rx="2.5" ry="2.5" style="stroke:#000000;stroke-width:0.5;" width="86" x="9" y="173"/><text fill="#000000" font-family="sans-serif" font-size="12" font-style="italic" lengthAdjust="spacing" textLength="49" x="27.5" y="189.1387">&#171;enum&#187;</text><text fill="#000000" font-family="sans-serif" font-size="14" lengthAdjust="spacing" textLength="80" x="12" y="204.9639">EtatReseau</text><line style="stroke:#000000;stroke-width:0.5;" x1="10" x2="94" y1="213.2656" y2="213.2656"/><text fill="#000000" font-family="sans-serif" font-size="14" lengthAdjust="spacing" textLength="48" x="15" y="230.2607">FERM&#201;</text><text fill="#000000" font-family="sans-serif" font-size="14" lengthAdjust="spacing" textLength="58" x="15" y="246.5576">OUVERT</text></g><!--class Message--><g id="elem_Message"><rect codeLine="47" fill="#FFFFFF" height="99.4844" id="Message" rx="2.5" ry="2.5" style="stroke:#000000;stroke-width:0.5;" width="215" x="575.5" y="438"/><text fill="#000000" font-family="sans-serif" font-size="14" lengthAdjust="spacing" textLength="63" x="651.5" y="455.9951">Message</text><line style="stroke:#000000;stroke-width:0.5;" x1="576.5" x2="789.5" y1="464.2969" y2="464.2969"/><rect fill="none" height="6" style="stroke:#C82930;stroke-width:1.0;" width="6" x="583.5" y="474.9453"/><text fill="#000000" font-family="sans-serif" font-size="14" lengthAdjust="spacing" textLength="101" x="595.5" y="481.292">idMessage: int</text><rect fill="none" height="6" style="stroke:#C82930;stroke-width:1.0;" width="6" x="583.5" y="491.2422"/><text fill="#000000" font-family="sans-serif" font-size="14" lengthAdjust="spacing" textLength="111" x="595.5" y="497.5889">contenu : String</text><rect fill="none" height="6" style="stroke:#C82930;stroke-width:1.0;" width="6" x="583.5" y="507.5391"/><text fill="#000000" font-family="sans-serif" font-size="14" lengthAdjust="spacing" textLength="189" x="595.5" y="513.8857">etatMessage: EtatMessage</text><rect fill="none" height="6" style="stroke:#C82930;stroke-width:1.0;" width="6" x="583.5" y="523.8359"/><text fill="#000000" font-family="sans-serif" font-size="14" lengthAdjust="spacing" textLength="107" x="595.5" y="530.1826">cach&#233;: boolean</text></g><!--class EtatMessage--><g id="elem_EtatMessage"><rect codeLine="53" fill="#FFFFFF" height="97.1563" id="EtatMessage" rx="2.5" ry="2.5" style="stroke:#000000;stroke-width:0.5;" width="96" x="130" y="165"/><text fill="#000000" font-family="sans-serif" font-size="12" font-style="italic" lengthAdjust="spacing" textLength="49" x="153.5" y="181.1387">&#171;enum&#187;</text><text fill="#000000" font-family="sans-serif" font-size="14" lengthAdjust="spacing" textLength="90" x="133" y="196.9639">EtatMessage</text><line style="stroke:#000000;stroke-width:0.5;" x1="131" x2="225" y1="205.2656" y2="205.2656"/><text fill="#000000" font-family="sans-serif" font-size="14" lengthAdjust="spacing" textLength="65" x="136" y="222.2607">ACCEPT&#201;</text><text fill="#000000" font-family="sans-serif" font-size="14" lengthAdjust="spacing" textLength="55" x="136" y="238.5576">REFUS&#201;</text><text fill="#000000" font-family="sans-serif" font-size="14" lengthAdjust="spacing" textLength="64" x="136" y="254.8545">ATTENTE</text></g><!--link MiniSocs to Utilisateur--><g id="link_MiniSocs_Utilisateur"><path codeLine="60" d="M360.8587,92.5019 C341.3987,138.7819 306.2162,222.4493 279.3862,286.2393 " fill="none" id="MiniSocs-Utilisateur" style="stroke:#000000;stroke-width:1.0;"/><polygon fill="#000000" points="365.51,81.44,359.497,85.4205,360.8587,92.5019,366.8716,88.5214,365.51,81.44" style="stroke:#000000;stroke-width:1.0;"/><polygon fill="#000000" points="277.06,291.77,284.2365,285.0247,278.9985,287.1611,276.8622,281.9231,277.06,291.77" style="stroke:#000000;stroke-width:1.0;"/><text fill="#000000" font-family="sans-serif" font-size="13" lengthAdjust="spacing" textLength="7" x="272.5658" y="280.8475">*</text></g><!--link MiniSocs to Membre--><g id="link_MiniSocs_Membre"><path codeLine="61" d="M378.7225,93.0668 C385.6925,186.5168 409.1936,501.6166 417.1136,607.7666 " fill="none" id="MiniSocs-Membre" style="stroke:#000000;stroke-width:1.0;"/><polygon fill="#000000" points="377.83,81.1,374.2874,87.3809,378.7225,93.0668,382.2652,86.7859,377.83,81.1" style="stroke:#000000;stroke-width:1.0;"/><polygon fill="#000000" points="417.56,613.75,420.8793,604.4773,417.188,608.7639,412.9014,605.0726,417.56,613.75" style="stroke:#000000;stroke-width:1.0;"/><text fill="#000000" font-family="sans-serif" font-size="13" lengthAdjust="spacing" textLength="7" x="409.4277" y="602.9767">*</text></g><!--link MiniSocs to ReseauSocial--><g id="link_MiniSocs_ReseauSocial"><path codeLine="62" d="M408.2766,89.8418 C434.0566,116.4718 462.6768,146.049 491.1368,175.449 " fill="none" id="MiniSocs-ReseauSocial" style="stroke:#000000;stroke-width:1.0;"/><polygon fill="#000000" points="399.93,81.22,401.2294,88.3131,408.2766,89.8418,406.9772,82.7487,399.93,81.22" style="stroke:#000000;stroke-width:1.0;"/><polygon fill="#000000" points="495.31,179.76,491.9243,170.5114,491.8324,176.1675,486.1763,176.0756,495.31,179.76" style="stroke:#000000;stroke-width:1.0;"/><text fill="#000000" font-family="sans-serif" font-size="13" lengthAdjust="spacing" textLength="7" x="481.6019" y="168.9886">*</text></g><!--reverse link Utilisateur to Membre--><g id="link_Utilisateur_Membre"><path codeLine="63" d="M274.2973,425.4249 C289.8273,474.9349 311.4,529.73 350,584 C357.65,594.75 367.46,604.96 377.31,613.89 " fill="none" id="Utilisateur-backto-Membre" style="stroke:#000000;stroke-width:1.0;"/><polygon fill="none" points="268.91,408.25,268.5724,427.2207,280.0223,423.6291,268.91,408.25" style="stroke:#000000;stroke-width:1.0;"/></g><!--link ReseauSocial to Membre--><g id="link_ReseauSocial_Membre"><path codeLine="64" d="M518.87,247.32 C498.97,327.66 448,533.44 428.12,613.73 " fill="none" id="ReseauSocial-Membre" style="stroke:#000000;stroke-width:1.0;"/><polygon fill="#000000" points="476.202,482.713,471.1748,490.7863,476.8803,492.1994,476.202,482.713" style="stroke:#000000;stroke-width:1.0;"/><text fill="#000000" font-family="sans-serif" font-size="13" lengthAdjust="spacing" textLength="61" x="484" y="492.0669">fait partie</text><text fill="#000000" font-family="sans-serif" font-size="13" lengthAdjust="spacing" textLength="23" x="492.2507" y="267.0276">1..*</text><text fill="#000000" font-family="sans-serif" font-size="13" lengthAdjust="spacing" textLength="23" x="431.8601" y="602.9529">1..*</text></g><!--reverse link Message to Membre--><g id="link_Message_Membre"><path codeLine="65" d="M596.8069,540.2801 C555.2969,565.2201 511.03,591.81 474.18,613.95 " fill="none" id="Message-backto-Membre" style="stroke:#000000;stroke-width:1.0;"/><polygon fill="#000000" points="601.95,537.19,592.1753,538.3964,597.6641,539.7651,596.2954,545.2538,601.95,537.19" style="stroke:#000000;stroke-width:1.0;"/><polygon fill="#000000" points="560.286,572.9915,551.0191,575.1303,554.046,580.1688,560.286,572.9915" style="stroke:#000000;stroke-width:1.0;"/><text fill="#000000" font-family="sans-serif" font-size="13" lengthAdjust="spacing" textLength="48" x="565" y="580.0669">a post&#233;</text><text fill="#000000" font-family="sans-serif" font-size="13" lengthAdjust="spacing" textLength="7" x="582.5317" y="557.6309">*</text><text fill="#000000" font-family="sans-serif" font-size="13" lengthAdjust="spacing" textLength="8" x="476.0592" y="602.959">1</text></g><!--reverse link ReseauSocial to Message--><g id="link_ReseauSocial_Message"><path codeLine="66" d="M551.6312,257.4489 C578.8112,304.8289 623.49,382.74 655.1,437.86 " fill="none" id="ReseauSocial-backto-Message" style="stroke:#000000;stroke-width:1.0;"/><polygon fill="#000000" points="545.66,247.04,545.176,254.2348,551.6312,257.4489,552.1152,250.2541,545.66,247.04" style="stroke:#000000;stroke-width:1.0;"/><polygon fill="#000000" points="638.5125,345.7291,640.463,355.0375,645.5619,352.1132,638.5125,345.7291" style="stroke:#000000;stroke-width:1.0;"/><text fill="#000000" font-family="sans-serif" font-size="13" lengthAdjust="spacing" textLength="71" x="650" y="354.5669">post&#233; dans</text><text fill="#000000" font-family="sans-serif" font-size="13" lengthAdjust="spacing" textLength="7" x="643.6844" y="426.8669">*</text></g><!--SRC=[RLJ1Zfim4Btp5QDSQADDf5wZA58s8LAbfTacPFVim6om5cng6rLHsm_8f-Gx-B6ECH38xWN6ps_clHaR_3Ld9yNo7251Y3EcDMhuyfmnOGxXqrVVy_oL56_yL2fck1GGfqmP14egKlwhHDzBEQLYNfWpv6XIcMW7nLp56NhwdOk2aOOh3tyyW4SMlv-KB4MoafbKy9foWuGlbPA_7VIO4STIfKfGzR5_rfDp-W3LLPHvTNNcQ8qcdf9f9nLomVSoTfeJ43AVmTueBavKn54EXcTSCuEbQbY5nZAHufnZHxvFhccAfE-mM9PASSm681fcLfB6G_MgIxSW1qZM-n3CvnPQB6edorNqVKFlTNNPs_YbkjXnF6r_7YXg_OUO7nKEhEzG8oi77iovGCUSGTJ5hOKRSkTW7T8ptAxjCmWxJIT0W-Ki-sIqRTEjZw2BMy4RCXJS1Bkmxd9xU0bsKQz9hTcfxP8dpNe6N9XcyC9G7VZWeMC6juNBO75QNMTmb3939lhEMhMxqrW5pr5jRXTi3liwMaPHy2CAwXkvrDeEP70Dk_itdamMC1gF-jVjaztcM3vkz2VkzQ_i_EzaqgODZcNqRJgbHDfjekQ0Pp27DyODq2TfE6arpPBAl2OFc0mAgKrr7TOUMs9TqkLQfkD1meIsmoZXY5foyG2CVWMQjibiXfR6xOW4vYYCx_q7]--></g></svg>