<?xml version="1.0" encoding="us-ascii" standalone="no"?><svg xmlns="http://www.w3.org/2000/svg" xmlns:xlink="http://www.w3.org/1999/xlink" contentStyleType="text/css" height="868px" preserveAspectRatio="none" style="width:951px;height:868px;background:#FFFFFF;" version="1.1" viewBox="0 0 951 868" width="951px" zoomAndPan="magnify"><defs/><g><rect fill="#FFFFFF" height="14" style="stroke:#181818;stroke-width:1.0;" width="10" x="153.5" y="663.1875"/><rect fill="#FFFFFF" height="731.1563" style="stroke:#181818;stroke-width:1.0;" width="10" x="381.5" y="112.4297"/><rect fill="#FFFFFF" height="25" style="stroke:#181818;stroke-width:1.0;" width="10" x="386.5" y="173.6953"/><rect fill="#FFFFFF" height="25" style="stroke:#181818;stroke-width:1.0;" width="10" x="386.5" y="266.9609"/><rect fill="#FFFFFF" height="25" style="stroke:#181818;stroke-width:1.0;" width="10" x="386.5" y="336.0938"/><rect fill="#FFFFFF" height="25" style="stroke:#181818;stroke-width:1.0;" width="10" x="386.5" y="429.3594"/><rect fill="#FFFFFF" height="25" style="stroke:#181818;stroke-width:1.0;" width="10" x="386.5" y="522.625"/><rect fill="#FFFFFF" height="14" style="stroke:#181818;stroke-width:1.0;" width="10" x="695.5" y="706.3203"/><rect fill="#FFFFFF" height="16.1641" style="stroke:#181818;stroke-width:1.0;" width="10" x="824" y="617.8906"/><rect fill="#FFFFFF" height="14" style="stroke:#181818;stroke-width:1.0;" width="10" x="824" y="773.5859"/><rect fill="none" height="703.1563" style="stroke:#000000;stroke-width:1.5;" width="892" x="53" y="127.4297"/><rect fill="none" height="602.8906" style="stroke:#000000;stroke-width:1.5;" width="872" x="63" y="220.6953"/><rect fill="none" height="433.4922" style="stroke:#000000;stroke-width:1.5;" width="852" x="73" y="383.0938"/><rect fill="none" height="333.2266" style="stroke:#000000;stroke-width:1.5;" width="832" x="83" y="476.3594"/><rect fill="none" height="232.9609" style="stroke:#000000;stroke-width:1.5;" width="812" x="93" y="569.625"/><rect fill="none" height="60.2656" style="stroke:#000000;stroke-width:1.5;" width="565" x="330" y="735.3203"/><line style="stroke:#181818;stroke-width:0.5;stroke-dasharray:5.0,5.0;" x1="49" x2="49" y1="81.2969" y2="861.5859"/><line style="stroke:#181818;stroke-width:0.5;stroke-dasharray:5.0,5.0;" x1="158" x2="158" y1="81.2969" y2="861.5859"/><line style="stroke:#181818;stroke-width:0.5;stroke-dasharray:5.0,5.0;" x1="386" x2="386" y1="81.2969" y2="861.5859"/><line style="stroke:#181818;stroke-width:0.5;stroke-dasharray:5.0,5.0;" x1="700" x2="700" y1="81.2969" y2="861.5859"/><line style="stroke:#181818;stroke-width:0.5;stroke-dasharray:5.0,5.0;" x1="829" x2="829" y1="617.4063" y2="861.5859"/><text fill="#000000" font-family="sans-serif" font-size="14" lengthAdjust="spacing" text-decoration="underline" textLength="82" x="5" y="77.9951">u:Utilisateur</text><ellipse cx="49" cy="13.5" fill="#FFFFFF" rx="8" ry="8" style="stroke:#181818;stroke-width:0.5;"/><path d="M49,21.5 L49,48.5 M36,29.5 L62,29.5 M49,48.5 L36,63.5 M49,48.5 L62,63.5 " fill="none" style="stroke:#181818;stroke-width:0.5;"/><rect fill="#FFFFFF" height="30.2969" rx="2.5" ry="2.5" style="stroke:#181818;stroke-width:0.5;" width="111" x="103" y="50"/><text fill="#000000" font-family="sans-serif" font-size="14" lengthAdjust="spacing" text-decoration="underline" textLength="97" x="110" y="69.9951">mem:Membre</text><rect fill="#FFFFFF" height="30.2969" rx="2.5" ry="2.5" style="stroke:#181818;stroke-width:0.5;" width="93" x="340" y="50"/><text fill="#000000" font-family="sans-serif" font-size="14" lengthAdjust="spacing" text-decoration="underline" textLength="79" x="347" y="69.9951">m:MiniSocs</text><rect fill="#FFFFFF" height="30.2969" rx="2.5" ry="2.5" style="stroke:#181818;stroke-width:0.5;" width="125" x="638" y="50"/><text fill="#000000" font-family="sans-serif" font-size="14" lengthAdjust="spacing" text-decoration="underline" textLength="111" x="645" y="69.9951">rs:R&#233;seauSocial</text><rect fill="#FFFFFF" height="14" style="stroke:#181818;stroke-width:1.0;" width="10" x="153.5" y="663.1875"/><rect fill="#FFFFFF" height="731.1563" style="stroke:#181818;stroke-width:1.0;" width="10" x="381.5" y="112.4297"/><rect fill="#FFFFFF" height="25" style="stroke:#181818;stroke-width:1.0;" width="10" x="386.5" y="173.6953"/><rect fill="#FFFFFF" height="25" style="stroke:#181818;stroke-width:1.0;" width="10" x="386.5" y="266.9609"/><rect fill="#FFFFFF" height="25" style="stroke:#181818;stroke-width:1.0;" width="10" x="386.5" y="336.0938"/><rect fill="#FFFFFF" height="25" style="stroke:#181818;stroke-width:1.0;" width="10" x="386.5" y="429.3594"/><rect fill="#FFFFFF" height="25" style="stroke:#181818;stroke-width:1.0;" width="10" x="386.5" y="522.625"/><rect fill="#FFFFFF" height="14" style="stroke:#181818;stroke-width:1.0;" width="10" x="695.5" y="706.3203"/><rect fill="#FFFFFF" height="16.1641" style="stroke:#181818;stroke-width:1.0;" width="10" x="824" y="617.8906"/><rect fill="#FFFFFF" height="14" style="stroke:#181818;stroke-width:1.0;" width="10" x="824" y="773.5859"/><polygon fill="#181818" points="369.5,108.4297,379.5,112.4297,369.5,116.4297,373.5,112.4297" style="stroke:#181818;stroke-width:1.0;"/><line style="stroke:#181818;stroke-width:1.0;" x1="49" x2="375.5" y1="112.4297" y2="112.4297"/><text fill="#000000" font-family="sans-serif" font-size="13" lengthAdjust="spacing" textLength="311" x="56" y="107.3638">posterMessage(u.pseudo, nomReseau, contenu)</text><path d="M53,127.4297 L123,127.4297 L123,134.5625 L113,144.5625 L53,144.5625 L53,127.4297 " fill="#EEEEEE" style="stroke:#000000;stroke-width:1.5;"/><rect fill="none" height="703.1563" style="stroke:#000000;stroke-width:1.5;" width="892" x="53" y="127.4297"/><text fill="#000000" font-family="sans-serif" font-size="13" font-weight="bold" lengthAdjust="spacing" textLength="25" x="68" y="140.4966">opt</text><text fill="#000000" font-family="sans-serif" font-size="11" font-weight="bold" lengthAdjust="spacing" textLength="339" x="138" y="139.6401">[contenu, u.pseudo, nomReseau non null &#8743; non vide]</text><line style="stroke:#181818;stroke-width:1.0;" x1="391.5" x2="438.5" y1="160.6953" y2="160.6953"/><line style="stroke:#181818;stroke-width:1.0;" x1="438.5" x2="438.5" y1="160.6953" y2="173.6953"/><line style="stroke:#181818;stroke-width:1.0;" x1="397.5" x2="438.5" y1="173.6953" y2="173.6953"/><polygon fill="#181818" points="407.5,169.6953,397.5,173.6953,407.5,177.6953,403.5,173.6953" style="stroke:#181818;stroke-width:1.0;"/><text fill="#000000" font-family="sans-serif" font-size="13" lengthAdjust="spacing" textLength="203" x="403.5" y="155.6294">user=utilisateurs.get(u.pseudo)</text><line style="stroke:#181818;stroke-width:1.0;stroke-dasharray:2.0,2.0;" x1="396.5" x2="438.5" y1="197.6953" y2="197.6953"/><line style="stroke:#181818;stroke-width:1.0;stroke-dasharray:2.0,2.0;" x1="438.5" x2="438.5" y1="197.6953" y2="210.6953"/><line style="stroke:#181818;stroke-width:1.0;stroke-dasharray:2.0,2.0;" x1="391.5" x2="438.5" y1="210.6953" y2="210.6953"/><polygon fill="#181818" points="401.5,206.6953,391.5,210.6953,401.5,214.6953,397.5,210.6953" style="stroke:#181818;stroke-width:1.0;"/><path d="M63,220.6953 L133,220.6953 L133,227.8281 L123,237.8281 L63,237.8281 L63,220.6953 " fill="#EEEEEE" style="stroke:#000000;stroke-width:1.5;"/><rect fill="none" height="602.8906" style="stroke:#000000;stroke-width:1.5;" width="872" x="63" y="220.6953"/><text fill="#000000" font-family="sans-serif" font-size="13" font-weight="bold" lengthAdjust="spacing" textLength="25" x="78" y="233.7622">opt</text><text fill="#000000" font-family="sans-serif" font-size="11" font-weight="bold" lengthAdjust="spacing" textLength="84" x="148" y="232.9058">[user != null]</text><line style="stroke:#181818;stroke-width:1.0;" x1="391.5" x2="438.5" y1="253.9609" y2="253.9609"/><line style="stroke:#181818;stroke-width:1.0;" x1="438.5" x2="438.5" y1="253.9609" y2="266.9609"/><line style="stroke:#181818;stroke-width:1.0;" x1="397.5" x2="438.5" y1="266.9609" y2="266.9609"/><polygon fill="#181818" points="407.5,262.9609,397.5,266.9609,407.5,270.9609,403.5,266.9609" style="stroke:#181818;stroke-width:1.0;"/><text fill="#000000" font-family="sans-serif" font-size="13" lengthAdjust="spacing" textLength="166" x="403.5" y="248.895">ec=user.getEtatCompte()</text><line style="stroke:#181818;stroke-width:1.0;stroke-dasharray:2.0,2.0;" x1="396.5" x2="438.5" y1="290.9609" y2="290.9609"/><line style="stroke:#181818;stroke-width:1.0;stroke-dasharray:2.0,2.0;" x1="438.5" x2="438.5" y1="290.9609" y2="303.9609"/><line style="stroke:#181818;stroke-width:1.0;stroke-dasharray:2.0,2.0;" x1="391.5" x2="438.5" y1="303.9609" y2="303.9609"/><polygon fill="#181818" points="401.5,299.9609,391.5,303.9609,401.5,307.9609,397.5,303.9609" style="stroke:#181818;stroke-width:1.0;"/><line style="stroke:#181818;stroke-width:1.0;" x1="391.5" x2="438.5" y1="323.0938" y2="323.0938"/><line style="stroke:#181818;stroke-width:1.0;" x1="438.5" x2="438.5" y1="323.0938" y2="336.0938"/><line style="stroke:#181818;stroke-width:1.0;" x1="397.5" x2="438.5" y1="336.0938" y2="336.0938"/><polygon fill="#181818" points="407.5,332.0938,397.5,336.0938,407.5,340.0938,403.5,336.0938" style="stroke:#181818;stroke-width:1.0;"/><text fill="#000000" font-family="sans-serif" font-size="13" lengthAdjust="spacing" textLength="178" x="403.5" y="318.0278">r=reseaux.get(nomReseau)</text><line style="stroke:#181818;stroke-width:1.0;stroke-dasharray:2.0,2.0;" x1="396.5" x2="438.5" y1="360.0938" y2="360.0938"/><line style="stroke:#181818;stroke-width:1.0;stroke-dasharray:2.0,2.0;" x1="438.5" x2="438.5" y1="360.0938" y2="373.0938"/><line style="stroke:#181818;stroke-width:1.0;stroke-dasharray:2.0,2.0;" x1="391.5" x2="438.5" y1="373.0938" y2="373.0938"/><polygon fill="#181818" points="401.5,369.0938,391.5,373.0938,401.5,377.0938,397.5,373.0938" style="stroke:#181818;stroke-width:1.0;"/><path d="M73,383.0938 L143,383.0938 L143,390.2266 L133,400.2266 L73,400.2266 L73,383.0938 " fill="#EEEEEE" style="stroke:#000000;stroke-width:1.5;"/><rect fill="none" height="433.4922" style="stroke:#000000;stroke-width:1.5;" width="852" x="73" y="383.0938"/><text fill="#000000" font-family="sans-serif" font-size="13" font-weight="bold" lengthAdjust="spacing" textLength="25" x="88" y="396.1606">opt</text><text fill="#000000" font-family="sans-serif" font-size="11" font-weight="bold" lengthAdjust="spacing" textLength="176" x="158" y="395.3042">[(r != null) &#8743; (ec == ACTIF)]</text><line style="stroke:#181818;stroke-width:1.0;" x1="391.5" x2="438.5" y1="416.3594" y2="416.3594"/><line style="stroke:#181818;stroke-width:1.0;" x1="438.5" x2="438.5" y1="416.3594" y2="429.3594"/><line style="stroke:#181818;stroke-width:1.0;" x1="397.5" x2="438.5" y1="429.3594" y2="429.3594"/><polygon fill="#181818" points="407.5,425.3594,397.5,429.3594,407.5,433.3594,403.5,429.3594" style="stroke:#181818;stroke-width:1.0;"/><text fill="#000000" font-family="sans-serif" font-size="13" lengthAdjust="spacing" textLength="137" x="403.5" y="411.2935">er=r.getEtatReseau()</text><line style="stroke:#181818;stroke-width:1.0;stroke-dasharray:2.0,2.0;" x1="396.5" x2="438.5" y1="453.3594" y2="453.3594"/><line style="stroke:#181818;stroke-width:1.0;stroke-dasharray:2.0,2.0;" x1="438.5" x2="438.5" y1="453.3594" y2="466.3594"/><line style="stroke:#181818;stroke-width:1.0;stroke-dasharray:2.0,2.0;" x1="391.5" x2="438.5" y1="466.3594" y2="466.3594"/><polygon fill="#181818" points="401.5,462.3594,391.5,466.3594,401.5,470.3594,397.5,466.3594" style="stroke:#181818;stroke-width:1.0;"/><path d="M83,476.3594 L153,476.3594 L153,483.4922 L143,493.4922 L83,493.4922 L83,476.3594 " fill="#EEEEEE" style="stroke:#000000;stroke-width:1.5;"/><rect fill="none" height="333.2266" style="stroke:#000000;stroke-width:1.5;" width="832" x="83" y="476.3594"/><text fill="#000000" font-family="sans-serif" font-size="13" font-weight="bold" lengthAdjust="spacing" textLength="25" x="98" y="489.4263">opt</text><text fill="#000000" font-family="sans-serif" font-size="11" font-weight="bold" lengthAdjust="spacing" textLength="100" x="168" y="488.5698">[er == OUVERT]</text><line style="stroke:#181818;stroke-width:1.0;" x1="391.5" x2="438.5" y1="509.625" y2="509.625"/><line style="stroke:#181818;stroke-width:1.0;" x1="438.5" x2="438.5" y1="509.625" y2="522.625"/><line style="stroke:#181818;stroke-width:1.0;" x1="397.5" x2="438.5" y1="522.625" y2="522.625"/><polygon fill="#181818" points="407.5,518.625,397.5,522.625,407.5,526.625,403.5,522.625" style="stroke:#181818;stroke-width:1.0;"/><text fill="#000000" font-family="sans-serif" font-size="13" lengthAdjust="spacing" textLength="290" x="403.5" y="504.5591">member=user.getMembres.get(nomReseau)</text><line style="stroke:#181818;stroke-width:1.0;stroke-dasharray:2.0,2.0;" x1="396.5" x2="438.5" y1="546.625" y2="546.625"/><line style="stroke:#181818;stroke-width:1.0;stroke-dasharray:2.0,2.0;" x1="438.5" x2="438.5" y1="546.625" y2="559.625"/><line style="stroke:#181818;stroke-width:1.0;stroke-dasharray:2.0,2.0;" x1="391.5" x2="438.5" y1="559.625" y2="559.625"/><polygon fill="#181818" points="401.5,555.625,391.5,559.625,401.5,563.625,397.5,559.625" style="stroke:#181818;stroke-width:1.0;"/><path d="M93,569.625 L163,569.625 L163,576.7578 L153,586.7578 L93,586.7578 L93,569.625 " fill="#EEEEEE" style="stroke:#000000;stroke-width:1.5;"/><rect fill="none" height="232.9609" style="stroke:#000000;stroke-width:1.5;" width="812" x="93" y="569.625"/><text fill="#000000" font-family="sans-serif" font-size="13" font-weight="bold" lengthAdjust="spacing" textLength="25" x="108" y="582.6919">opt</text><text fill="#000000" font-family="sans-serif" font-size="11" font-weight="bold" lengthAdjust="spacing" textLength="107" x="178" y="581.8354">[member != null]</text><polygon fill="#181818" points="761,603.8906,771,607.8906,761,611.8906,765,607.8906" style="stroke:#181818;stroke-width:1.0;"/><line style="stroke:#181818;stroke-width:1.0;" x1="391.5" x2="767" y1="607.8906" y2="607.8906"/><text fill="#000000" font-family="sans-serif" font-size="13" lengthAdjust="spacing" textLength="215" x="398.5" y="602.8247">new Message(contenu, u.pseudo)</text><rect fill="#FFFFFF" height="30.2969" rx="2.5" ry="2.5" style="stroke:#181818;stroke-width:0.5;" width="112" x="773" y="586.7578"/><text fill="#000000" font-family="sans-serif" font-size="14" lengthAdjust="spacing" text-decoration="underline" textLength="98" x="780" y="606.7529">msg:Message</text><polygon fill="#181818" points="402.5,630.0547,392.5,634.0547,402.5,638.0547,398.5,634.0547" style="stroke:#181818;stroke-width:1.0;"/><line style="stroke:#181818;stroke-width:1.0;stroke-dasharray:2.0,2.0;" x1="396.5" x2="828" y1="634.0547" y2="634.0547"/><polygon fill="#181818" points="174.5,659.1875,164.5,663.1875,174.5,667.1875,170.5,663.1875" style="stroke:#181818;stroke-width:1.0;"/><line style="stroke:#181818;stroke-width:1.0;" x1="168.5" x2="380.5" y1="663.1875" y2="663.1875"/><text fill="#000000" font-family="sans-serif" font-size="13" lengthAdjust="spacing" textLength="199" x="180.5" y="658.1216">member.ajouterMessage(msg)</text><polygon fill="#181818" points="369.5,673.1875,379.5,677.1875,369.5,681.1875,373.5,677.1875" style="stroke:#181818;stroke-width:1.0;"/><line style="stroke:#181818;stroke-width:1.0;stroke-dasharray:2.0,2.0;" x1="158.5" x2="375.5" y1="677.1875" y2="677.1875"/><polygon fill="#181818" points="683.5,702.3203,693.5,706.3203,683.5,710.3203,687.5,706.3203" style="stroke:#181818;stroke-width:1.0;"/><line style="stroke:#181818;stroke-width:1.0;" x1="391.5" x2="689.5" y1="706.3203" y2="706.3203"/><text fill="#000000" font-family="sans-serif" font-size="13" lengthAdjust="spacing" textLength="149" x="398.5" y="701.2544">r.ajouterMessage(msg)</text><polygon fill="#181818" points="402.5,716.3203,392.5,720.3203,402.5,724.3203,398.5,720.3203" style="stroke:#181818;stroke-width:1.0;"/><line style="stroke:#181818;stroke-width:1.0;stroke-dasharray:2.0,2.0;" x1="396.5" x2="699.5" y1="720.3203" y2="720.3203"/><path d="M330,735.3203 L400,735.3203 L400,742.4531 L390,752.4531 L330,752.4531 L330,735.3203 " fill="#EEEEEE" style="stroke:#000000;stroke-width:1.5;"/><rect fill="none" height="60.2656" style="stroke:#000000;stroke-width:1.5;" width="565" x="330" y="735.3203"/><text fill="#000000" font-family="sans-serif" font-size="13" font-weight="bold" lengthAdjust="spacing" textLength="25" x="345" y="748.3872">opt</text><text fill="#000000" font-family="sans-serif" font-size="11" font-weight="bold" lengthAdjust="spacing" textLength="224" x="415" y="747.5308">[member.estModerateur() == True]</text><polygon fill="#181818" points="812,769.5859,822,773.5859,812,777.5859,816,773.5859" style="stroke:#181818;stroke-width:1.0;"/><line style="stroke:#181818;stroke-width:1.0;" x1="391.5" x2="818" y1="773.5859" y2="773.5859"/><text fill="#000000" font-family="sans-serif" font-size="13" lengthAdjust="spacing" textLength="155" x="398.5" y="768.52">msg.moderer(ACCEPTE)</text><polygon fill="#181818" points="402.5,783.5859,392.5,787.5859,402.5,791.5859,398.5,787.5859" style="stroke:#181818;stroke-width:1.0;"/><line style="stroke:#181818;stroke-width:1.0;stroke-dasharray:2.0,2.0;" x1="396.5" x2="828" y1="787.5859" y2="787.5859"/><polygon fill="#181818" points="60,839.5859,50,843.5859,60,847.5859,56,843.5859" style="stroke:#181818;stroke-width:1.0;"/><line style="stroke:#181818;stroke-width:1.0;stroke-dasharray:2.0,2.0;" x1="54" x2="385.5" y1="843.5859" y2="843.5859"/><!--SRC=[VLDRZjem5FtFAcxdXw2XMK0aAZ4CbIeL5J7GVYBZt0cUIUpKrwOieSleNyKwifEkfBOJ0c7GH4fYn-UUS-uZWqV1SitA4Y53eFhuqwBa2F6YODAivr-7WoWQJ9Ly5hdLp0WbWU-ODWWkhDe9Xnz4E-62dvKoMtM8w5N8YZbE86pO5WulkAWSumFZhxbMLcPJLIWDFtR2u8sG2JTAtmP7WyVwo0lMkicGW763LXEW2Tlgh4SGP_NnfVu3U11amXUsToyes3bTdoJpYd2tsTXqRKGXY7dEpUOE686DBZWzgCGodMEvrTWYt8Stc7Gkf7XId4wOQuIcT5aV2PbrAC6A5gV99VdKzOBjaKE1NeE8vKYZiEEwFeOIa6_TPSuZLmYUk9miVFm49TpVGmgL8eDwtb34Dga8RQP685MvH6zX15n9Wz8E8rMPqsO4Dw1k9K7Qee1_l_-6pTvDG5HUo5b2FRRdGbAIe-baXv56OxKCIXuA7yQ1iCU1VEpFVEJCC3DLPMKmxc8leNgiWxD3aEcCzdJYJcKOVCUkhECnJAQhBv-7VM57Tr9jYE8Ua_Fh0h-jly-MgrwWcuAjpxjrtKm8lUEf2UYovnfTjSBmK9wspJfD3-Mj5kMDciHVS6hectPTbGbx3XFsekp5E3ZAFjxzJ4rTtqEU4qYGp5nbg4Eluw4lpqfRl3Bi5adfOQZZoNGwMwnc7HdAB0gFwxizzzT_]--></g></svg>