<?xml version="1.0" encoding="us-ascii" standalone="no"?><svg xmlns="http://www.w3.org/2000/svg" xmlns:xlink="http://www.w3.org/1999/xlink" contentStyleType="text/css" height="591px" preserveAspectRatio="none" style="width:1194px;height:591px;background:#FFFFFF;" version="1.1" viewBox="0 0 1194 591" width="1194px" zoomAndPan="magnify"><defs/><g><!--class MiniSocs--><g id="elem_MiniSocs"><rect codeLine="15" fill="#FFFFFF" height="50.5938" id="MiniSocs" rx="2.5" ry="2.5" style="stroke:#000000;stroke-width:0.5;" width="186" x="491" y="30"/><text fill="#000000" font-family="sans-serif" font-size="14" lengthAdjust="spacing" textLength="61" x="553.5" y="47.9951">MiniSocs</text><line style="stroke:#000000;stroke-width:0.5;" x1="492" x2="676" y1="56.2969" y2="56.2969"/><rect fill="none" height="6" style="stroke:#C82930;stroke-width:1.0;" width="6" x="499" y="66.9453"/><text fill="#000000" font-family="sans-serif" font-size="14" lengthAdjust="spacing" textLength="160" x="511" y="73.292">nomDuSysteme: String</text></g><g id="elem_GMN3"><path d="M224.5,35.5 L224.5,75.7656 A0,0 0 0 0 224.5,75.7656 L455.5,75.7656 A0,0 0 0 0 455.5,75.7656 L455.5,59.5 L490.86,55.5 L455.5,51.5 L455.5,45.5 L445.5,35.5 L224.5,35.5 A0,0 0 0 0 224.5,35.5 " fill="#FEFFDD" style="stroke:#181818;stroke-width:0.5;"/><path d="M445.5,35.5 L445.5,45.5 L455.5,45.5 L445.5,35.5 " fill="#FEFFDD" style="stroke:#181818;stroke-width:0.5;"/><text fill="#000000" font-family="sans-serif" font-size="13" lengthAdjust="spacing" textLength="209" x="230.5" y="52.5669">utilisateurs: Collection Utilisateur</text><text fill="#000000" font-family="sans-serif" font-size="13" lengthAdjust="spacing" textLength="210" x="230.5" y="67.6997">reseaux: Collection ReseauSocial</text></g><!--class Utilisateur--><g id="elem_Utilisateur"><rect codeLine="20" fill="#FFFFFF" height="115.7813" id="Utilisateur" rx="2.5" ry="2.5" style="stroke:#000000;stroke-width:0.5;" width="199" x="738.5" y="165"/><text fill="#000000" font-family="sans-serif" font-size="14" lengthAdjust="spacing" textLength="68" x="804" y="182.9951">Utilisateur</text><line style="stroke:#000000;stroke-width:0.5;" x1="739.5" x2="936.5" y1="191.2969" y2="191.2969"/><rect fill="none" height="6" style="stroke:#C82930;stroke-width:1.0;" width="6" x="746.5" y="201.9453"/><text fill="#000000" font-family="sans-serif" font-size="14" lengthAdjust="spacing" textLength="140" x="758.5" y="208.292">pseudonyme: String</text><rect fill="none" height="6" style="stroke:#C82930;stroke-width:1.0;" width="6" x="746.5" y="218.2422"/><text fill="#000000" font-family="sans-serif" font-size="14" lengthAdjust="spacing" textLength="80" x="758.5" y="224.5889">nom: String</text><rect fill="none" height="6" style="stroke:#C82930;stroke-width:1.0;" width="6" x="746.5" y="234.5391"/><text fill="#000000" font-family="sans-serif" font-size="14" lengthAdjust="spacing" textLength="103" x="758.5" y="240.8857">pr&#233;nom: String</text><rect fill="none" height="6" style="stroke:#C82930;stroke-width:1.0;" width="6" x="746.5" y="250.8359"/><text fill="#000000" font-family="sans-serif" font-size="14" lengthAdjust="spacing" textLength="100" x="758.5" y="257.1826">courriel: String</text><rect fill="none" height="6" style="stroke:#C82930;stroke-width:1.0;" width="6" x="746.5" y="267.1328"/><text fill="#000000" font-family="sans-serif" font-size="14" lengthAdjust="spacing" textLength="173" x="758.5" y="273.4795">etatCompte: &#201;tatCompte</text></g><g id="elem_GMN7"><path d="M779,387 L779,412.1328 A0,0 0 0 0 779,412.1328 L989,412.1328 A0,0 0 0 0 989,412.1328 L989,397 L979,387 L884.97,387 L853.06,281.14 L876.97,387 L779,387 A0,0 0 0 0 779,387 " fill="#FEFFDD" style="stroke:#181818;stroke-width:0.5;"/><path d="M979,387 L979,397 L989,397 L979,387 " fill="#FEFFDD" style="stroke:#181818;stroke-width:0.5;"/><text fill="#000000" font-family="sans-serif" font-size="13" lengthAdjust="spacing" textLength="189" x="785" y="404.0669">membres: Collection Membre</text></g><!--class ?tatCompte--><g id="elem_&#201;tatCompte"><rect codeLine="29" fill="#FFFFFF" height="97.1563" id="&#201;tatCompte" rx="2.5" ry="2.5" style="stroke:#000000;stroke-width:0.5;" width="90" x="976" y="7"/><text fill="#000000" font-family="sans-serif" font-size="12" font-style="italic" lengthAdjust="spacing" textLength="49" x="996.5" y="23.1387">&#171;enum&#187;</text><text fill="#000000" font-family="sans-serif" font-size="14" lengthAdjust="spacing" textLength="82" x="980" y="38.9639">&#201;tatCompte</text><line style="stroke:#000000;stroke-width:0.5;" x1="977" x2="1065" y1="47.2656" y2="47.2656"/><text fill="#000000" font-family="sans-serif" font-size="14" lengthAdjust="spacing" textLength="39" x="982" y="64.2607">ACTIF</text><text fill="#000000" font-family="sans-serif" font-size="14" lengthAdjust="spacing" textLength="78" x="982" y="80.5576">DESACTIVE</text><text fill="#000000" font-family="sans-serif" font-size="14" lengthAdjust="spacing" textLength="58" x="982" y="96.8545">BLOQUE</text></g><!--class Membre--><g id="elem_Membre"><rect codeLine="34" fill="#FFFFFF" height="66.8906" id="Membre" rx="2.5" ry="2.5" style="stroke:#000000;stroke-width:0.5;" width="181" x="259.5" y="518"/><text fill="#000000" font-family="sans-serif" font-size="14" lengthAdjust="spacing" textLength="57" x="321.5" y="535.9951">Membre</text><line style="stroke:#000000;stroke-width:0.5;" x1="260.5" x2="439.5" y1="544.2969" y2="544.2969"/><rect fill="none" height="6" style="stroke:#C82930;stroke-width:1.0;" width="6" x="267.5" y="554.9453"/><text fill="#000000" font-family="sans-serif" font-size="14" lengthAdjust="spacing" textLength="155" x="279.5" y="561.292">pseudoReseau: String</text><rect fill="none" height="6" style="stroke:#C82930;stroke-width:1.0;" width="6" x="267.5" y="571.2422"/><text fill="#000000" font-family="sans-serif" font-size="14" lengthAdjust="spacing" textLength="146" x="279.5" y="577.5889">moderateur: boolean</text></g><g id="elem_GMN12"><path d="M6,524 L6,579.3984 A0,0 0 0 0 6,579.3984 L224,579.3984 A0,0 0 0 0 224,579.3984 L224,555.5 L259.12,551.5 L224,547.5 L224,534 L214,524 L6,524 A0,0 0 0 0 6,524 " fill="#FEFFDD" style="stroke:#181818;stroke-width:0.5;"/><path d="M214,524 L214,534 L224,534 L214,524 " fill="#FEFFDD" style="stroke:#181818;stroke-width:0.5;"/><text fill="#000000" font-family="sans-serif" font-size="13" lengthAdjust="spacing" textLength="175" x="12" y="541.0669">reseauSocial: ReseauSocial</text><text fill="#000000" font-family="sans-serif" font-size="13" lengthAdjust="spacing" textLength="136" x="12" y="556.1997">utilisateur: Utilisateur</text><text fill="#000000" font-family="sans-serif" font-size="13" lengthAdjust="spacing" textLength="197" x="12" y="571.3325">messages: Collection Message</text></g><!--class ReseauSocial--><g id="elem_ReseauSocial"><rect codeLine="42" fill="#FFFFFF" height="66.8906" id="ReseauSocial" rx="2.5" ry="2.5" style="stroke:#000000;stroke-width:0.5;" width="195" x="183.5" y="189.5"/><text fill="#000000" font-family="sans-serif" font-size="14" lengthAdjust="spacing" textLength="93" x="234.5" y="207.4951">ReseauSocial</text><line style="stroke:#000000;stroke-width:0.5;" x1="184.5" x2="377.5" y1="215.7969" y2="215.7969"/><rect fill="none" height="6" style="stroke:#C82930;stroke-width:1.0;" width="6" x="191.5" y="226.4453"/><text fill="#000000" font-family="sans-serif" font-size="14" lengthAdjust="spacing" textLength="80" x="203.5" y="232.792">nom: String</text><rect fill="none" height="6" style="stroke:#C82930;stroke-width:1.0;" width="6" x="191.5" y="242.7422"/><text fill="#000000" font-family="sans-serif" font-size="14" lengthAdjust="spacing" textLength="169" x="203.5" y="249.0889">etatReseau: EtatReseau</text></g><g id="elem_GMN16"><path d="M414,203 L414,219 L378.84,223 L414,227 L414,243.2656 A0,0 0 0 0 414,243.2656 L632,243.2656 A0,0 0 0 0 632,243.2656 L632,213 L622,203 L414,203 A0,0 0 0 0 414,203 " fill="#FEFFDD" style="stroke:#181818;stroke-width:0.5;"/><path d="M622,203 L622,213 L632,213 L622,203 " fill="#FEFFDD" style="stroke:#181818;stroke-width:0.5;"/><text fill="#000000" font-family="sans-serif" font-size="13" lengthAdjust="spacing" textLength="189" x="420" y="220.0669">membres: Collection Membre</text><text fill="#000000" font-family="sans-serif" font-size="13" lengthAdjust="spacing" textLength="197" x="420" y="235.1997">messages: Collection Message</text></g><!--class EtatReseau--><g id="elem_EtatReseau"><rect codeLine="49" fill="#FFFFFF" height="80.8594" id="EtatReseau" rx="2.5" ry="2.5" style="stroke:#000000;stroke-width:0.5;" width="86" x="1101" y="15"/><text fill="#000000" font-family="sans-serif" font-size="12" font-style="italic" lengthAdjust="spacing" textLength="49" x="1119.5" y="31.1387">&#171;enum&#187;</text><text fill="#000000" font-family="sans-serif" font-size="14" lengthAdjust="spacing" textLength="80" x="1104" y="46.9639">EtatReseau</text><line style="stroke:#000000;stroke-width:0.5;" x1="1102" x2="1186" y1="55.2656" y2="55.2656"/><text fill="#000000" font-family="sans-serif" font-size="14" lengthAdjust="spacing" textLength="48" x="1107" y="72.2607">FERM&#201;</text><text fill="#000000" font-family="sans-serif" font-size="14" lengthAdjust="spacing" textLength="58" x="1107" y="88.5576">OUVERT</text></g><!--class Message--><g id="elem_Message"><rect codeLine="53" fill="#FFFFFF" height="83.1875" id="Message" rx="2.5" ry="2.5" style="stroke:#000000;stroke-width:0.5;" width="215" x="392.5" y="358"/><text fill="#000000" font-family="sans-serif" font-size="14" lengthAdjust="spacing" textLength="63" x="468.5" y="375.9951">Message</text><line style="stroke:#000000;stroke-width:0.5;" x1="393.5" x2="606.5" y1="384.2969" y2="384.2969"/><rect fill="none" height="6" style="stroke:#C82930;stroke-width:1.0;" width="6" x="400.5" y="394.9453"/><text fill="#000000" font-family="sans-serif" font-size="14" lengthAdjust="spacing" textLength="101" x="412.5" y="401.292">idMessage: int</text><rect fill="none" height="6" style="stroke:#C82930;stroke-width:1.0;" width="6" x="400.5" y="411.2422"/><text fill="#000000" font-family="sans-serif" font-size="14" lengthAdjust="spacing" textLength="111" x="412.5" y="417.5889">contenu : String</text><rect fill="none" height="6" style="stroke:#C82930;stroke-width:1.0;" width="6" x="400.5" y="427.5391"/><text fill="#000000" font-family="sans-serif" font-size="14" lengthAdjust="spacing" textLength="189" x="412.5" y="433.8857">etatMessage: EtatMessage</text></g><!--class EtatMessage--><g id="elem_EtatMessage"><rect codeLine="58" fill="#FFFFFF" height="113.4531" id="EtatMessage" rx="2.5" ry="2.5" style="stroke:#000000;stroke-width:0.5;" width="96" x="973" y="166.5"/><text fill="#000000" font-family="sans-serif" font-size="12" font-style="italic" lengthAdjust="spacing" textLength="49" x="996.5" y="182.6387">&#171;enum&#187;</text><text fill="#000000" font-family="sans-serif" font-size="14" lengthAdjust="spacing" textLength="90" x="976" y="198.4639">EtatMessage</text><line style="stroke:#000000;stroke-width:0.5;" x1="974" x2="1068" y1="206.7656" y2="206.7656"/><text fill="#000000" font-family="sans-serif" font-size="14" lengthAdjust="spacing" textLength="65" x="979" y="223.7607">ACCEPTE</text><text fill="#000000" font-family="sans-serif" font-size="14" lengthAdjust="spacing" textLength="55" x="979" y="240.0576">REFUSE</text><text fill="#000000" font-family="sans-serif" font-size="14" lengthAdjust="spacing" textLength="64" x="979" y="256.3545">ATTENTE</text><text fill="#000000" font-family="sans-serif" font-size="14" lengthAdjust="spacing" textLength="48" x="979" y="272.6514">CACHE</text></g><!--link MiniSocs to Utilisateur--><g id="link_MiniSocs_Utilisateur"><path codeLine="66" d="M635.8561,87.1936 C660.8461,102.1536 682.86,115.68 711,134 C726.06,143.8 736.9931,151.1047 752.2331,161.5647 " fill="none" id="MiniSocs-Utilisateur" style="stroke:#000000;stroke-width:1.0;"/><polygon fill="#000000" points="625.56,81.03,628.6535,87.5439,635.8561,87.1936,632.7626,80.6798,625.56,81.03" style="stroke:#000000;stroke-width:1.0;"/><polygon fill="#000000" points="757.18,164.96,752.0232,156.5691,753.0576,162.1306,747.4961,163.165,757.18,164.96" style="stroke:#000000;stroke-width:1.0;"/><text fill="#000000" font-family="sans-serif" font-size="13" lengthAdjust="spacing" textLength="7" x="739.9035" y="154.0606">*</text></g><!--link MiniSocs to Membre--><g id="link_MiniSocs_Membre"><path codeLine="67" d="M521.9123,85.8567 C503.3623,94.0467 493.02,97.8 473,104 C340.11,145.14 254.26,57.47 166,165 C72.72,278.64 229.8152,443.4297 307.4452,513.8197 " fill="none" id="MiniSocs-Membre" style="stroke:#000000;stroke-width:1.0;"/><polygon fill="#000000" points="532.89,81.01,525.7856,79.7741,521.9123,85.8567,529.0167,87.0926,532.89,81.01" style="stroke:#000000;stroke-width:1.0;"/><polygon fill="#000000" points="311.89,517.85,307.9096,508.8413,308.186,514.4914,302.5359,514.7678,311.89,517.85" style="stroke:#000000;stroke-width:1.0;"/><text fill="#000000" font-family="sans-serif" font-size="13" lengthAdjust="spacing" textLength="7" x="296.698" y="506.8393">*</text></g><!--link MiniSocs to Message--><g id="link_MiniSocs_Message"><path codeLine="68" d="M611.5097,91.0177 C627.1497,111.9177 640.34,133.68 649,165 C662.75,214.69 671.5,234.61 649,281 C633.55,312.87 609.7543,335.3056 581.6043,354.5356 " fill="none" id="MiniSocs-Message" style="stroke:#000000;stroke-width:1.0;"/><polygon fill="#000000" points="604.32,81.41,604.7123,88.6104,611.5097,91.0177,611.1174,83.8173,604.32,81.41" style="stroke:#000000;stroke-width:1.0;"/><polygon fill="#000000" points="576.65,357.92,586.3378,356.1462,580.7786,355.0996,581.8252,349.5404,576.65,357.92" style="stroke:#000000;stroke-width:1.0;"/><text fill="#000000" font-family="sans-serif" font-size="13" lengthAdjust="spacing" textLength="7" x="581.7655" y="346.8535">*</text></g><!--link MiniSocs to ReseauSocial--><g id="link_MiniSocs_ReseauSocial"><path codeLine="69" d="M528.4382,86.8517 C475.7582,115.6217 404.176,154.7244 345.906,186.5444 " fill="none" id="MiniSocs-ReseauSocial" style="stroke:#000000;stroke-width:1.0;"/><polygon fill="#000000" points="538.97,81.1,531.7869,80.4653,528.4382,86.8517,535.6213,87.4864,538.97,81.1" style="stroke:#000000;stroke-width:1.0;"/><polygon fill="#000000" points="340.64,189.42,350.4561,188.6172,345.0283,187.0236,346.6219,181.5959,340.64,189.42" style="stroke:#000000;stroke-width:1.0;"/><text fill="#000000" font-family="sans-serif" font-size="13" lengthAdjust="spacing" textLength="7" x="344.6926" y="178.4231">*</text></g><!--link Utilisateur to Membre--><g id="link_Utilisateur_Membre"><path codeLine="70" d="M793.4,281.29 C753.56,329.3 691.38,396.86 625,441 C568.3,478.7 496.63,506.71 440.67,524.96 " fill="none" id="Utilisateur-Membre" style="stroke:#000000;stroke-width:1.0;"/><text fill="#000000" font-family="sans-serif" font-size="13" lengthAdjust="spacing" textLength="8" x="779.7806" y="300.9842">1</text><text fill="#000000" font-family="sans-serif" font-size="13" lengthAdjust="spacing" textLength="7" x="448.4685" y="519.218">*</text></g><!--link ReseauSocial to Membre--><g id="link_ReseauSocial_Membre"><path codeLine="71" d="M280.17,256.59 C279.87,299.58 282.08,377.24 299,441 C306.15,467.96 319.64,496.46 330.95,517.63 " fill="none" id="ReseauSocial-Membre" style="stroke:#000000;stroke-width:1.0;"/><polygon fill="#000000" points="303.0452,394.6584,301.8876,404.0982,307.6573,402.9759,303.0452,394.6584" style="stroke:#000000;stroke-width:1.0;"/><text fill="#000000" font-family="sans-serif" font-size="13" lengthAdjust="spacing" textLength="61" x="313" y="404.0669">fait partie</text><text fill="#000000" font-family="sans-serif" font-size="13" lengthAdjust="spacing" textLength="8" x="271.2493" y="276.5128">1</text><text fill="#000000" font-family="sans-serif" font-size="13" lengthAdjust="spacing" textLength="7" x="319.6514" y="506.8338">*</text></g><!--reverse link Message to Membre--><g id="link_Message_Membre"><path codeLine="72" d="M455.1674,445.3326 C431.0474,469.4526 405.11,495.39 382.55,517.95 " fill="none" id="Message-backto-Membre" style="stroke:#000000;stroke-width:1.0;"/><polygon fill="#000000" points="459.41,441.09,450.2176,444.6255,455.8745,444.6255,455.8745,450.2824,459.41,441.09" style="stroke:#000000;stroke-width:1.0;"/><polygon fill="#000000" points="438.5355,476.0309,430.0616,480.3486,434.2178,484.5048,438.5355,476.0309" style="stroke:#000000;stroke-width:1.0;"/><text fill="#000000" font-family="sans-serif" font-size="13" lengthAdjust="spacing" textLength="48" x="444" y="484.0669">a post&#233;</text><text fill="#000000" font-family="sans-serif" font-size="13" lengthAdjust="spacing" textLength="7" x="445.1076" y="461.2829">*</text><text fill="#000000" font-family="sans-serif" font-size="13" lengthAdjust="spacing" textLength="8" x="380.1708" y="506.959">1</text></g><!--link ReseauSocial to Message--><g id="link_ReseauSocial_Message"><path codeLine="73" d="M331.3257,264.0972 C367.2257,292.6972 405.5077,323.2007 444.1577,354.0007 " fill="none" id="ReseauSocial-Message" style="stroke:#000000;stroke-width:1.0;"/><polygon fill="#000000" points="321.94,256.62,324.1405,263.4872,331.3257,264.0972,329.1253,257.23,321.94,256.62" style="stroke:#000000;stroke-width:1.0;"/><polygon fill="#000000" points="448.85,357.74,444.3044,349.0029,444.9397,354.6239,439.3187,355.2593,448.85,357.74" style="stroke:#000000;stroke-width:1.0;"/><polygon fill="#000000" points="419.9105,322.6822,414.6678,314.7471,411.0049,319.3442,419.9105,322.6822" style="stroke:#000000;stroke-width:1.0;"/><text fill="#000000" font-family="sans-serif" font-size="13" lengthAdjust="spacing" textLength="52" x="425" y="324.0669">contient</text><text fill="#000000" font-family="sans-serif" font-size="13" lengthAdjust="spacing" textLength="7" x="433.1402" y="346.9517">*</text></g><!--SRC=[XLHBRjim4Dth50Dlr0PnWMmDmu0ZosY1k4dzIJVPqD9O8YAHAacXDOeU84VnENon3YbP5kqKNOap7BvvynwfSCPPfbXP8gG8IS6qHWqVdWecp6Rny34CWZ2IOiUpMZ73fO0aPyeWqA4gvpzg38ESqr4iAxE74aqkKzsa4gwI0WFzoaN5g4S33xy3W7kMl6PArYADP24LVC-vGSfFbP8_czHzGJMsLAeKLJ_tnt9gcDx2yI3gydXeo56C9lb4f9jM2oxuIYPDpo48MSxgrLuRB744AwEuo0XDI9gdm9q1kUkEZA0slE2Q6QmLHKIWmCGfi3bll0Y56bdzoojOkXoXS5QSgFGEjMmgZNKgnRx7fINfnPMY4IzoYQoLubXuIJJCH99i8BpZMnUS1jnAOsHfH-nH6P5ZvPPcyFWlN2u8aAJjGy5uR5EJYPjW6gs_pEaxYrTs-HnRinuUlsrYQjdgxu2yUHjjFEAb98DREbif2sJ2UkpRuf16e7hIZZoXNqJTdyipgKIjMNOrfKi69uVwOESBSoNnQO2uMtTa5SzontRfiVotnFzZvWmuD_BrdyVBnV6D5e-RvtYvxedkJhSZyBIDHy25QM-FC8G3LwDrbV4v8DYEnGdvuXf4yTFQch-CvvkLNKpNw_YhIqNJw7Fi7knKQok7zqgxvtap74vWS3Fek_RERdiltzjek5xlU4-n_mO7TmCO3lkmdlzNswJM67QC6w1_cU7KgnM3IiQsyiwhP519ROu77_MIC9LEd1qSoPjmMiCMjUJY5XZzG3LX4DC2BHQtoWdwSGaJ1dy1]--></g></svg>