<?xml version="1.0" encoding="us-ascii" standalone="no"?><svg xmlns="http://www.w3.org/2000/svg" xmlns:xlink="http://www.w3.org/1999/xlink" contentStyleType="text/css" height="371px" preserveAspectRatio="none" style="width:1092px;height:371px;background:#FFFFFF;" version="1.1" viewBox="0 0 1092 371" width="1092px" zoomAndPan="magnify"><defs/><g><g id="EnCr&#233;ation"><rect fill="#F1F1F1" height="50.2656" rx="12.5" ry="12.5" style="stroke:#181818;stroke-width:0.5;" width="155" x="65.5" y="31.5659"/><line style="stroke:#181818;stroke-width:0.5;" x1="65.5" x2="220.5" y1="57.8628" y2="57.8628"/><text fill="#000000" font-family="sans-serif" font-size="14" lengthAdjust="spacing" textLength="76" x="105" y="49.561">EnCr&#233;ation</text><text fill="#000000" font-family="sans-serif" font-size="12" lengthAdjust="spacing" textLength="135" x="70.5" y="74.0015">entry : constructeur()</text></g><g id="EnDestruction"><rect fill="#F1F1F1" height="50.2656" rx="12.5" ry="12.5" style="stroke:#181818;stroke-width:0.5;" width="148" x="592" y="315.5659"/><line style="stroke:#181818;stroke-width:0.5;" x1="592" x2="740" y1="341.8628" y2="341.8628"/><text fill="#000000" font-family="sans-serif" font-size="14" lengthAdjust="spacing" textLength="99" x="616.5" y="333.561">EnDestruction</text><text fill="#000000" font-family="sans-serif" font-size="12" lengthAdjust="spacing" textLength="128" x="597" y="358.0015">entry : destructeur()</text></g><ellipse cx="16" cy="56.5659" fill="#222222" rx="10" ry="10" style="stroke:#222222;stroke-width:1.0;"/><g id="Accept&#233;"><rect fill="#F1F1F1" height="50" rx="12.5" ry="12.5" style="stroke:#181818;stroke-width:0.5;" width="77" x="306.5" y="188.5659"/><line style="stroke:#181818;stroke-width:0.5;" x1="306.5" x2="383.5" y1="214.8628" y2="214.8628"/><text fill="#000000" font-family="sans-serif" font-size="14" lengthAdjust="spacing" textLength="57" x="316.5" y="206.561">Accept&#233;</text></g><g id="EnAttente"><rect fill="#F1F1F1" height="50" rx="12.5" ry="12.5" style="stroke:#181818;stroke-width:0.5;" width="89" x="681.5" y="31.5659"/><line style="stroke:#181818;stroke-width:0.5;" x1="681.5" x2="770.5" y1="57.8628" y2="57.8628"/><text fill="#000000" font-family="sans-serif" font-size="14" lengthAdjust="spacing" textLength="69" x="691.5" y="49.561">EnAttente</text></g><g id="Cach&#233;"><rect fill="#F1F1F1" height="50" rx="12.5" ry="12.5" style="stroke:#181818;stroke-width:0.5;" width="64" x="579" y="188.5659"/><line style="stroke:#181818;stroke-width:0.5;" x1="579" x2="643" y1="214.8628" y2="214.8628"/><text fill="#000000" font-family="sans-serif" font-size="14" lengthAdjust="spacing" textLength="44" x="589" y="206.561">Cach&#233;</text></g><ellipse cx="542" cy="340.5659" fill="none" rx="11" ry="11" style="stroke:#222222;stroke-width:1.0;"/><ellipse cx="542" cy="340.5659" fill="#222222" rx="6" ry="6" style="stroke:#222222;stroke-width:1.0;"/><!--link *start* to EnCr?ation--><g id="link_*start*_EnCr&#233;ation"><path d="M26.42,56.5659 C39.32,56.5659 46.22,56.5659 59.13,56.5659 " fill="none" id="*start*-to-EnCr&#233;ation" style="stroke:#181818;stroke-width:1.0;"/><polygon fill="#181818" points="65.13,56.5659,56.13,52.5659,60.13,56.5659,56.13,60.5659,65.13,56.5659" style="stroke:#181818;stroke-width:1.0;"/></g><!--link EnCr?ation to Accept?--><g id="link_EnCr&#233;ation_Accept&#233;"><path d="M126.18,81.6159 C112.97,103.7559 99.48,136.4059 117,158.5659 C140.15,187.8359 241.2928,202.2699 300.1028,208.4399 " fill="none" id="EnCr&#233;ation-to-Accept&#233;" style="stroke:#181818;stroke-width:1.0;"/><polygon fill="#181818" points="306.07,209.0659,297.5365,204.1487,301.0973,208.5442,296.7018,212.105,306.07,209.0659" style="stroke:#181818;stroke-width:1.0;"/><text fill="#000000" font-family="sans-serif" font-size="13" lengthAdjust="spacing" textLength="28" x="290" y="124.6328">post</text><text fill="#000000" font-family="sans-serif" font-size="13" lengthAdjust="spacing" textLength="372" x="118" y="139.7656">[u.getMembres().get(nomReseau).EstModerateur==True]</text><text fill="#000000" font-family="sans-serif" font-size="13" lengthAdjust="spacing" textLength="189" x="209.5" y="154.8984">/posterMessage(Utilisateur u)</text></g><!--link EnCr?ation to EnAttente--><g id="link_EnCr&#233;ation_EnAttente"><path d="M220.72,56.5659 C344.57,56.5659 576.77,56.5659 675.47,56.5659 " fill="none" id="EnCr&#233;ation-to-EnAttente" style="stroke:#181818;stroke-width:1.0;"/><polygon fill="#181818" points="681.47,56.5659,672.47,52.5659,676.47,56.5659,672.47,60.5659,681.47,56.5659" style="stroke:#181818;stroke-width:1.0;"/><text fill="#000000" font-family="sans-serif" font-size="13" lengthAdjust="spacing" textLength="102" x="400" y="19.6328">mise en attente</text><text fill="#000000" font-family="sans-serif" font-size="13" lengthAdjust="spacing" textLength="377" x="262.5" y="34.7656">[u.getMembres().get(nomReseau).EstModerateur==False]</text><text fill="#000000" font-family="sans-serif" font-size="13" lengthAdjust="spacing" textLength="189" x="356.5" y="49.8984">/posterMessage(Utilisateur u)</text></g><!--link Accept? to Cach?--><g id="link_Accept&#233;_Cach&#233;"><path d="M383.68,213.5659 C436.42,213.5659 523.92,213.5659 572.95,213.5659 " fill="none" id="Accept&#233;-to-Cach&#233;" style="stroke:#181818;stroke-width:1.0;"/><polygon fill="#181818" points="578.95,213.5659,569.95,209.5659,573.95,213.5659,569.95,217.5659,578.95,213.5659" style="stroke:#181818;stroke-width:1.0;"/><text fill="#000000" font-family="sans-serif" font-size="13" lengthAdjust="spacing" textLength="97" x="432.75" y="176.6328">membre cache</text><text fill="#000000" font-family="sans-serif" font-size="13" lengthAdjust="spacing" textLength="103" x="429.75" y="191.7656">[hidden==True]</text><text fill="#000000" font-family="sans-serif" font-size="13" lengthAdjust="spacing" textLength="155" x="403.75" y="206.8984">/cacher(boolean hidden)</text></g><!--reverse link Accept? to Cach?--><g id="link_Accept&#233;_Cach&#233;"><path d="M370.599,242.7718 C380.549,252.5518 388.96,258.4259 402.75,263.5659 C419.1,269.6559 543.59,270.1459 559.75,263.5659 C572.41,258.4159 583.66,248.4559 592.36,238.7759 " fill="none" id="Accept&#233;-backto-Cach&#233;" style="stroke:#181818;stroke-width:1.0;"/><polygon fill="#181818" points="366.32,238.5659,369.9346,247.7275,369.8859,242.0709,375.5425,242.0221,366.32,238.5659" style="stroke:#181818;stroke-width:1.0;"/><text fill="#000000" font-family="sans-serif" font-size="13" lengthAdjust="spacing" textLength="131" x="415.75" y="229.6328">membre rend visible</text><text fill="#000000" font-family="sans-serif" font-size="13" lengthAdjust="spacing" textLength="108" x="427.25" y="244.7656">[hidden==False]</text><text fill="#000000" font-family="sans-serif" font-size="13" lengthAdjust="spacing" textLength="155" x="403.75" y="259.8984">/cacher(boolean hidden)</text></g><!--link EnAttente to Accept?--><g id="link_EnAttente_Accept&#233;"><path d="M681.17,62.5459 C640.35,68.7859 579.77,82.4359 535,111.5659 C512.25,126.3659 518.24,142.9959 496,158.5659 C461.79,182.5159 421.6597,195.5165 389.4597,203.3565 " fill="none" id="EnAttente-to-Accept&#233;" style="stroke:#181818;stroke-width:1.0;"/><polygon fill="#181818" points="383.63,204.7759,393.3208,206.5333,388.4881,203.5931,391.4283,198.7604,383.63,204.7759" style="stroke:#181818;stroke-width:1.0;"/><text fill="#000000" font-family="sans-serif" font-size="13" lengthAdjust="spacing" textLength="28" x="613" y="124.6328">post</text><text fill="#000000" font-family="sans-serif" font-size="13" lengthAdjust="spacing" textLength="116" x="569" y="139.7656">[etat==ACCEPTE]</text><text fill="#000000" font-family="sans-serif" font-size="13" lengthAdjust="spacing" textLength="182" x="536" y="154.8984">/moderer(EtatMessage etat)</text></g><!--link EnAttente to EnDestruction--><g id="link_EnAttente_EnDestruction"><path d="M731.79,81.8359 C740.81,124.9659 754.24,216.9159 724,285.5659 C718.95,297.0259 714.6312,303.1437 705.3912,311.4537 " fill="none" id="EnAttente-to-EnDestruction" style="stroke:#181818;stroke-width:1.0;"/><polygon fill="#181818" points="700.93,315.4659,710.2966,312.4218,704.6477,312.1224,704.947,306.4735,700.93,315.4659" style="stroke:#181818;stroke-width:1.0;"/><text fill="#000000" font-family="sans-serif" font-size="13" lengthAdjust="spacing" textLength="32" x="818" y="203.1328">refus</text><text fill="#000000" font-family="sans-serif" font-size="13" lengthAdjust="spacing" textLength="108" x="780" y="218.2656">[etat==REFUSE]</text><text fill="#000000" font-family="sans-serif" font-size="13" lengthAdjust="spacing" textLength="182" x="743" y="233.3984">/moderer(EtatMessage etat)</text></g><!--link EnAttente to EnDestruction--><g id="link_EnAttente_EnDestruction"><path d="M770.57,72.3959 C846.28,100.0359 987,163.4959 935,238.5659 C891.47,301.4059 809.6009,324.3655 746.1209,333.3455 " fill="none" id="EnAttente-to-EnDestruction-1" style="stroke:#181818;stroke-width:1.0;"/><polygon fill="#181818" points="740.18,334.1859,749.6515,336.8859,745.1307,333.4856,748.531,328.9647,740.18,334.1859" style="stroke:#181818;stroke-width:1.0;"/><text fill="#000000" font-family="sans-serif" font-size="13" lengthAdjust="spacing" textLength="137" x="947" y="218.1328">supression du r&#233;seau</text></g><!--link Accept? to EnDestruction--><g id="link_Accept&#233;_EnDestruction"><path d="M367.34,238.8859 C383.09,254.5559 405.49,274.0859 429,285.5659 C487.35,314.0559 508.75,300.8659 572,315.5659 C578.48,317.0759 579.3726,317.2572 586.1026,318.9072 " fill="none" id="Accept&#233;-to-EnDestruction" style="stroke:#181818;stroke-width:1.0;"/><polygon fill="#181818" points="591.93,320.3359,584.1414,314.3079,587.0738,319.1453,582.2364,322.0778,591.93,320.3359" style="stroke:#181818;stroke-width:1.0;"/><text fill="#000000" font-family="sans-serif" font-size="13" lengthAdjust="spacing" textLength="137" x="430" y="281.6328">supression du r&#233;seau</text></g><!--link Cach? to EnDestruction--><g id="link_Cach&#233;_EnDestruction"><path d="M589.25,238.7659 C579.42,252.7459 571.67,270.4959 580,285.5659 C586.74,297.7559 592.5078,304.2526 604.1778,311.9826 " fill="none" id="Cach&#233;-to-EnDestruction" style="stroke:#181818;stroke-width:1.0;"/><polygon fill="#181818" points="609.18,315.2959,603.8856,306.9911,605.0115,312.5348,599.4678,313.6607,609.18,315.2959" style="stroke:#181818;stroke-width:1.0;"/><text fill="#000000" font-family="sans-serif" font-size="13" lengthAdjust="spacing" textLength="137" x="581" y="281.6328">supression du r&#233;seau</text></g><!--reverse link *end* to EnDestruction--><g id="link_*end*_EnDestruction"><path d="M559.14,340.5659 C572.07,340.5659 579,340.5659 591.94,340.5659 " fill="none" id="*end*-backto-EnDestruction" style="stroke:#181818;stroke-width:1.0;"/><polygon fill="#181818" points="553.14,340.5659,562.14,344.5659,558.14,340.5659,562.14,336.5659,553.14,340.5659" style="stroke:#181818;stroke-width:1.0;"/></g><!--SRC=[fLFDJi904BxtAUP6QmBUJJ0XjPma8GWdzB2qGxj9kyMTMHCVmRVmodFqnPmjM0hHgF7KpCptCp_RmPrMkLLLXP0XL2ejj45etg7PisA2S5ugmwlPVJG8Wa5ScwtEdLMiQmDfeImZ27rNw6U77j6yjJHaOAiCQG-aGK2IHKXCR9lzWNm3QDY-oZSL15kNCZeRHXtq3W_PSt26VMomldg2eTLvmSFRldpGjnfARPAckEDcBnAxclZHhDqeHvvXjR58OUI3qDJL0WcLYqO9yQpEK2OLf_5uQHq-FPfhpqKxGoALOxXYNMfg8U2YSyzJKnDcwHx5kTA4CWceG-QlJKnLIJztqKtQjH3BLTl9gzO8KeczUQ6p3Crfk3PlmqrTbwWC7CfHSAGFIzpo-IQFUXPD1Y-QzARiotRjVgDxsipN1q9v2EFn98wJ-JBnEfNVXGWbKZWE3nvqANNvTYnk7NM2YsIwUlYN7hcTd8jya3cGa_jhzVR-QyhdPdzDE4TzNaH-WWy0]--></g></svg>