<?xml version="1.0" encoding="us-ascii" standalone="no"?><svg xmlns="http://www.w3.org/2000/svg" xmlns:xlink="http://www.w3.org/1999/xlink" contentStyleType="text/css" height="633px" preserveAspectRatio="none" style="width:611px;height:633px;background:#FFFFFF;" version="1.1" viewBox="0 0 611 633" width="611px" zoomAndPan="magnify"><defs/><g><rect fill="#FFFFFF" height="496.1953" style="stroke:#181818;stroke-width:1.0;" width="10" x="187" y="112.4297"/><rect fill="#FFFFFF" height="25" style="stroke:#181818;stroke-width:1.0;" width="10" x="192" y="173.6953"/><rect fill="#FFFFFF" height="25" style="stroke:#181818;stroke-width:1.0;" width="10" x="192" y="266.9609"/><rect fill="#FFFFFF" height="25" style="stroke:#181818;stroke-width:1.0;" width="10" x="192" y="336.0938"/><rect fill="#FFFFFF" height="14" style="stroke:#181818;stroke-width:1.0;" width="10" x="440" y="421.3594"/><rect fill="#FFFFFF" height="25" style="stroke:#181818;stroke-width:1.0;" width="10" x="440" y="472.4922"/><rect fill="#FFFFFF" height="25" style="stroke:#181818;stroke-width:1.0;" width="10" x="440" y="541.625"/><rect fill="none" height="468.1953" style="stroke:#000000;stroke-width:1.5;" width="489.5" x="115.5" y="127.4297"/><rect fill="none" height="367.9297" style="stroke:#000000;stroke-width:1.5;" width="469.5" x="125.5" y="220.6953"/><rect fill="none" height="198.5313" style="stroke:#000000;stroke-width:1.5;" width="449.5" x="135.5" y="383.0938"/><line style="stroke:#181818;stroke-width:0.5;stroke-dasharray:5.0,5.0;" x1="49" x2="49" y1="81.2969" y2="626.625"/><line style="stroke:#181818;stroke-width:0.5;stroke-dasharray:5.0,5.0;" x1="191.5" x2="191.5" y1="81.2969" y2="626.625"/><line style="stroke:#181818;stroke-width:0.5;stroke-dasharray:5.0,5.0;" x1="444.5" x2="444.5" y1="81.2969" y2="626.625"/><text fill="#000000" font-family="sans-serif" font-size="14" lengthAdjust="spacing" text-decoration="underline" textLength="82" x="5" y="77.9951">u:Utilisateur</text><ellipse cx="49" cy="13.5" fill="#FFFFFF" rx="8" ry="8" style="stroke:#181818;stroke-width:0.5;"/><path d="M49,21.5 L49,48.5 M36,29.5 L62,29.5 M49,48.5 L36,63.5 M49,48.5 L62,63.5 " fill="none" style="stroke:#181818;stroke-width:0.5;"/><rect fill="#FFFFFF" height="30.2969" rx="2.5" ry="2.5" style="stroke:#181818;stroke-width:0.5;" width="93" x="145.5" y="50"/><text fill="#000000" font-family="sans-serif" font-size="14" lengthAdjust="spacing" text-decoration="underline" textLength="79" x="152.5" y="69.9951">m:MiniSocs</text><rect fill="#FFFFFF" height="30.2969" rx="2.5" ry="2.5" style="stroke:#181818;stroke-width:0.5;" width="125" x="382.5" y="50"/><text fill="#000000" font-family="sans-serif" font-size="14" lengthAdjust="spacing" text-decoration="underline" textLength="111" x="389.5" y="69.9951">rs:R&#233;seauSocial</text><rect fill="#FFFFFF" height="496.1953" style="stroke:#181818;stroke-width:1.0;" width="10" x="187" y="112.4297"/><rect fill="#FFFFFF" height="25" style="stroke:#181818;stroke-width:1.0;" width="10" x="192" y="173.6953"/><rect fill="#FFFFFF" height="25" style="stroke:#181818;stroke-width:1.0;" width="10" x="192" y="266.9609"/><rect fill="#FFFFFF" height="25" style="stroke:#181818;stroke-width:1.0;" width="10" x="192" y="336.0938"/><rect fill="#FFFFFF" height="14" style="stroke:#181818;stroke-width:1.0;" width="10" x="440" y="421.3594"/><rect fill="#FFFFFF" height="25" style="stroke:#181818;stroke-width:1.0;" width="10" x="440" y="472.4922"/><rect fill="#FFFFFF" height="25" style="stroke:#181818;stroke-width:1.0;" width="10" x="440" y="541.625"/><polygon fill="#181818" points="175,108.4297,185,112.4297,175,116.4297,179,112.4297" style="stroke:#181818;stroke-width:1.0;"/><line style="stroke:#181818;stroke-width:1.0;" x1="49" x2="181" y1="112.4297" y2="112.4297"/><text fill="#000000" font-family="sans-serif" font-size="13" lengthAdjust="spacing" textLength="119" x="56" y="107.3638">creerReseau(nom)</text><path d="M115.5,127.4297 L185.5,127.4297 L185.5,134.5625 L175.5,144.5625 L115.5,144.5625 L115.5,127.4297 " fill="#EEEEEE" style="stroke:#000000;stroke-width:1.5;"/><rect fill="none" height="468.1953" style="stroke:#000000;stroke-width:1.5;" width="489.5" x="115.5" y="127.4297"/><text fill="#000000" font-family="sans-serif" font-size="13" font-weight="bold" lengthAdjust="spacing" textLength="25" x="130.5" y="140.4966">opt</text><text fill="#000000" font-family="sans-serif" font-size="11" font-weight="bold" lengthAdjust="spacing" textLength="197" x="200.5" y="139.6401">[u.pseudo non null &#8743; non vide]</text><line style="stroke:#181818;stroke-width:1.0;" x1="197" x2="244" y1="160.6953" y2="160.6953"/><line style="stroke:#181818;stroke-width:1.0;" x1="244" x2="244" y1="160.6953" y2="173.6953"/><line style="stroke:#181818;stroke-width:1.0;" x1="203" x2="244" y1="173.6953" y2="173.6953"/><polygon fill="#181818" points="213,169.6953,203,173.6953,213,177.6953,209,173.6953" style="stroke:#181818;stroke-width:1.0;"/><text fill="#000000" font-family="sans-serif" font-size="13" lengthAdjust="spacing" textLength="229" x="209" y="155.6294">user=chercherUtilisateur(u.pseudo)</text><line style="stroke:#181818;stroke-width:1.0;stroke-dasharray:2.0,2.0;" x1="202" x2="244" y1="197.6953" y2="197.6953"/><line style="stroke:#181818;stroke-width:1.0;stroke-dasharray:2.0,2.0;" x1="244" x2="244" y1="197.6953" y2="210.6953"/><line style="stroke:#181818;stroke-width:1.0;stroke-dasharray:2.0,2.0;" x1="197" x2="244" y1="210.6953" y2="210.6953"/><polygon fill="#181818" points="207,206.6953,197,210.6953,207,214.6953,203,210.6953" style="stroke:#181818;stroke-width:1.0;"/><path d="M125.5,220.6953 L195.5,220.6953 L195.5,227.8281 L185.5,237.8281 L125.5,237.8281 L125.5,220.6953 " fill="#EEEEEE" style="stroke:#000000;stroke-width:1.5;"/><rect fill="none" height="367.9297" style="stroke:#000000;stroke-width:1.5;" width="469.5" x="125.5" y="220.6953"/><text fill="#000000" font-family="sans-serif" font-size="13" font-weight="bold" lengthAdjust="spacing" textLength="25" x="140.5" y="233.7622">opt</text><text fill="#000000" font-family="sans-serif" font-size="11" font-weight="bold" lengthAdjust="spacing" textLength="276" x="210.5" y="232.9058">[(nom non null &#8743; non vide) &#8743; (user != null)]</text><line style="stroke:#181818;stroke-width:1.0;" x1="197" x2="244" y1="253.9609" y2="253.9609"/><line style="stroke:#181818;stroke-width:1.0;" x1="244" x2="244" y1="253.9609" y2="266.9609"/><line style="stroke:#181818;stroke-width:1.0;" x1="203" x2="244" y1="266.9609" y2="266.9609"/><polygon fill="#181818" points="213,262.9609,203,266.9609,213,270.9609,209,266.9609" style="stroke:#181818;stroke-width:1.0;"/><text fill="#000000" font-family="sans-serif" font-size="13" lengthAdjust="spacing" textLength="209" x="209" y="248.895">ec=checkEtatCompte(u.pseudo)</text><line style="stroke:#181818;stroke-width:1.0;stroke-dasharray:2.0,2.0;" x1="202" x2="244" y1="290.9609" y2="290.9609"/><line style="stroke:#181818;stroke-width:1.0;stroke-dasharray:2.0,2.0;" x1="244" x2="244" y1="290.9609" y2="303.9609"/><line style="stroke:#181818;stroke-width:1.0;stroke-dasharray:2.0,2.0;" x1="197" x2="244" y1="303.9609" y2="303.9609"/><polygon fill="#181818" points="207,299.9609,197,303.9609,207,307.9609,203,303.9609" style="stroke:#181818;stroke-width:1.0;"/><line style="stroke:#181818;stroke-width:1.0;" x1="197" x2="244" y1="323.0938" y2="323.0938"/><line style="stroke:#181818;stroke-width:1.0;" x1="244" x2="244" y1="323.0938" y2="336.0938"/><line style="stroke:#181818;stroke-width:1.0;" x1="203" x2="244" y1="336.0938" y2="336.0938"/><polygon fill="#181818" points="213,332.0938,203,336.0938,213,340.0938,209,336.0938" style="stroke:#181818;stroke-width:1.0;"/><text fill="#000000" font-family="sans-serif" font-size="13" lengthAdjust="spacing" textLength="158" x="209" y="318.0278">r=chercherReseau(nom)</text><line style="stroke:#181818;stroke-width:1.0;stroke-dasharray:2.0,2.0;" x1="202" x2="244" y1="360.0938" y2="360.0938"/><line style="stroke:#181818;stroke-width:1.0;stroke-dasharray:2.0,2.0;" x1="244" x2="244" y1="360.0938" y2="373.0938"/><line style="stroke:#181818;stroke-width:1.0;stroke-dasharray:2.0,2.0;" x1="197" x2="244" y1="373.0938" y2="373.0938"/><polygon fill="#181818" points="207,369.0938,197,373.0938,207,377.0938,203,373.0938" style="stroke:#181818;stroke-width:1.0;"/><path d="M135.5,383.0938 L205.5,383.0938 L205.5,390.2266 L195.5,400.2266 L135.5,400.2266 L135.5,383.0938 " fill="#EEEEEE" style="stroke:#000000;stroke-width:1.5;"/><rect fill="none" height="198.5313" style="stroke:#000000;stroke-width:1.5;" width="449.5" x="135.5" y="383.0938"/><text fill="#000000" font-family="sans-serif" font-size="13" font-weight="bold" lengthAdjust="spacing" textLength="25" x="150.5" y="396.1606">opt</text><text fill="#000000" font-family="sans-serif" font-size="11" font-weight="bold" lengthAdjust="spacing" textLength="180" x="220.5" y="395.3042">[(r == null) &#8743; (ec == ACTIF)]</text><polygon fill="#181818" points="428,417.3594,438,421.3594,428,425.3594,432,421.3594" style="stroke:#181818;stroke-width:1.0;"/><line style="stroke:#181818;stroke-width:1.0;" x1="197" x2="434" y1="421.3594" y2="421.3594"/><text fill="#000000" font-family="sans-serif" font-size="13" lengthAdjust="spacing" textLength="127" x="204" y="416.2935">createReseau(nom)</text><polygon fill="#181818" points="208,431.3594,198,435.3594,208,439.3594,204,435.3594" style="stroke:#181818;stroke-width:1.0;"/><line style="stroke:#181818;stroke-width:1.0;stroke-dasharray:2.0,2.0;" x1="202" x2="444" y1="435.3594" y2="435.3594"/><line style="stroke:#181818;stroke-width:1.0;" x1="445" x2="492" y1="459.4922" y2="459.4922"/><line style="stroke:#181818;stroke-width:1.0;" x1="492" x2="492" y1="459.4922" y2="472.4922"/><line style="stroke:#181818;stroke-width:1.0;" x1="451" x2="492" y1="472.4922" y2="472.4922"/><polygon fill="#181818" points="461,468.4922,451,472.4922,461,476.4922,457,472.4922" style="stroke:#181818;stroke-width:1.0;"/><text fill="#000000" font-family="sans-serif" font-size="13" lengthAdjust="spacing" textLength="116" x="457" y="454.4263">ajouterMembre(u)</text><line style="stroke:#181818;stroke-width:1.0;stroke-dasharray:2.0,2.0;" x1="450" x2="492" y1="496.4922" y2="496.4922"/><line style="stroke:#181818;stroke-width:1.0;stroke-dasharray:2.0,2.0;" x1="492" x2="492" y1="496.4922" y2="509.4922"/><line style="stroke:#181818;stroke-width:1.0;stroke-dasharray:2.0,2.0;" x1="445" x2="492" y1="509.4922" y2="509.4922"/><polygon fill="#181818" points="455,505.4922,445,509.4922,455,513.4922,451,509.4922" style="stroke:#181818;stroke-width:1.0;"/><line style="stroke:#181818;stroke-width:1.0;" x1="445" x2="492" y1="528.625" y2="528.625"/><line style="stroke:#181818;stroke-width:1.0;" x1="492" x2="492" y1="528.625" y2="541.625"/><line style="stroke:#181818;stroke-width:1.0;" x1="451" x2="492" y1="541.625" y2="541.625"/><polygon fill="#181818" points="461,537.625,451,541.625,461,545.625,457,541.625" style="stroke:#181818;stroke-width:1.0;"/><text fill="#000000" font-family="sans-serif" font-size="13" lengthAdjust="spacing" textLength="112" x="457" y="523.5591">setModerateur(u)</text><line style="stroke:#181818;stroke-width:1.0;stroke-dasharray:2.0,2.0;" x1="450" x2="492" y1="565.625" y2="565.625"/><line style="stroke:#181818;stroke-width:1.0;stroke-dasharray:2.0,2.0;" x1="492" x2="492" y1="565.625" y2="578.625"/><line style="stroke:#181818;stroke-width:1.0;stroke-dasharray:2.0,2.0;" x1="445" x2="492" y1="578.625" y2="578.625"/><polygon fill="#181818" points="455,574.625,445,578.625,455,582.625,451,578.625" style="stroke:#181818;stroke-width:1.0;"/><polygon fill="#181818" points="60,604.625,50,608.625,60,612.625,56,608.625" style="stroke:#181818;stroke-width:1.0;"/><line style="stroke:#181818;stroke-width:1.0;stroke-dasharray:2.0,2.0;" x1="54" x2="191" y1="608.625" y2="608.625"/><!--SRC=[TP9DRjim48NtEiKq6qd8pm4Ck43gf42160YI1bqQ4sfYCHP9XKCQEKAEqLsXS-WcFKc7icAhhRCGXA6-UM_UKFcLnhL7OmWg0kwxbqXM4HIt3ThmiBmfyopB5yu-wNNq6BIpe6hqWK3QsbeBdsUrbkOdvyAZUyruessBeWbCExLRuRNIhIX-GRLPUnTjjN2Dy_2Zre6Ej5oguFnnECkl-aurE4vJ4GEgGD4pK1ZAzk37K5Hzzzp_17hL78OJtCeB6Zp4JI4nESB9QXLd3q4tcZ5fhbOdW0mncsWcoCoMskfxftWapB-4vzbTtp5X54fZCtAU9S3zVi-u9GMDp6o86TV4PqEbVDyDyJXTopJFcOHK5p9lXFFFOE3q56Q24_axIcQ5TQRCN1iWNhHCiN9WPKisDWtyVlir55kvhinC-YEJdwkQV7ecwOjtZJBp5AAtWt2oE2vQ3bMHvE3JVFXU_cL4AjcepNN0i72c3VI_nPG_J3LDDvt5mtmqsddBEkNWSl7zszVHMlwBzoL9g2Cw0ammV7Ona5-IUVGotGSKKrYwYloufZr5jje_kwC_]--></g></svg>