<?xml version="1.0" encoding="us-ascii" standalone="no"?><svg xmlns="http://www.w3.org/2000/svg" xmlns:xlink="http://www.w3.org/1999/xlink" contentStyleType="text/css" height="407px" preserveAspectRatio="none" style="width:646px;height:407px;background:#FFFFFF;" version="1.1" viewBox="0 0 646 407" width="646px" zoomAndPan="magnify"><defs/><g><rect fill="#FFFFFF" height="269.8281" style="stroke:#181818;stroke-width:1.0;" width="10" x="268.5" y="112.4297"/><rect fill="#FFFFFF" height="25" style="stroke:#181818;stroke-width:1.0;" width="10" x="273.5" y="173.6953"/><rect fill="#FFFFFF" height="25" style="stroke:#181818;stroke-width:1.0;" width="10" x="273.5" y="242.8281"/><rect fill="#FFFFFF" height="16.1641" style="stroke:#181818;stroke-width:1.0;" width="10" x="567.5" y="338.0938"/><rect fill="none" height="241.8281" style="stroke:#000000;stroke-width:1.5;" width="433.5" x="207" y="127.4297"/><rect fill="none" height="72.4297" style="stroke:#000000;stroke-width:1.5;" width="413.5" x="217" y="289.8281"/><line style="stroke:#181818;stroke-width:0.5;stroke-dasharray:5.0,5.0;" x1="75" x2="75" y1="81.2969" y2="400.2578"/><line style="stroke:#181818;stroke-width:0.5;stroke-dasharray:5.0,5.0;" x1="273" x2="273" y1="81.2969" y2="400.2578"/><line style="stroke:#181818;stroke-width:0.5;stroke-dasharray:5.0,5.0;" x1="572.5" x2="572.5" y1="337.6094" y2="400.2578"/><text fill="#000000" font-family="sans-serif" font-size="14" lengthAdjust="spacing" text-decoration="underline" textLength="135" x="5" y="77.9951">adm:Administrateur</text><ellipse cx="75.5" cy="13.5" fill="#FFFFFF" rx="8" ry="8" style="stroke:#181818;stroke-width:0.5;"/><path d="M75.5,21.5 L75.5,48.5 M62.5,29.5 L88.5,29.5 M75.5,48.5 L62.5,63.5 M75.5,48.5 L88.5,63.5 " fill="none" style="stroke:#181818;stroke-width:0.5;"/><rect fill="#FFFFFF" height="30.2969" rx="2.5" ry="2.5" style="stroke:#181818;stroke-width:0.5;" width="93" x="227" y="50"/><text fill="#000000" font-family="sans-serif" font-size="14" lengthAdjust="spacing" text-decoration="underline" textLength="79" x="234" y="69.9951">m:MiniSocs</text><rect fill="#FFFFFF" height="269.8281" style="stroke:#181818;stroke-width:1.0;" width="10" x="268.5" y="112.4297"/><rect fill="#FFFFFF" height="25" style="stroke:#181818;stroke-width:1.0;" width="10" x="273.5" y="173.6953"/><rect fill="#FFFFFF" height="25" style="stroke:#181818;stroke-width:1.0;" width="10" x="273.5" y="242.8281"/><rect fill="#FFFFFF" height="16.1641" style="stroke:#181818;stroke-width:1.0;" width="10" x="567.5" y="338.0938"/><polygon fill="#181818" points="256.5,108.4297,266.5,112.4297,256.5,116.4297,260.5,112.4297" style="stroke:#181818;stroke-width:1.0;"/><line style="stroke:#181818;stroke-width:1.0;" x1="75.5" x2="262.5" y1="112.4297" y2="112.4297"/><text fill="#000000" font-family="sans-serif" font-size="13" lengthAdjust="spacing" textLength="174" x="82.5" y="107.3638">desactiverCompte(pseudo)</text><path d="M207,127.4297 L277,127.4297 L277,134.5625 L267,144.5625 L207,144.5625 L207,127.4297 " fill="#EEEEEE" style="stroke:#000000;stroke-width:1.5;"/><rect fill="none" height="241.8281" style="stroke:#000000;stroke-width:1.5;" width="433.5" x="207" y="127.4297"/><text fill="#000000" font-family="sans-serif" font-size="13" font-weight="bold" lengthAdjust="spacing" textLength="25" x="222" y="140.4966">opt</text><text fill="#000000" font-family="sans-serif" font-size="11" font-weight="bold" lengthAdjust="spacing" textLength="185" x="292" y="139.6401">[pseudo non null &#8743; non vide]</text><line style="stroke:#181818;stroke-width:1.0;" x1="278.5" x2="325.5" y1="160.6953" y2="160.6953"/><line style="stroke:#181818;stroke-width:1.0;" x1="325.5" x2="325.5" y1="160.6953" y2="173.6953"/><line style="stroke:#181818;stroke-width:1.0;" x1="284.5" x2="325.5" y1="173.6953" y2="173.6953"/><polygon fill="#181818" points="294.5,169.6953,284.5,173.6953,294.5,177.6953,290.5,173.6953" style="stroke:#181818;stroke-width:1.0;"/><text fill="#000000" font-family="sans-serif" font-size="13" lengthAdjust="spacing" textLength="270" x="290.5" y="155.6294">u=chercherUtilisateur(pseudo): Utilisateur</text><line style="stroke:#181818;stroke-width:1.0;stroke-dasharray:2.0,2.0;" x1="283.5" x2="325.5" y1="197.6953" y2="197.6953"/><line style="stroke:#181818;stroke-width:1.0;stroke-dasharray:2.0,2.0;" x1="325.5" x2="325.5" y1="197.6953" y2="210.6953"/><line style="stroke:#181818;stroke-width:1.0;stroke-dasharray:2.0,2.0;" x1="278.5" x2="325.5" y1="210.6953" y2="210.6953"/><polygon fill="#181818" points="288.5,206.6953,278.5,210.6953,288.5,214.6953,284.5,210.6953" style="stroke:#181818;stroke-width:1.0;"/><line style="stroke:#181818;stroke-width:1.0;" x1="278.5" x2="325.5" y1="229.8281" y2="229.8281"/><line style="stroke:#181818;stroke-width:1.0;" x1="325.5" x2="325.5" y1="229.8281" y2="242.8281"/><line style="stroke:#181818;stroke-width:1.0;" x1="284.5" x2="325.5" y1="242.8281" y2="242.8281"/><polygon fill="#181818" points="294.5,238.8281,284.5,242.8281,294.5,246.8281,290.5,242.8281" style="stroke:#181818;stroke-width:1.0;"/><text fill="#000000" font-family="sans-serif" font-size="13" lengthAdjust="spacing" textLength="275" x="290.5" y="224.7622">e=checkEtatCompte(pseudo): EtatCompte</text><line style="stroke:#181818;stroke-width:1.0;stroke-dasharray:2.0,2.0;" x1="283.5" x2="325.5" y1="266.8281" y2="266.8281"/><line style="stroke:#181818;stroke-width:1.0;stroke-dasharray:2.0,2.0;" x1="325.5" x2="325.5" y1="266.8281" y2="279.8281"/><line style="stroke:#181818;stroke-width:1.0;stroke-dasharray:2.0,2.0;" x1="278.5" x2="325.5" y1="279.8281" y2="279.8281"/><polygon fill="#181818" points="288.5,275.8281,278.5,279.8281,288.5,283.8281,284.5,279.8281" style="stroke:#181818;stroke-width:1.0;"/><path d="M217,289.8281 L287,289.8281 L287,296.9609 L277,306.9609 L217,306.9609 L217,289.8281 " fill="#EEEEEE" style="stroke:#000000;stroke-width:1.5;"/><rect fill="none" height="72.4297" style="stroke:#000000;stroke-width:1.5;" width="413.5" x="217" y="289.8281"/><text fill="#000000" font-family="sans-serif" font-size="13" font-weight="bold" lengthAdjust="spacing" textLength="25" x="232" y="302.895">opt</text><text fill="#000000" font-family="sans-serif" font-size="11" font-weight="bold" lengthAdjust="spacing" textLength="176" x="302" y="302.0386">[(u != null)^(e != BLOQU&#201;)]</text><polygon fill="#181818" points="512.5,324.0938,522.5,328.0938,512.5,332.0938,516.5,328.0938" style="stroke:#181818;stroke-width:1.0;"/><line style="stroke:#181818;stroke-width:1.0;" x1="278.5" x2="518.5" y1="328.0938" y2="328.0938"/><text fill="#000000" font-family="sans-serif" font-size="13" lengthAdjust="spacing" textLength="125" x="285.5" y="323.0278">u=&#171;block(pseudo)&#187;</text><rect fill="#FFFFFF" height="30.2969" rx="2.5" ry="2.5" style="stroke:#181818;stroke-width:0.5;" width="96" x="524.5" y="306.9609"/><text fill="#000000" font-family="sans-serif" font-size="14" lengthAdjust="spacing" text-decoration="underline" textLength="82" x="531.5" y="326.9561">u:Utilisateur</text><polygon fill="#181818" points="289.5,350.2578,279.5,354.2578,289.5,358.2578,285.5,354.2578" style="stroke:#181818;stroke-width:1.0;"/><line style="stroke:#181818;stroke-width:1.0;stroke-dasharray:2.0,2.0;" x1="283.5" x2="571.5" y1="354.2578" y2="354.2578"/><polygon fill="#181818" points="86.5,378.2578,76.5,382.2578,86.5,386.2578,82.5,382.2578" style="stroke:#181818;stroke-width:1.0;"/><line style="stroke:#181818;stroke-width:1.0;stroke-dasharray:2.0,2.0;" x1="80.5" x2="272.5" y1="382.2578" y2="382.2578"/><!--SRC=[TP5DJXj148NtVOeAcnaBmW56O0aCEn14oCekLj5JU1htpwH_B8wGt2AxoEUOc-GagMxRU42mQ4rtwRrNNzLKLmgN7eqXQ0d2iFcPo4g2-bwZZVFRcqabH3LpzaajayUed0NPeOy4REixnVfAT8hDJyx5H_SYmahP7ZaJ0ctJxbclfEevyHBbQkbTiktCQUVXUwSYVM2vaD7vZyMYkXesKkEEfgK0A2Cb7u1YUVQ7VW7gTjWy3t-0NbI8fO9h_e36mxXvICmTuMYnmDOq5wrHblNSWuCNYoD0zkMY68LdjMbkMVdWPDYf30C-lEuHroH1CvEX4719uQIyf1ys1J_ajOzvJtW8UPfvSZVuEWK3nyVGvC4OKQt9pvpf8zLzeDIwYN1zXEqTBE_39gtXtw-_vR7c7oE08muvwLnsvFEPHwLLA1FkmneO5TdeAIPltoLGJf2hwuZnBKe3XzhOd0dh15_E2zpaHqtvVdbpzsq-_9wm07WXn3tpGbCpGjZjD1LDOVXCiH_kxEnHExdQ8qsdnVgAGhOL-MmB_m40]--></g></svg>