<?xml version="1.0" encoding="us-ascii" standalone="no"?><svg xmlns="http://www.w3.org/2000/svg" xmlns:xlink="http://www.w3.org/1999/xlink" contentStyleType="text/css" height="591px" preserveAspectRatio="none" style="width:1333px;height:591px;background:#FFFFFF;" version="1.1" viewBox="0 0 1333 591" width="1333px" zoomAndPan="magnify"><defs/><g><!--class MiniSocs--><g id="elem_MiniSocs"><rect codeLine="15" fill="#FFFFFF" height="50.5938" id="MiniSocs" rx="2.5" ry="2.5" style="stroke:#000000;stroke-width:0.5;" width="106" x="489" y="30"/><text fill="#000000" font-family="sans-serif" font-size="14" lengthAdjust="spacing" textLength="61" x="511.5" y="47.9951">MiniSocs</text><line style="stroke:#000000;stroke-width:0.5;" x1="490" x2="594" y1="56.2969" y2="56.2969"/><rect fill="none" height="6" style="stroke:#C82930;stroke-width:1.0;" width="6" x="497" y="66.9453"/><text fill="#000000" font-family="sans-serif" font-size="14" lengthAdjust="spacing" textLength="80" x="509" y="73.292">nom: String</text></g><!--class Utilisateur--><g id="elem_Utilisateur"><rect codeLine="18" fill="#FFFFFF" height="115.7813" id="Utilisateur" rx="2.5" ry="2.5" style="stroke:#000000;stroke-width:0.5;" width="199" x="251.5" y="165"/><text fill="#000000" font-family="sans-serif" font-size="14" lengthAdjust="spacing" textLength="68" x="317" y="182.9951">Utilisateur</text><line style="stroke:#000000;stroke-width:0.5;" x1="252.5" x2="449.5" y1="191.2969" y2="191.2969"/><rect fill="none" height="6" style="stroke:#C82930;stroke-width:1.0;" width="6" x="259.5" y="201.9453"/><text fill="#000000" font-family="sans-serif" font-size="14" lengthAdjust="spacing" textLength="140" x="271.5" y="208.292">pseudonyme: String</text><rect fill="none" height="6" style="stroke:#C82930;stroke-width:1.0;" width="6" x="259.5" y="218.2422"/><text fill="#000000" font-family="sans-serif" font-size="14" lengthAdjust="spacing" textLength="80" x="271.5" y="224.5889">nom: String</text><rect fill="none" height="6" style="stroke:#C82930;stroke-width:1.0;" width="6" x="259.5" y="234.5391"/><text fill="#000000" font-family="sans-serif" font-size="14" lengthAdjust="spacing" textLength="103" x="271.5" y="240.8857">pr&#233;nom: String</text><rect fill="none" height="6" style="stroke:#C82930;stroke-width:1.0;" width="6" x="259.5" y="250.8359"/><text fill="#000000" font-family="sans-serif" font-size="14" lengthAdjust="spacing" textLength="100" x="271.5" y="257.1826">courriel: String</text><rect fill="none" height="6" style="stroke:#C82930;stroke-width:1.0;" width="6" x="259.5" y="267.1328"/><text fill="#000000" font-family="sans-serif" font-size="14" lengthAdjust="spacing" textLength="173" x="271.5" y="273.4795">etatCompte: &#201;tatCompte</text></g><g id="elem_GMN4"><path d="M6,210.5 L6,235.6328 A0,0 0 0 0 6,235.6328 L216,235.6328 A0,0 0 0 0 216,235.6328 L216,228.5 L251.42,223 L216,220.5 L216,220.5 L206,210.5 L6,210.5 A0,0 0 0 0 6,210.5 " fill="#FEFFDD" style="stroke:#181818;stroke-width:0.5;"/><path d="M206,210.5 L206,220.5 L216,220.5 L206,210.5 " fill="#FEFFDD" style="stroke:#181818;stroke-width:0.5;"/><text fill="#000000" font-family="sans-serif" font-size="13" lengthAdjust="spacing" textLength="189" x="12" y="227.5669">membres: Collection Membre</text></g><!--class ?tatCompte--><g id="elem_&#201;tatCompte"><rect codeLine="28" fill="#FFFFFF" height="97.1563" id="&#201;tatCompte" rx="2.5" ry="2.5" style="stroke:#000000;stroke-width:0.5;" width="90" x="1115" y="7"/><text fill="#000000" font-family="sans-serif" font-size="12" font-style="italic" lengthAdjust="spacing" textLength="49" x="1135.5" y="23.1387">&#171;enum&#187;</text><text fill="#000000" font-family="sans-serif" font-size="14" lengthAdjust="spacing" textLength="82" x="1119" y="38.9639">&#201;tatCompte</text><line style="stroke:#000000;stroke-width:0.5;" x1="1116" x2="1204" y1="47.2656" y2="47.2656"/><text fill="#000000" font-family="sans-serif" font-size="14" lengthAdjust="spacing" textLength="39" x="1121" y="64.2607">ACTIF</text><text fill="#000000" font-family="sans-serif" font-size="14" lengthAdjust="spacing" textLength="78" x="1121" y="80.5576">DESACTIVE</text><text fill="#000000" font-family="sans-serif" font-size="14" lengthAdjust="spacing" textLength="58" x="1121" y="96.8545">BLOQUE</text></g><!--class Membre--><g id="elem_Membre"><rect codeLine="33" fill="#FFFFFF" height="66.8906" id="Membre" rx="2.5" ry="2.5" style="stroke:#000000;stroke-width:0.5;" width="181" x="457.5" y="518"/><text fill="#000000" font-family="sans-serif" font-size="14" lengthAdjust="spacing" textLength="57" x="519.5" y="535.9951">Membre</text><line style="stroke:#000000;stroke-width:0.5;" x1="458.5" x2="637.5" y1="544.2969" y2="544.2969"/><rect fill="none" height="6" style="stroke:#C82930;stroke-width:1.0;" width="6" x="465.5" y="554.9453"/><text fill="#000000" font-family="sans-serif" font-size="14" lengthAdjust="spacing" textLength="155" x="477.5" y="561.292">pseudoReseau: String</text><rect fill="none" height="6" style="stroke:#C82930;stroke-width:1.0;" width="6" x="465.5" y="571.2422"/><text fill="#000000" font-family="sans-serif" font-size="14" lengthAdjust="spacing" textLength="146" x="477.5" y="577.5889">moderateur: boolean</text></g><g id="elem_GMN9"><path d="M204,524 L204,579.3984 A0,0 0 0 0 204,579.3984 L422,579.3984 A0,0 0 0 0 422,579.3984 L422,555.5 L457.12,551.5 L422,547.5 L422,534 L412,524 L204,524 A0,0 0 0 0 204,524 " fill="#FEFFDD" style="stroke:#181818;stroke-width:0.5;"/><path d="M412,524 L412,534 L422,534 L412,524 " fill="#FEFFDD" style="stroke:#181818;stroke-width:0.5;"/><text fill="#000000" font-family="sans-serif" font-size="13" lengthAdjust="spacing" textLength="175" x="210" y="541.0669">reseauSocial: ReseauSocial</text><text fill="#000000" font-family="sans-serif" font-size="13" lengthAdjust="spacing" textLength="136" x="210" y="556.1997">utilisateur: Utilisateur</text><text fill="#000000" font-family="sans-serif" font-size="13" lengthAdjust="spacing" textLength="197" x="210" y="571.3325">messages: Collection Message</text></g><!--class ReseauSocial--><g id="elem_ReseauSocial"><rect codeLine="41" fill="#FFFFFF" height="66.8906" id="ReseauSocial" rx="2.5" ry="2.5" style="stroke:#000000;stroke-width:0.5;" width="195" x="557.5" y="189.5"/><text fill="#000000" font-family="sans-serif" font-size="14" lengthAdjust="spacing" textLength="93" x="608.5" y="207.4951">ReseauSocial</text><line style="stroke:#000000;stroke-width:0.5;" x1="558.5" x2="751.5" y1="215.7969" y2="215.7969"/><rect fill="none" height="6" style="stroke:#C82930;stroke-width:1.0;" width="6" x="565.5" y="226.4453"/><text fill="#000000" font-family="sans-serif" font-size="14" lengthAdjust="spacing" textLength="80" x="577.5" y="232.792">nom: String</text><rect fill="none" height="6" style="stroke:#C82930;stroke-width:1.0;" width="6" x="565.5" y="242.7422"/><text fill="#000000" font-family="sans-serif" font-size="14" lengthAdjust="spacing" textLength="169" x="577.5" y="249.0889">etatReseau: EtatReseau</text></g><g id="elem_GMN13"><path d="M788,203 L788,219 L752.84,223 L788,227 L788,243.2656 A0,0 0 0 0 788,243.2656 L1006,243.2656 A0,0 0 0 0 1006,243.2656 L1006,213 L996,203 L788,203 A0,0 0 0 0 788,203 " fill="#FEFFDD" style="stroke:#181818;stroke-width:0.5;"/><path d="M996,203 L996,213 L1006,213 L996,203 " fill="#FEFFDD" style="stroke:#181818;stroke-width:0.5;"/><text fill="#000000" font-family="sans-serif" font-size="13" lengthAdjust="spacing" textLength="189" x="794" y="220.0669">membres: Collection Membre</text><text fill="#000000" font-family="sans-serif" font-size="13" lengthAdjust="spacing" textLength="197" x="794" y="235.1997">messages: Collection Message</text></g><!--class EtatReseau--><g id="elem_EtatReseau"><rect codeLine="48" fill="#FFFFFF" height="80.8594" id="EtatReseau" rx="2.5" ry="2.5" style="stroke:#000000;stroke-width:0.5;" width="86" x="1240" y="15"/><text fill="#000000" font-family="sans-serif" font-size="12" font-style="italic" lengthAdjust="spacing" textLength="49" x="1258.5" y="31.1387">&#171;enum&#187;</text><text fill="#000000" font-family="sans-serif" font-size="14" lengthAdjust="spacing" textLength="80" x="1243" y="46.9639">EtatReseau</text><line style="stroke:#000000;stroke-width:0.5;" x1="1241" x2="1325" y1="55.2656" y2="55.2656"/><text fill="#000000" font-family="sans-serif" font-size="14" lengthAdjust="spacing" textLength="48" x="1246" y="72.2607">FERM&#201;</text><text fill="#000000" font-family="sans-serif" font-size="14" lengthAdjust="spacing" textLength="58" x="1246" y="88.5576">OUVERT</text></g><!--class Message--><g id="elem_Message"><rect codeLine="52" fill="#FFFFFF" height="83.1875" id="Message" rx="2.5" ry="2.5" style="stroke:#000000;stroke-width:0.5;" width="215" x="703.5" y="358"/><text fill="#000000" font-family="sans-serif" font-size="14" lengthAdjust="spacing" textLength="63" x="779.5" y="375.9951">Message</text><line style="stroke:#000000;stroke-width:0.5;" x1="704.5" x2="917.5" y1="384.2969" y2="384.2969"/><rect fill="none" height="6" style="stroke:#C82930;stroke-width:1.0;" width="6" x="711.5" y="394.9453"/><text fill="#000000" font-family="sans-serif" font-size="14" lengthAdjust="spacing" textLength="101" x="723.5" y="401.292">idMessage: int</text><rect fill="none" height="6" style="stroke:#C82930;stroke-width:1.0;" width="6" x="711.5" y="411.2422"/><text fill="#000000" font-family="sans-serif" font-size="14" lengthAdjust="spacing" textLength="111" x="723.5" y="417.5889">contenu : String</text><rect fill="none" height="6" style="stroke:#C82930;stroke-width:1.0;" width="6" x="711.5" y="427.5391"/><text fill="#000000" font-family="sans-serif" font-size="14" lengthAdjust="spacing" textLength="189" x="723.5" y="433.8857">etatMessage: EtatMessage</text></g><!--class EtatMessage--><g id="elem_EtatMessage"><rect codeLine="57" fill="#FFFFFF" height="113.4531" id="EtatMessage" rx="2.5" ry="2.5" style="stroke:#000000;stroke-width:0.5;" width="96" x="1112" y="166.5"/><text fill="#000000" font-family="sans-serif" font-size="12" font-style="italic" lengthAdjust="spacing" textLength="49" x="1135.5" y="182.6387">&#171;enum&#187;</text><text fill="#000000" font-family="sans-serif" font-size="14" lengthAdjust="spacing" textLength="90" x="1115" y="198.4639">EtatMessage</text><line style="stroke:#000000;stroke-width:0.5;" x1="1113" x2="1207" y1="206.7656" y2="206.7656"/><text fill="#000000" font-family="sans-serif" font-size="14" lengthAdjust="spacing" textLength="65" x="1118" y="223.7607">ACCEPTE</text><text fill="#000000" font-family="sans-serif" font-size="14" lengthAdjust="spacing" textLength="55" x="1118" y="240.0576">REFUSE</text><text fill="#000000" font-family="sans-serif" font-size="14" lengthAdjust="spacing" textLength="64" x="1118" y="256.3545">ATTENTE</text><text fill="#000000" font-family="sans-serif" font-size="14" lengthAdjust="spacing" textLength="48" x="1118" y="272.6514">CACHE</text></g><!--link MiniSocs to Utilisateur--><g id="link_MiniSocs_Utilisateur"><path codeLine="65" d="M504.3394,89.1364 C478.9394,111.1364 454.4744,132.3407 421.5744,160.8507 " fill="none" id="MiniSocs-Utilisateur" style="stroke:#000000;stroke-width:1.0;"/><polygon fill="#000000" points="513.41,81.28,506.2559,82.1847,504.3394,89.1364,511.4935,88.2318,513.41,81.28" style="stroke:#000000;stroke-width:1.0;"/><polygon fill="#000000" points="417.04,164.78,426.4611,161.9089,420.8186,161.5056,421.222,155.8631,417.04,164.78" style="stroke:#000000;stroke-width:1.0;"/><text fill="#000000" font-family="sans-serif" font-size="13" lengthAdjust="spacing" textLength="7" x="417.6621" y="153.8587">*</text></g><!--link MiniSocs to Membre--><g id="link_MiniSocs_Membre"><path codeLine="66" d="M541.1527,93.057 C540.6627,115.047 540.27,136.18 540,165 C539.52,216.55 539.24,229.45 540,281 C541.27,366.42 544.563,461.0143 546.483,511.7343 " fill="none" id="MiniSocs-Membre" style="stroke:#000000;stroke-width:1.0;"/><polygon fill="#000000" points="541.42,81.06,537.2873,86.9694,541.1527,93.057,545.2853,87.1476,541.42,81.06" style="stroke:#000000;stroke-width:1.0;"/><polygon fill="#000000" points="546.71,517.73,550.3667,508.5851,546.5209,512.7336,542.3724,508.8878,546.71,517.73" style="stroke:#000000;stroke-width:1.0;"/><text fill="#000000" font-family="sans-serif" font-size="13" lengthAdjust="spacing" textLength="7" x="538.7969" y="506.9529">*</text></g><!--link MiniSocs to Message--><g id="link_MiniSocs_Message"><path codeLine="67" d="M606.9686,61.3454 C720.6186,70.8054 969.81,98.47 1023,165 C1055.2,205.27 1049.17,236.58 1023,281 C999.93,320.16 964.0649,344.7131 923.9749,362.8831 " fill="none" id="MiniSocs-Message" style="stroke:#000000;stroke-width:1.0;"/><polygon fill="#000000" points="595.01,60.35,600.6575,64.8339,606.9686,61.3454,601.3211,56.8615,595.01,60.35" style="stroke:#000000;stroke-width:1.0;"/><polygon fill="#000000" points="918.51,365.36,928.3586,365.288,923.0641,363.296,925.0561,358.0014,918.51,365.36" style="stroke:#000000;stroke-width:1.0;"/><text fill="#000000" font-family="sans-serif" font-size="13" lengthAdjust="spacing" textLength="7" x="926.6623" y="359.3669">*</text></g><!--link MiniSocs to ReseauSocial--><g id="link_MiniSocs_ReseauSocial"><path codeLine="68" d="M565.6873,91.1898 C585.3273,119.9498 607.6362,152.6352 629.3262,184.3952 " fill="none" id="MiniSocs-ReseauSocial" style="stroke:#000000;stroke-width:1.0;"/><polygon fill="#000000" points="558.92,81.28,559.0004,88.4907,565.6873,91.1898,565.6069,83.9791,558.92,81.28" style="stroke:#000000;stroke-width:1.0;"/><polygon fill="#000000" points="632.71,189.35,630.9375,179.662,629.8902,185.221,624.3311,184.1737,632.71,189.35" style="stroke:#000000;stroke-width:1.0;"/><text fill="#000000" font-family="sans-serif" font-size="13" lengthAdjust="spacing" textLength="7" x="620.6326" y="178.3393">*</text></g><!--link Utilisateur to Membre--><g id="link_Utilisateur_Membre"><path codeLine="69" d="M370.94,281.15 C392.16,337.19 429.37,423.39 478,488 C486.03,498.67 496.1,508.92 506.08,517.92 " fill="none" id="Utilisateur-Membre" style="stroke:#000000;stroke-width:1.0;"/><text fill="#000000" font-family="sans-serif" font-size="13" lengthAdjust="spacing" textLength="8" x="364.7831" y="300.828">1</text><text fill="#000000" font-family="sans-serif" font-size="13" lengthAdjust="spacing" textLength="7" x="490.1379" y="506.9231">*</text></g><!--link ReseauSocial to Membre--><g id="link_ReseauSocial_Membre"><path codeLine="70" d="M643.88,256.73 C634.71,283.84 621.39,323.38 610,358 C591.57,414.03 570.63,479.43 558.41,517.76 " fill="none" id="ReseauSocial-Membre" style="stroke:#000000;stroke-width:1.0;"/><polygon fill="#000000" points="616.5559,394.8146,610.9482,402.4961,616.5343,404.3252,616.5559,394.8146" style="stroke:#000000;stroke-width:1.0;"/><text fill="#000000" font-family="sans-serif" font-size="13" lengthAdjust="spacing" textLength="61" x="624" y="404.0669">fait partie</text><text fill="#000000" font-family="sans-serif" font-size="13" lengthAdjust="spacing" textLength="8" x="633.0923" y="276.421">1</text><text fill="#000000" font-family="sans-serif" font-size="13" lengthAdjust="spacing" textLength="7" x="552.7272" y="506.9886">*</text></g><!--reverse link Message to Membre--><g id="link_Message_Membre"><path codeLine="71" d="M734.6181,444.0626 C692.3281,468.1826 644.62,495.39 605.08,517.95 " fill="none" id="Message-backto-Membre" style="stroke:#000000;stroke-width:1.0;"/><polygon fill="#000000" points="739.83,441.09,730.0305,442.0743,735.4868,443.5672,733.9939,449.0235,739.83,441.09" style="stroke:#000000;stroke-width:1.0;"/><polygon fill="#000000" points="697.3432,477.0891,688.0302,479.0177,690.9424,484.1234,697.3432,477.0891" style="stroke:#000000;stroke-width:1.0;"/><text fill="#000000" font-family="sans-serif" font-size="13" lengthAdjust="spacing" textLength="48" x="702" y="484.0669">a post&#233;</text><text fill="#000000" font-family="sans-serif" font-size="13" lengthAdjust="spacing" textLength="7" x="720.4628" y="461.2829">*</text><text fill="#000000" font-family="sans-serif" font-size="13" lengthAdjust="spacing" textLength="8" x="607.5301" y="506.959">1</text></g><!--link ReseauSocial to Message--><g id="link_ReseauSocial_Message"><path codeLine="72" d="M692.3387,265.7654 C717.9387,294.3954 743.1712,322.6268 770.6512,353.3668 " fill="none" id="ReseauSocial-Message" style="stroke:#000000;stroke-width:1.0;"/><polygon fill="#000000" points="684.34,256.82,685.3575,263.9589,692.3387,265.7654,691.3212,258.6265,684.34,256.82" style="stroke:#000000;stroke-width:1.0;"/><polygon fill="#000000" points="774.65,357.84,771.6339,348.4643,771.3177,354.1123,765.6696,353.7961,774.65,357.84" style="stroke:#000000;stroke-width:1.0;"/><polygon fill="#000000" points="755.3324,323.294,751.4951,314.592,747.113,318.5094,755.3324,323.294" style="stroke:#000000;stroke-width:1.0;"/><text fill="#000000" font-family="sans-serif" font-size="13" lengthAdjust="spacing" textLength="52" x="761" y="324.0669">contient</text><text fill="#000000" font-family="sans-serif" font-size="13" lengthAdjust="spacing" textLength="7" x="761.2989" y="347.0677">*</text></g><!--SRC=[XLH1Rjim4Bph5GjVr0PnWLmDmu2Yo6Y1k4bbExdaGajhYOX4kYI58YZwW3p5x_37kgHaXR9Tz2HoEHpEp98AxpWh5AjhX1mXgvZMgE7JOyM4MI_kFuT14CPIR7dHA6Qu592LJ1a4shGh-Sy6mw3aj1NhdNc36aqfSzsMCgwo2WFzoiMEqHajFVmE06vPzbeesOWybfLKy5noWrIFb9A_sj9jHHWBbIf7vTV-M4sjqciux4LJ7_QjE9gZoRwGwFQe1HTyARFsp348MKzWQHGN1P6qaBNX5TVCOACwr4vZaqlnLcCFFjtiO8gEFgbbib6AOpKeec4cbXGFyHtU-ucr8IGbMU7MWDpwIYOKPBrHg2T0nYlCNF8BLmi29CS-4qodjZIREGDHlFesf-zTihJ3fyHcUF_mOvtqdbkYWTqKDR9ceBkMb7idPoDbXKoSQMwP9g3STegQCpAVUhCNqVY-F9CleaQjMN7cqXM3OmzziWjzF2PyD93qurwiuaNfrAO3bV-E-7_AN0C-3XhcFq_InU6T1W_hfoHTUQ6xtPq5ddVp2N1XkiiZ3F70cRKUcNnCYBPNSMG-kGPnyhYopK-J-Nff1z5gbNntfJYAloRk7KLQspW6ZwT_DLVZyGn6LoE_QnTMktjvQQ7LUhxYToBmd-3ePWJZiKyxwF_PCgKrXItZ1kWNOpYTrOL1aAb5tWoG37PIcyD-o7egcA0prmwEr9imQc23Md9n3Op-QveuI6c5belRv0JM10o3lm00]--></g></svg>