<?xml version="1.0" encoding="us-ascii" standalone="no"?><svg xmlns="http://www.w3.org/2000/svg" xmlns:xlink="http://www.w3.org/1999/xlink" contentStyleType="text/css" height="911px" preserveAspectRatio="none" style="width:1098px;height:911px;background:#FFFFFF;" version="1.1" viewBox="0 0 1098 911" width="1098px" zoomAndPan="magnify"><defs/><g><rect fill="#FFFFFF" height="14" style="stroke:#181818;stroke-width:1.0;" width="10" x="153.5" y="663.1875"/><rect fill="#FFFFFF" height="774.2891" style="stroke:#181818;stroke-width:1.0;" width="10" x="431" y="112.4297"/><rect fill="#FFFFFF" height="25" style="stroke:#181818;stroke-width:1.0;" width="10" x="436" y="173.6953"/><rect fill="#FFFFFF" height="25" style="stroke:#181818;stroke-width:1.0;" width="10" x="436" y="266.9609"/><rect fill="#FFFFFF" height="25" style="stroke:#181818;stroke-width:1.0;" width="10" x="436" y="336.0938"/><rect fill="#FFFFFF" height="25" style="stroke:#181818;stroke-width:1.0;" width="10" x="436" y="429.3594"/><rect fill="#FFFFFF" height="25" style="stroke:#181818;stroke-width:1.0;" width="10" x="436" y="522.625"/><rect fill="#FFFFFF" height="14" style="stroke:#181818;stroke-width:1.0;" width="10" x="843" y="706.3203"/><rect fill="#FFFFFF" height="14" style="stroke:#181818;stroke-width:1.0;" width="10" x="843" y="823.7188"/><rect fill="#FFFFFF" height="16.1641" style="stroke:#181818;stroke-width:1.0;" width="10" x="971.5" y="617.8906"/><rect fill="#FFFFFF" height="14" style="stroke:#181818;stroke-width:1.0;" width="10" x="971.5" y="773.5859"/><rect fill="none" height="746.2891" style="stroke:#000000;stroke-width:1.5;" width="1039.5" x="53" y="127.4297"/><rect fill="none" height="646.0234" style="stroke:#000000;stroke-width:1.5;" width="1019.5" x="63" y="220.6953"/><rect fill="none" height="476.625" style="stroke:#000000;stroke-width:1.5;" width="999.5" x="73" y="383.0938"/><rect fill="none" height="376.3594" style="stroke:#000000;stroke-width:1.5;" width="979.5" x="83" y="476.3594"/><rect fill="none" height="276.0938" style="stroke:#000000;stroke-width:1.5;" width="959.5" x="93" y="569.625"/><rect fill="none" height="60.2656" style="stroke:#000000;stroke-width:1.5;" width="663" x="379.5" y="735.3203"/><line style="stroke:#181818;stroke-width:0.5;stroke-dasharray:5.0,5.0;" x1="49" x2="49" y1="81.2969" y2="904.7188"/><line style="stroke:#181818;stroke-width:0.5;stroke-dasharray:5.0,5.0;" x1="158" x2="158" y1="81.2969" y2="904.7188"/><line style="stroke:#181818;stroke-width:0.5;stroke-dasharray:5.0,5.0;" x1="435.5" x2="435.5" y1="81.2969" y2="904.7188"/><line style="stroke:#181818;stroke-width:0.5;stroke-dasharray:5.0,5.0;" x1="847.5" x2="847.5" y1="81.2969" y2="904.7188"/><line style="stroke:#181818;stroke-width:0.5;stroke-dasharray:5.0,5.0;" x1="976.5" x2="976.5" y1="617.4063" y2="904.7188"/><text fill="#000000" font-family="sans-serif" font-size="14" lengthAdjust="spacing" text-decoration="underline" textLength="82" x="5" y="77.9951">u:Utilisateur</text><ellipse cx="49" cy="13.5" fill="#FFFFFF" rx="8" ry="8" style="stroke:#181818;stroke-width:0.5;"/><path d="M49,21.5 L49,48.5 M36,29.5 L62,29.5 M49,48.5 L36,63.5 M49,48.5 L62,63.5 " fill="none" style="stroke:#181818;stroke-width:0.5;"/><rect fill="#FFFFFF" height="30.2969" rx="2.5" ry="2.5" style="stroke:#181818;stroke-width:0.5;" width="111" x="103" y="50"/><text fill="#000000" font-family="sans-serif" font-size="14" lengthAdjust="spacing" text-decoration="underline" textLength="97" x="110" y="69.9951">mem:Membre</text><rect fill="#FFFFFF" height="30.2969" rx="2.5" ry="2.5" style="stroke:#181818;stroke-width:0.5;" width="93" x="389.5" y="50"/><text fill="#000000" font-family="sans-serif" font-size="14" lengthAdjust="spacing" text-decoration="underline" textLength="79" x="396.5" y="69.9951">m:MiniSocs</text><rect fill="#FFFFFF" height="30.2969" rx="2.5" ry="2.5" style="stroke:#181818;stroke-width:0.5;" width="125" x="785.5" y="50"/><text fill="#000000" font-family="sans-serif" font-size="14" lengthAdjust="spacing" text-decoration="underline" textLength="111" x="792.5" y="69.9951">rs:R&#233;seauSocial</text><rect fill="#FFFFFF" height="14" style="stroke:#181818;stroke-width:1.0;" width="10" x="153.5" y="663.1875"/><rect fill="#FFFFFF" height="774.2891" style="stroke:#181818;stroke-width:1.0;" width="10" x="431" y="112.4297"/><rect fill="#FFFFFF" height="25" style="stroke:#181818;stroke-width:1.0;" width="10" x="436" y="173.6953"/><rect fill="#FFFFFF" height="25" style="stroke:#181818;stroke-width:1.0;" width="10" x="436" y="266.9609"/><rect fill="#FFFFFF" height="25" style="stroke:#181818;stroke-width:1.0;" width="10" x="436" y="336.0938"/><rect fill="#FFFFFF" height="25" style="stroke:#181818;stroke-width:1.0;" width="10" x="436" y="429.3594"/><rect fill="#FFFFFF" height="25" style="stroke:#181818;stroke-width:1.0;" width="10" x="436" y="522.625"/><rect fill="#FFFFFF" height="14" style="stroke:#181818;stroke-width:1.0;" width="10" x="843" y="706.3203"/><rect fill="#FFFFFF" height="14" style="stroke:#181818;stroke-width:1.0;" width="10" x="843" y="823.7188"/><rect fill="#FFFFFF" height="16.1641" style="stroke:#181818;stroke-width:1.0;" width="10" x="971.5" y="617.8906"/><rect fill="#FFFFFF" height="14" style="stroke:#181818;stroke-width:1.0;" width="10" x="971.5" y="773.5859"/><polygon fill="#181818" points="419,108.4297,429,112.4297,419,116.4297,423,112.4297" style="stroke:#181818;stroke-width:1.0;"/><line style="stroke:#181818;stroke-width:1.0;" x1="49" x2="425" y1="112.4297" y2="112.4297"/><text fill="#000000" font-family="sans-serif" font-size="13" lengthAdjust="spacing" textLength="363" x="56" y="107.3638">posterMessage(u.pseudo, nomReseau, contenu, instant)</text><path d="M53,127.4297 L123,127.4297 L123,134.5625 L113,144.5625 L53,144.5625 L53,127.4297 " fill="#EEEEEE" style="stroke:#000000;stroke-width:1.5;"/><rect fill="none" height="746.2891" style="stroke:#000000;stroke-width:1.5;" width="1039.5" x="53" y="127.4297"/><text fill="#000000" font-family="sans-serif" font-size="13" font-weight="bold" lengthAdjust="spacing" textLength="25" x="68" y="140.4966">opt</text><text fill="#000000" font-family="sans-serif" font-size="11" font-weight="bold" lengthAdjust="spacing" textLength="392" x="138" y="139.6401">[contenu, u.pseudo, nomReseau, instant non null &#8743; non vide]</text><line style="stroke:#181818;stroke-width:1.0;" x1="441" x2="488" y1="160.6953" y2="160.6953"/><line style="stroke:#181818;stroke-width:1.0;" x1="488" x2="488" y1="160.6953" y2="173.6953"/><line style="stroke:#181818;stroke-width:1.0;" x1="447" x2="488" y1="173.6953" y2="173.6953"/><polygon fill="#181818" points="457,169.6953,447,173.6953,457,177.6953,453,173.6953" style="stroke:#181818;stroke-width:1.0;"/><text fill="#000000" font-family="sans-serif" font-size="13" lengthAdjust="spacing" textLength="203" x="453" y="155.6294">user=utilisateurs.get(u.pseudo)</text><line style="stroke:#181818;stroke-width:1.0;stroke-dasharray:2.0,2.0;" x1="446" x2="488" y1="197.6953" y2="197.6953"/><line style="stroke:#181818;stroke-width:1.0;stroke-dasharray:2.0,2.0;" x1="488" x2="488" y1="197.6953" y2="210.6953"/><line style="stroke:#181818;stroke-width:1.0;stroke-dasharray:2.0,2.0;" x1="441" x2="488" y1="210.6953" y2="210.6953"/><polygon fill="#181818" points="451,206.6953,441,210.6953,451,214.6953,447,210.6953" style="stroke:#181818;stroke-width:1.0;"/><path d="M63,220.6953 L133,220.6953 L133,227.8281 L123,237.8281 L63,237.8281 L63,220.6953 " fill="#EEEEEE" style="stroke:#000000;stroke-width:1.5;"/><rect fill="none" height="646.0234" style="stroke:#000000;stroke-width:1.5;" width="1019.5" x="63" y="220.6953"/><text fill="#000000" font-family="sans-serif" font-size="13" font-weight="bold" lengthAdjust="spacing" textLength="25" x="78" y="233.7622">opt</text><text fill="#000000" font-family="sans-serif" font-size="11" font-weight="bold" lengthAdjust="spacing" textLength="84" x="148" y="232.9058">[user != null]</text><line style="stroke:#181818;stroke-width:1.0;" x1="441" x2="488" y1="253.9609" y2="253.9609"/><line style="stroke:#181818;stroke-width:1.0;" x1="488" x2="488" y1="253.9609" y2="266.9609"/><line style="stroke:#181818;stroke-width:1.0;" x1="447" x2="488" y1="266.9609" y2="266.9609"/><polygon fill="#181818" points="457,262.9609,447,266.9609,457,270.9609,453,266.9609" style="stroke:#181818;stroke-width:1.0;"/><text fill="#000000" font-family="sans-serif" font-size="13" lengthAdjust="spacing" textLength="166" x="453" y="248.895">ec=user.getEtatCompte()</text><line style="stroke:#181818;stroke-width:1.0;stroke-dasharray:2.0,2.0;" x1="446" x2="488" y1="290.9609" y2="290.9609"/><line style="stroke:#181818;stroke-width:1.0;stroke-dasharray:2.0,2.0;" x1="488" x2="488" y1="290.9609" y2="303.9609"/><line style="stroke:#181818;stroke-width:1.0;stroke-dasharray:2.0,2.0;" x1="441" x2="488" y1="303.9609" y2="303.9609"/><polygon fill="#181818" points="451,299.9609,441,303.9609,451,307.9609,447,303.9609" style="stroke:#181818;stroke-width:1.0;"/><line style="stroke:#181818;stroke-width:1.0;" x1="441" x2="488" y1="323.0938" y2="323.0938"/><line style="stroke:#181818;stroke-width:1.0;" x1="488" x2="488" y1="323.0938" y2="336.0938"/><line style="stroke:#181818;stroke-width:1.0;" x1="447" x2="488" y1="336.0938" y2="336.0938"/><polygon fill="#181818" points="457,332.0938,447,336.0938,457,340.0938,453,336.0938" style="stroke:#181818;stroke-width:1.0;"/><text fill="#000000" font-family="sans-serif" font-size="13" lengthAdjust="spacing" textLength="178" x="453" y="318.0278">r=reseaux.get(nomReseau)</text><line style="stroke:#181818;stroke-width:1.0;stroke-dasharray:2.0,2.0;" x1="446" x2="488" y1="360.0938" y2="360.0938"/><line style="stroke:#181818;stroke-width:1.0;stroke-dasharray:2.0,2.0;" x1="488" x2="488" y1="360.0938" y2="373.0938"/><line style="stroke:#181818;stroke-width:1.0;stroke-dasharray:2.0,2.0;" x1="441" x2="488" y1="373.0938" y2="373.0938"/><polygon fill="#181818" points="451,369.0938,441,373.0938,451,377.0938,447,373.0938" style="stroke:#181818;stroke-width:1.0;"/><path d="M73,383.0938 L143,383.0938 L143,390.2266 L133,400.2266 L73,400.2266 L73,383.0938 " fill="#EEEEEE" style="stroke:#000000;stroke-width:1.5;"/><rect fill="none" height="476.625" style="stroke:#000000;stroke-width:1.5;" width="999.5" x="73" y="383.0938"/><text fill="#000000" font-family="sans-serif" font-size="13" font-weight="bold" lengthAdjust="spacing" textLength="25" x="88" y="396.1606">opt</text><text fill="#000000" font-family="sans-serif" font-size="11" font-weight="bold" lengthAdjust="spacing" textLength="176" x="158" y="395.3042">[(r != null) &#8743; (ec == ACTIF)]</text><line style="stroke:#181818;stroke-width:1.0;" x1="441" x2="488" y1="416.3594" y2="416.3594"/><line style="stroke:#181818;stroke-width:1.0;" x1="488" x2="488" y1="416.3594" y2="429.3594"/><line style="stroke:#181818;stroke-width:1.0;" x1="447" x2="488" y1="429.3594" y2="429.3594"/><polygon fill="#181818" points="457,425.3594,447,429.3594,457,433.3594,453,429.3594" style="stroke:#181818;stroke-width:1.0;"/><text fill="#000000" font-family="sans-serif" font-size="13" lengthAdjust="spacing" textLength="137" x="453" y="411.2935">er=r.getEtatReseau()</text><line style="stroke:#181818;stroke-width:1.0;stroke-dasharray:2.0,2.0;" x1="446" x2="488" y1="453.3594" y2="453.3594"/><line style="stroke:#181818;stroke-width:1.0;stroke-dasharray:2.0,2.0;" x1="488" x2="488" y1="453.3594" y2="466.3594"/><line style="stroke:#181818;stroke-width:1.0;stroke-dasharray:2.0,2.0;" x1="441" x2="488" y1="466.3594" y2="466.3594"/><polygon fill="#181818" points="451,462.3594,441,466.3594,451,470.3594,447,466.3594" style="stroke:#181818;stroke-width:1.0;"/><path d="M83,476.3594 L153,476.3594 L153,483.4922 L143,493.4922 L83,493.4922 L83,476.3594 " fill="#EEEEEE" style="stroke:#000000;stroke-width:1.5;"/><rect fill="none" height="376.3594" style="stroke:#000000;stroke-width:1.5;" width="979.5" x="83" y="476.3594"/><text fill="#000000" font-family="sans-serif" font-size="13" font-weight="bold" lengthAdjust="spacing" textLength="25" x="98" y="489.4263">opt</text><text fill="#000000" font-family="sans-serif" font-size="11" font-weight="bold" lengthAdjust="spacing" textLength="100" x="168" y="488.5698">[er == OUVERT]</text><line style="stroke:#181818;stroke-width:1.0;" x1="441" x2="488" y1="509.625" y2="509.625"/><line style="stroke:#181818;stroke-width:1.0;" x1="488" x2="488" y1="509.625" y2="522.625"/><line style="stroke:#181818;stroke-width:1.0;" x1="447" x2="488" y1="522.625" y2="522.625"/><polygon fill="#181818" points="457,518.625,447,522.625,457,526.625,453,522.625" style="stroke:#181818;stroke-width:1.0;"/><text fill="#000000" font-family="sans-serif" font-size="13" lengthAdjust="spacing" textLength="290" x="453" y="504.5591">member=user.getMembres.get(nomReseau)</text><line style="stroke:#181818;stroke-width:1.0;stroke-dasharray:2.0,2.0;" x1="446" x2="488" y1="546.625" y2="546.625"/><line style="stroke:#181818;stroke-width:1.0;stroke-dasharray:2.0,2.0;" x1="488" x2="488" y1="546.625" y2="559.625"/><line style="stroke:#181818;stroke-width:1.0;stroke-dasharray:2.0,2.0;" x1="441" x2="488" y1="559.625" y2="559.625"/><polygon fill="#181818" points="451,555.625,441,559.625,451,563.625,447,559.625" style="stroke:#181818;stroke-width:1.0;"/><path d="M93,569.625 L163,569.625 L163,576.7578 L153,586.7578 L93,586.7578 L93,569.625 " fill="#EEEEEE" style="stroke:#000000;stroke-width:1.5;"/><rect fill="none" height="276.0938" style="stroke:#000000;stroke-width:1.5;" width="959.5" x="93" y="569.625"/><text fill="#000000" font-family="sans-serif" font-size="13" font-weight="bold" lengthAdjust="spacing" textLength="25" x="108" y="582.6919">opt</text><text fill="#000000" font-family="sans-serif" font-size="11" font-weight="bold" lengthAdjust="spacing" textLength="107" x="178" y="581.8354">[member != null]</text><polygon fill="#181818" points="908.5,603.8906,918.5,607.8906,908.5,611.8906,912.5,607.8906" style="stroke:#181818;stroke-width:1.0;"/><line style="stroke:#181818;stroke-width:1.0;" x1="441" x2="914.5" y1="607.8906" y2="607.8906"/><text fill="#000000" font-family="sans-serif" font-size="13" lengthAdjust="spacing" textLength="267" x="448" y="602.8247">new Message(contenu, u.pseudo, instant)</text><rect fill="#FFFFFF" height="30.2969" rx="2.5" ry="2.5" style="stroke:#181818;stroke-width:0.5;" width="112" x="920.5" y="586.7578"/><text fill="#000000" font-family="sans-serif" font-size="14" lengthAdjust="spacing" text-decoration="underline" textLength="98" x="927.5" y="606.7529">msg:Message</text><polygon fill="#181818" points="452,630.0547,442,634.0547,452,638.0547,448,634.0547" style="stroke:#181818;stroke-width:1.0;"/><line style="stroke:#181818;stroke-width:1.0;stroke-dasharray:2.0,2.0;" x1="446" x2="975.5" y1="634.0547" y2="634.0547"/><polygon fill="#181818" points="174.5,659.1875,164.5,663.1875,174.5,667.1875,170.5,663.1875" style="stroke:#181818;stroke-width:1.0;"/><line style="stroke:#181818;stroke-width:1.0;" x1="168.5" x2="430" y1="663.1875" y2="663.1875"/><text fill="#000000" font-family="sans-serif" font-size="13" lengthAdjust="spacing" textLength="199" x="180.5" y="658.1216">member.ajouterMessage(msg)</text><polygon fill="#181818" points="419,673.1875,429,677.1875,419,681.1875,423,677.1875" style="stroke:#181818;stroke-width:1.0;"/><line style="stroke:#181818;stroke-width:1.0;stroke-dasharray:2.0,2.0;" x1="158.5" x2="425" y1="677.1875" y2="677.1875"/><polygon fill="#181818" points="831,702.3203,841,706.3203,831,710.3203,835,706.3203" style="stroke:#181818;stroke-width:1.0;"/><line style="stroke:#181818;stroke-width:1.0;" x1="441" x2="837" y1="706.3203" y2="706.3203"/><text fill="#000000" font-family="sans-serif" font-size="13" lengthAdjust="spacing" textLength="149" x="448" y="701.2544">r.ajouterMessage(msg)</text><polygon fill="#181818" points="452,716.3203,442,720.3203,452,724.3203,448,720.3203" style="stroke:#181818;stroke-width:1.0;"/><line style="stroke:#181818;stroke-width:1.0;stroke-dasharray:2.0,2.0;" x1="446" x2="847" y1="720.3203" y2="720.3203"/><path d="M379.5,735.3203 L449.5,735.3203 L449.5,742.4531 L439.5,752.4531 L379.5,752.4531 L379.5,735.3203 " fill="#EEEEEE" style="stroke:#000000;stroke-width:1.5;"/><rect fill="none" height="60.2656" style="stroke:#000000;stroke-width:1.5;" width="663" x="379.5" y="735.3203"/><text fill="#000000" font-family="sans-serif" font-size="13" font-weight="bold" lengthAdjust="spacing" textLength="25" x="394.5" y="748.3872">opt</text><text fill="#000000" font-family="sans-serif" font-size="11" font-weight="bold" lengthAdjust="spacing" textLength="224" x="464.5" y="747.5308">[member.estModerateur() == True]</text><polygon fill="#181818" points="959.5,769.5859,969.5,773.5859,959.5,777.5859,963.5,773.5859" style="stroke:#181818;stroke-width:1.0;"/><line style="stroke:#181818;stroke-width:1.0;" x1="441" x2="965.5" y1="773.5859" y2="773.5859"/><text fill="#000000" font-family="sans-serif" font-size="13" lengthAdjust="spacing" textLength="155" x="448" y="768.52">msg.moderer(ACCEPTE)</text><polygon fill="#181818" points="452,783.5859,442,787.5859,452,791.5859,448,787.5859" style="stroke:#181818;stroke-width:1.0;"/><line style="stroke:#181818;stroke-width:1.0;stroke-dasharray:2.0,2.0;" x1="446" x2="975.5" y1="787.5859" y2="787.5859"/><polygon fill="#181818" points="831,819.7188,841,823.7188,831,827.7188,835,823.7188" style="stroke:#181818;stroke-width:1.0;"/><line style="stroke:#181818;stroke-width:1.0;" x1="441" x2="837" y1="823.7188" y2="823.7188"/><text fill="#000000" font-family="sans-serif" font-size="13" lengthAdjust="spacing" textLength="383" x="448" y="818.6528">getProducteur().submit(new Publication(msg, nomReseau));</text><polygon fill="#181818" points="452,833.7188,442,837.7188,452,841.7188,448,837.7188" style="stroke:#181818;stroke-width:1.0;"/><line style="stroke:#181818;stroke-width:1.0;stroke-dasharray:2.0,2.0;" x1="446" x2="847" y1="837.7188" y2="837.7188"/><polygon fill="#181818" points="60,882.7188,50,886.7188,60,890.7188,56,886.7188" style="stroke:#181818;stroke-width:1.0;"/><line style="stroke:#181818;stroke-width:1.0;stroke-dasharray:2.0,2.0;" x1="54" x2="435" y1="886.7188" y2="886.7188"/><!--SRC=[VLD1Rjim4Bph5TjSB26k7-321LB71GhKg94uxT6WgOtCH29LBfdc2Nr6RuNVuP_q9LbIiYobHWm8bgZPcTdPrUXQYSAAgaB84UYm_-bHIuHqLGhjxfPVir6IZEP6twl2M-6KqI1tmZe4BgjtYl6ZPAUu-DuOjpNF2JqgNGlc1CA6RSLu9LNDZ9-4V2oiyJgVcz9O-B5J3i-KN4bdx7bmChe-x6KfMZSv4WZfq5i2TF6nFkaHfFbX_t3u0_YioCKJySH_K8fJkw594HJXOhFnqpkdIaKYS6us5o08VDBZ3A0Ag-aIgwt55i47_s6cIwNLhP5qnBn6M9hU7FQ4mZDAYRB5MU8cRxjPY2UKK6BG8185qZW-INlOnmWeZAxVyvY3a1FkoSFxZr31vILCeJRaq2uRYjHFQaAVcp5eKzrWi306QRH3pJTAnwYonDJkT7gsfeNoaGRjonB-_VuR7vvu9vAgPy0Jsfa_HKkJ0brd94iiEczrb0nGU3UBX0CEbBFmBbGkd71pKzKEqwws3xKp6oq-HvdEyK0dxLIow3lbe6Spk9glltpEXi9CTrHjYD814_lbmczttnStwq4XxyKszDswRdQ6tl3K57JTIukSLbmdAgRj-8xxH4MhHKMZfl4N74TyPcxTN0TvuS3gH3mOtziKvXxY-Jjh0duBUUfaWkIM9aSRXvvc8QUrzVZAETzCgW13crxDvulLUj6HeSw7qfpUofhSouPoGdvRAGwKkr_vRQba_2w2eTwkPjc7Fk7hgtqLVYy0]--></g></svg>