<?xml version="1.0" encoding="us-ascii" standalone="no"?><svg xmlns="http://www.w3.org/2000/svg" xmlns:xlink="http://www.w3.org/1999/xlink" contentStyleType="text/css" height="758px" preserveAspectRatio="none" style="width:815px;height:758px;background:#FFFFFF;" version="1.1" viewBox="0 0 815 758" width="815px" zoomAndPan="magnify"><defs/><g><rect fill="#FFFFFF" height="620.625" style="stroke:#181818;stroke-width:1.0;" width="10" x="187" y="112.4297"/><rect fill="#FFFFFF" height="25" style="stroke:#181818;stroke-width:1.0;" width="10" x="192" y="173.6953"/><rect fill="#FFFFFF" height="25" style="stroke:#181818;stroke-width:1.0;" width="10" x="192" y="266.9609"/><rect fill="#FFFFFF" height="25" style="stroke:#181818;stroke-width:1.0;" width="10" x="192" y="336.0938"/><rect fill="#FFFFFF" height="25" style="stroke:#181818;stroke-width:1.0;" width="10" x="192" y="429.3594"/><rect fill="#FFFFFF" height="154.4297" style="stroke:#181818;stroke-width:1.0;" width="10" x="602" y="500.4922"/><rect fill="#FFFFFF" height="25" style="stroke:#181818;stroke-width:1.0;" width="10" x="607" y="539.7891"/><rect fill="#FFFFFF" height="25" style="stroke:#181818;stroke-width:1.0;" width="10" x="607" y="608.9219"/><rect fill="#FFFFFF" height="14" style="stroke:#181818;stroke-width:1.0;" width="10" x="602" y="684.0547"/><rect fill="none" height="592.625" style="stroke:#000000;stroke-width:1.5;" width="693.5" x="115.5" y="127.4297"/><rect fill="none" height="492.3594" style="stroke:#000000;stroke-width:1.5;" width="673.5" x="125.5" y="220.6953"/><rect fill="none" height="322.9609" style="stroke:#000000;stroke-width:1.5;" width="653.5" x="135.5" y="383.0938"/><line style="stroke:#181818;stroke-width:0.5;stroke-dasharray:5.0,5.0;" x1="49" x2="49" y1="81.2969" y2="751.0547"/><line style="stroke:#181818;stroke-width:0.5;stroke-dasharray:5.0,5.0;" x1="191.5" x2="191.5" y1="81.2969" y2="751.0547"/><line style="stroke:#181818;stroke-width:0.5;stroke-dasharray:5.0,5.0;" x1="444.5" x2="444.5" y1="81.2969" y2="751.0547"/><line style="stroke:#181818;stroke-width:0.5;stroke-dasharray:5.0,5.0;" x1="606.5" x2="606.5" y1="500.0078" y2="751.0547"/><text fill="#000000" font-family="sans-serif" font-size="14" lengthAdjust="spacing" text-decoration="underline" textLength="82" x="5" y="77.9951">u:Utilisateur</text><ellipse cx="49" cy="13.5" fill="#FFFFFF" rx="8" ry="8" style="stroke:#181818;stroke-width:0.5;"/><path d="M49,21.5 L49,48.5 M36,29.5 L62,29.5 M49,48.5 L36,63.5 M49,48.5 L62,63.5 " fill="none" style="stroke:#181818;stroke-width:0.5;"/><rect fill="#FFFFFF" height="30.2969" rx="2.5" ry="2.5" style="stroke:#181818;stroke-width:0.5;" width="93" x="145.5" y="50"/><text fill="#000000" font-family="sans-serif" font-size="14" lengthAdjust="spacing" text-decoration="underline" textLength="79" x="152.5" y="69.9951">m:MiniSocs</text><rect fill="#FFFFFF" height="30.2969" rx="2.5" ry="2.5" style="stroke:#181818;stroke-width:0.5;" width="125" x="382.5" y="50"/><text fill="#000000" font-family="sans-serif" font-size="14" lengthAdjust="spacing" text-decoration="underline" textLength="111" x="389.5" y="69.9951">rs:R&#233;seauSocial</text><rect fill="#FFFFFF" height="620.625" style="stroke:#181818;stroke-width:1.0;" width="10" x="187" y="112.4297"/><rect fill="#FFFFFF" height="25" style="stroke:#181818;stroke-width:1.0;" width="10" x="192" y="173.6953"/><rect fill="#FFFFFF" height="25" style="stroke:#181818;stroke-width:1.0;" width="10" x="192" y="266.9609"/><rect fill="#FFFFFF" height="25" style="stroke:#181818;stroke-width:1.0;" width="10" x="192" y="336.0938"/><rect fill="#FFFFFF" height="25" style="stroke:#181818;stroke-width:1.0;" width="10" x="192" y="429.3594"/><rect fill="#FFFFFF" height="154.4297" style="stroke:#181818;stroke-width:1.0;" width="10" x="602" y="500.4922"/><rect fill="#FFFFFF" height="25" style="stroke:#181818;stroke-width:1.0;" width="10" x="607" y="539.7891"/><rect fill="#FFFFFF" height="25" style="stroke:#181818;stroke-width:1.0;" width="10" x="607" y="608.9219"/><rect fill="#FFFFFF" height="14" style="stroke:#181818;stroke-width:1.0;" width="10" x="602" y="684.0547"/><polygon fill="#181818" points="175,108.4297,185,112.4297,175,116.4297,179,112.4297" style="stroke:#181818;stroke-width:1.0;"/><line style="stroke:#181818;stroke-width:1.0;" x1="49" x2="181" y1="112.4297" y2="112.4297"/><text fill="#000000" font-family="sans-serif" font-size="13" lengthAdjust="spacing" textLength="119" x="56" y="107.3638">creerReseau(nom)</text><path d="M115.5,127.4297 L185.5,127.4297 L185.5,134.5625 L175.5,144.5625 L115.5,144.5625 L115.5,127.4297 " fill="#EEEEEE" style="stroke:#000000;stroke-width:1.5;"/><rect fill="none" height="592.625" style="stroke:#000000;stroke-width:1.5;" width="693.5" x="115.5" y="127.4297"/><text fill="#000000" font-family="sans-serif" font-size="13" font-weight="bold" lengthAdjust="spacing" textLength="25" x="130.5" y="140.4966">opt</text><text fill="#000000" font-family="sans-serif" font-size="11" font-weight="bold" lengthAdjust="spacing" textLength="197" x="200.5" y="139.6401">[u.pseudo non null &#8743; non vide]</text><line style="stroke:#181818;stroke-width:1.0;" x1="197" x2="244" y1="160.6953" y2="160.6953"/><line style="stroke:#181818;stroke-width:1.0;" x1="244" x2="244" y1="160.6953" y2="173.6953"/><line style="stroke:#181818;stroke-width:1.0;" x1="203" x2="244" y1="173.6953" y2="173.6953"/><polygon fill="#181818" points="213,169.6953,203,173.6953,213,177.6953,209,173.6953" style="stroke:#181818;stroke-width:1.0;"/><text fill="#000000" font-family="sans-serif" font-size="13" lengthAdjust="spacing" textLength="229" x="209" y="155.6294">user=chercherUtilisateur(u.pseudo)</text><line style="stroke:#181818;stroke-width:1.0;stroke-dasharray:2.0,2.0;" x1="202" x2="244" y1="197.6953" y2="197.6953"/><line style="stroke:#181818;stroke-width:1.0;stroke-dasharray:2.0,2.0;" x1="244" x2="244" y1="197.6953" y2="210.6953"/><line style="stroke:#181818;stroke-width:1.0;stroke-dasharray:2.0,2.0;" x1="197" x2="244" y1="210.6953" y2="210.6953"/><polygon fill="#181818" points="207,206.6953,197,210.6953,207,214.6953,203,210.6953" style="stroke:#181818;stroke-width:1.0;"/><path d="M125.5,220.6953 L195.5,220.6953 L195.5,227.8281 L185.5,237.8281 L125.5,237.8281 L125.5,220.6953 " fill="#EEEEEE" style="stroke:#000000;stroke-width:1.5;"/><rect fill="none" height="492.3594" style="stroke:#000000;stroke-width:1.5;" width="673.5" x="125.5" y="220.6953"/><text fill="#000000" font-family="sans-serif" font-size="13" font-weight="bold" lengthAdjust="spacing" textLength="25" x="140.5" y="233.7622">opt</text><text fill="#000000" font-family="sans-serif" font-size="11" font-weight="bold" lengthAdjust="spacing" textLength="276" x="210.5" y="232.9058">[(nom non null &#8743; non vide) &#8743; (user != null)]</text><line style="stroke:#181818;stroke-width:1.0;" x1="197" x2="244" y1="253.9609" y2="253.9609"/><line style="stroke:#181818;stroke-width:1.0;" x1="244" x2="244" y1="253.9609" y2="266.9609"/><line style="stroke:#181818;stroke-width:1.0;" x1="203" x2="244" y1="266.9609" y2="266.9609"/><polygon fill="#181818" points="213,262.9609,203,266.9609,213,270.9609,209,266.9609" style="stroke:#181818;stroke-width:1.0;"/><text fill="#000000" font-family="sans-serif" font-size="13" lengthAdjust="spacing" textLength="209" x="209" y="248.895">ec=checkEtatCompte(u.pseudo)</text><line style="stroke:#181818;stroke-width:1.0;stroke-dasharray:2.0,2.0;" x1="202" x2="244" y1="290.9609" y2="290.9609"/><line style="stroke:#181818;stroke-width:1.0;stroke-dasharray:2.0,2.0;" x1="244" x2="244" y1="290.9609" y2="303.9609"/><line style="stroke:#181818;stroke-width:1.0;stroke-dasharray:2.0,2.0;" x1="197" x2="244" y1="303.9609" y2="303.9609"/><polygon fill="#181818" points="207,299.9609,197,303.9609,207,307.9609,203,303.9609" style="stroke:#181818;stroke-width:1.0;"/><line style="stroke:#181818;stroke-width:1.0;" x1="197" x2="244" y1="323.0938" y2="323.0938"/><line style="stroke:#181818;stroke-width:1.0;" x1="244" x2="244" y1="323.0938" y2="336.0938"/><line style="stroke:#181818;stroke-width:1.0;" x1="203" x2="244" y1="336.0938" y2="336.0938"/><polygon fill="#181818" points="213,332.0938,203,336.0938,213,340.0938,209,336.0938" style="stroke:#181818;stroke-width:1.0;"/><text fill="#000000" font-family="sans-serif" font-size="13" lengthAdjust="spacing" textLength="158" x="209" y="318.0278">r=chercherReseau(nom)</text><line style="stroke:#181818;stroke-width:1.0;stroke-dasharray:2.0,2.0;" x1="202" x2="244" y1="360.0938" y2="360.0938"/><line style="stroke:#181818;stroke-width:1.0;stroke-dasharray:2.0,2.0;" x1="244" x2="244" y1="360.0938" y2="373.0938"/><line style="stroke:#181818;stroke-width:1.0;stroke-dasharray:2.0,2.0;" x1="197" x2="244" y1="373.0938" y2="373.0938"/><polygon fill="#181818" points="207,369.0938,197,373.0938,207,377.0938,203,373.0938" style="stroke:#181818;stroke-width:1.0;"/><path d="M135.5,383.0938 L205.5,383.0938 L205.5,390.2266 L195.5,400.2266 L135.5,400.2266 L135.5,383.0938 " fill="#EEEEEE" style="stroke:#000000;stroke-width:1.5;"/><rect fill="none" height="322.9609" style="stroke:#000000;stroke-width:1.5;" width="653.5" x="135.5" y="383.0938"/><text fill="#000000" font-family="sans-serif" font-size="13" font-weight="bold" lengthAdjust="spacing" textLength="25" x="150.5" y="396.1606">opt</text><text fill="#000000" font-family="sans-serif" font-size="11" font-weight="bold" lengthAdjust="spacing" textLength="180" x="220.5" y="395.3042">[(r == null) &#8743; (ec == ACTIF)]</text><line style="stroke:#181818;stroke-width:1.0;" x1="197" x2="244" y1="416.3594" y2="416.3594"/><line style="stroke:#181818;stroke-width:1.0;" x1="244" x2="244" y1="416.3594" y2="429.3594"/><line style="stroke:#181818;stroke-width:1.0;" x1="203" x2="244" y1="429.3594" y2="429.3594"/><polygon fill="#181818" points="213,425.3594,203,429.3594,213,433.3594,209,429.3594" style="stroke:#181818;stroke-width:1.0;"/><text fill="#000000" font-family="sans-serif" font-size="13" lengthAdjust="spacing" textLength="127" x="209" y="411.2935">createReseau(nom)</text><line style="stroke:#181818;stroke-width:1.0;stroke-dasharray:2.0,2.0;" x1="202" x2="244" y1="453.3594" y2="453.3594"/><line style="stroke:#181818;stroke-width:1.0;stroke-dasharray:2.0,2.0;" x1="244" x2="244" y1="453.3594" y2="466.3594"/><line style="stroke:#181818;stroke-width:1.0;stroke-dasharray:2.0,2.0;" x1="197" x2="244" y1="466.3594" y2="466.3594"/><polygon fill="#181818" points="207,462.3594,197,466.3594,207,470.3594,203,466.3594" style="stroke:#181818;stroke-width:1.0;"/><polygon fill="#181818" points="539.5,486.4922,549.5,490.4922,539.5,494.4922,543.5,490.4922" style="stroke:#181818;stroke-width:1.0;"/><line style="stroke:#181818;stroke-width:1.0;" x1="197" x2="545.5" y1="490.4922" y2="490.4922"/><text fill="#000000" font-family="sans-serif" font-size="13" lengthAdjust="spacing" textLength="136" x="204" y="485.4263">ajouterMembre(u, rs)</text><rect fill="#FFFFFF" height="30.2969" rx="2.5" ry="2.5" style="stroke:#181818;stroke-width:0.5;" width="111" x="551.5" y="469.3594"/><text fill="#000000" font-family="sans-serif" font-size="14" lengthAdjust="spacing" text-decoration="underline" textLength="97" x="558.5" y="489.3545">mem:Membre</text><line style="stroke:#181818;stroke-width:1.0;" x1="612" x2="659" y1="526.7891" y2="526.7891"/><line style="stroke:#181818;stroke-width:1.0;" x1="659" x2="659" y1="526.7891" y2="539.7891"/><line style="stroke:#181818;stroke-width:1.0;" x1="618" x2="659" y1="539.7891" y2="539.7891"/><polygon fill="#181818" points="628,535.7891,618,539.7891,628,543.7891,624,539.7891" style="stroke:#181818;stroke-width:1.0;"/><text fill="#000000" font-family="sans-serif" font-size="13" lengthAdjust="spacing" textLength="153" x="624" y="521.7231">setPseudoRS(u.pseudo)</text><line style="stroke:#181818;stroke-width:1.0;stroke-dasharray:2.0,2.0;" x1="617" x2="659" y1="563.7891" y2="563.7891"/><line style="stroke:#181818;stroke-width:1.0;stroke-dasharray:2.0,2.0;" x1="659" x2="659" y1="563.7891" y2="576.7891"/><line style="stroke:#181818;stroke-width:1.0;stroke-dasharray:2.0,2.0;" x1="612" x2="659" y1="576.7891" y2="576.7891"/><polygon fill="#181818" points="622,572.7891,612,576.7891,622,580.7891,618,576.7891" style="stroke:#181818;stroke-width:1.0;"/><line style="stroke:#181818;stroke-width:1.0;" x1="612" x2="659" y1="595.9219" y2="595.9219"/><line style="stroke:#181818;stroke-width:1.0;" x1="659" x2="659" y1="595.9219" y2="608.9219"/><line style="stroke:#181818;stroke-width:1.0;" x1="618" x2="659" y1="608.9219" y2="608.9219"/><polygon fill="#181818" points="628,604.9219,618,608.9219,628,612.9219,624,608.9219" style="stroke:#181818;stroke-width:1.0;"/><text fill="#000000" font-family="sans-serif" font-size="13" lengthAdjust="spacing" textLength="59" x="624" y="590.856">initType()</text><line style="stroke:#181818;stroke-width:1.0;stroke-dasharray:2.0,2.0;" x1="617" x2="659" y1="632.9219" y2="632.9219"/><line style="stroke:#181818;stroke-width:1.0;stroke-dasharray:2.0,2.0;" x1="659" x2="659" y1="632.9219" y2="645.9219"/><line style="stroke:#181818;stroke-width:1.0;stroke-dasharray:2.0,2.0;" x1="612" x2="659" y1="645.9219" y2="645.9219"/><polygon fill="#181818" points="622,641.9219,612,645.9219,622,649.9219,618,645.9219" style="stroke:#181818;stroke-width:1.0;"/><polygon fill="#181818" points="208,650.9219,198,654.9219,208,658.9219,204,654.9219" style="stroke:#181818;stroke-width:1.0;"/><line style="stroke:#181818;stroke-width:1.0;stroke-dasharray:2.0,2.0;" x1="202" x2="606" y1="654.9219" y2="654.9219"/><polygon fill="#181818" points="590,680.0547,600,684.0547,590,688.0547,594,684.0547" style="stroke:#181818;stroke-width:1.0;"/><line style="stroke:#181818;stroke-width:1.0;" x1="445" x2="596" y1="684.0547" y2="684.0547"/><text fill="#000000" font-family="sans-serif" font-size="13" lengthAdjust="spacing" textLength="138" x="452" y="678.9888">setModerateur(mem)</text><polygon fill="#181818" points="456,694.0547,446,698.0547,456,702.0547,452,698.0547" style="stroke:#181818;stroke-width:1.0;"/><line style="stroke:#181818;stroke-width:1.0;stroke-dasharray:2.0,2.0;" x1="450" x2="606" y1="698.0547" y2="698.0547"/><polygon fill="#181818" points="60,729.0547,50,733.0547,60,737.0547,56,733.0547" style="stroke:#181818;stroke-width:1.0;"/><line style="stroke:#181818;stroke-width:1.0;stroke-dasharray:2.0,2.0;" x1="54" x2="191" y1="733.0547" y2="733.0547"/><!--SRC=[XL9BRjim4Dtp5DDi92Dk3c301H8d1GhKW64dwD9Wg8d5M2HLVepq1Zr6TuNEePlq91rIigsaAh8WY9bvV6_U3BDRoNUMAuLG8BYs-HvG2uHyLN7j7vPV9nbZsSBe9xaBbdjfD8YIMuz0p-fI4ZvZfQJ7JyRuH_F2t5xgcXCdEEpOLeINGjR4UCF5VcTDqCN2LCR2jr9w77boBRonus2MtRQDg7ZVJO4EkF0Oh0FqAQpFUWxoecsUsr-0BzBvbE47kg3YPxlH98-ASB7TXjc3bvLqF79kjnV07GGsu8mWDLjABJT6k1wXtYAicwtRnY4FX9Aywd7MaO7DQSxyW08gwbcXSto7RfeYOTicsNDnBKC_Kp8fhgZV01y_WOBBIvWH7D6kCOhbsgW9CxM7S5Kx38K1JLFIeQhWpy_VAJZGkfWQl0yExLoKQECPkC-F71DcqGUh4t6K62UTf2YFTF1XdkgJLq8eeepOttdk5qRL7l-L6EBFNGtT3NknCE-5EcqQ9oMk5_TVFh-MfXcHfn6Qhf2MYhHML8yMZqj5rN7yfzWnysSJFDgkc8SfxPYaiHC_WXpwLVAvtenOVWEch-NlVzIOdn3znUYJlzSEAIrDWRRR8ALF90nrSJfTxYy0]--></g></svg>