<?xml version="1.0" encoding="us-ascii" standalone="no"?><svg xmlns="http://www.w3.org/2000/svg" xmlns:xlink="http://www.w3.org/1999/xlink" contentStyleType="text/css" height="1287px" preserveAspectRatio="none" style="width:843px;height:1287px;background:#FFFFFF;" version="1.1" viewBox="0 0 843 1287" width="843px" zoomAndPan="magnify"><defs/><g><!--cluster MiniSocs--><g id="cluster_MiniSocs"><rect fill="none" height="1274" rx="2.5" ry="2.5" style="stroke:#181818;stroke-width:1.0;" width="302" x="535" y="7"/><text fill="#000000" font-family="sans-serif" font-size="14" font-weight="bold" lengthAdjust="spacing" textLength="69" x="651.5" y="21.9951">MiniSocs</text></g><g id="elem_bloquer un compte utilisateur"><ellipse cx="685.9616" cy="142.9923" fill="#FFFFFF" rx="117.9616" ry="25.9923" style="stroke:#000000;stroke-width:0.5;"/><text fill="#000000" font-family="sans-serif" font-size="14" lengthAdjust="spacing" textLength="203" x="584.4616" y="145.839">bloquer un compte utilisateur</text></g><g id="elem_ajouter un utilisateur"><ellipse cx="686.1728" cy="224.8346" fill="#FFFFFF" rx="89.6728" ry="20.3346" style="stroke:#000000;stroke-width:0.5;"/><text fill="#000000" font-family="sans-serif" font-size="14" lengthAdjust="spacing" textLength="141" x="615.6728" y="227.6812">ajouter un utilisateur</text></g><g id="elem_retirer un utilisateur"><ellipse cx="686.0998" cy="62.22" fill="#FFFFFF" rx="86.5998" ry="19.72" style="stroke:#000000;stroke-width:0.5;"/><text fill="#000000" font-family="sans-serif" font-size="14" lengthAdjust="spacing" textLength="134" x="619.0998" y="65.0666">retirer un utilisateur</text></g><g id="elem_ajouter un membre"><ellipse cx="686.228" cy="300.0456" fill="#FFFFFF" rx="85.728" ry="19.5456" style="stroke:#000000;stroke-width:0.5;"/><text fill="#000000" font-family="sans-serif" font-size="14" lengthAdjust="spacing" textLength="132" x="620.228" y="302.8923">ajouter un membre</text></g><g id="elem_retirer un membre"><ellipse cx="686.212" cy="373.9424" fill="#FFFFFF" rx="82.712" ry="18.9424" style="stroke:#000000;stroke-width:0.5;"/><text fill="#000000" font-family="sans-serif" font-size="14" lengthAdjust="spacing" textLength="125" x="623.0208" y="377.0215">retirer un membre</text></g><g id="elem_promouvoir un membre"><ellipse cx="686.0673" cy="450.2135" fill="#FFFFFF" rx="99.0673" ry="22.2135" style="stroke:#000000;stroke-width:0.5;"/><text fill="#000000" font-family="sans-serif" font-size="14" lengthAdjust="spacing" textLength="162" x="605.0673" y="453.0601">promouvoir un membre</text></g><g id="elem_d&#233;stituer un mod&#233;rateur"><ellipse cx="686.2481" cy="529.8496" fill="#FFFFFF" rx="102.2481" ry="22.8496" style="stroke:#000000;stroke-width:0.5;"/><text fill="#000000" font-family="sans-serif" font-size="14" lengthAdjust="spacing" textLength="169" x="601.7481" y="532.6963">d&#233;stituer un mod&#233;rateur</text></g><g id="elem_lister les membres"><ellipse cx="686.0656" cy="607.1131" fill="#FFFFFF" rx="83.5656" ry="19.1131" style="stroke:#000000;stroke-width:0.5;"/><text fill="#000000" font-family="sans-serif" font-size="14" lengthAdjust="spacing" textLength="127" x="622.1623" y="610.0974">lister les membres</text></g><g id="elem_fermer son r&#233;seau social"><ellipse cx="686.2042" cy="683.9408" fill="#FFFFFF" rx="102.7042" ry="22.9408" style="stroke:#000000;stroke-width:0.5;"/><text fill="#000000" font-family="sans-serif" font-size="14" lengthAdjust="spacing" textLength="170" x="601.2042" y="686.7875">fermer son r&#233;seau social</text></g><g id="elem_mod&#233;rer un message"><ellipse cx="686.2229" cy="763.0446" fill="#FFFFFF" rx="93.2229" ry="21.0446" style="stroke:#000000;stroke-width:0.5;"/><text fill="#000000" font-family="sans-serif" font-size="14" lengthAdjust="spacing" textLength="149" x="611.7229" y="765.8913">mod&#233;rer un message</text></g><g id="elem_d&#233;sactiver son compte"><ellipse cx="685.7599" cy="1086.852" fill="#FFFFFF" rx="97.2599" ry="21.852" style="stroke:#000000;stroke-width:0.5;"/><text fill="#000000" font-family="sans-serif" font-size="14" lengthAdjust="spacing" textLength="158" x="606.7599" y="1089.6987">d&#233;sactiver son compte</text></g><g id="elem_r&#233;activer son compte"><ellipse cx="685.8872" cy="1164.7774" fill="#FFFFFF" rx="91.8872" ry="20.7774" style="stroke:#000000;stroke-width:0.5;"/><text fill="#000000" font-family="sans-serif" font-size="14" lengthAdjust="spacing" textLength="146" x="612.8872" y="1167.6241">r&#233;activer son compte</text></g><g id="elem_poster un message"><ellipse cx="686.0368" cy="838.8074" fill="#FFFFFF" rx="87.0368" ry="19.8074" style="stroke:#000000;stroke-width:0.5;"/><text fill="#000000" font-family="sans-serif" font-size="14" lengthAdjust="spacing" textLength="135" x="618.5368" y="841.654">poster un message</text></g><g id="elem_cacher son message"><ellipse cx="685.9431" cy="915.1886" fill="#FFFFFF" rx="91.4431" ry="20.6886" style="stroke:#000000;stroke-width:0.5;"/><text fill="#000000" font-family="sans-serif" font-size="14" lengthAdjust="spacing" textLength="145" x="613.4431" y="918.0353">cacher son message</text></g><g id="elem_d&#233;finir son pseudo pour un r&#233;seau"><ellipse cx="685.9476" cy="999.8895" fill="#FFFFFF" rx="134.9476" ry="29.3895" style="stroke:#000000;stroke-width:0.5;"/><text fill="#000000" font-family="sans-serif" font-size="14" lengthAdjust="spacing" textLength="239" x="566.4476" y="1002.7362">d&#233;finir son pseudo pour un r&#233;seau</text></g><g id="elem_cr&#233;er un r&#233;seau social"><ellipse cx="686.0118" cy="1242.9024" fill="#FFFFFF" rx="95.0118" ry="21.4024" style="stroke:#000000;stroke-width:0.5;"/><text fill="#000000" font-family="sans-serif" font-size="14" lengthAdjust="spacing" textLength="153" x="609.5118" y="1245.749">cr&#233;er un r&#233;seau social</text></g><!--entity Administrateur--><g id="elem_Administrateur"><ellipse cx="441" cy="191.5" fill="#F1F1F1" rx="8" ry="8" style="stroke:#181818;stroke-width:0.5;"/><path d="M441,199.5 L441,226.5 M428,207.5 L454,207.5 M441,226.5 L428,241.5 M441,226.5 L454,241.5 " fill="none" style="stroke:#181818;stroke-width:0.5;"/><text fill="#000000" font-family="sans-serif" font-size="14" lengthAdjust="spacing" textLength="100" x="391" y="255.9951">Administrateur</text></g><!--entity Moderateur--><g id="elem_Moderateur"><ellipse cx="291" cy="500.5" fill="#F1F1F1" rx="8" ry="8" style="stroke:#181818;stroke-width:0.5;"/><path d="M291,508.5 L291,535.5 M278,516.5 L304,516.5 M291,535.5 L278,550.5 M291,535.5 L304,550.5 " fill="none" style="stroke:#181818;stroke-width:0.5;"/><text fill="#000000" font-family="sans-serif" font-size="14" lengthAdjust="spacing" textLength="80" x="251" y="564.9951">Moderateur</text></g><!--entity Membre--><g id="elem_Membre"><ellipse cx="162.5" cy="885.5" fill="#F1F1F1" rx="8" ry="8" style="stroke:#181818;stroke-width:0.5;"/><path d="M162.5,893.5 L162.5,920.5 M149.5,901.5 L175.5,901.5 M162.5,920.5 L149.5,935.5 M162.5,920.5 L175.5,935.5 " fill="none" style="stroke:#181818;stroke-width:0.5;"/><text fill="#000000" font-family="sans-serif" font-size="14" lengthAdjust="spacing" textLength="57" x="134" y="949.9951">Membre</text></g><!--entity Utilisateur--><g id="elem_Utilisateur"><ellipse cx="40" cy="1098.5" fill="#F1F1F1" rx="8" ry="8" style="stroke:#181818;stroke-width:0.5;"/><path d="M40,1106.5 L40,1133.5 M27,1114.5 L53,1114.5 M40,1133.5 L27,1148.5 M40,1133.5 L53,1148.5 " fill="none" style="stroke:#181818;stroke-width:0.5;"/><text fill="#000000" font-family="sans-serif" font-size="14" lengthAdjust="spacing" textLength="68" x="6" y="1162.9951">Utilisateur</text></g><!--reverse link Moderateur to Administrateur--><g id="link_Moderateur_Administrateur"><path d="M309.6815,474.7202 C325.9715,425.4602 351.89,355 391,286 C396.16,276.9 402.43,267.63 408.74,259.05 " fill="none" id="Moderateur-backto-Administrateur" style="stroke:#000000;stroke-width:1.0;"/><polygon fill="none" points="304.03,491.81,315.3781,476.604,303.9849,472.8364,304.03,491.81" style="stroke:#000000;stroke-width:1.0;"/></g><!--reverse link Membre to Moderateur--><g id="link_Membre_Moderateur"><path d="M181.7091,859.5795 C205.9591,785.7795 253.25,641.84 277.46,568.17 " fill="none" id="Membre-backto-Moderateur" style="stroke:#000000;stroke-width:1.0;"/><polygon fill="none" points="176.09,876.68,187.4092,861.4525,176.0089,857.7065,176.09,876.68" style="stroke:#000000;stroke-width:1.0;"/></g><!--reverse link Utilisateur to Membre--><g id="link_Utilisateur_Membre"><path d="M71.4045,1074.2541 C93.2745,1035.6041 118.07,991.77 139.94,953.11 " fill="none" id="Utilisateur-backto-Membre" style="stroke:#000000;stroke-width:1.0;"/><polygon fill="none" points="62.54,1089.92,76.6265,1077.2089,66.1825,1071.2993,62.54,1089.92" style="stroke:#000000;stroke-width:1.0;"/></g><!--link Administrateur to bloquer un compte utilisateur--><g id="link_Administrateur_bloquer un compte utilisateur"><path d="M491.1,200.3 C502.78,195.68 515.26,190.97 527,187 C553.16,178.15 582.19,169.69 608.14,162.6 " fill="none" id="Administrateur-bloquer un compte utilisateur" style="stroke:#000000;stroke-width:1.0;"/></g><!--link Administrateur to ajouter un utilisateur--><g id="link_Administrateur_ajouter un utilisateur"><path d="M491.17,221.81 C521.41,222.31 561.03,222.96 596.57,223.54 " fill="none" id="Administrateur-ajouter un utilisateur" style="stroke:#000000;stroke-width:1.0;"/></g><!--link Administrateur to retirer un utilisateur--><g id="link_Administrateur_retirer un utilisateur"><path d="M459.21,182.79 C473.51,155.36 496.45,119.73 527,99 C549.96,83.42 578.65,74.35 605.25,69.09 " fill="none" id="Administrateur-retirer un utilisateur" style="stroke:#000000;stroke-width:1.0;"/></g><!--link Moderateur to ajouter un membre--><g id="link_Moderateur_ajouter un membre"><path d="M321.98,491.96 C340.5,469.8 365.54,442.16 391,421 C445.64,375.59 461.34,364.12 527,337 C555.12,325.39 587.64,316.99 615.83,311.15 " fill="none" id="Moderateur-ajouter un membre" style="stroke:#000000;stroke-width:1.0;"/></g><!--link Moderateur to retirer un membre--><g id="link_Moderateur_retirer un membre"><path d="M331.23,504.04 C349.11,492.67 370.77,479.55 391,469 C449.42,438.53 464.39,430.52 527,410 C557.34,400.06 591.84,391.85 620.84,385.8 " fill="none" id="Moderateur-retirer un membre" style="stroke:#000000;stroke-width:1.0;"/></g><!--link Moderateur to promouvoir un membre--><g id="link_Moderateur_promouvoir un membre"><path d="M331.34,518.94 C349.43,514.04 371.23,508.41 391,504 C463.31,487.89 546.39,472.95 605.75,462.89 " fill="none" id="Moderateur-promouvoir un membre" style="stroke:#000000;stroke-width:1.0;"/></g><!--link Moderateur to d?stituer un mod?rateur--><g id="link_Moderateur_d&#233;stituer un mod&#233;rateur"><path d="M331.12,530 C389.46,530 501.22,530 583.6,530 " fill="none" id="Moderateur-d&#233;stituer un mod&#233;rateur" style="stroke:#000000;stroke-width:1.0;"/></g><!--link Moderateur to lister les membres--><g id="link_Moderateur_lister les membres"><path d="M331.12,537.66 C399.27,551.02 540.29,578.65 622.25,594.7 " fill="none" id="Moderateur-lister les membres" style="stroke:#000000;stroke-width:1.0;"/></g><!--link Moderateur to fermer son r?seau social--><g id="link_Moderateur_fermer son r&#233;seau social"><path d="M331.31,551.83 C377.17,576.6 455.8,616.92 527,643 C554.14,652.94 584.74,661.47 611.73,668.13 " fill="none" id="Moderateur-fermer son r&#233;seau social" style="stroke:#000000;stroke-width:1.0;"/></g><!--link Moderateur to mod?rer un message--><g id="link_Moderateur_mod&#233;rer un message"><path d="M323.62,568.24 C342.11,589.43 366.57,615.55 391,636 C446.21,682.21 460.92,695.42 527,724 C553.71,735.55 584.51,744.12 611.77,750.24 " fill="none" id="Moderateur-mod&#233;rer un message" style="stroke:#000000;stroke-width:1.0;"/></g><!--link Utilisateur to d?sactiver son compte--><g id="link_Utilisateur_d&#233;sactiver son compte"><path d="M74.41,1120.75 C92.05,1117.21 114.1,1113.24 134,1111 C292.42,1093.16 477.85,1088.37 588.14,1087.21 " fill="none" id="Utilisateur-d&#233;sactiver son compte" style="stroke:#000000;stroke-width:1.0;"/></g><!--link Utilisateur to r?activer son compte--><g id="link_Utilisateur_r&#233;activer son compte"><path d="M74.27,1129.91 C170.53,1135.44 451.7,1151.6 596.52,1159.92 " fill="none" id="Utilisateur-r&#233;activer son compte" style="stroke:#000000;stroke-width:1.0;"/></g><!--link Membre to poster un message--><g id="link_Membre_poster un message"><path d="M191.16,905.43 C208.23,899.87 230.66,893.16 251,889 C371.75,864.3 514.07,850.81 601.93,844.25 " fill="none" id="Membre-poster un message" style="stroke:#000000;stroke-width:1.0;"/></g><!--link Membre to cacher son message--><g id="link_Membre_cacher son message"><path d="M191.17,915 C265.77,915 473.54,915 594.49,915 " fill="none" id="Membre-cacher son message" style="stroke:#000000;stroke-width:1.0;"/></g><!--link Membre to d?finir son pseudo pour un r?seau--><g id="link_Membre_d&#233;finir son pseudo pour un r&#233;seau"><path d="M191.17,919.51 C262.34,931.11 454.76,962.47 577.32,982.45 " fill="none" id="Membre-d&#233;finir son pseudo pour un r&#233;seau" style="stroke:#000000;stroke-width:1.0;"/></g><!--link Utilisateur to cr?er un r?seau social--><g id="link_Utilisateur_cr&#233;er un r&#233;seau social"><path d="M74.14,1134.1 C91.89,1137.35 114.13,1141.42 134,1145 C304.44,1175.73 504.66,1211.18 610.56,1229.88 " fill="none" id="Utilisateur-cr&#233;er un r&#233;seau social" style="stroke:#000000;stroke-width:1.0;"/></g><!--SRC=[ZPB1Rjim38RlUWgY5pU7la0G56XQO3iiG86Xs5cL65kjPBgKr67O-ZxhS-J5HaVkuiGEDfyiykFFNwIgEwThrY4WM0IZ8zWg9-TTrCbH2vVtNhVfOVDbKIbLtLAxTNNcaZEDveGWvLtZNZ9MAZwxjjCY1pcYY27yL6jjdckctDfRyiJmhN49rPhO8fV8sWkYRfZf-r709EAJwjKAFkUWMxY-Xa_ahNfJokCsGI9WLpS9h6CqlJsnUxTxDruFRYr6q2PXvWZBIkbU7MviSAsBIHX93C4DYRMZ08P7nk7mC4odJnz8MFswkZgLAtKbDH8TAGoveZ_rEzs7rMq4Zn1_nBJx7MJc_NLrMqliOYFDlvA95p9sjJmsimHfTFdeIHR5a6Lx53hPNZwOMS1yaNwYd4hHVz2CILOmHnz6CD4D-mdCGIEvyr3752Y_ali7PtVlCRaqJ22Gd4jwCMN5UM_EongAO9o1jiX1e2YROT56dUNVEEtdkfT-7tU9KTTxawFdi0JvFepAStElWtXPrZbQMi_3vM7zvJgAwRZz137QD8FCoE899EwsilU2TH6p9UWexvM7CPopQYIFO_0mhpVr1m00]--></g></svg>