<?xml version="1.0" encoding="us-ascii" standalone="no"?><svg xmlns="http://www.w3.org/2000/svg" xmlns:xlink="http://www.w3.org/1999/xlink" contentStyleType="text/css" height="1593px" preserveAspectRatio="none" style="width:919px;height:1593px;background:#FFFFFF;" version="1.1" viewBox="0 0 919 1593" width="919px" zoomAndPan="magnify"><defs/><g><!--cluster MiniSocs--><g id="cluster_MiniSocs"><rect fill="none" height="1580" rx="2.5" ry="2.5" style="stroke:#181818;stroke-width:1.0;" width="378" x="535" y="7"/><text fill="#000000" font-family="sans-serif" font-size="14" font-weight="bold" lengthAdjust="spacing" textLength="69" x="689.5" y="21.9951">MiniSocs</text></g><g id="elem_bloquer un compte utilisateur"><ellipse cx="723.9616" cy="142.9923" fill="#FFFFFF" rx="117.9616" ry="25.9923" style="stroke:#000000;stroke-width:0.5;"/><text fill="#000000" font-family="sans-serif" font-size="14" lengthAdjust="spacing" textLength="203" x="622.4616" y="145.839">bloquer un compte utilisateur</text></g><g id="elem_ajouter un utilisateur"><ellipse cx="724.1728" cy="224.8346" fill="#FFFFFF" rx="89.6728" ry="20.3346" style="stroke:#000000;stroke-width:0.5;"/><text fill="#000000" font-family="sans-serif" font-size="14" lengthAdjust="spacing" textLength="141" x="653.6728" y="227.6812">ajouter un utilisateur</text></g><g id="elem_retirer un utilisateur"><ellipse cx="724.0998" cy="62.22" fill="#FFFFFF" rx="86.5998" ry="19.72" style="stroke:#000000;stroke-width:0.5;"/><text fill="#000000" font-family="sans-serif" font-size="14" lengthAdjust="spacing" textLength="134" x="657.0998" y="65.0666">retirer un utilisateur</text></g><g id="elem_ajouter un membre"><ellipse cx="724.228" cy="300.0456" fill="#FFFFFF" rx="85.728" ry="19.5456" style="stroke:#000000;stroke-width:0.5;"/><text fill="#000000" font-family="sans-serif" font-size="14" lengthAdjust="spacing" textLength="132" x="658.228" y="302.8923">ajouter un membre</text></g><g id="elem_retirer un membre"><ellipse cx="724.212" cy="373.9424" fill="#FFFFFF" rx="82.712" ry="18.9424" style="stroke:#000000;stroke-width:0.5;"/><text fill="#000000" font-family="sans-serif" font-size="14" lengthAdjust="spacing" textLength="125" x="661.0208" y="377.0215">retirer un membre</text></g><g id="elem_promouvoir un membre"><ellipse cx="724.0673" cy="450.2135" fill="#FFFFFF" rx="99.0673" ry="22.2135" style="stroke:#000000;stroke-width:0.5;"/><text fill="#000000" font-family="sans-serif" font-size="14" lengthAdjust="spacing" textLength="162" x="643.0673" y="453.0601">promouvoir un membre</text></g><g id="elem_d&#233;stituer un mod&#233;rateur"><ellipse cx="724.2481" cy="529.8496" fill="#FFFFFF" rx="102.2481" ry="22.8496" style="stroke:#000000;stroke-width:0.5;"/><text fill="#000000" font-family="sans-serif" font-size="14" lengthAdjust="spacing" textLength="169" x="639.7481" y="532.6963">d&#233;stituer un mod&#233;rateur</text></g><g id="elem_lister les membres"><ellipse cx="724.0656" cy="607.1131" fill="#FFFFFF" rx="83.5656" ry="19.1131" style="stroke:#000000;stroke-width:0.5;"/><text fill="#000000" font-family="sans-serif" font-size="14" lengthAdjust="spacing" textLength="127" x="660.1623" y="610.0974">lister les membres</text></g><g id="elem_fermer son r&#233;seau social"><ellipse cx="724.2042" cy="683.9408" fill="#FFFFFF" rx="102.7042" ry="22.9408" style="stroke:#000000;stroke-width:0.5;"/><text fill="#000000" font-family="sans-serif" font-size="14" lengthAdjust="spacing" textLength="170" x="639.2042" y="686.7875">fermer son r&#233;seau social</text></g><g id="elem_mod&#233;rer un message"><ellipse cx="724.2229" cy="763.0446" fill="#FFFFFF" rx="93.2229" ry="21.0446" style="stroke:#000000;stroke-width:0.5;"/><text fill="#000000" font-family="sans-serif" font-size="14" lengthAdjust="spacing" textLength="149" x="649.7229" y="765.8913">mod&#233;rer un message</text></g><g id="elem_notifier un message en attente de mod&#233;ration"><ellipse cx="723.9557" cy="855.9911" fill="#FFFFFF" rx="172.9557" ry="36.9911" style="stroke:#000000;stroke-width:0.5;"/><text fill="#000000" font-family="sans-serif" font-size="14" lengthAdjust="spacing" textLength="318" x="564.9557" y="858.8378">notifier un message en attente de mod&#233;ration</text></g><g id="elem_d&#233;sactiver son compte"><ellipse cx="723.7599" cy="1392.852" fill="#FFFFFF" rx="97.2599" ry="21.852" style="stroke:#000000;stroke-width:0.5;"/><text fill="#000000" font-family="sans-serif" font-size="14" lengthAdjust="spacing" textLength="158" x="644.7599" y="1395.6987">d&#233;sactiver son compte</text></g><g id="elem_r&#233;activer son compte"><ellipse cx="723.8872" cy="1470.7774" fill="#FFFFFF" rx="91.8872" ry="20.7774" style="stroke:#000000;stroke-width:0.5;"/><text fill="#000000" font-family="sans-serif" font-size="14" lengthAdjust="spacing" textLength="146" x="650.8872" y="1473.6241">r&#233;activer son compte</text></g><g id="elem_notifier un message accept&#233; sur le r&#233;seau"><ellipse cx="723.8827" cy="962.8765" fill="#FFFFFF" rx="159.8827" ry="34.3765" style="stroke:#000000;stroke-width:0.5;"/><text fill="#000000" font-family="sans-serif" font-size="14" lengthAdjust="spacing" textLength="291" x="578.3827" y="965.7232">notifier un message accept&#233; sur le r&#233;seau</text></g><g id="elem_poster un message"><ellipse cx="724.0368" cy="1052.8074" fill="#FFFFFF" rx="87.0368" ry="19.8074" style="stroke:#000000;stroke-width:0.5;"/><text fill="#000000" font-family="sans-serif" font-size="14" lengthAdjust="spacing" textLength="135" x="656.5368" y="1055.654">poster un message</text></g><g id="elem_cacher son message"><ellipse cx="723.9431" cy="1129.1886" fill="#FFFFFF" rx="91.4431" ry="20.6886" style="stroke:#000000;stroke-width:0.5;"/><text fill="#000000" font-family="sans-serif" font-size="14" lengthAdjust="spacing" textLength="145" x="651.4431" y="1132.0353">cacher son message</text></g><g id="elem_d&#233;finir son pseudo pour un r&#233;seau"><ellipse cx="723.9476" cy="1213.8895" fill="#FFFFFF" rx="134.9476" ry="29.3895" style="stroke:#000000;stroke-width:0.5;"/><text fill="#000000" font-family="sans-serif" font-size="14" lengthAdjust="spacing" textLength="239" x="604.4476" y="1216.7362">d&#233;finir son pseudo pour un r&#233;seau</text></g><g id="elem_d&#233;finir sa strat&#233;gie de notification"><ellipse cx="724.2278" cy="1306.8456" fill="#FFFFFF" rx="129.7278" ry="28.3456" style="stroke:#000000;stroke-width:0.5;"/><text fill="#000000" font-family="sans-serif" font-size="14" lengthAdjust="spacing" textLength="228" x="610.2278" y="1309.6922">d&#233;finir sa strat&#233;gie de notification</text></g><g id="elem_cr&#233;er un r&#233;seau social"><ellipse cx="724.0118" cy="1548.9024" fill="#FFFFFF" rx="95.0118" ry="21.4024" style="stroke:#000000;stroke-width:0.5;"/><text fill="#000000" font-family="sans-serif" font-size="14" lengthAdjust="spacing" textLength="153" x="647.5118" y="1551.749">cr&#233;er un r&#233;seau social</text></g><!--entity Administrateur--><g id="elem_Administrateur"><ellipse cx="441" cy="190.5" fill="#F1F1F1" rx="8" ry="8" style="stroke:#181818;stroke-width:0.5;"/><path d="M441,198.5 L441,225.5 M428,206.5 L454,206.5 M441,225.5 L428,240.5 M441,225.5 L454,240.5 " fill="none" style="stroke:#181818;stroke-width:0.5;"/><text fill="#000000" font-family="sans-serif" font-size="14" lengthAdjust="spacing" textLength="100" x="391" y="254.9951">Administrateur</text></g><!--entity Moderateur--><g id="elem_Moderateur"><ellipse cx="291" cy="539.5" fill="#F1F1F1" rx="8" ry="8" style="stroke:#181818;stroke-width:0.5;"/><path d="M291,547.5 L291,574.5 M278,555.5 L304,555.5 M291,574.5 L278,589.5 M291,574.5 L304,589.5 " fill="none" style="stroke:#181818;stroke-width:0.5;"/><text fill="#000000" font-family="sans-serif" font-size="14" lengthAdjust="spacing" textLength="80" x="251" y="603.9951">Moderateur</text></g><!--entity Membre--><g id="elem_Membre"><ellipse cx="162.5" cy="1099.5" fill="#F1F1F1" rx="8" ry="8" style="stroke:#181818;stroke-width:0.5;"/><path d="M162.5,1107.5 L162.5,1134.5 M149.5,1115.5 L175.5,1115.5 M162.5,1134.5 L149.5,1149.5 M162.5,1134.5 L175.5,1149.5 " fill="none" style="stroke:#181818;stroke-width:0.5;"/><text fill="#000000" font-family="sans-serif" font-size="14" lengthAdjust="spacing" textLength="57" x="134" y="1163.9951">Membre</text></g><!--entity Utilisateur--><g id="elem_Utilisateur"><ellipse cx="40" cy="1404.5" fill="#F1F1F1" rx="8" ry="8" style="stroke:#181818;stroke-width:0.5;"/><path d="M40,1412.5 L40,1439.5 M27,1420.5 L53,1420.5 M40,1439.5 L27,1454.5 M40,1439.5 L53,1454.5 " fill="none" style="stroke:#181818;stroke-width:0.5;"/><text fill="#000000" font-family="sans-serif" font-size="14" lengthAdjust="spacing" textLength="68" x="6" y="1468.9951">Utilisateur</text></g><!--reverse link Moderateur to Administrateur--><g id="link_Moderateur_Administrateur"><path d="M305.7816,513.262 C320.2616,457.202 346.71,367.9 391,285 C395.86,275.9 401.93,266.71 408.13,258.21 " fill="none" id="Moderateur-backto-Administrateur" style="stroke:#000000;stroke-width:1.0;"/><polygon fill="none" points="301.28,530.69,311.5909,514.7625,299.9722,511.7615,301.28,530.69" style="stroke:#000000;stroke-width:1.0;"/></g><!--reverse link Membre to Moderateur--><g id="link_Membre_Moderateur"><path d="M176.065,1073.3921 C199.135,971.2321 258.3,709.33 281.39,607.1 " fill="none" id="Membre-backto-Moderateur" style="stroke:#000000;stroke-width:1.0;"/><polygon fill="none" points="172.1,1090.95,181.9176,1074.7138,170.2123,1072.0705,172.1,1090.95" style="stroke:#000000;stroke-width:1.0;"/></g><!--reverse link Utilisateur to Membre--><g id="link_Utilisateur_Membre"><path d="M62.6326,1379.2486 C85.7826,1320.6386 123.33,1225.62 146.48,1167.01 " fill="none" id="Utilisateur-backto-Membre" style="stroke:#000000;stroke-width:1.0;"/><polygon fill="none" points="56.02,1395.99,68.213,1381.4528,57.0521,1377.0444,56.02,1395.99" style="stroke:#000000;stroke-width:1.0;"/></g><!--link Administrateur to bloquer un compte utilisateur--><g id="link_Administrateur_bloquer un compte utilisateur"><path d="M491,199.54 C502.68,195.07 515.19,190.6 527,187 C561.7,176.43 600.55,167.19 634.46,159.94 " fill="none" id="Administrateur-bloquer un compte utilisateur" style="stroke:#000000;stroke-width:1.0;"/></g><!--link Administrateur to ajouter un utilisateur--><g id="link_Administrateur_ajouter un utilisateur"><path d="M491.27,220.88 C530.78,221.58 587.24,222.58 634.54,223.43 " fill="none" id="Administrateur-ajouter un utilisateur" style="stroke:#000000;stroke-width:1.0;"/></g><!--link Administrateur to retirer un utilisateur--><g id="link_Administrateur_retirer un utilisateur"><path d="M458.88,182 C473.08,154.56 496.03,118.96 527,99 C559.6,77.99 601.19,68.28 637.67,64.01 " fill="none" id="Administrateur-retirer un utilisateur" style="stroke:#000000;stroke-width:1.0;"/></g><!--link Moderateur to ajouter un membre--><g id="link_Moderateur_ajouter un membre"><path d="M314.02,530.84 C332.26,501.24 360.12,460.29 391,430 C443.27,378.72 459.36,365.05 527,337 C564.1,321.61 607.83,312.57 644.55,307.29 " fill="none" id="Moderateur-ajouter un membre" style="stroke:#000000;stroke-width:1.0;"/></g><!--link Moderateur to retirer un membre--><g id="link_Moderateur_retirer un membre"><path d="M331.1,533.29 C348.79,517.93 370.32,500.26 391,486 C448,446.69 461.85,433.46 527,410 C565.9,395.99 611.19,387.22 648.43,381.84 " fill="none" id="Moderateur-retirer un membre" style="stroke:#000000;stroke-width:1.0;"/></g><!--link Moderateur to promouvoir un membre--><g id="link_Moderateur_promouvoir un membre"><path d="M331.46,550.31 C349.39,542.22 371.02,533.02 391,526 C475.24,496.42 575.61,475.29 643.78,462.94 " fill="none" id="Moderateur-promouvoir un membre" style="stroke:#000000;stroke-width:1.0;"/></g><!--link Moderateur to d?stituer un mod?rateur--><g id="link_Moderateur_d&#233;stituer un mod&#233;rateur"><path d="M331.45,563.34 C349.56,560.86 371.35,558.06 391,556 C469.78,547.75 559.32,540.88 625.54,536.28 " fill="none" id="Moderateur-d&#233;stituer un mod&#233;rateur" style="stroke:#000000;stroke-width:1.0;"/></g><!--link Moderateur to lister les membres--><g id="link_Moderateur_lister les membres"><path d="M331.01,572.44 C401.98,578.7 553.41,592.05 645.9,600.2 " fill="none" id="Moderateur-lister les membres" style="stroke:#000000;stroke-width:1.0;"/></g><!--link Moderateur to fermer son r?seau social--><g id="link_Moderateur_fermer son r&#233;seau social"><path d="M331.16,582.64 C377.52,598.48 457.27,624.78 527,643 C565.34,653.02 608.4,662.25 644.38,669.4 " fill="none" id="Moderateur-fermer son r&#233;seau social" style="stroke:#000000;stroke-width:1.0;"/></g><!--link Moderateur to mod?rer un message--><g id="link_Moderateur_mod&#233;rer un message"><path d="M331.46,598.82 C349.39,612.08 371.02,627.67 391,641 C449.9,680.3 461.04,698.25 527,724 C563.2,738.13 605.24,747.36 641.08,753.28 " fill="none" id="Moderateur-mod&#233;rer un message" style="stroke:#000000;stroke-width:1.0;"/></g><!--reverse link Moderateur to notifier un message en attente de mod?ration--><g id="link_Moderateur_notifier un message en attente de mod&#233;ration"><path d="M314.718,612.4771 C332.458,644.2071 357.81,683.93 391,716 C449.81,772.84 535.15,808.14 604.58,829.07 " fill="none" id="Moderateur-backto-notifier un message en attente de mod&#233;ration" style="stroke:#000000;stroke-width:1.0;"/><polygon fill="#000000" points="311.79,607.24,312.6906,617.0476,314.23,611.6042,319.6734,613.1436,311.79,607.24" style="stroke:#000000;stroke-width:1.0;"/></g><!--link Utilisateur to d?sactiver son compte--><g id="link_Utilisateur_d&#233;sactiver son compte"><path d="M74.41,1426.72 C92.04,1423.18 114.1,1419.21 134,1417 C306.66,1397.8 509.32,1393.51 626.27,1392.8 " fill="none" id="Utilisateur-d&#233;sactiver son compte" style="stroke:#000000;stroke-width:1.0;"/></g><!--link Utilisateur to r?activer son compte--><g id="link_Utilisateur_r&#233;activer son compte"><path d="M74.36,1435.81 C175.58,1441.3 481.63,1457.91 634.35,1466.19 " fill="none" id="Utilisateur-r&#233;activer son compte" style="stroke:#000000;stroke-width:1.0;"/></g><!--reverse link Membre to notifier un message accept? sur le r?seau--><g id="link_Membre_notifier un message accept&#233; sur le r&#233;seau"><path d="M195.9965,1103.3356 C212.5165,1091.1356 229.56,1080.2 251,1071 C359.26,1024.57 490.42,996.61 586.97,980.81 " fill="none" id="Membre-backto-notifier un message accept&#233; sur le r&#233;seau" style="stroke:#000000;stroke-width:1.0;"/><polygon fill="#000000" points="191.17,1106.9,200.786,1104.7711,195.1921,1103.9297,196.0335,1098.3358,191.17,1106.9" style="stroke:#000000;stroke-width:1.0;"/></g><!--link Membre to poster un message--><g id="link_Membre_poster un message"><path d="M191.15,1119.37 C208.21,1113.78 230.64,1107.07 251,1103 C385.14,1076.2 543.78,1063.13 638.74,1057.26 " fill="none" id="Membre-poster un message" style="stroke:#000000;stroke-width:1.0;"/></g><!--link Membre to cacher son message--><g id="link_Membre_cacher son message"><path d="M191.25,1129 C270.85,1129 502.55,1129 632.3,1129 " fill="none" id="Membre-cacher son message" style="stroke:#000000;stroke-width:1.0;"/></g><!--link Membre to d?finir son pseudo pour un r?seau--><g id="link_Membre_d&#233;finir son pseudo pour un r&#233;seau"><path d="M191.25,1133.22 C266.99,1144.72 480.44,1177.15 612.74,1197.25 " fill="none" id="Membre-d&#233;finir son pseudo pour un r&#233;seau" style="stroke:#000000;stroke-width:1.0;"/></g><!--link Membre to d?finir sa strat?gie de notification--><g id="link_Membre_d&#233;finir sa strat&#233;gie de notification"><path d="M191.04,1139.52 C208.25,1146.06 230.89,1154.6 251,1162 C373.31,1207 402.03,1224.05 527,1261 C560.18,1270.81 597.01,1279.91 629.71,1287.39 " fill="none" id="Membre-d&#233;finir sa strat&#233;gie de notification" style="stroke:#000000;stroke-width:1.0;"/></g><!--link Utilisateur to cr?er un r?seau social--><g id="link_Utilisateur_cr&#233;er un r&#233;seau social"><path d="M74.14,1439.73 C91.89,1442.8 114.13,1446.62 134,1450 C318,1481.29 534.44,1517.52 646.74,1536.28 " fill="none" id="Utilisateur-cr&#233;er un r&#233;seau social" style="stroke:#000000;stroke-width:1.0;"/></g><!--SRC=[ZLDBRjj03DtFAOXi52zoWS0842T0kwY10aNGDJD3ozDeXkfyKXHjxbEVmnShfP5XALBIQYMHZu-FZrHrRx4Ew1o18T0OmLGvsSP6J9OzN7vkqAU7xQTLfLHrntvdwnnAJkyn908fR_VsUwPAnIVhMnGwo964ZE2Nsg1-gWDdR-wuuG1VzpQHsd0m54faqmX4tOR0FoO1dJYygbwluMDswE7c1ZvmOzIBKWtj4YI6OEjz0cC3wKwUoBq_7dI3Wrf34L0doY72TQMmOuTRuwotCGb64aDmoo9j4Y3t66ZuU1ZSwT9d9An_NrszfYjr9JKY7J4CkS8_rplVXq4VeI68FsCw_d7YUJSk-bfY5rjf_eLrl13RrVLKp3L8eyl7XcLH0R9iZrqhsyjdCIjOBi9ld5Cf-Wzqe2GhM4AVBPZnkjw19T28xcrG6zXnVcRx3vmv7cAoQN30iNoNz6gE5UMTk4RMK0ZZ0cX7mGaeocQ2S1DcUTSMcwNkfTzfbXYndecKPzr1FIUxinCea0TCYNpgVzMJU3aAqJKwgPxaDAoSh7qU19Q5TnsNq29_6LoEytrfg3MrwNY0c3l7Jbwi9jNzeZYcgG4pY4Qz7qICJPg2PBQTN5w1jP6oOMWvzyodvkzL8VH7UppKjdUp3AMBdMyuf8MOnXtEgtvHVm40]--></g></svg>