<?xml version="1.0" encoding="us-ascii" standalone="no"?><svg xmlns="http://www.w3.org/2000/svg" xmlns:xlink="http://www.w3.org/1999/xlink" contentStyleType="text/css" height="407px" preserveAspectRatio="none" style="width:850px;height:407px;background:#FFFFFF;" version="1.1" viewBox="0 0 850 407" width="850px" zoomAndPan="magnify"><defs/><g><rect fill="#FFFFFF" height="269.8281" style="stroke:#181818;stroke-width:1.0;" width="10" x="411.5" y="112.4297"/><rect fill="#FFFFFF" height="25" style="stroke:#181818;stroke-width:1.0;" width="10" x="416.5" y="173.6953"/><rect fill="#FFFFFF" height="25" style="stroke:#181818;stroke-width:1.0;" width="10" x="416.5" y="242.8281"/><rect fill="#FFFFFF" height="16.1641" style="stroke:#181818;stroke-width:1.0;" width="10" x="771.5" y="338.0938"/><rect fill="none" height="241.8281" style="stroke:#000000;stroke-width:1.5;" width="494.5" x="350" y="127.4297"/><rect fill="none" height="72.4297" style="stroke:#000000;stroke-width:1.5;" width="474.5" x="360" y="289.8281"/><line style="stroke:#181818;stroke-width:0.5;stroke-dasharray:5.0,5.0;" x1="75" x2="75" y1="81.2969" y2="400.2578"/><line style="stroke:#181818;stroke-width:0.5;stroke-dasharray:5.0,5.0;" x1="416" x2="416" y1="81.2969" y2="400.2578"/><line style="stroke:#181818;stroke-width:0.5;stroke-dasharray:5.0,5.0;" x1="776.5" x2="776.5" y1="337.6094" y2="400.2578"/><text fill="#000000" font-family="sans-serif" font-size="14" lengthAdjust="spacing" text-decoration="underline" textLength="135" x="5" y="77.9951">adm:Administrateur</text><ellipse cx="75.5" cy="13.5" fill="#FFFFFF" rx="8" ry="8" style="stroke:#181818;stroke-width:0.5;"/><path d="M75.5,21.5 L75.5,48.5 M62.5,29.5 L88.5,29.5 M75.5,48.5 L62.5,63.5 M75.5,48.5 L88.5,63.5 " fill="none" style="stroke:#181818;stroke-width:0.5;"/><rect fill="#FFFFFF" height="30.2969" rx="2.5" ry="2.5" style="stroke:#181818;stroke-width:0.5;" width="93" x="370" y="50"/><text fill="#000000" font-family="sans-serif" font-size="14" lengthAdjust="spacing" text-decoration="underline" textLength="79" x="377" y="69.9951">m:MiniSocs</text><rect fill="#FFFFFF" height="269.8281" style="stroke:#181818;stroke-width:1.0;" width="10" x="411.5" y="112.4297"/><rect fill="#FFFFFF" height="25" style="stroke:#181818;stroke-width:1.0;" width="10" x="416.5" y="173.6953"/><rect fill="#FFFFFF" height="25" style="stroke:#181818;stroke-width:1.0;" width="10" x="416.5" y="242.8281"/><rect fill="#FFFFFF" height="16.1641" style="stroke:#181818;stroke-width:1.0;" width="10" x="771.5" y="338.0938"/><polygon fill="#181818" points="399.5,108.4297,409.5,112.4297,399.5,116.4297,403.5,112.4297" style="stroke:#181818;stroke-width:1.0;"/><line style="stroke:#181818;stroke-width:1.0;" x1="75.5" x2="405.5" y1="112.4297" y2="112.4297"/><text fill="#000000" font-family="sans-serif" font-size="13" lengthAdjust="spacing" textLength="317" x="82.5" y="107.3638">ajouterUtilisateur(pseudo, nom, pr&#233;nom, courriel)</text><path d="M350,127.4297 L420,127.4297 L420,134.5625 L410,144.5625 L350,144.5625 L350,127.4297 " fill="#EEEEEE" style="stroke:#000000;stroke-width:1.5;"/><rect fill="none" height="241.8281" style="stroke:#000000;stroke-width:1.5;" width="494.5" x="350" y="127.4297"/><text fill="#000000" font-family="sans-serif" font-size="13" font-weight="bold" lengthAdjust="spacing" textLength="25" x="365" y="140.4966">opt</text><text fill="#000000" font-family="sans-serif" font-size="11" font-weight="bold" lengthAdjust="spacing" textLength="333" x="435" y="139.6401">[pseudo, nom, pr&#233;nom, courriel non null &#8743; non vide]</text><line style="stroke:#181818;stroke-width:1.0;" x1="421.5" x2="468.5" y1="160.6953" y2="160.6953"/><line style="stroke:#181818;stroke-width:1.0;" x1="468.5" x2="468.5" y1="160.6953" y2="173.6953"/><line style="stroke:#181818;stroke-width:1.0;" x1="427.5" x2="468.5" y1="173.6953" y2="173.6953"/><polygon fill="#181818" points="437.5,169.6953,427.5,173.6953,437.5,177.6953,433.5,173.6953" style="stroke:#181818;stroke-width:1.0;"/><text fill="#000000" font-family="sans-serif" font-size="13" lengthAdjust="spacing" textLength="270" x="433.5" y="155.6294">u=chercherUtilisateur(pseudo): Utilisateur</text><line style="stroke:#181818;stroke-width:1.0;stroke-dasharray:2.0,2.0;" x1="426.5" x2="468.5" y1="197.6953" y2="197.6953"/><line style="stroke:#181818;stroke-width:1.0;stroke-dasharray:2.0,2.0;" x1="468.5" x2="468.5" y1="197.6953" y2="210.6953"/><line style="stroke:#181818;stroke-width:1.0;stroke-dasharray:2.0,2.0;" x1="421.5" x2="468.5" y1="210.6953" y2="210.6953"/><polygon fill="#181818" points="431.5,206.6953,421.5,210.6953,431.5,214.6953,427.5,210.6953" style="stroke:#181818;stroke-width:1.0;"/><line style="stroke:#181818;stroke-width:1.0;" x1="421.5" x2="468.5" y1="229.8281" y2="229.8281"/><line style="stroke:#181818;stroke-width:1.0;" x1="468.5" x2="468.5" y1="229.8281" y2="242.8281"/><line style="stroke:#181818;stroke-width:1.0;" x1="427.5" x2="468.5" y1="242.8281" y2="242.8281"/><polygon fill="#181818" points="437.5,238.8281,427.5,242.8281,437.5,246.8281,433.5,242.8281" style="stroke:#181818;stroke-width:1.0;"/><text fill="#000000" font-family="sans-serif" font-size="13" lengthAdjust="spacing" textLength="254" x="433.5" y="224.7622">u=chercherCourriel(courriel): Utilisateur</text><line style="stroke:#181818;stroke-width:1.0;stroke-dasharray:2.0,2.0;" x1="426.5" x2="468.5" y1="266.8281" y2="266.8281"/><line style="stroke:#181818;stroke-width:1.0;stroke-dasharray:2.0,2.0;" x1="468.5" x2="468.5" y1="266.8281" y2="279.8281"/><line style="stroke:#181818;stroke-width:1.0;stroke-dasharray:2.0,2.0;" x1="421.5" x2="468.5" y1="279.8281" y2="279.8281"/><polygon fill="#181818" points="431.5,275.8281,421.5,279.8281,431.5,283.8281,427.5,279.8281" style="stroke:#181818;stroke-width:1.0;"/><path d="M360,289.8281 L430,289.8281 L430,296.9609 L420,306.9609 L360,306.9609 L360,289.8281 " fill="#EEEEEE" style="stroke:#000000;stroke-width:1.5;"/><rect fill="none" height="72.4297" style="stroke:#000000;stroke-width:1.5;" width="474.5" x="360" y="289.8281"/><text fill="#000000" font-family="sans-serif" font-size="13" font-weight="bold" lengthAdjust="spacing" textLength="25" x="375" y="302.895">opt</text><text fill="#000000" font-family="sans-serif" font-size="11" font-weight="bold" lengthAdjust="spacing" textLength="68" x="445" y="302.0386">[u == null]</text><polygon fill="#181818" points="716.5,324.0938,726.5,328.0938,716.5,332.0938,720.5,328.0938" style="stroke:#181818;stroke-width:1.0;"/><line style="stroke:#181818;stroke-width:1.0;" x1="421.5" x2="722.5" y1="328.0938" y2="328.0938"/><text fill="#000000" font-family="sans-serif" font-size="13" lengthAdjust="spacing" textLength="283" x="428.5" y="323.0278">u=&#171;create(pseudo, nom, pr&#233;nom, courriel)&#187;</text><rect fill="#FFFFFF" height="30.2969" rx="2.5" ry="2.5" style="stroke:#181818;stroke-width:0.5;" width="96" x="728.5" y="306.9609"/><text fill="#000000" font-family="sans-serif" font-size="14" lengthAdjust="spacing" text-decoration="underline" textLength="82" x="735.5" y="326.9561">u:Utilisateur</text><polygon fill="#181818" points="432.5,350.2578,422.5,354.2578,432.5,358.2578,428.5,354.2578" style="stroke:#181818;stroke-width:1.0;"/><line style="stroke:#181818;stroke-width:1.0;stroke-dasharray:2.0,2.0;" x1="426.5" x2="775.5" y1="354.2578" y2="354.2578"/><polygon fill="#181818" points="86.5,378.2578,76.5,382.2578,86.5,386.2578,82.5,382.2578" style="stroke:#181818;stroke-width:1.0;"/><line style="stroke:#181818;stroke-width:1.0;stroke-dasharray:2.0,2.0;" x1="80.5" x2="415.5" y1="382.2578" y2="382.2578"/><!--SRC=[XL5BJiCm4Dtx52CsQKNX016j16L9fKe8iQm6PsWC_WH_Aex0CTYXdYCtuIICtT9MWiB2ScRqVdwfhXKkFHf3q124VlsIo4g2mLoZZNUpcs4bH3Lrzb4jayUed0NPeey4JEjQnVXAj8h9Zyx51_SgmhEo7R8c1DgepHclfEfOyGhbyzAxP9kfqyx3VQiY_KAvbD7vty6YkkxNKkCsJKC1K4PAFW35CdPxlm23fby_zUz0hoh4ii4LNw1n_zpyICoESB9OO6FgoyOeotZsOE75uWIGUNaf3iGpsjGpHjuw6ROemm5lTptYYYHepcGe15nI69L9-dvTueTS-s7U4Jz2dkSysGtE9c3Wz1Hgm2UN8lcxgBGA9TQW2vGQDmBhp0WwbYmVqYNl5UcXS5s4lp6yjc2Jrl3vzb665VzA0MowTqvZsPBFvwVvi8Q39HCznUJjKONfrdYmItbK8ATFC1wNV3m3jqQCogsd-e2qBJuLJB4zXlXESt6naVglmScaQEuYaMr4Ffl55m00]--></g></svg>