<?xml version="1.0" encoding="us-ascii" standalone="no"?><svg xmlns="http://www.w3.org/2000/svg" xmlns:xlink="http://www.w3.org/1999/xlink" contentStyleType="text/css" height="1228px" preserveAspectRatio="none" style="width:555px;height:1228px;background:#FFFFFF;" version="1.1" viewBox="0 0 555 1228" width="555px" zoomAndPan="magnify"><defs/><g><!--cluster MiniSocs--><g id="cluster_MiniSocs"><rect fill="none" height="1125" rx="2.5" ry="2.5" style="stroke:#181818;stroke-width:1.0;" width="302" x="247" y="97.5"/><text fill="#000000" font-family="sans-serif" font-size="14" font-weight="bold" lengthAdjust="spacing" textLength="69" x="363.5" y="112.4951">MiniSocs</text></g><g id="elem_bloquer un compte utilisateur"><ellipse cx="397.9616" cy="158.4923" fill="#FFFFFF" rx="117.9616" ry="25.9923" style="stroke:#000000;stroke-width:0.5;"/><text fill="#000000" font-family="sans-serif" font-size="14" lengthAdjust="spacing" textLength="203" x="296.4616" y="161.339">bloquer un compte utilisateur</text></g><g id="elem_ajouter un utilisateur"><ellipse cx="398.1728" cy="240.3346" fill="#FFFFFF" rx="89.6728" ry="20.3346" style="stroke:#000000;stroke-width:0.5;"/><text fill="#000000" font-family="sans-serif" font-size="14" lengthAdjust="spacing" textLength="141" x="327.6728" y="243.1812">ajouter un utilisateur</text></g><g id="elem_promouvoir un utilisateur"><ellipse cx="398.1608" cy="319.5322" fill="#FFFFFF" rx="103.1608" ry="23.0322" style="stroke:#000000;stroke-width:0.5;"/><text fill="#000000" font-family="sans-serif" font-size="14" lengthAdjust="spacing" textLength="171" x="312.6608" y="322.3788">promouvoir un utilisateur</text></g><g id="elem_lister les utilisateur"><ellipse cx="397.995" cy="396.699" fill="#FFFFFF" rx="83.995" ry="19.199" style="stroke:#000000;stroke-width:0.5;"/><text fill="#000000" font-family="sans-serif" font-size="14" lengthAdjust="spacing" textLength="128" x="333.7335" y="399.6356">lister les utilisateur</text></g><g id="elem_fermer son r&#233;seau social"><ellipse cx="398.2042" cy="473.4408" fill="#FFFFFF" rx="102.7042" ry="22.9408" style="stroke:#000000;stroke-width:0.5;"/><text fill="#000000" font-family="sans-serif" font-size="14" lengthAdjust="spacing" textLength="170" x="313.2042" y="476.2875">fermer son r&#233;seau social</text></g><g id="elem_accepter un message"><ellipse cx="398.1163" cy="552.7233" fill="#FFFFFF" rx="94.1163" ry="21.2233" style="stroke:#000000;stroke-width:0.5;"/><text fill="#000000" font-family="sans-serif" font-size="14" lengthAdjust="spacing" textLength="151" x="322.6163" y="555.5699">accepter un message</text></g><g id="elem_refuser un message"><ellipse cx="397.7915" cy="628.6583" fill="#FFFFFF" rx="88.7915" ry="20.1583" style="stroke:#000000;stroke-width:0.5;"/><text fill="#000000" font-family="sans-serif" font-size="14" lengthAdjust="spacing" textLength="139" x="328.2915" y="631.505">refuser un message</text></g><g id="elem_d&#233;sactiver son compte"><ellipse cx="397.7599" cy="705.352" fill="#FFFFFF" rx="97.2599" ry="21.852" style="stroke:#000000;stroke-width:0.5;"/><text fill="#000000" font-family="sans-serif" font-size="14" lengthAdjust="spacing" textLength="158" x="318.7599" y="708.1987">d&#233;sactiver son compte</text></g><g id="elem_r&#233;activer son compte"><ellipse cx="397.8872" cy="783.2774" fill="#FFFFFF" rx="91.8872" ry="20.7774" style="stroke:#000000;stroke-width:0.5;"/><text fill="#000000" font-family="sans-serif" font-size="14" lengthAdjust="spacing" textLength="146" x="324.8872" y="786.1241">r&#233;activer son compte</text></g><g id="elem_poster un message"><ellipse cx="398.0368" cy="859.3074" fill="#FFFFFF" rx="87.0368" ry="19.8074" style="stroke:#000000;stroke-width:0.5;"/><text fill="#000000" font-family="sans-serif" font-size="14" lengthAdjust="spacing" textLength="135" x="330.5368" y="862.154">poster un message</text></g><g id="elem_cacher son message"><ellipse cx="397.9431" cy="935.6886" fill="#FFFFFF" rx="91.4431" ry="20.6886" style="stroke:#000000;stroke-width:0.5;"/><text fill="#000000" font-family="sans-serif" font-size="14" lengthAdjust="spacing" textLength="145" x="325.4431" y="938.5353">cacher son message</text></g><g id="elem_initialiser son compte"><ellipse cx="397.8872" cy="1012.2774" fill="#FFFFFF" rx="91.8872" ry="20.7774" style="stroke:#000000;stroke-width:0.5;"/><text fill="#000000" font-family="sans-serif" font-size="14" lengthAdjust="spacing" textLength="146" x="324.8872" y="1015.1241">initialiser son compte</text></g><g id="elem_d&#233;finir son pseudo pour un r&#233;seau"><ellipse cx="397.9476" cy="1098.3895" fill="#FFFFFF" rx="134.9476" ry="29.3895" style="stroke:#000000;stroke-width:0.5;"/><text fill="#000000" font-family="sans-serif" font-size="14" lengthAdjust="spacing" textLength="239" x="278.4476" y="1101.2362">d&#233;finir son pseudo pour un r&#233;seau</text></g><g id="elem_cr&#233;er un r&#233;seau social"><ellipse cx="398.0118" cy="1184.4024" fill="#FFFFFF" rx="95.0118" ry="21.4024" style="stroke:#000000;stroke-width:0.5;"/><text fill="#000000" font-family="sans-serif" font-size="14" lengthAdjust="spacing" textLength="153" x="321.5118" y="1187.249">cr&#233;er un r&#233;seau social</text></g><!--entity Administrateur--><g id="elem_Administrateur"><ellipse cx="398" cy="14" fill="#F1F1F1" rx="8" ry="8" style="stroke:#181818;stroke-width:0.5;"/><path d="M398,22 L398,49 M385,30 L411,30 M398,49 L385,64 M398,49 L411,64 " fill="none" style="stroke:#181818;stroke-width:0.5;"/><text fill="#000000" font-family="sans-serif" font-size="14" lengthAdjust="spacing" textLength="100" x="348" y="78.4951">Administrateur</text></g><!--entity Moderateur--><g id="elem_Moderateur"><ellipse cx="163" cy="406" fill="#F1F1F1" rx="8" ry="8" style="stroke:#181818;stroke-width:0.5;"/><path d="M163,414 L163,441 M150,422 L176,422 M163,441 L150,456 M163,441 L176,456 " fill="none" style="stroke:#181818;stroke-width:0.5;"/><text fill="#000000" font-family="sans-serif" font-size="14" lengthAdjust="spacing" textLength="80" x="123" y="470.4951">Moderateur</text></g><!--entity Membre--><g id="elem_Membre"><ellipse cx="34.5" cy="867" fill="#F1F1F1" rx="8" ry="8" style="stroke:#181818;stroke-width:0.5;"/><path d="M34.5,875 L34.5,902 M21.5,883 L47.5,883 M34.5,902 L21.5,917 M34.5,902 L47.5,917 " fill="none" style="stroke:#181818;stroke-width:0.5;"/><text fill="#000000" font-family="sans-serif" font-size="14" lengthAdjust="spacing" textLength="57" x="6" y="931.4951">Membre</text></g><!--reverse link Moderateur to Administrateur--><g id="link_Moderateur_Administrateur"><path d="M171.1071,379.5576 C181.0871,304.6476 203.88,159.53 239,116.5 C266.32,83.02 312.42,64.17 347.79,54.05 " fill="none" id="Moderateur-backto-Administrateur" style="stroke:#000000;stroke-width:1.0;"/><polygon fill="none" points="168.73,397.4,177.0545,380.35,165.1596,378.7653,168.73,397.4" style="stroke:#000000;stroke-width:1.0;"/></g><!--reverse link Membre to Moderateur--><g id="link_Membre_Moderateur"><path d="M50.7239,841.0218 C74.5239,754.3018 127.72,560.43 151.53,473.66 " fill="none" id="Membre-backto-Moderateur" style="stroke:#000000;stroke-width:1.0;"/><polygon fill="none" points="45.96,858.38,56.5099,842.6098,44.9378,839.4339,45.96,858.38" style="stroke:#000000;stroke-width:1.0;"/></g><!--link Administrateur to bloquer un compte utilisateur--><g id="link_Administrateur_bloquer un compte utilisateur"><path d="M398,81.72 C398,98.63 398,115.54 398,132.45 " fill="none" id="Administrateur-bloquer un compte utilisateur" style="stroke:#000000;stroke-width:1.0;"/></g><!--link Moderateur to ajouter un utilisateur--><g id="link_Moderateur_ajouter un utilisateur"><path d="M172.25,397.3 C182.03,361.3 201.91,308.53 239,278.5 C259.72,261.72 286.67,252.15 312.43,246.76 " fill="none" id="Moderateur-ajouter un utilisateur" style="stroke:#000000;stroke-width:1.0;"/></g><!--link Moderateur to promouvoir un utilisateur--><g id="link_Moderateur_promouvoir un utilisateur"><path d="M193.87,397.46 C206.46,383.69 222.11,369.17 239,359.5 C261.1,346.85 287.19,338.15 311.73,332.18 " fill="none" id="Moderateur-promouvoir un utilisateur" style="stroke:#000000;stroke-width:1.0;"/></g><!--link Moderateur to lister les utilisateur--><g id="link_Moderateur_lister les utilisateur"><path d="M203.26,428.93 C237.76,423.15 288.71,414.63 329.7,407.77 " fill="none" id="Moderateur-lister les utilisateur" style="stroke:#000000;stroke-width:1.0;"/></g><!--link Moderateur to fermer son r?seau social--><g id="link_Moderateur_fermer son r&#233;seau social"><path d="M203.26,441.9 C233.61,446.85 276.69,453.88 314.52,460.05 " fill="none" id="Moderateur-fermer son r&#233;seau social" style="stroke:#000000;stroke-width:1.0;"/></g><!--link Moderateur to accepter un message--><g id="link_Moderateur_accepter un message"><path d="M192.95,473.8 C205.63,488.18 221.59,503.45 239,513.5 C262.61,527.13 290.88,536.03 316.93,541.82 " fill="none" id="Moderateur-accepter un message" style="stroke:#000000;stroke-width:1.0;"/></g><!--link Moderateur to refuser un message--><g id="link_Moderateur_refuser un message"><path d="M172.48,473.56 C182.39,509.1 202.33,560.96 239,590.5 C259.98,607.4 287.3,616.98 313.3,622.35 " fill="none" id="Moderateur-refuser un message" style="stroke:#000000;stroke-width:1.0;"/></g><!--link Membre to d?sactiver son compte--><g id="link_Membre_d&#233;sactiver son compte"><path d="M63.37,870.08 C80.13,854.68 102.18,835.25 123,819.5 C171.96,782.45 182.65,768.86 239,744.5 C264.68,733.4 294.12,725.06 320.58,718.99 " fill="none" id="Membre-d&#233;sactiver son compte" style="stroke:#000000;stroke-width:1.0;"/></g><!--link Membre to r?activer son compte--><g id="link_Membre_r&#233;activer son compte"><path d="M63.13,883.18 C80.18,875.21 102.61,865.18 123,857.5 C192.05,831.5 274.08,810.6 330.27,797.72 " fill="none" id="Membre-r&#233;activer son compte" style="stroke:#000000;stroke-width:1.0;"/></g><!--link Membre to poster un message--><g id="link_Membre_poster un message"><path d="M63.27,893.66 C117.16,888.14 237.73,875.8 318.21,867.56 " fill="none" id="Membre-poster un message" style="stroke:#000000;stroke-width:1.0;"/></g><!--link Membre to cacher son message--><g id="link_Membre_cacher son message"><path d="M63.27,899.5 C116.5,905.24 234.78,918 315.23,926.68 " fill="none" id="Membre-cacher son message" style="stroke:#000000;stroke-width:1.0;"/></g><!--link Membre to initialiser son compte--><g id="link_Membre_initialiser son compte"><path d="M63.11,908.16 C101.91,924.26 174.98,953.57 239,973.5 C268.81,982.78 302.32,991.32 330.79,998.02 " fill="none" id="Membre-initialiser son compte" style="stroke:#000000;stroke-width:1.0;"/></g><!--link Membre to d?finir son pseudo pour un r?seau--><g id="link_Membre_d&#233;finir son pseudo pour un r&#233;seau"><path d="M63.06,920.05 C80.08,934.38 102.51,952.86 123,968.5 C173.19,1006.81 182.29,1022.75 239,1050.5 C260.24,1060.9 284.2,1069.58 306.92,1076.57 " fill="none" id="Membre-d&#233;finir son pseudo pour un r&#233;seau" style="stroke:#000000;stroke-width:1.0;"/></g><!--link Membre to cr?er un r?seau social--><g id="link_Membre_cr&#233;er un r&#233;seau social"><path d="M54.22,934.87 C84.35,991.94 149.4,1097.57 239,1145.5 C263.04,1158.36 291.41,1167.07 317.42,1172.92 " fill="none" id="Membre-cr&#233;er un r&#233;seau social" style="stroke:#000000;stroke-width:1.0;"/></g><!--SRC=[ZP9DRjmm38NtEWMHZPD5Bc0C0cGIe5rqW095qJKZqROQINGfAKNHvZxDEUPYfMEtoVmqoQmCyXFVu-CqrnvxmHW978753AwfnGUViNXESFenO2gVDn_E6cEQAqwTxwlCFJkW509zFWx-MwN6v5kVHjHnK3FfC8AVPetsjXUkoLrnO84lWozarYoEPAwiWoBcKeI_xnHiOTbxlLh1-nenmSK5lEFWpBqnWRe2XK5yFnHmNiXEzjJkzVR11bpSEig0jb2L36rZS9eEboxwv7DHHXjBSSDgRQT0yKR8FDLXzUlyVF_nJCsjPoCENHocx31b20JvHoxRtr6Jd9R0r6ljPACYdzZc4mtJjBkYBQZOwKrWZL-WwaquZdgJlyCLEJFjavkPnwzSoyo_38x2aUiT-pUmsffc1btmPR0ZYGfctLks3vcmwhVr68uvjPR6nMgadB6d8vHGf_-tVUZn72teRsASIkar_TqYFGTroAcbjs0Zv_AAeaKxB5F-o-WfYsxkyojowhvJTeR6JDKnZ5mV3ImX7Z6W7NgE_Clvtlm1]--></g></svg>