<?xml version="1.0" encoding="us-ascii" standalone="no"?><svg xmlns="http://www.w3.org/2000/svg" xmlns:xlink="http://www.w3.org/1999/xlink" contentStyleType="text/css" height="805px" preserveAspectRatio="none" style="width:1596px;height:805px;background:#FFFFFF;" version="1.1" viewBox="0 0 1596 805" width="1596px" zoomAndPan="magnify"><defs/><g><!--class MiniSocs--><g id="elem_MiniSocs"><rect codeLine="15" fill="#FFFFFF" height="50.5938" id="MiniSocs" rx="2.5" ry="2.5" style="stroke:#000000;stroke-width:0.5;" width="186" x="849" y="30"/><text fill="#000000" font-family="sans-serif" font-size="14" lengthAdjust="spacing" textLength="61" x="911.5" y="47.9951">MiniSocs</text><line style="stroke:#000000;stroke-width:0.5;" x1="850" x2="1034" y1="56.2969" y2="56.2969"/><rect fill="none" height="6" style="stroke:#C82930;stroke-width:1.0;" width="6" x="857" y="66.9453"/><text fill="#000000" font-family="sans-serif" font-size="14" lengthAdjust="spacing" textLength="160" x="869" y="73.292">nomDuSysteme: String</text></g><g id="elem_GMN3"><path d="M582.5,35.5 L582.5,75.7656 A0,0 0 0 0 582.5,75.7656 L813.5,75.7656 A0,0 0 0 0 813.5,75.7656 L813.5,59.5 L848.86,55.5 L813.5,51.5 L813.5,45.5 L803.5,35.5 L582.5,35.5 A0,0 0 0 0 582.5,35.5 " fill="#FEFFDD" style="stroke:#181818;stroke-width:0.5;"/><path d="M803.5,35.5 L803.5,45.5 L813.5,45.5 L803.5,35.5 " fill="#FEFFDD" style="stroke:#181818;stroke-width:0.5;"/><text fill="#000000" font-family="sans-serif" font-size="13" lengthAdjust="spacing" textLength="209" x="588.5" y="52.5669">utilisateurs: Collection Utilisateur</text><text fill="#000000" font-family="sans-serif" font-size="13" lengthAdjust="spacing" textLength="210" x="588.5" y="67.6997">reseaux: Collection ReseauSocial</text></g><!--class Utilisateur--><g id="elem_Utilisateur"><rect codeLine="20" fill="#FFFFFF" height="115.7813" id="Utilisateur" rx="2.5" ry="2.5" style="stroke:#000000;stroke-width:0.5;" width="199" x="11.5" y="165"/><text fill="#000000" font-family="sans-serif" font-size="14" lengthAdjust="spacing" textLength="68" x="77" y="182.9951">Utilisateur</text><line style="stroke:#000000;stroke-width:0.5;" x1="12.5" x2="209.5" y1="191.2969" y2="191.2969"/><rect fill="none" height="6" style="stroke:#C82930;stroke-width:1.0;" width="6" x="19.5" y="201.9453"/><text fill="#000000" font-family="sans-serif" font-size="14" lengthAdjust="spacing" textLength="140" x="31.5" y="208.292">pseudonyme: String</text><rect fill="none" height="6" style="stroke:#C82930;stroke-width:1.0;" width="6" x="19.5" y="218.2422"/><text fill="#000000" font-family="sans-serif" font-size="14" lengthAdjust="spacing" textLength="80" x="31.5" y="224.5889">nom: String</text><rect fill="none" height="6" style="stroke:#C82930;stroke-width:1.0;" width="6" x="19.5" y="234.5391"/><text fill="#000000" font-family="sans-serif" font-size="14" lengthAdjust="spacing" textLength="103" x="31.5" y="240.8857">pr&#233;nom: String</text><rect fill="none" height="6" style="stroke:#C82930;stroke-width:1.0;" width="6" x="19.5" y="250.8359"/><text fill="#000000" font-family="sans-serif" font-size="14" lengthAdjust="spacing" textLength="100" x="31.5" y="257.1826">courriel: String</text><rect fill="none" height="6" style="stroke:#C82930;stroke-width:1.0;" width="6" x="19.5" y="267.1328"/><text fill="#000000" font-family="sans-serif" font-size="14" lengthAdjust="spacing" textLength="173" x="31.5" y="273.4795">etatCompte: &#201;tatCompte</text></g><g id="elem_GMN7"><path d="M6,387 L6,412.1328 A0,0 0 0 0 6,412.1328 L216,412.1328 A0,0 0 0 0 216,412.1328 L216,397 L206,387 L115,387 L111,281.14 L107,387 L6,387 A0,0 0 0 0 6,387 " fill="#FEFFDD" style="stroke:#181818;stroke-width:0.5;"/><path d="M206,387 L206,397 L216,397 L206,387 " fill="#FEFFDD" style="stroke:#181818;stroke-width:0.5;"/><text fill="#000000" font-family="sans-serif" font-size="13" lengthAdjust="spacing" textLength="189" x="12" y="404.0669">membres: Collection Membre</text></g><!--class EtatCompte--><g id="elem_EtatCompte"><rect codeLine="29" fill="#FFFFFF" height="97.1563" id="EtatCompte" rx="2.5" ry="2.5" style="stroke:#000000;stroke-width:0.5;" width="90" x="1370" y="7"/><text fill="#000000" font-family="sans-serif" font-size="12" font-style="italic" lengthAdjust="spacing" textLength="49" x="1390.5" y="23.1387">&#171;enum&#187;</text><text fill="#000000" font-family="sans-serif" font-size="14" lengthAdjust="spacing" textLength="82" x="1374" y="38.9639">EtatCompte</text><line style="stroke:#000000;stroke-width:0.5;" x1="1371" x2="1459" y1="47.2656" y2="47.2656"/><text fill="#000000" font-family="sans-serif" font-size="14" lengthAdjust="spacing" textLength="39" x="1376" y="64.2607">ACTIF</text><text fill="#000000" font-family="sans-serif" font-size="14" lengthAdjust="spacing" textLength="78" x="1376" y="80.5576">DESACTIVE</text><text fill="#000000" font-family="sans-serif" font-size="14" lengthAdjust="spacing" textLength="58" x="1376" y="96.8545">BLOQUE</text></g><!--class Membre--><g id="elem_Membre"><rect codeLine="34" fill="#FFFFFF" height="66.8906" id="Membre" rx="2.5" ry="2.5" style="stroke:#000000;stroke-width:0.5;" width="181" x="726.5" y="520"/><text fill="#000000" font-family="sans-serif" font-size="14" lengthAdjust="spacing" textLength="57" x="788.5" y="537.9951">Membre</text><line style="stroke:#000000;stroke-width:0.5;" x1="727.5" x2="906.5" y1="546.2969" y2="546.2969"/><rect fill="none" height="6" style="stroke:#C82930;stroke-width:1.0;" width="6" x="734.5" y="556.9453"/><text fill="#000000" font-family="sans-serif" font-size="14" lengthAdjust="spacing" textLength="155" x="746.5" y="563.292">pseudoReseau: String</text><rect fill="none" height="6" style="stroke:#C82930;stroke-width:1.0;" width="6" x="734.5" y="573.2422"/><text fill="#000000" font-family="sans-serif" font-size="14" lengthAdjust="spacing" textLength="146" x="746.5" y="579.5889">moderateur: boolean</text></g><g id="elem_GMN12"><path d="M437,518 L437,588.5313 A0,0 0 0 0 437,588.5313 L691,588.5313 A0,0 0 0 0 691,588.5313 L691,557.5 L726.3,553.5 L691,549.5 L691,528 L681,518 L437,518 A0,0 0 0 0 437,518 " fill="#FEFFDD" style="stroke:#181818;stroke-width:0.5;"/><path d="M681,518 L681,528 L691,528 L681,518 " fill="#FEFFDD" style="stroke:#181818;stroke-width:0.5;"/><text fill="#000000" font-family="sans-serif" font-size="13" lengthAdjust="spacing" textLength="175" x="443" y="535.0669">reseauSocial: ReseauSocial</text><text fill="#000000" font-family="sans-serif" font-size="13" lengthAdjust="spacing" textLength="136" x="443" y="550.1997">utilisateur: Utilisateur</text><text fill="#000000" font-family="sans-serif" font-size="13" lengthAdjust="spacing" textLength="197" x="443" y="565.3325">messages: Collection Message</text><text fill="#000000" font-family="sans-serif" font-size="13" lengthAdjust="spacing" textLength="233" x="443" y="580.4653">consommateur: MonConsommateur</text></g><!--class EtatNotif--><g id="elem_EtatNotif"><rect codeLine="41" fill="#FFFFFF" height="97.1563" id="EtatNotif" rx="2.5" ry="2.5" style="stroke:#000000;stroke-width:0.5;" width="89" x="1495.5" y="7"/><text fill="#000000" font-family="sans-serif" font-size="12" font-style="italic" lengthAdjust="spacing" textLength="49" x="1515.5" y="23.1387">&#171;enum&#187;</text><text fill="#000000" font-family="sans-serif" font-size="14" lengthAdjust="spacing" textLength="58" x="1511" y="38.9639">EtatNotif</text><line style="stroke:#000000;stroke-width:0.5;" x1="1496.5" x2="1583.5" y1="47.2656" y2="47.2656"/><text fill="#000000" font-family="sans-serif" font-size="14" lengthAdjust="spacing" textLength="68" x="1501.5" y="64.2607">IMMEDIAT</text><text fill="#000000" font-family="sans-serif" font-size="14" lengthAdjust="spacing" textLength="32" x="1501.5" y="80.5576">RIEN</text><text fill="#000000" font-family="sans-serif" font-size="14" lengthAdjust="spacing" textLength="77" x="1501.5" y="96.8545">QUOTIDIEN</text></g><!--class MonConsommateur--><g id="elem_MonConsommateur"><rect codeLine="47" fill="#FFFFFF" height="148.375" id="MonConsommateur" rx="2.5" ry="2.5" style="stroke:#000000;stroke-width:0.5;" width="251" x="942.5" y="650"/><text fill="#000000" font-family="sans-serif" font-size="14" lengthAdjust="spacing" textLength="137" x="999.5" y="667.9951">MonConsommateur</text><line style="stroke:#000000;stroke-width:0.5;" x1="943.5" x2="1192.5" y1="676.2969" y2="676.2969"/><rect fill="none" height="6" style="stroke:#C82930;stroke-width:1.0;" width="6" x="950.5" y="686.9453"/><text fill="#000000" font-family="sans-serif" font-size="14" lengthAdjust="spacing" textLength="61" x="962.5" y="693.292">id: String</text><rect fill="none" height="6" style="stroke:#C82930;stroke-width:1.0;" width="6" x="950.5" y="703.2422"/><text fill="#000000" font-family="sans-serif" font-size="14" lengthAdjust="spacing" textLength="180" x="962.5" y="709.5889">souscription: Subscription</text><rect fill="none" height="6" style="stroke:#C82930;stroke-width:1.0;" width="6" x="950.5" y="719.5391"/><text fill="#000000" font-family="sans-serif" font-size="14" lengthAdjust="spacing" textLength="125" x="962.5" y="725.8857">etatNotif: EtatNotif</text><rect fill="none" height="6" style="stroke:#C82930;stroke-width:1.0;" width="6" x="950.5" y="735.8359"/><text fill="#000000" font-family="sans-serif" font-size="14" lengthAdjust="spacing" textLength="108" x="962.5" y="742.1826">date: LocalDate</text><rect fill="none" height="6" style="stroke:#C82930;stroke-width:1.0;" width="6" x="950.5" y="752.1328"/><text fill="#000000" font-family="sans-serif" font-size="14" lengthAdjust="spacing" textLength="146" x="962.5" y="758.4795">moderateur: boolean</text><rect fill="none" height="6" style="stroke:#C82930;stroke-width:1.0;" width="6" x="950.5" y="768.4297"/><text fill="#000000" font-family="sans-serif" font-size="14" lengthAdjust="spacing" textLength="156" x="962.5" y="774.7764">compteurMessage: int</text><rect fill="none" height="6" style="stroke:#C82930;stroke-width:1.0;" width="6" x="950.5" y="784.7266"/><text fill="#000000" font-family="sans-serif" font-size="14" lengthAdjust="spacing" textLength="225" x="962.5" y="791.0732">compteurMessageEnAttente: int</text></g><!--class Publication--><g id="elem_Publication"><rect codeLine="57" fill="#FFFFFF" height="50.5938" id="Publication" rx="2.5" ry="2.5" style="stroke:#000000;stroke-width:0.5;" width="159" x="1031.5" y="197.5"/><text fill="#000000" font-family="sans-serif" font-size="14" lengthAdjust="spacing" textLength="75" x="1073.5" y="215.4951">Publication</text><line style="stroke:#000000;stroke-width:0.5;" x1="1032.5" x2="1189.5" y1="223.7969" y2="223.7969"/><rect fill="none" height="6" style="stroke:#C82930;stroke-width:1.0;" width="6" x="1039.5" y="234.4453"/><text fill="#000000" font-family="sans-serif" font-size="14" lengthAdjust="spacing" textLength="133" x="1051.5" y="240.792">nomReseau: String</text></g><g id="elem_GMN18"><path d="M1120.5,387 L1120.5,412.1328 L1265.5,412.1328 L1265.5,397 L1255.5,387 L1120.5,387 " fill="#FEFFDD" style="stroke:#181818;stroke-width:0.5;"/><path d="M1255.5,387 L1255.5,397 L1265.5,397 L1255.5,387 " fill="#FEFFDD" style="stroke:#181818;stroke-width:1.0;"/><text fill="#000000" font-family="sans-serif" font-size="13" lengthAdjust="spacing" textLength="124" x="1126.5" y="404.0669">message: Message</text></g><!--class ReseauSocial--><g id="elem_ReseauSocial"><rect codeLine="63" fill="#FFFFFF" height="83.1875" id="ReseauSocial" rx="2.5" ry="2.5" style="stroke:#000000;stroke-width:0.5;" width="355" x="245.5" y="181.5"/><text fill="#000000" font-family="sans-serif" font-size="14" lengthAdjust="spacing" textLength="93" x="376.5" y="199.4951">ReseauSocial</text><line style="stroke:#000000;stroke-width:0.5;" x1="246.5" x2="599.5" y1="207.7969" y2="207.7969"/><rect fill="none" height="6" style="stroke:#C82930;stroke-width:1.0;" width="6" x="253.5" y="218.4453"/><text fill="#000000" font-family="sans-serif" font-size="14" lengthAdjust="spacing" textLength="80" x="265.5" y="224.792">nom: String</text><rect fill="none" height="6" style="stroke:#C82930;stroke-width:1.0;" width="6" x="253.5" y="234.7422"/><text fill="#000000" font-family="sans-serif" font-size="14" lengthAdjust="spacing" textLength="169" x="265.5" y="241.0889">etatReseau: EtatReseau</text><rect fill="none" height="6" style="stroke:#C82930;stroke-width:1.0;" width="6" x="253.5" y="251.0391"/><text fill="#000000" font-family="sans-serif" font-size="14" lengthAdjust="spacing" textLength="329" x="265.5" y="257.3857">producteur: SubmissionPublisher&lt;Publication&gt;</text></g><g id="elem_GMN22"><path d="M636,203 L636,219 L600.67,223 L636,227 L636,243.2656 A0,0 0 0 0 636,243.2656 L854,243.2656 A0,0 0 0 0 854,243.2656 L854,213 L844,203 L636,203 A0,0 0 0 0 636,203 " fill="#FEFFDD" style="stroke:#181818;stroke-width:0.5;"/><path d="M844,203 L844,213 L854,213 L844,203 " fill="#FEFFDD" style="stroke:#181818;stroke-width:0.5;"/><text fill="#000000" font-family="sans-serif" font-size="13" lengthAdjust="spacing" textLength="189" x="642" y="220.0669">membres: Collection Membre</text><text fill="#000000" font-family="sans-serif" font-size="13" lengthAdjust="spacing" textLength="197" x="642" y="235.1997">messages: Collection Message</text></g><!--class EtatReseau--><g id="elem_EtatReseau"><rect codeLine="71" fill="#FFFFFF" height="80.8594" id="EtatReseau" rx="2.5" ry="2.5" style="stroke:#000000;stroke-width:0.5;" width="86" x="1372" y="182.5"/><text fill="#000000" font-family="sans-serif" font-size="12" font-style="italic" lengthAdjust="spacing" textLength="49" x="1390.5" y="198.6387">&#171;enum&#187;</text><text fill="#000000" font-family="sans-serif" font-size="14" lengthAdjust="spacing" textLength="80" x="1375" y="214.4639">EtatReseau</text><line style="stroke:#000000;stroke-width:0.5;" x1="1373" x2="1457" y1="222.7656" y2="222.7656"/><text fill="#000000" font-family="sans-serif" font-size="14" lengthAdjust="spacing" textLength="48" x="1378" y="239.7607">FERM&#201;</text><text fill="#000000" font-family="sans-serif" font-size="14" lengthAdjust="spacing" textLength="58" x="1378" y="256.0576">OUVERT</text></g><!--class Message--><g id="elem_Message"><rect codeLine="75" fill="#FFFFFF" height="83.1875" id="Message" rx="2.5" ry="2.5" style="stroke:#000000;stroke-width:0.5;" width="215" x="870.5" y="358"/><text fill="#000000" font-family="sans-serif" font-size="14" lengthAdjust="spacing" textLength="63" x="946.5" y="375.9951">Message</text><line style="stroke:#000000;stroke-width:0.5;" x1="871.5" x2="1084.5" y1="384.2969" y2="384.2969"/><rect fill="none" height="6" style="stroke:#C82930;stroke-width:1.0;" width="6" x="878.5" y="394.9453"/><text fill="#000000" font-family="sans-serif" font-size="14" lengthAdjust="spacing" textLength="101" x="890.5" y="401.292">idMessage: int</text><rect fill="none" height="6" style="stroke:#C82930;stroke-width:1.0;" width="6" x="878.5" y="411.2422"/><text fill="#000000" font-family="sans-serif" font-size="14" lengthAdjust="spacing" textLength="111" x="890.5" y="417.5889">contenu : String</text><rect fill="none" height="6" style="stroke:#C82930;stroke-width:1.0;" width="6" x="878.5" y="427.5391"/><text fill="#000000" font-family="sans-serif" font-size="14" lengthAdjust="spacing" textLength="189" x="890.5" y="433.8857">etatMessage: EtatMessage</text></g><!--class EtatMessage--><g id="elem_EtatMessage"><rect codeLine="80" fill="#FFFFFF" height="113.4531" id="EtatMessage" rx="2.5" ry="2.5" style="stroke:#000000;stroke-width:0.5;" width="96" x="1493" y="166.5"/><text fill="#000000" font-family="sans-serif" font-size="12" font-style="italic" lengthAdjust="spacing" textLength="49" x="1516.5" y="182.6387">&#171;enum&#187;</text><text fill="#000000" font-family="sans-serif" font-size="14" lengthAdjust="spacing" textLength="90" x="1496" y="198.4639">EtatMessage</text><line style="stroke:#000000;stroke-width:0.5;" x1="1494" x2="1588" y1="206.7656" y2="206.7656"/><text fill="#000000" font-family="sans-serif" font-size="14" lengthAdjust="spacing" textLength="65" x="1499" y="223.7607">ACCEPTE</text><text fill="#000000" font-family="sans-serif" font-size="14" lengthAdjust="spacing" textLength="55" x="1499" y="240.0576">REFUSE</text><text fill="#000000" font-family="sans-serif" font-size="14" lengthAdjust="spacing" textLength="64" x="1499" y="256.3545">ATTENTE</text><text fill="#000000" font-family="sans-serif" font-size="14" lengthAdjust="spacing" textLength="48" x="1499" y="272.6514">CACHE</text></g><!--link Publication to GMN18--><g id="link_Publication_GMN18"><path d="M1123.91,248.56 C1132.89,265.88 1145,289.7 1155,311 C1167.6,337.83 1181.16,369.92 1188.17,386.8 " fill="none" id="Publication-GMN18" style="stroke:#000000;stroke-width:1.0;stroke-dasharray:7.0,7.0;"/></g><!--link MiniSocs to Utilisateur--><g id="link_MiniSocs_Utilisateur"><path codeLine="88" d="M882.4658,86.034 C863.4458,94.634 852.11,98.55 831,104 C570.18,171.32 487.09,91.32 228,165 C222.24,166.64 222.0627,166.5105 216.2527,168.6105 " fill="none" id="MiniSocs-Utilisateur" style="stroke:#000000;stroke-width:1.0;"/><polygon fill="#000000" points="893.4,81.09,886.2849,79.9172,882.4658,86.034,889.5809,87.2067,893.4,81.09" style="stroke:#000000;stroke-width:1.0;"/><polygon fill="#000000" points="210.61,170.65,220.4338,171.3525,215.3123,168.9504,217.7144,163.8289,210.61,170.65" style="stroke:#000000;stroke-width:1.0;"/><text fill="#000000" font-family="sans-serif" font-size="13" lengthAdjust="spacing" textLength="7" x="218.5044" y="163.1481">*</text></g><!--link MiniSocs to Membre--><g id="link_MiniSocs_Membre"><path codeLine="89" d="M929.974,92.677 C913.094,143.897 877.91,253.97 853,358 C839.49,414.44 829.0723,475.2045 822.9023,514.0045 " fill="none" id="MiniSocs-Membre" style="stroke:#000000;stroke-width:1.0;"/><polygon fill="#000000" points="933.73,81.28,928.053,85.7265,929.974,92.677,935.651,88.2305,933.73,81.28" style="stroke:#000000;stroke-width:1.0;"/><polygon fill="#000000" points="821.96,519.93,827.3238,511.6699,822.7452,514.992,819.4231,510.4135,821.96,519.93" style="stroke:#000000;stroke-width:1.0;"/><text fill="#000000" font-family="sans-serif" font-size="13" lengthAdjust="spacing" textLength="7" x="815.2474" y="508.9351">*</text></g><!--link MiniSocs to Message--><g id="link_MiniSocs_Message"><path codeLine="90" d="M945.8455,93.0341 C951.9755,151.3041 965.5621,280.3629 973.1021,352.0129 " fill="none" id="MiniSocs-Message" style="stroke:#000000;stroke-width:1.0;"/><polygon fill="#000000" points="944.59,81.1,941.2397,87.4856,945.8455,93.0341,949.1958,86.6486,944.59,81.1" style="stroke:#000000;stroke-width:1.0;"/><polygon fill="#000000" points="973.73,357.98,976.7661,348.6108,973.2067,353.0075,968.8101,349.448,973.73,357.98" style="stroke:#000000;stroke-width:1.0;"/><text fill="#000000" font-family="sans-serif" font-size="13" lengthAdjust="spacing" textLength="7" x="965.4431" y="346.9234">*</text></g><!--link MiniSocs to ReseauSocial--><g id="link_MiniSocs_ReseauSocial"><path codeLine="91" d="M877.3309,85.8449 C859.3009,93.6649 849.96,97.26 831,104 C738.22,136.99 712.59,137.63 618,165 C599.7,170.29 586.2099,174.2097 567.2199,179.7497 " fill="none" id="MiniSocs-ReseauSocial" style="stroke:#000000;stroke-width:1.0;"/><polygon fill="#000000" points="888.34,81.07,881.2438,79.7877,877.3309,85.8449,884.4271,87.1271,888.34,81.07" style="stroke:#000000;stroke-width:1.0;"/><polygon fill="#000000" points="561.46,181.43,571.2201,182.7494,566.2599,180.0297,568.9796,175.0695,561.46,181.43" style="stroke:#000000;stroke-width:1.0;"/><text fill="#000000" font-family="sans-serif" font-size="13" lengthAdjust="spacing" textLength="7" x="576.8128" y="170.3651">*</text></g><!--link MiniSocs to MonConsommateur--><g id="link_MiniSocs_MonConsommateur"><path codeLine="92" d="M1047.1607,59.2485 C1158.8007,67.0685 1319,98.34 1319,222 C1319,222 1319,222 1319,554.5 C1319,621.68 1261.8138,661.5641 1199.0638,686.8941 " fill="none" id="MiniSocs-MonConsommateur" style="stroke:#000000;stroke-width:1.0;"/><polygon fill="#000000" points="1035.19,58.41,1040.8958,62.8195,1047.1607,59.2485,1041.4548,54.839,1035.19,58.41" style="stroke:#000000;stroke-width:1.0;"/><polygon fill="#000000" points="1193.5,689.14,1203.343,689.4803,1198.1365,687.2684,1200.3484,682.0619,1193.5,689.14" style="stroke:#000000;stroke-width:1.0;"/><text fill="#000000" font-family="sans-serif" font-size="13" lengthAdjust="spacing" textLength="7" x="1201.3609" y="683.6182">*</text></g><!--link MiniSocs to Publication--><g id="link_MiniSocs_Publication"><path codeLine="93" d="M975.8734,89.6763 C1007.8234,120.9663 1049.6132,161.8819 1081.5132,193.1219 " fill="none" id="MiniSocs-Publication" style="stroke:#000000;stroke-width:1.0;"/><polygon fill="#000000" points="967.3,81.28,968.7879,88.3359,975.8734,89.6763,974.3854,82.6203,967.3,81.28" style="stroke:#000000;stroke-width:1.0;"/><polygon fill="#000000" points="1085.8,197.32,1082.1686,188.1651,1082.2277,193.8216,1076.5712,193.8807,1085.8,197.32" style="stroke:#000000;stroke-width:1.0;"/><text fill="#000000" font-family="sans-serif" font-size="13" lengthAdjust="spacing" textLength="7" x="1071.8044" y="186.365">*</text></g><!--link Utilisateur to Membre--><g id="link_Utilisateur_Membre"><path codeLine="94" d="M210.5,272.66 C216.42,275.49 222.28,278.29 228,281 C413.69,369.02 633.96,469.52 745.14,519.98 " fill="none" id="Utilisateur-Membre" style="stroke:#000000;stroke-width:1.0;"/><text fill="#000000" font-family="sans-serif" font-size="13" lengthAdjust="spacing" textLength="8" x="218.4242" y="272.9682">1</text><text fill="#000000" font-family="sans-serif" font-size="13" lengthAdjust="spacing" textLength="7" x="723.3035" y="508.9949">*</text></g><!--link Membre to MonConsommateur--><g id="link_Membre_MonConsommateur"><path codeLine="95" d="M865.69,587.19 C892.35,605.09 921.5378,624.6867 954.1878,646.5967 " fill="none" id="Membre-to-MonConsommateur" style="stroke:#000000;stroke-width:1.0;"/><polygon fill="#000000" points="959.17,649.94,953.9256,641.6036,955.0182,647.1539,949.4678,648.2465,959.17,649.94" style="stroke:#000000;stroke-width:1.0;"/><text fill="#000000" font-family="sans-serif" font-size="13" lengthAdjust="spacing" textLength="8" x="865.9297" y="606.8736">1</text><text fill="#000000" font-family="sans-serif" font-size="13" lengthAdjust="spacing" textLength="8" x="940.0633" y="638.9664">1</text></g><!--link Publication to Message--><g id="link_Publication_Message"><path codeLine="96" d="M1092.23,248.63 C1070.6,277 1038.388,319.2788 1012.608,353.0888 " fill="none" id="Publication-to-Message" style="stroke:#000000;stroke-width:1.0;"/><polygon fill="#000000" points="1008.97,357.86,1017.6079,353.1285,1012.0017,353.884,1011.2462,348.2778,1008.97,357.86" style="stroke:#000000;stroke-width:1.0;"/><polygon fill="#000000" points="1046.969,323.5429,1054.7895,318.1309,1050.1148,314.5677,1046.969,323.5429" style="stroke:#000000;stroke-width:1.0;"/><text fill="#000000" font-family="sans-serif" font-size="13" lengthAdjust="spacing" textLength="72" x="1059" y="324.0669">contient un</text><text fill="#000000" font-family="sans-serif" font-size="13" lengthAdjust="spacing" textLength="8" x="1079.2491" y="268.003">1</text><text fill="#000000" font-family="sans-serif" font-size="13" lengthAdjust="spacing" textLength="8" x="1005.4369" y="346.7836">1</text></g><!--link ReseauSocial to Membre--><g id="link_ReseauSocial_Membre"><path codeLine="97" d="M471.71,264.61 C550.77,330.53 705.47,459.51 777.87,519.88 " fill="none" id="ReseauSocial-Membre" style="stroke:#000000;stroke-width:1.0;"/><polygon fill="#000000" points="680.1597,396.3645,685.2248,404.4141,688.9889,399.8996,680.1597,396.3645" style="stroke:#000000;stroke-width:1.0;"/><text fill="#000000" font-family="sans-serif" font-size="13" lengthAdjust="spacing" textLength="61" x="693" y="404.0669">fait partie</text><text fill="#000000" font-family="sans-serif" font-size="13" lengthAdjust="spacing" textLength="8" x="471.1151" y="284.8062">1</text><text fill="#000000" font-family="sans-serif" font-size="13" lengthAdjust="spacing" textLength="7" x="762.4772" y="508.8752">*</text></g><!--reverse link Message to Membre--><g id="link_Message_Membre"><path codeLine="98" d="M930.4878,445.3496 C904.4078,469.9796 875.97,496.82 851.6,519.83 " fill="none" id="Message-backto-Membre" style="stroke:#000000;stroke-width:1.0;"/><polygon fill="#000000" points="934.85,441.23,925.5603,444.5013,931.2149,444.663,931.0532,450.3176,934.85,441.23" style="stroke:#000000;stroke-width:1.0;"/><polygon fill="#000000" points="911.6356,476.1339,903.0411,480.2064,907.0763,484.4803,911.6356,476.1339" style="stroke:#000000;stroke-width:1.0;"/><text fill="#000000" font-family="sans-serif" font-size="13" lengthAdjust="spacing" textLength="48" x="917" y="484.0669">a post&#233;</text><text fill="#000000" font-family="sans-serif" font-size="13" lengthAdjust="spacing" textLength="7" x="920.4152" y="461.1386">*</text><text fill="#000000" font-family="sans-serif" font-size="13" lengthAdjust="spacing" textLength="8" x="849.6244" y="508.8154">1</text></g><!--link ReseauSocial to Message--><g id="link_ReseauSocial_Message"><path codeLine="99" d="M563.5175,268.1793 C660.0775,298.5393 773.4463,334.1801 864.4563,362.8001 " fill="none" id="ReseauSocial-Message" style="stroke:#000000;stroke-width:1.0;"/><polygon fill="#000000" points="552.07,264.58,556.594,270.1955,563.5175,268.1793,558.9935,262.5638,552.07,264.58" style="stroke:#000000;stroke-width:1.0;"/><polygon fill="#000000" points="870.18,364.6,862.7945,358.0843,865.4103,363.1001,860.3946,365.7159,870.18,364.6" style="stroke:#000000;stroke-width:1.0;"/><polygon fill="#000000" points="760.7698,321.0661,753.0227,315.5495,751.2597,321.1567,760.7698,321.0661" style="stroke:#000000;stroke-width:1.0;"/><text fill="#000000" font-family="sans-serif" font-size="13" lengthAdjust="spacing" textLength="52" x="765" y="324.0669">contient</text><text fill="#000000" font-family="sans-serif" font-size="13" lengthAdjust="spacing" textLength="7" x="855.3528" y="358.6837">*</text></g><!--SRC=[VLLBRjim4Dth50Dlt0PnWMm5mu0YCwY1E1z_qaqsj4JRH2JIvGTjKEG0EKhEuOjrICaAQRjTYHpEl7dpLN_CwKRHkcPGCYWggZNJyEMXei8ifxTV-qdIpwLOyurLr70feDXIPHYWqMxBVrhMJxOSJLczCwzGCxELfMv41LT5nHBzmiMEeey67lua0DUqUDaeQKMPoqeg-B7bXg4yKqh-QaJN5UeuLQbAfaBPc-FKCBs4_OUmzVwZ8OTtPeflIBfnDUM2psNH-1o0aFNOpb-rOJLBOMuK5nj44nBZgTZQW5nt9YbOmokkgM5MuGq9LApm6LX-FZmBnJIZzdUaCFCoHE6qEb09Z5esEyriASLhmAKb6Trt2aCyaXNIAiLP5GcPeIQNM0R4sxztbqE0AscCh5s80PKKArQlC8Q8_zJBaeHXQe5qI30SEibev0F8yiNa1hzZCdV79-9gTNl_k2JeiKs_nud2RL8JyQubrhTbivAoObIu4iTLyKWfg22pQPJdPs73iA8QrKnhkZa9qWkVHO5z8-kwDPnAaGU280btql1rd8F9T4h6aso1nzc4tE7dSNc_c8pT-QrhmXYnJGSleoHeQNMX-CvHmmUxwcvTRRt_DA3YNqhgwdqh2rgDgP-Xinc5jczS7QrgOq-12tFkWOZC62PCgz65yc1N5I-QFT2Dr559JzejC7BjrdfkFIK7wB2MdzWd3NvmHhfpEoIoj4KJCIQlvbgZE-zPRvaQ1Xn6NNCfljdwxff5NVNlYVX_9mMjqW36lN93PjFzEnxkbqzajWY6n5jtRN6cDbW8OU4a5vqc-RmWRCVYW7mqjZbvMBXXdP6RvTmTiiM2t7bHdkNVYT-lcTOk7T5IxRRfnM0mWjv5BvooCw_j6Zdtq70zVOasvnd3e-4yrGWAdOGhjtVLWy4WejKif-PXvB_7y66xHtfjObCO-Ufm71Mm8ebw-CGZgWzXJRa1_1kYJNA0GPMXqxoAD2dif3RxZnZrE8SH1ooRXHNJaejBeFWBreY1mLVCON4NXy1Vdp3zv2y0]--></g></svg>