<?xml version="1.0" encoding="us-ascii" standalone="no"?><svg xmlns="http://www.w3.org/2000/svg" xmlns:xlink="http://www.w3.org/1999/xlink" contentStyleType="text/css" height="338px" preserveAspectRatio="none" style="width:850px;height:338px;background:#FFFFFF;" version="1.1" viewBox="0 0 850 338" width="850px" zoomAndPan="magnify"><defs/><g><rect fill="#FFFFFF" height="200.6953" style="stroke:#181818;stroke-width:1.0;" width="10" x="411.5" y="112.4297"/><rect fill="#FFFFFF" height="25" style="stroke:#181818;stroke-width:1.0;" width="10" x="416.5" y="173.6953"/><rect fill="#FFFFFF" height="16.1641" style="stroke:#181818;stroke-width:1.0;" width="10" x="771.5" y="268.9609"/><rect fill="none" height="172.6953" style="stroke:#000000;stroke-width:1.5;" width="494.5" x="350" y="127.4297"/><rect fill="none" height="72.4297" style="stroke:#000000;stroke-width:1.5;" width="474.5" x="360" y="220.6953"/><line style="stroke:#181818;stroke-width:0.5;stroke-dasharray:5.0,5.0;" x1="75" x2="75" y1="81.2969" y2="331.125"/><line style="stroke:#181818;stroke-width:0.5;stroke-dasharray:5.0,5.0;" x1="416" x2="416" y1="81.2969" y2="331.125"/><line style="stroke:#181818;stroke-width:0.5;stroke-dasharray:5.0,5.0;" x1="776.5" x2="776.5" y1="268.4766" y2="331.125"/><text fill="#000000" font-family="sans-serif" font-size="14" lengthAdjust="spacing" text-decoration="underline" textLength="135" x="5" y="77.9951">adm:Administrateur</text><ellipse cx="75.5" cy="13.5" fill="#FFFFFF" rx="8" ry="8" style="stroke:#181818;stroke-width:0.5;"/><path d="M75.5,21.5 L75.5,48.5 M62.5,29.5 L88.5,29.5 M75.5,48.5 L62.5,63.5 M75.5,48.5 L88.5,63.5 " fill="none" style="stroke:#181818;stroke-width:0.5;"/><rect fill="#FFFFFF" height="30.2969" rx="2.5" ry="2.5" style="stroke:#181818;stroke-width:0.5;" width="93" x="370" y="50"/><text fill="#000000" font-family="sans-serif" font-size="14" lengthAdjust="spacing" text-decoration="underline" textLength="79" x="377" y="69.9951">m:MiniSocs</text><rect fill="#FFFFFF" height="200.6953" style="stroke:#181818;stroke-width:1.0;" width="10" x="411.5" y="112.4297"/><rect fill="#FFFFFF" height="25" style="stroke:#181818;stroke-width:1.0;" width="10" x="416.5" y="173.6953"/><rect fill="#FFFFFF" height="16.1641" style="stroke:#181818;stroke-width:1.0;" width="10" x="771.5" y="268.9609"/><polygon fill="#181818" points="399.5,108.4297,409.5,112.4297,399.5,116.4297,403.5,112.4297" style="stroke:#181818;stroke-width:1.0;"/><line style="stroke:#181818;stroke-width:1.0;" x1="75.5" x2="405.5" y1="112.4297" y2="112.4297"/><text fill="#000000" font-family="sans-serif" font-size="13" lengthAdjust="spacing" textLength="317" x="82.5" y="107.3638">ajouterUtilisateur(pseudo, nom, pr&#233;nom, courriel)</text><path d="M350,127.4297 L420,127.4297 L420,134.5625 L410,144.5625 L350,144.5625 L350,127.4297 " fill="#EEEEEE" style="stroke:#000000;stroke-width:1.5;"/><rect fill="none" height="172.6953" style="stroke:#000000;stroke-width:1.5;" width="494.5" x="350" y="127.4297"/><text fill="#000000" font-family="sans-serif" font-size="13" font-weight="bold" lengthAdjust="spacing" textLength="25" x="365" y="140.4966">opt</text><text fill="#000000" font-family="sans-serif" font-size="11" font-weight="bold" lengthAdjust="spacing" textLength="333" x="435" y="139.6401">[pseudo, nom, pr&#233;nom, courriel non null &#8743; non vide]</text><line style="stroke:#181818;stroke-width:1.0;" x1="421.5" x2="468.5" y1="160.6953" y2="160.6953"/><line style="stroke:#181818;stroke-width:1.0;" x1="468.5" x2="468.5" y1="160.6953" y2="173.6953"/><line style="stroke:#181818;stroke-width:1.0;" x1="427.5" x2="468.5" y1="173.6953" y2="173.6953"/><polygon fill="#181818" points="437.5,169.6953,427.5,173.6953,437.5,177.6953,433.5,173.6953" style="stroke:#181818;stroke-width:1.0;"/><text fill="#000000" font-family="sans-serif" font-size="13" lengthAdjust="spacing" textLength="270" x="433.5" y="155.6294">u=chercherUtilisateur(pseudo): Utilisateur</text><line style="stroke:#181818;stroke-width:1.0;stroke-dasharray:2.0,2.0;" x1="426.5" x2="468.5" y1="197.6953" y2="197.6953"/><line style="stroke:#181818;stroke-width:1.0;stroke-dasharray:2.0,2.0;" x1="468.5" x2="468.5" y1="197.6953" y2="210.6953"/><line style="stroke:#181818;stroke-width:1.0;stroke-dasharray:2.0,2.0;" x1="421.5" x2="468.5" y1="210.6953" y2="210.6953"/><polygon fill="#181818" points="431.5,206.6953,421.5,210.6953,431.5,214.6953,427.5,210.6953" style="stroke:#181818;stroke-width:1.0;"/><path d="M360,220.6953 L430,220.6953 L430,227.8281 L420,237.8281 L360,237.8281 L360,220.6953 " fill="#EEEEEE" style="stroke:#000000;stroke-width:1.5;"/><rect fill="none" height="72.4297" style="stroke:#000000;stroke-width:1.5;" width="474.5" x="360" y="220.6953"/><text fill="#000000" font-family="sans-serif" font-size="13" font-weight="bold" lengthAdjust="spacing" textLength="25" x="375" y="233.7622">opt</text><text fill="#000000" font-family="sans-serif" font-size="11" font-weight="bold" lengthAdjust="spacing" textLength="68" x="445" y="232.9058">[u == null]</text><polygon fill="#181818" points="716.5,254.9609,726.5,258.9609,716.5,262.9609,720.5,258.9609" style="stroke:#181818;stroke-width:1.0;"/><line style="stroke:#181818;stroke-width:1.0;" x1="421.5" x2="722.5" y1="258.9609" y2="258.9609"/><text fill="#000000" font-family="sans-serif" font-size="13" lengthAdjust="spacing" textLength="283" x="428.5" y="253.895">u=&#171;create(pseudo, nom, pr&#233;nom, courriel)&#187;</text><rect fill="#FFFFFF" height="30.2969" rx="2.5" ry="2.5" style="stroke:#181818;stroke-width:0.5;" width="96" x="728.5" y="237.8281"/><text fill="#000000" font-family="sans-serif" font-size="14" lengthAdjust="spacing" text-decoration="underline" textLength="82" x="735.5" y="257.8232">u:Utilisateur</text><polygon fill="#181818" points="432.5,281.125,422.5,285.125,432.5,289.125,428.5,285.125" style="stroke:#181818;stroke-width:1.0;"/><line style="stroke:#181818;stroke-width:1.0;stroke-dasharray:2.0,2.0;" x1="426.5" x2="775.5" y1="285.125" y2="285.125"/><polygon fill="#181818" points="86.5,309.125,76.5,313.125,86.5,317.125,82.5,313.125" style="stroke:#181818;stroke-width:1.0;"/><line style="stroke:#181818;stroke-width:1.0;stroke-dasharray:2.0,2.0;" x1="80.5" x2="415.5" y1="313.125" y2="313.125"/><!--SRC=[XL5BJWCn3Dtd51QRQKNX0AEs4fGbI4XLnR8o6TC9v3FaK_K878CTwZdc9fm49osq4hz5bDXwFplLbSALHsC86eBGRvyJMKamkDLeu-BcUbW9KSsSVL2hv34gPq6sw2C1qxfMCRuIhMBoWtFntcr4U5AsGzQ4G3krMyOhgJfMl4JvjF8ksMRcjFDmrwf8Fr0kP7J-Px2ehlgjrBXFqr00b96I3q2nbDt1By2WwRUF_IlGHeLOEhZc2pGUnir3OdQ4a-KI6rDVD4PPnhC72o-N9u3Coqrn99xHfhvXvDp9i4SP3ZZ_sYEkIOBcJ8P2m1M5KQcaxxSbViXhFyuxuY7aUSwJtU1i2WPEJw46V7Gfabz4fLKeiGPTeDIu4LXdHj2nP7b8bxnNf8V2TH7-nd3RWarQm_lBModM_9K2sFJWd2Qo9P_FT_DX3KTD9dgAoLj-PFC4aqcHvnfuQ69KNbggZqZxlQM2ARw_8JxZZCSxgVyMC9qMpQz8P1kHpwxn0G00]--></g></svg>